<?xml version="1.0" standalone="no"?>
<!DOCTYPE svg PUBLIC "-//W3C//DTD SVG 1.1//EN" "http://www.w3.org/Graphics/SVG/1.1/DTD/svg11.dtd" >
<svg xmlns="http://www.w3.org/2000/svg" xmlns:xlink="http://www.w3.org/1999/xlink" version="1.1">
<metadata>
Created by FontForge 20170731 at Mon Dec  2 16:30:55 2019
 By Aleksey,,,
Copyright 2017 The Literata Project Authors (https://github.com/googlefonts/literata)
</metadata>
<defs>
<font id="Literata-Regular" horiz-adv-x="500" >
  <font-face 
    font-family="Literata"
    font-weight="400"
    font-stretch="normal"
    units-per-em="1000"
    panose-1="0 0 5 0 0 0 0 0 0 0"
    ascent="800"
    descent="-200"
    x-height="507"
    cap-height="700"
    bbox="-365 -268 1428 1137"
    underline-thickness="50"
    underline-position="-200"
    unicode-range="U+000D-FB02"
  />
<missing-glyph 
d="M50 700h400v-700h-400v700zM110 640v-580h280v580h-280z" />
    <glyph glyph-name="fi" unicode="fi" horiz-adv-x="665" 
d="M41 0v48l57 9q20 3 25.5 14.5t5.5 36.5v336h-80v50l80 10v21q0 257 244 257q66 0 113 -30t47 -76q0 -27 -16 -46.5t-44 -19.5q-26 0 -40.5 15t-14.5 34q0 17 25 49q-36 22 -74 22q-73 0 -110 -32t-37 -119v-72h319l12 -5v-397q0 -23 6 -33t26 -14l56 -10v-48h-255v46
l43 8q21 4 26 13.5t5 41.5v273q0 37 -7.5 49.5t-36.5 12.5h-194v-343q0 -24 4.5 -32t24.5 -12l54 -10v-47h-264z" />
    <glyph glyph-name="fl" unicode="fl" horiz-adv-x="665" 
d="M41 0v48l57 9q20 3 25.5 14.5t5.5 36.5v338h-80v50l80 10v19q0 129 63.5 193t151.5 64t138 -45l60 29l11 -11v-650q0 -23 6 -33t26 -14l56 -10v-48h-255v46l43 8q21 4 26 13.5t5 41.5v476q0 70 -30.5 107.5t-84.5 37.5q-56 0 -89.5 -33t-33.5 -118v-72h161v-61h-161v-345
q0 -24 4.5 -32t24.5 -12l54 -10v-47h-264z" />
    <glyph glyph-name="f_f" unicode="ff" horiz-adv-x="718" 
d="M41 0v48l57 9q20 3 25.5 14.5t5.5 36.5v338h-80v50l80 10v9q0 118 64 179.5t151 61.5q89 0 146 -65q47 91 154 91q60 0 100 -25.5t40 -70.5q0 -27 -16 -46.5t-44 -19.5q-55 0 -55 39q0 17 25 59q-23 12 -54 12q-45 0 -66 -30.5t-21 -100.5v-92h146v-63h-146v-340
q0 -23 6 -32.5t26 -12.5l87 -11v-48h-286v46l43 8q20 4 25.5 13.5t5.5 34.5v344h-238v-345q0 -24 4.5 -32t24.5 -12l54 -10v-47h-264zM222 507h238v52q0 70 -30.5 107.5t-84.5 37.5q-56 0 -89.5 -33t-33.5 -118v-46z" />
    <glyph glyph-name="f_f_i" unicode="ffi" horiz-adv-x="996" 
d="M916 58l56 -10v-48h-255v46l43 8q21 4 26 13.5t5 41.5v273q0 37 -7.5 50.5t-36.5 13.5h-194v-345q0 -24 4.5 -32t24.5 -12l54 -10v-47h-250v46l43 8q20 4 25.5 13.5t5.5 34.5v344h-238v-345q0 -24 4.5 -32t24.5 -12l54 -10v-47h-264v48l57 9q20 3 25.5 14.5t5.5 36.5v338
h-80v50l80 10v9q0 118 64 179.5t151 61.5q92 0 152 -72q57 98 200 98q72 0 120 -30t48 -76q0 -27 -16 -46.5t-44 -19.5q-26 0 -40.5 15t-14.5 34q0 15 25 49q-36 22 -86 22q-65 0 -100 -32.5t-35 -118.5v-72h319l12 -5v-397q0 -23 6 -33t26 -14zM222 507h238v52
q0 70 -30.5 107.5t-84.5 37.5q-56 0 -89.5 -33t-33.5 -118v-46z" />
    <glyph glyph-name="f_f_l" unicode="ffl" horiz-adv-x="996" 
d="M916 58l56 -10v-48h-255v46l43 8q21 4 26 13.5t5 41.5v476q0 70 -30.5 107.5t-84.5 37.5q-56 0 -89.5 -33t-33.5 -118v-72h161v-61h-161v-345q0 -24 5 -32t24 -12l54 -10v-47h-250v46l43 8q20 4 25.5 13.5t5.5 33.5v345h-238v-345q0 -24 5 -32t24 -12l54 -10v-47h-264v48
l57 9q20 3 25.5 14.5t5.5 36.5v338h-80v50l80 10v9q0 118 64 179.5t151 61.5q95 0 154 -74q59 100 177 100q88 0 138 -45l60 29l11 -11v-650q0 -23 6 -33t26 -14zM222 507h238v52q0 70 -30.5 107.5t-84.5 37.5q-56 0 -89.5 -33t-33.5 -118v-46z" />
    <glyph glyph-name=".notdef" 
d="M50 700h400v-700h-400v700zM110 640v-580h280v580h-280z" />
    <glyph glyph-name=".null" horiz-adv-x="0" 
 />
    <glyph glyph-name="nonmarkingreturn" horiz-adv-x="333" 
 />
    <glyph glyph-name="CR" unicode="&#xd;" horiz-adv-x="0" 
 />
    <glyph glyph-name="space" unicode=" " horiz-adv-x="200" 
 />
    <glyph glyph-name="exclam" unicode="!" horiz-adv-x="321" 
d="M132 193v72q0 88 -18.5 220t-18.5 164q0 30 19 47.5t51 17.5q64 0 64 -64q0 -25 -20.5 -156.5t-20.5 -229.5v-71h-56zM161 -14q-31 0 -51 19.5t-20 49.5q0 31 20 51t51 20t50.5 -19.5t19.5 -50.5q0 -30 -19.5 -50t-50.5 -20z" />
    <glyph glyph-name="quotedbl" unicode="&#x22;" horiz-adv-x="386" 
d="M98 549l-26 158q-2 12 -2 19q0 23 14.5 39.5t38.5 16.5q16 0 29 -10.5t13 -26.5q0 -10 -3 -26l-30 -170h-34zM249 549l-26 158q-2 12 -2 19q0 23 14.5 39.5t38.5 16.5q16 0 29 -10.5t13 -26.5q0 -10 -3 -26l-30 -170h-34z" />
    <glyph glyph-name="numbersign" unicode="#" horiz-adv-x="674" 
d="M147 0l21 140h-123l11 51h121l27 176h-125l10 52h123l20 131h54l-20 -131h184l19 131h55l-20 -131h125l-9 -52h-123l-27 -176h130l-9 -51h-129l-22 -140h-54l22 140h-185l-22 -140h-54zM231 191h185l27 176h-186z" />
    <glyph glyph-name="dollar" unicode="$" horiz-adv-x="598" 
d="M540 200q0 -88 -57 -147.5t-147 -65.5v-67h-51v68q-92 10 -149 65l-16 -59h-44l-20 216l57 5q54 -148 172 -163v262q-113 36 -158.5 82t-45.5 125q0 84 56 137t148 56v74h51v-78q64 -11 107 -48l13 52h47l22 -202l-56 -8q-39 132 -133 151v-247q113 -39 158.5 -85.5
t45.5 -122.5zM178 549q0 -42 24 -70t83 -52v232q-49 -4 -78 -34t-29 -76zM336 51q52 5 79.5 34.5t27.5 79.5q0 46 -24.5 76.5t-82.5 54.5v-245z" />
    <glyph glyph-name="percent" unicode="%" horiz-adv-x="851" 
d="M202 274q-72 0 -113.5 43t-41.5 112q0 86 46 127t114 41q66 0 109.5 -39t43.5 -113q0 -81 -45 -126t-113 -45zM204 -14l363 611h74l-362 -611h-75zM207 331q73 0 73 104q0 51 -21 79t-59 28q-34 0 -54.5 -26t-20.5 -76q0 -49 22 -79t60 -30zM646 -14q-72 0 -113.5 43
t-41.5 112q0 86 46 127t114 41q66 0 109.5 -39t43.5 -113q0 -81 -45 -126t-113 -45zM651 43q73 0 73 104q0 51 -21 79t-59 28q-34 0 -54.5 -26t-20.5 -76q0 -49 22 -79t60 -30z" />
    <glyph glyph-name="ampersand" unicode="&#x26;" horiz-adv-x="810" 
d="M289 -14q-104 0 -169.5 52.5t-65.5 142.5q0 137 156 202q-82 82 -82 161q0 80 51.5 125t134.5 45q67 0 108.5 -39.5t41.5 -101.5q0 -115 -130 -179l157 -163q32 145 82 200.5t111 55.5q32 0 54.5 -19t22.5 -50q0 -25 -13.5 -43t-35.5 -18q-20 0 -32 12.5t-26 49.5
q-32 -7 -66 -61t-54 -170q57 -56 88 -76t56 -20q27 0 77 37l20 -34q-34 -47 -62 -67.5t-65 -20.5q-59 0 -150 88q-28 -48 -81 -78.5t-128 -30.5zM300 426q99 53 99 144q0 45 -25 67t-66 22q-42 0 -67.5 -24.5t-25.5 -66.5q0 -37 21.5 -69t63.5 -73zM310 45q103 0 146 88
l-214 216q-86 -47 -86 -151q0 -73 42 -113t112 -40z" />
    <glyph glyph-name="quotesingle" unicode="'" horiz-adv-x="235" 
d="M98 549l-26 158q-2 12 -2 19q0 23 14.5 39.5t38.5 16.5q16 0 29 -10.5t13 -26.5q0 -10 -3 -26l-30 -170h-34z" />
    <glyph glyph-name="parenleft" unicode="(" horiz-adv-x="332" 
d="M265 -204q-80 84 -135.5 220t-55.5 290q0 155 58.5 292t137.5 219l36 -20q-62 -103 -100 -230t-38 -250q0 -246 134 -500z" />
    <glyph glyph-name="parenright" unicode=")" horiz-adv-x="332" 
d="M62 -204l-36 20q62 103 100 230t38 250q0 246 -134 500l37 21q80 -84 135.5 -220t55.5 -290q0 -155 -58.5 -292t-137.5 -219z" />
    <glyph glyph-name="asterisk" unicode="*" horiz-adv-x="449" 
d="M218 407q-41 0 -32 49l22 113l-81 -70q-15 -15 -33.5 -16.5t-32.5 18.5q-10 23 -2.5 35.5t26.5 18.5l109 40l-99 36q-54 19 -31 61q9 18 26.5 18t31.5 -13l87 -77l-19 104q-5 25 5.5 41.5t34.5 16.5q19 0 27.5 -13.5t3.5 -34.5l-23 -115l82 70q18 15 38 15t31 -20
q21 -34 -27 -51l-110 -39l100 -38q22 -8 31 -24.5t-1 -38.5q-11 -18 -26 -17t-31 15l-87 77l19 -103q4 -23 -5.5 -40.5t-33.5 -17.5z" />
    <glyph glyph-name="plus" unicode="+" horiz-adv-x="582" 
d="M254 81v195h-177v63h177v182h67v-182h184v-63h-184v-195h-67z" />
    <glyph glyph-name="comma" unicode="," horiz-adv-x="328" 
d="M115 -168l-29 37q81 62 87 131h-24q-62 0 -62 55q0 32 20 53t53 21q42 0 63.5 -28t21.5 -70q0 -49 -34 -106t-96 -93z" />
    <glyph glyph-name="hyphen" unicode="-" horiz-adv-x="354" 
d="M44 247v82h267v-82h-267z" />
    <glyph glyph-name="period" unicode="." horiz-adv-x="333" 
d="M166 -17q-33 0 -54.5 21t-21.5 54t21.5 54.5t54.5 21.5q34 0 55.5 -21t21.5 -54t-21.5 -54.5t-55.5 -21.5z" />
    <glyph glyph-name="slash" unicode="/" horiz-adv-x="428" 
d="M20 -110l325 912h63l-324 -912h-64z" />
    <glyph glyph-name="zero" unicode="0" horiz-adv-x="578" 
d="M287 -13q-120 0 -187 98t-67 254q0 100 22 175t60.5 117.5t83.5 62.5t97 20q107 0 178 -90t71 -261q0 -178 -73 -277t-185 -99zM296 50q145 0 145 298q0 306 -155 306q-150 0 -150 -298q0 -142 41.5 -224t118.5 -82z" />
    <glyph glyph-name="one" unicode="1" horiz-adv-x="407" 
d="M39 0v48l90 15q20 4 26.5 15t6.5 34v451q0 34 -7 45t-36 15l-84 7l6 47l209 35l11 -11v-592q0 -24 6.5 -33t27.5 -13l87 -15v-48h-343z" />
    <glyph glyph-name="two" unicode="2" horiz-adv-x="507" 
d="M38 0l-8 67q199 205 259.5 290t60.5 161q0 60 -32.5 95t-89.5 35q-38 0 -66.5 -12t-39.5 -31q27 -41 27 -56q0 -18 -16.5 -34.5t-40.5 -16.5q-33 0 -50 20.5t-17 49.5q0 57 62 101.5t155 44.5q94 0 153.5 -52.5t59.5 -142.5q0 -79 -67 -172t-250 -258h150q64 0 83 16.5
t48 91.5h53l-19 -197h-415z" />
    <glyph glyph-name="three" unicode="3" horiz-adv-x="542" 
d="M251 -13q-160 0 -226 132l45 36q68 -89 174 -89q65 0 100.5 38t35.5 93q0 136 -177 136l6 54q75 8 115 50.5t40 100.5q0 49 -30.5 79.5t-84.5 30.5q-34 0 -62 -12.5t-39 -31.5q27 -40 27 -56q0 -18 -16.5 -34.5t-40.5 -16.5q-33 0 -50 20.5t-17 49.5q0 57 58.5 102
t150.5 45q93 0 147.5 -46t54.5 -128q0 -58 -38.5 -104t-97.5 -65v-3q161 -33 161 -174q0 -93 -68 -150t-168 -57z" />
    <glyph glyph-name="four" unicode="4" horiz-adv-x="551" 
d="M200 0v44l90 15q20 4 26.5 15t6.5 34v63h-304l-9 50l313 474l88 15l11 -9v-462h109v-68h-109v-66q0 -24 6.5 -33.5t27.5 -13.5l57 -10v-48h-313zM94 239h229v343z" />
    <glyph glyph-name="five" unicode="5" horiz-adv-x="508" 
d="M236 -14q-154 0 -221 132l46 36q69 -89 171 -89q65 0 101.5 44t36.5 121q0 62 -35.5 101.5t-99.5 39.5q-62 0 -134 -40l-33 35l34 334h349l-1 -28l-23 -70h-270l-22 -196q65 38 134 38q94 0 150 -57.5t56 -148.5q0 -121 -64.5 -186.5t-174.5 -65.5z" />
    <glyph glyph-name="six" unicode="6" horiz-adv-x="537" 
d="M268 -13q-63 0 -109.5 23t-73.5 65t-39.5 95.5t-12.5 120.5q0 66 10 125.5t33.5 114.5t58 95t86.5 64t117 24q62 0 115.5 -30.5t53.5 -85.5q0 -27 -18 -46.5t-45 -19.5q-28 0 -45 13.5t-17 29.5q0 17 24 56q-20 20 -78 20q-49 0 -86.5 -26.5t-58.5 -71t-32.5 -90.5
t-14.5 -95q22 36 65.5 60.5t99.5 24.5q89 0 144 -58.5t55 -160.5q0 -120 -63.5 -183.5t-168.5 -63.5zM271 41q131 0 131 182q0 162 -127 162q-57 0 -98.5 -37t-41.5 -107q0 -200 136 -200z" />
    <glyph glyph-name="seven" unicode="7" horiz-adv-x="507" 
d="M173 -11l-13 10q0 323 244 612h-207q-64 0 -85.5 -17t-44.5 -83h-52l18 189h451l8 -64q-115 -152 -166 -297t-51 -339z" />
    <glyph glyph-name="eight" unicode="8" horiz-adv-x="551" 
d="M267 -13q-106 0 -173 47t-67 137q0 143 161 195q-74 37 -103 76.5t-29 96.5q0 69 57 122t160 53q100 0 156.5 -42t56.5 -109q0 -113 -121 -174q152 -67 152 -195q0 -97 -74 -152t-176 -55zM312 410q37 25 59.5 62t22.5 77q0 52 -36.5 81t-88.5 29t-86.5 -26t-34.5 -75
q0 -44 35 -77t129 -71zM276 45q65 0 101.5 34t36.5 96q0 60 -42.5 97t-135.5 67q-110 -56 -110 -159q0 -63 40.5 -99t109.5 -36z" />
    <glyph glyph-name="nine" unicode="9" horiz-adv-x="523" 
d="M224 -14q-58 0 -111.5 23.5t-87.5 68.5l38 41q66 -57 157 -57q151 0 167 269q-56 -85 -159 -85q-93 0 -149 57.5t-56 156.5q0 123 65 188.5t171 65.5q122 0 176.5 -82.5t54.5 -218.5q0 -217 -64 -322t-202 -105zM249 319q59 0 99 38t40 125q0 77 -32 127.5t-101 50.5
q-132 0 -132 -183q0 -158 126 -158z" />
    <glyph glyph-name="colon" unicode=":" horiz-adv-x="333" 
d="M166 370q-33 0 -54.5 21t-21.5 54t21.5 54.5t54.5 21.5q34 0 55.5 -21t21.5 -54t-21.5 -54.5t-55.5 -21.5zM166 -17q-33 0 -54.5 21t-21.5 54t21.5 54.5t54.5 21.5q34 0 55.5 -21t21.5 -54t-21.5 -54.5t-55.5 -21.5z" />
    <glyph glyph-name="semicolon" unicode=";" horiz-adv-x="328" 
d="M159 370q-33 0 -54.5 21t-21.5 54t21.5 54.5t54.5 21.5q34 0 55.5 -21t21.5 -54t-21.5 -54.5t-55.5 -21.5zM115 -168l-29 37q81 62 87 131h-24q-62 0 -62 55q0 32 20 53t53 21q42 0 63.5 -28t21.5 -70q0 -49 -34 -106t-96 -93z" />
    <glyph glyph-name="less" unicode="&#x3c;" horiz-adv-x="582" 
d="M448 37l-378 226v42l378 227l30 -52l-330 -195l330 -194z" />
    <glyph glyph-name="equal" unicode="=" horiz-adv-x="582" 
d="M77 362v63h428v-63h-428zM77 182v63h428v-63h-428z" />
    <glyph glyph-name="greater" unicode="&#x3e;" horiz-adv-x="582" 
d="M134 37l-30 54l330 194l-330 195l30 52l378 -227v-42z" />
    <glyph glyph-name="question" unicode="?" horiz-adv-x="538" 
d="M215 194v123q0 29 15 55t54 65q41 41 57 67.5t16 55.5q0 46 -29.5 73t-79.5 27q-64 0 -96 -38q32 -44 32 -62t-18 -33t-42 -15q-59 0 -59 60q0 58 59.5 100t137.5 42q87 0 139 -44.5t52 -118.5q0 -49 -25.5 -89.5t-69.5 -84.5q-55 -57 -71 -78.5t-16 -41.5v-63h-56z
M244 -14q-31 0 -51 19.5t-20 49.5q0 31 20 51t51 20t50.5 -19.5t19.5 -50.5q0 -30 -19.5 -50t-50.5 -20z" />
    <glyph glyph-name="at" unicode="@" horiz-adv-x="849" 
d="M410 -183q-72 0 -134 21.5t-113 64.5t-80 115t-29 166q0 167 104 275.5t282 108.5q166 0 260.5 -82.5t94.5 -241.5q0 -126 -57.5 -190.5t-143.5 -64.5q-49 0 -63 22t-11 72l6 127h-4l-21 -73q-21 -73 -56 -110.5t-81 -37.5q-133 0 -133 158q0 124 55.5 186t138.5 62
q63 0 104 -23l52 22l14 -6l-10 -287q-1 -26 0 -35t8.5 -15.5t25.5 -6.5q48 0 81.5 51.5t33.5 141.5q0 132 -73.5 204.5t-220.5 72.5q-140 0 -230.5 -87t-90.5 -241q0 -86 27 -150t72 -98t94 -50t102 -16q118 0 207 72l32 -39q-91 -88 -243 -88zM373 52q32 0 58 39.5
t54 131.5l32 107q-37 17 -82 17q-62 0 -93 -57t-31 -137q0 -101 62 -101z" />
    <glyph glyph-name="A" unicode="A" horiz-adv-x="735" 
d="M15 0v48l48 8q18 4 26 13.5t20 40.5l211 590h106l209 -591q11 -29 17.5 -37.5t26.5 -13.5l41 -8v-50h-267v48l58 7q20 3 24.5 13.5t-5.5 36.5l-43 126h-268l-42 -122q-9 -26 -4 -37.5t27 -16.5l57 -8v-47h-242zM239 288h229l-111 329h-4z" />
    <glyph glyph-name="B" unicode="B" horiz-adv-x="660" 
d="M62 0v48l58 9q19 3 25 13t6 38v488q0 25 -6.5 34t-26.5 13l-56 9v48h255q133 0 196 -40.5t63 -125.5q0 -55 -40.5 -99.5t-104.5 -59.5v-5q91 -8 138 -51.5t47 -119.5q0 -95 -76.5 -147t-216.5 -52h-261zM305 389q78 0 121 37t43 104q0 62 -37.5 89t-123.5 27h-58v-255
q13 -2 55 -2zM321 55q92 0 140 37.5t48 109.5q0 135 -184 135q-50 0 -75 -4v-273q23 -5 71 -5z" />
    <glyph glyph-name="C" unicode="C" horiz-adv-x="699" 
d="M385 -14q-151 0 -243 100t-92 265q0 163 87.5 263t230.5 100q105 0 166 -61l10 63h49l39 -233l-54 -12q-31 95 -80 137.5t-128 42.5q-104 0 -158.5 -76.5t-54.5 -222.5q0 -133 66 -215t172 -82q65 0 114 27t89 85l47 -34q-41 -68 -110.5 -107.5t-149.5 -39.5z" />
    <glyph glyph-name="D" unicode="D" horiz-adv-x="765" 
d="M62 0v48l58 9q19 3 25 13t6 38v488q0 25 -6.5 34t-26.5 13l-56 9v48h287q178 0 272 -84.5t94 -243.5q0 -175 -104.5 -273.5t-289.5 -98.5h-259zM322 55q147 0 216.5 75.5t69.5 233.5q0 138 -68 210t-199 72h-91v-586q23 -5 72 -5z" />
    <glyph glyph-name="E" unicode="E" horiz-adv-x="637" 
d="M62 0v48l58 9q19 3 25 13t6 38v488q0 26 -6.5 35t-26.5 12l-56 9v48h463l37 -163l-52 -17q-30 79 -60 102.5t-103 23.5h-97v-259h87q53 0 66 11.5t27 70.5l46 6v-227l-46 -8q-9 58 -24 71.5t-69 13.5h-87v-271h129q72 0 100.5 24.5t49.5 105.5h55l-24 -184h-498z" />
    <glyph glyph-name="F" unicode="F" horiz-adv-x="615" 
d="M62 0v48l58 9q19 3 25 13t6 38v488q0 26 -6.5 35t-26.5 12l-56 9v48h474l36 -179l-52 -18q-34 91 -64.5 117t-101.5 26h-104v-279h87q55 0 68 11.5t25 70.5l46 6v-247l-46 -8q-11 73 -25 89t-68 16h-87v-199q0 -27 7.5 -37.5t29.5 -12.5l70 -8v-48h-295z" />
    <glyph glyph-name="G" unicode="G" horiz-adv-x="751" 
d="M371 -14q-144 0 -232.5 97.5t-88.5 256.5q0 169 87 271.5t231 102.5q108 0 169 -61l10 63h49l46 -233l-55 -12q-30 93 -81.5 136.5t-131.5 43.5q-106 0 -161.5 -77.5t-55.5 -224.5q0 -134 60.5 -215.5t160.5 -81.5q111 0 162 68v110q0 25 -6.5 34t-26.5 13l-60 9v48h271
v-48l-53 -9q-18 -3 -24 -13.5t-6 -37.5v-229h-43l-26 47q-81 -58 -195 -58z" />
    <glyph glyph-name="H" unicode="H" horiz-adv-x="839" 
d="M62 0v48l58 9q19 3 25 13t6 38v488q0 25 -6.5 34t-26.5 13l-56 9v48h276v-48l-58 -9q-18 -3 -24 -13.5t-6 -37.5v-201h340v205q0 25 -6.5 34t-26.5 13l-55 9v48h275v-48l-57 -9q-19 -3 -25 -13t-6 -38v-488q0 -25 6.5 -34t26.5 -13l55 -9v-48h-275v48l57 9q19 3 25 13
t6 38v220h-340v-224q0 -25 6 -34t26 -13l56 -9v-48h-276z" />
    <glyph glyph-name="I" unicode="I" horiz-adv-x="409" 
d="M62 0v48l62 9q19 3 25 13t6 38v488q0 25 -6.5 34t-26.5 13l-60 9v48h285v-48l-63 -9q-18 -3 -24 -13.5t-6 -37.5v-488q0 -25 6 -34t26 -13l61 -9v-48h-285z" />
    <glyph glyph-name="J" unicode="J" horiz-adv-x="557" 
d="M219 -14q-79 0 -129 34.5t-50 87.5q0 35 21.5 58.5t53.5 23.5q30 0 46.5 -12t16.5 -33t-30 -71q26 -24 77 -24q54 0 79.5 37t25.5 114v393q0 26 -6.5 35t-26.5 12l-70 10v49h295v-48l-63 -9q-18 -2 -24 -12.5t-6 -38.5v-368q0 -113 -55 -175.5t-155 -62.5z" />
    <glyph glyph-name="K" unicode="K" horiz-adv-x="754" 
d="M632 -14q-54 0 -90.5 22.5t-70.5 76.5l-157 251l-60 -61v-171q0 -25 6 -34t26 -13l61 -9v-48h-285v48l62 9q19 3 25 13t6 38v488q0 25 -6.5 34t-26.5 13l-60 9v48h285v-48l-63 -9q-18 -2 -24 -12.5t-6 -38.5v-242l243 243q16 17 12.5 31.5t-25.5 18.5l-48 8l10 49h237
v-50l-38 -8q-28 -6 -68 -46l-194 -195l175 -265q33 -50 57 -66.5t65 -16.5q18 0 45 9l10 -36q-38 -40 -103 -40z" />
    <glyph glyph-name="L" unicode="L" horiz-adv-x="637" 
d="M62 0v48l58 9q19 3 25 13t6 38v488q0 25 -6.5 34t-26.5 13l-56 9v48h286v-48l-66 -9q-20 -4 -26 -13t-6 -34v-541h113q68 0 98.5 30.5t60.5 128.5h55l-25 -214h-490z" />
    <glyph glyph-name="M" unicode="M" horiz-adv-x="1003" 
d="M63 0v48l57 9q13 2 20 9.5t8.5 15t2.5 26.5l30 488q0 25 -6 34t-26 13l-56 9v48h232l171 -507l4 10l179 497h231v-48l-63 -9q-18 -2 -24 -12.5t-6 -38.5l30 -488q0 -25 6 -34t26 -13l61 -9v-48h-285v48l62 9q19 3 25 13t6 38l-30 506v8l-187 -509h-100l-180 510v-8
l-30 -511q-2 -25 4.5 -34t27.5 -13l56 -9v-48h-246z" />
    <glyph glyph-name="N" unicode="N" horiz-adv-x="835" 
d="M62 0v48l58 9q18 3 24 13.5t6 37.5v488q0 25 -6 34t-26 13l-56 9v48h222l332 -571v467q0 25 -6.5 34t-26.5 13l-55 9v48h245v-48l-57 -9q-19 -3 -25 -13t-6 -38v-592h-103l-362 609v-505q0 -25 6 -34t26 -13l56 -9v-48h-246z" />
    <glyph glyph-name="O" unicode="O" horiz-adv-x="760" 
d="M378 -14q-148 0 -238 96t-90 254q0 173 91.5 275.5t245.5 102.5q146 0 234.5 -95t88.5 -251q0 -171 -91.5 -276.5t-240.5 -105.5zM390 53q103 0 157 75.5t54 220.5q0 142 -60 221.5t-167 79.5q-104 0 -161 -76.5t-57 -216.5t63 -222t171 -82z" />
    <glyph glyph-name="P" unicode="P" horiz-adv-x="602" 
d="M62 0v48l58 9q19 3 25 13t6 38v488q0 25 -6.5 34t-26.5 13l-56 9v48h246q269 0 269 -198q0 -101 -68.5 -163t-179.5 -62q-62 0 -79 5v-176q0 -27 7.5 -37t29.5 -13l70 -8v-48h-295zM308 331q162 0 162 168q0 76 -40.5 111.5t-128.5 35.5h-51v-310q17 -5 58 -5z" />
    <glyph glyph-name="Q" unicode="Q" horiz-adv-x="769" 
d="M689 -191q-65 0 -116 44t-103 145q-43 -12 -92 -12q-148 0 -238 96t-90 254q0 173 91.5 275.5t245.5 102.5q146 0 234.5 -95t88.5 -251q0 -112 -40 -198t-114 -134q50 -70 87 -100t74 -30q71 0 141 49l20 -30q-50 -63 -93.5 -89.5t-95.5 -26.5zM517 94q84 72 84 255
q0 142 -60 221.5t-167 79.5q-104 0 -161 -76.5t-57 -216.5q0 -98 27 -161q59 53 130 53q50 0 97 -36t107 -119zM390 53q36 0 49 4q-37 73 -69 104.5t-70 31.5q-54 0 -95 -40q63 -100 185 -100z" />
    <glyph glyph-name="R" unicode="R" horiz-adv-x="725" 
d="M597 -14q-54 0 -85.5 27.5t-61.5 100.5l-48 115q-24 58 -44 75t-63 17q-25 0 -45 -3v-212q0 -27 7.5 -37t29.5 -13l70 -8v-48h-295v48l58 9q19 3 25 13t6 38v488q0 25 -6.5 34t-26.5 13l-56 9v48h251q132 0 200.5 -45.5t68.5 -133.5q0 -65 -50 -117.5t-124 -65.5v-3
q38 -11 61.5 -31.5t39.5 -59.5l35 -82q15 -36 20.5 -47.5t18 -30.5t26.5 -25t34 -6q18 0 45 9l10 -36q-41 -40 -101 -40zM306 369q80 0 124.5 38t44.5 108q0 68 -40.5 99.5t-128.5 31.5h-56v-275q50 -2 56 -2z" />
    <glyph glyph-name="S" unicode="S" horiz-adv-x="598" 
d="M316 -14q-51 0 -100 18t-80 49l-16 -59h-44l-20 216l57 5q61 -165 200 -165q62 0 96 30t34 85t-35 88t-122 61q-113 36 -159 82t-46 125q0 86 59 139.5t155 53.5q88 0 148 -52l13 52h47l22 -202l-56 -8q-46 155 -171 155q-54 0 -87 -30.5t-33 -79.5t34 -80t121 -60
q115 -39 161 -85.5t46 -123.5q0 -94 -63 -154t-161 -60z" />
    <glyph glyph-name="T" unicode="T" horiz-adv-x="738" 
d="M207 0v48l80 12q19 3 26 14t7 36v535h-55q-74 0 -105 -29t-64 -129l-54 13l39 200h578l37 -200l-55 -13q-32 100 -62.5 129t-103.5 29h-56v-539q0 -25 6.5 -33.5t27.5 -12.5l79 -12v-48h-325z" />
    <glyph glyph-name="U" unicode="U" horiz-adv-x="810" 
d="M404 -14q-135 0 -200.5 68.5t-65.5 210.5v331q0 25 -6.5 34t-26.5 13l-56 9v48h276v-48l-58 -9q-18 -3 -24 -13.5t-6 -37.5v-320q0 -115 42 -165.5t139 -50.5t143 54.5t46 168.5v317q0 25 -6.5 34t-26.5 13l-55 9v48h246v-48l-57 -9q-19 -3 -25 -13t-6 -38v-301
q0 -305 -273 -305z" />
    <glyph glyph-name="V" unicode="V" horiz-adv-x="739" 
d="M314 0l-207 591q-10 29 -17.5 37t-27.5 13l-40 8v51h264v-48l-55 -7q-20 -3 -24.5 -13.5t5.5 -36.5l167 -509h4l168 503q9 26 4 37t-26 16l-49 11v47h237v-48l-49 -8q-17 -4 -25 -13.5t-20 -40.5l-203 -590h-106z" />
    <glyph glyph-name="W" unicode="W" horiz-adv-x="1092" 
d="M259 0l-152 591q-7 27 -15 36.5t-30 13.5l-40 8v51h264v-48l-51 -7q-20 -3 -24.5 -13t1.5 -37l117 -509h5l161 614h109l179 -609h5l118 498q6 27 1 37.5t-25 15.5l-49 11v47h237v-48l-47 -8q-20 -3 -30 -14.5t-17 -39.5l-151 -590h-113l-174 601h-3l-156 -601h-120z" />
    <glyph glyph-name="X" unicode="X" horiz-adv-x="707" 
d="M15 0v50l38 8q17 4 28 11.5t34 30.5l183 240l-186 253q-21 26 -32 34.5t-30 12.5l-35 8l10 52h244v-49l-40 -7q-37 -6 -6 -43l136 -186l128 182q17 21 15.5 29.5t-23.5 14.5l-38 10l10 49h215v-50l-38 -8q-19 -4 -31.5 -13t-30.5 -33l-170 -232l189 -257q34 -42 69 -49
l38 -6v-52h-269v50l45 6q40 5 8 44l-140 189l-140 -190q-10 -13 -12 -20.5t2.5 -12t17.5 -7.5l44 -10v-49h-233z" />
    <glyph glyph-name="Y" unicode="Y" horiz-adv-x="716" 
d="M213 0v48l62 9q19 3 25 13t6 38v185l-187 298q-16 27 -28 37t-32 14l-37 7v51h279v-48l-55 -7q-23 -2 -28 -15.5t9 -34.5l146 -237h5l138 233q28 41 -17 51l-46 11v47h241v-48l-49 -8q-16 -2 -26.5 -12.5t-30.5 -42.5l-183 -297v-188q0 -25 6 -34t26 -13l61 -9v-48h-285z
" />
    <glyph glyph-name="Z" unicode="Z" horiz-adv-x="657" 
d="M58 0v48l412 599h-214q-55 0 -79.5 -25t-50.5 -108l-59 -5l12 191h509v-50l-410 -595h211q62 0 92.5 29t60.5 115h55l-19 -199h-520z" />
    <glyph glyph-name="bracketleft" unicode="[" horiz-adv-x="333" 
d="M105 -212v1024h184l4 -49l-77 -6q-18 -1 -23 -9.5t-5 -36.5v-822q0 -28 5 -36.5t23 -9.5l77 -6l-4 -49h-184z" />
    <glyph glyph-name="backslash" unicode="\" horiz-adv-x="428" 
d="M344 -110l-324 912h63l325 -912h-64z" />
    <glyph glyph-name="bracketright" unicode="]" horiz-adv-x="333" 
d="M44 -212l-4 49l77 6q18 1 23 9.5t5 36.5v822q0 28 -5 36.5t-23 9.5l-77 6l4 49h184v-1024h-184z" />
    <glyph glyph-name="asciicircum" unicode="^" horiz-adv-x="582" 
d="M97 344l-49 30l222 338h42l222 -338l-49 -30l-194 291z" />
    <glyph glyph-name="underscore" unicode="_" 
d="M15 -103v63h470v-63h-470z" />
    <glyph glyph-name="grave" unicode="`" 
d="M305 580l-132 88q-35 24 -35 53q0 20 13.5 35.5t34.5 15.5q16 0 39 -29l104 -138z" />
    <glyph glyph-name="a" unicode="a" horiz-adv-x="539" 
d="M192 -14q-63 0 -101.5 37t-38.5 98q0 82 63.5 118.5t223.5 44.5v68q0 61 -26 89.5t-82 28.5q-27 0 -53.5 -8.5t-38.5 -21.5q26 -43 26 -56q0 -19 -15.5 -32t-38.5 -13q-27 0 -42 13.5t-15 38.5q0 52 57 91t134 39q187 0 187 -180v-241q0 -44 45 -44q22 0 47 8l10 -38
q-42 -40 -92 -40q-86 0 -95 89q-56 -89 -155 -89zM230 55q46 0 77.5 30.5t31.5 75.5v71q-190 0 -190 -100q0 -36 21.5 -56.5t59.5 -20.5z" />
    <glyph glyph-name="b" unicode="b" horiz-adv-x="607" 
d="M130 -14l-26 8v650q0 34 -7.5 44.5t-35.5 15.5l-44 7l6 50l163 5l11 -11v-328q35 50 75 72t96 22q91 0 142 -66t51 -184q0 -136 -61 -210.5t-172 -74.5q-88 0 -151 45zM321 49q66 0 102.5 55t36.5 153q0 192 -124 192q-65 0 -102 -38.5t-37 -107.5v-207q49 -47 124 -47z
" />
    <glyph glyph-name="c" unicode="c" horiz-adv-x="499" 
d="M282 -14q-109 0 -172.5 70.5t-63.5 190.5q0 124 67 199t177 75q77 0 128 -37.5t51 -93.5q0 -30 -18 -47.5t-48 -17.5q-28 0 -43.5 12.5t-15.5 35.5q0 21 28 68q-35 24 -90 24q-59 0 -97 -55t-38 -142q0 -95 43 -150t117 -55q77 0 129 52l34 -35q-32 -44 -82.5 -69
t-105.5 -25z" />
    <glyph glyph-name="d" unicode="d" horiz-adv-x="612" 
d="M251 -14q-97 0 -151 66.5t-54 185.5q0 130 65.5 206.5t178.5 76.5q72 0 123 -33v156q0 34 -7.5 44.5t-35.5 15.5l-44 7l6 50l163 5l11 -11v-657q0 -24 6.5 -32.5t26.5 -12.5l49 -9v-47l-154 -6l-14 79h-3q-66 -84 -166 -84zM280 58q59 0 96 43t37 111v201q-52 41 -125 41
q-143 0 -143 -206q0 -92 35 -141t100 -49z" />
    <glyph glyph-name="e" unicode="e" horiz-adv-x="519" 
d="M285 -14q-109 0 -174 71t-65 190q0 124 67 199t177 75q83 0 133.5 -49t50.5 -128q0 -42 -14 -98h-313q3 -88 45.5 -137t115.5 -49q80 0 138 60l35 -35q-34 -46 -87 -72.5t-109 -26.5zM147 302h230q3 19 3 46q0 120 -101 120q-57 0 -90.5 -42.5t-41.5 -123.5z" />
    <glyph glyph-name="f" unicode="f" horiz-adv-x="387" 
d="M41 0v48l57 9q19 3 25 13t6 38v336h-80v50l80 10v41q0 112 48.5 174.5t135.5 62.5q63 0 101.5 -26.5t38.5 -69.5q0 -29 -17 -47.5t-43 -18.5q-25 0 -40 10.5t-15 28.5q0 19 25 59q-22 12 -54 12q-46 0 -66.5 -31.5t-20.5 -99.5v-92h146v-63h-146v-340q0 -24 6.5 -33.5
t25.5 -11.5l87 -11v-48h-300z" />
    <glyph glyph-name="g" unicode="g" horiz-adv-x="558" 
d="M254 -229q-229 0 -229 123q0 72 91 114v4q-25 8 -41.5 30t-16.5 47q0 27 13.5 50.5t51.5 63.5v3q-74 38 -74 137q0 81 56.5 129.5t150.5 48.5q75 0 130 -33q33 94 104 94q29 0 48 -15t19 -38q0 -22 -17.5 -39t-39.5 -17q-26 0 -40 27l-10 21q-16 -25 -29 -63
q38 -46 38 -110q0 -79 -55 -126.5t-147 -47.5q-54 0 -81 10q-32 -36 -32 -60q0 -22 16.5 -31.5t53.5 -9.5h128q92 0 134.5 -31t42.5 -98q0 -87 -69.5 -135t-195.5 -48zM255 227q52 0 80.5 31t28.5 87q0 59 -30 92t-85 33q-105 0 -105 -122q0 -56 30 -88.5t81 -32.5z
M262 -166q76 0 119 25.5t43 70.5q0 62 -93 62h-168q-46 -34 -46 -83q0 -40 33.5 -57.5t111.5 -17.5z" />
    <glyph glyph-name="h" unicode="h" horiz-adv-x="662" 
d="M55 0v47l46 9q17 3 22.5 13t5.5 35v540q0 34 -7.5 44.5t-35.5 15.5l-44 7l6 50l163 5l11 -11v-327q23 42 69 67.5t98 25.5q80 0 122 -44t42 -127v-254q0 -22 5.5 -29.5t25.5 -11.5l47 -8v-47h-245v46l44 8q19 4 24.5 12t5.5 30v225q0 71 -22.5 99.5t-77.5 28.5
q-63 0 -100.5 -38t-37.5 -101v-210q0 -23 5 -31.5t20 -11.5l53 -11v-46h-245z" />
    <glyph glyph-name="i" unicode="i" horiz-adv-x="333" 
d="M160 620q-29 0 -48 18.5t-19 47.5t19 48t48 19q30 0 49 -18.5t19 -47.5t-19 -48t-49 -19zM40 0v49l57 9q19 3 25 12.5t6 38.5v273q0 37 -6.5 48.5t-29.5 14.5l-48 7l7 50l158 8l12 -5v-400q0 -25 6.5 -34.5t25.5 -12.5l56 -10v-48h-269z" />
    <glyph glyph-name="j" unicode="j" horiz-adv-x="309" 
d="M153 620q-29 0 -48 18.5t-19 47.5t19 48t48 19q30 0 49 -18.5t19 -47.5t-19 -48t-49 -19zM62 -229l-28 41q47 37 67 87t20 129v354q0 37 -6.5 48.5t-29.5 14.5l-48 7l8 50l157 8l12 -5v-410q0 -136 -33 -206.5t-119 -117.5z" />
    <glyph glyph-name="k" unicode="k" horiz-adv-x="610" 
d="M43 0v48l57 9q19 3 25 12.5t6 38.5v536q0 34 -7.5 44.5t-35.5 15.5l-44 7l5 50l164 5l11 -11v-651q0 -24 5.5 -33.5t21.5 -13.5l36 -8v-49h-244zM528 -9q-40 0 -65.5 14.5t-62.5 59.5l-169 201v8l159 143q13 11 13 23t-13 14l-45 7l9 46h224v-45l-29 -8q-38 -11 -70 -38
l-149 -126l166 -189q38 -42 73 -42q8 0 39 8l10 -36q-42 -40 -90 -40z" />
    <glyph glyph-name="l" unicode="l" horiz-adv-x="335" 
d="M42 0v49l57 9q19 3 25 12.5t6 38.5v534q0 34 -7.5 44.5t-35.5 15.5l-44 7l6 51l163 5l11 -11v-650q0 -25 6.5 -34.5t25.5 -12.5l56 -10v-48h-269z" />
    <glyph glyph-name="m" unicode="m" horiz-adv-x="970" 
d="M55 0v47l48 9q16 3 21 12.5t5 35.5v282q0 36 -6 47.5t-28 14.5l-49 7l7 48l139 11l12 -7l7 -89h3q27 47 73.5 75t95.5 28q120 0 150 -105q24 47 71 76t99 29q76 0 117 -44t41 -127v-254q0 -23 6 -30.5t25 -10.5l47 -8v-47h-237v46l36 8q19 5 24.5 12.5t5.5 29.5v225
q0 70 -21 99t-73 29q-59 0 -95.5 -38.5t-36.5 -100.5v-210q0 -23 4.5 -31t19.5 -12l46 -11v-46h-230v46l36 8q19 5 24.5 12.5t5.5 29.5v225q0 71 -21 99.5t-73 28.5q-59 0 -95.5 -38.5t-36.5 -100.5v-210q0 -23 5 -31t20 -12l45 -11v-46h-237z" />
    <glyph glyph-name="n" unicode="n" horiz-adv-x="662" 
d="M55 0v47l48 9q16 3 21 12.5t5 35.5v282q0 36 -6 47.5t-28 14.5l-49 7l7 48l139 11l12 -7l7 -89h3q27 47 74.5 75t100.5 28q80 0 122 -44t42 -127v-254q0 -23 6 -30.5t25 -10.5l47 -8v-47h-245v46l44 8q19 4 24.5 12t5.5 30v225q0 71 -22.5 99.5t-77.5 28.5
q-63 0 -100.5 -38t-37.5 -101v-210q0 -23 5 -31.5t20 -11.5l53 -11v-46h-245z" />
    <glyph glyph-name="o" unicode="o" horiz-adv-x="586" 
d="M289 -14q-112 0 -177.5 69t-65.5 187q0 129 69 204t188 75q109 0 173 -69t64 -185q0 -128 -68 -204.5t-183 -76.5zM303 48q65 0 100 50.5t35 144.5q0 101 -40.5 160t-110.5 59q-68 0 -104 -49t-36 -141q0 -105 41.5 -164.5t114.5 -59.5z" />
    <glyph glyph-name="p" unicode="p" horiz-adv-x="617" 
d="M34 -219v48l48 8q16 3 22.5 13.5t6.5 33.5v500q0 38 -7 50t-30 15l-46 6l8 49l137 10l14 -6l6 -90h3q68 103 181 103q91 0 142.5 -66.5t51.5 -183.5q0 -136 -61.5 -210.5t-172.5 -74.5q-82 0 -133 33v-132q0 -24 7 -35t25 -14l61 -10v-47h-263zM330 52q66 0 103 54
t37 151q0 193 -125 193q-66 0 -103.5 -39.5t-37.5 -107.5v-208q20 -19 55.5 -31t70.5 -12z" />
    <glyph glyph-name="q" unicode="q" horiz-adv-x="600" 
d="M320 -219v48l61 10q18 3 25 14t7 35v183q-64 -85 -166 -85q-92 0 -146.5 68t-54.5 183q0 129 66.5 206.5t177.5 77.5q85 0 143 -43l45 43l28 -8v-628q0 -23 6.5 -33.5t22.5 -13.5l48 -8v-49h-263zM280 58q58 0 95.5 42t37.5 107v207q-50 41 -124 41q-144 0 -144 -206
q0 -93 34.5 -142t100.5 -49z" />
    <glyph glyph-name="r" unicode="r" horiz-adv-x="473" 
d="M55 0v48l48 9q16 3 21 12.5t5 35.5v280q0 36 -6 47t-28 15l-49 7l7 49l135 11l12 -7l11 -90h3q60 104 149 104q47 0 75 -26t28 -70q0 -79 -67 -79q-59 0 -59 44q0 20 19 58q-44 22 -90.5 -26t-46.5 -116v-203q0 -25 4.5 -32.5t20.5 -10.5l86 -13v-47h-278z" />
    <glyph glyph-name="s" unicode="s" horiz-adv-x="452" 
d="M65 -14l-16 172l56 4q41 -116 140 -116q44 0 69 22.5t25 61.5q0 32 -25 51t-92 38q-89 25 -125 59t-36 93q0 68 46.5 109t125.5 41q69 0 110 -34l8 34h44l13 -163l-57 5q-10 46 -42 75t-74 29q-90 0 -90 -73q0 -32 24 -50.5t91 -37.5q90 -25 126 -59.5t36 -94.5
q0 -73 -50 -119.5t-129 -46.5q-82 0 -125 34l-11 -34h-42z" />
    <glyph glyph-name="t" unicode="t" horiz-adv-x="404" 
d="M249 -14q-68 0 -100.5 36.5t-32.5 112.5v309h-79v52q53 4 78.5 45.5t32.5 132.5l48 6l13 -6v-167h156v-63h-156v-302q0 -83 71 -83q49 0 96 32l23 -36q-67 -69 -150 -69z" />
    <glyph glyph-name="u" unicode="u" horiz-adv-x="634" 
d="M265 -14q-79 0 -119.5 43.5t-40.5 127.5v229q0 36 -6 47t-28 15l-44 7l8 48l151 11l12 -7v-321q0 -73 20.5 -100.5t75.5 -27.5q62 0 98.5 37.5t36.5 101.5v189q0 36 -6 47t-28 15l-45 7l8 48l152 11l12 -7v-406q0 -24 6 -32.5t26 -12.5l50 -9v-47l-155 -6l-14 81h-3
q-75 -89 -167 -89z" />
    <glyph glyph-name="v" unicode="v" horiz-adv-x="592" 
d="M246 0l-155 399q-11 29 -17.5 37.5t-26.5 13.5l-35 8l10 49h238v-46l-48 -7q-20 -3 -24.5 -13.5t5.5 -36.5l116 -321h5l115 314q9 26 4 37.5t-27 16.5l-44 10l10 46h208v-47l-37 -8q-18 -4 -26 -13.5t-20 -40.5l-155 -398h-96z" />
    <glyph glyph-name="w" unicode="w" horiz-adv-x="860" 
d="M209 0l-123 399q-8 27 -15.5 36.5t-28.5 14.5l-35 8l10 49h235v-46l-48 -7q-19 -3 -23 -12.5t3 -37.5l88 -321h5l116 424h107l112 -422h5l87 312q7 27 2.5 38t-25.5 16l-43 10l9 46h206v-47l-37 -8q-19 -4 -28 -14.5t-18 -39.5l-121 -398h-105l-109 412h-5l-111 -412
h-110z" />
    <glyph glyph-name="x" unicode="x" horiz-adv-x="567" 
d="M9 0v47l38 8q17 4 28 11.5t34 30.5l121 150l-126 156q-21 26 -32 34.5t-30 12.5l-35 8l10 49h240v-46l-40 -7q-37 -6 -6 -43l84 -105l77 101q11 14 14 22.5t-2 13t-20 8.5l-38 10l10 46h205v-47l-38 -8q-19 -4 -31 -12.5t-31 -33.5l-113 -142l129 -160q34 -42 69 -49
l38 -6v-49h-265v47l45 6q40 5 8 44l-88 108l-84 -109q-10 -13 -12 -20.5t2.5 -12t17.5 -7.5l44 -10v-46h-223z" />
    <glyph glyph-name="y" unicode="y" horiz-adv-x="576" 
d="M113 -229q-47 0 -75 21.5t-28 58.5q0 29 18.5 48t46.5 19q48 0 53 -36q2 -14 -4 -57q31 -2 53.5 23.5t55.5 101.5l25 57l-165 392q-13 30 -20.5 38.5t-23.5 12.5l-35 8l10 49h238v-46l-48 -7q-20 -3 -24.5 -13.5t5.5 -36.5l111 -280h5l111 273q10 25 4.5 37t-27.5 17
l-44 10l10 46h209v-47l-37 -8q-17 -4 -25.5 -13t-21.5 -41l-193 -452q-43 -99 -82.5 -137t-101.5 -38z" />
    <glyph glyph-name="z" unicode="z" horiz-adv-x="486" 
d="M37 0v44l299 410h-117q-58 0 -79.5 -19.5t-42.5 -89.5l-57 -5l12 167h393v-46l-298 -406h118q64 0 86.5 20t53.5 106h54l-14 -181h-408z" />
    <glyph glyph-name="braceleft" unicode="{" horiz-adv-x="372" 
d="M263 -227q-62 0 -97.5 32.5t-35.5 88.5q0 29 9.5 140t9.5 148q0 59 -23.5 77t-70.5 19v57q24 0 38 3t28.5 12t21 29t6.5 52q0 39 -9.5 140t-9.5 132q0 55 33 87t92 32q38 0 72 -9l-10 -49q-30 4 -49 4q-22 0 -34 -13.5t-12 -52.5q0 -20 8.5 -123t8.5 -139q0 -35 -9 -59
t-27.5 -38t-33.5 -21t-40 -14q25 -8 40.5 -15.5t33.5 -22t27 -38.5t9 -58q0 -36 -8.5 -148t-8.5 -129q0 -40 14.5 -55t40.5 -15q20 0 48 4l10 -49q-33 -9 -72 -9z" />
    <glyph glyph-name="bar" unicode="|" horiz-adv-x="424" 
d="M181 -110v912h62v-912h-62z" />
    <glyph glyph-name="braceright" unicode="}" horiz-adv-x="372" 
d="M109 -227q-39 0 -72 9l10 49q28 -4 48 -4q26 0 40.5 15t14.5 55q0 17 -8.5 129t-8.5 148q0 34 9 58t27 38.5t33.5 22t40.5 15.5q-25 7 -40 14t-33.5 21t-27.5 38t-9 59q0 36 8.5 139t8.5 123q0 39 -12 52.5t-34 13.5q-19 0 -49 -4l-10 49q34 9 72 9q59 0 92 -32t33 -87
q0 -31 -9.5 -132t-9.5 -140q0 -60 23 -77.5t71 -18.5v-57q-47 -1 -70.5 -19t-23.5 -77q0 -37 9.5 -148t9.5 -140q0 -56 -35.5 -88.5t-97.5 -32.5z" />
    <glyph glyph-name="asciitilde" unicode="~" horiz-adv-x="582" 
d="M117 239l-52 19q24 55 43.5 73.5t53.5 18.5q32 0 130 -21t129 -21q13 0 22 9t23 35l52 -19q-24 -57 -44.5 -74.5t-52.5 -17.5q-34 0 -129 21t-127 21q-15 0 -23.5 -8t-24.5 -36z" />
    <glyph glyph-name="uni00A0" unicode="&#xa0;" horiz-adv-x="200" 
 />
    <glyph glyph-name="exclamdown" unicode="&#xa1;" horiz-adv-x="330" 
d="M163 521q31 0 51 -19.5t20 -49.5q0 -31 -20 -51t-51 -20t-50.5 19.5t-19.5 50.5q0 30 19.5 50t50.5 20zM192 314v-72q0 -88 18.5 -220t18.5 -164q0 -30 -19 -47.5t-51 -17.5q-64 0 -64 64q0 25 20.5 156.5t20.5 229.5v71h56z" />
    <glyph glyph-name="cent" unicode="&#xa2;" horiz-adv-x="499" 
d="M436 165l34 -35q-32 -44 -82.5 -69t-105.5 -25q-24 0 -45 3l-14 -68h-50l17 81q-69 26 -106.5 89.5t-37.5 155.5q0 124 67 199t177 75h5l14 67h50l-15 -73q56 -12 90.5 -46t34.5 -79q0 -30 -18 -47.5t-48 -17.5q-28 0 -43.5 12.5t-15.5 35.5q0 21 28 68q-19 13 -39 19
l-79 -388q24 -9 53 -9q77 0 129 52zM147 318q0 -117 62 -170l75 367h-2q-59 0 -97 -55t-38 -142z" />
    <glyph glyph-name="sterling" unicode="&#xa3;" horiz-adv-x="553" 
d="M47 0l-8 46q72 28 99.5 64t27.5 101q0 41 -30 101h-109l7 56h75q-34 70 -34 141q0 95 61.5 150.5t165.5 55.5q78 0 127.5 -37t49.5 -95q0 -30 -18 -47.5t-48 -17.5q-28 0 -43.5 12.5t-15.5 35.5q0 21 28 68q-38 25 -87 25q-119 0 -119 -127q0 -77 44 -164h203v-56h-177
q14 -38 14 -68q0 -103 -82 -163l2 -4h127q71 0 96 17t53 84h54l-24 -178h-439z" />
    <glyph glyph-name="currency" unicode="&#xa4;" horiz-adv-x="539" 
d="M453 195l-86 67q-42 -26 -99 -26q-60 0 -100 24l-82 -64l-30 30l64 82q-26 41 -26 104t26 104l-65 84l30 30l82 -65q47 30 107 30q56 0 99 -25l81 63l30 -30l-63 -80q25 -41 25 -102q0 -67 -29 -112l66 -84zM268 289q104 0 104 128q0 123 -100 123q-49 0 -76.5 -31.5
t-27.5 -93.5q0 -60 26.5 -93t73.5 -33z" />
    <glyph glyph-name="yen" unicode="&#xa5;" horiz-adv-x="716" 
d="M453 700h241v-48l-49 -8q-17 -3 -27.5 -14t-29.5 -41l-125 -203h149v-56h-184l-23 -38v-25h207v-54h-207v-109q0 -25 5.5 -34t26.5 -13l61 -9v-48h-285v48l62 9q20 3 25.5 14.5t5.5 36.5v105h-218l5 54h213v26l-24 39h-191l5 54h152l-129 205q-16 26 -27.5 36.5
t-32.5 14.5l-37 7v51h279v-48l-55 -7q-22 -2 -27.5 -14.5t8.5 -35.5l146 -237h5l138 233q29 41 -17 51l-46 11v47z" />
    <glyph glyph-name="brokenbar" unicode="&#xa6;" horiz-adv-x="424" 
d="M181 432v371h61v-371h-61zM181 -110v399h61v-399h-61z" />
    <glyph glyph-name="section" unicode="&#xa7;" horiz-adv-x="618" 
d="M278 -156q-68 0 -108 26t-40 70q0 30 17.5 49.5t44.5 19.5q25 0 40 -10.5t15 -28.5q0 -19 -25 -59q19 -12 64 -12q46 0 72.5 22.5t26.5 61.5q0 37 -33 72t-116 86q-92 57 -131.5 106.5t-39.5 108.5q0 46 26 83t72 58q-10 32 -10 61q0 68 48.5 112t124.5 44
q63 0 102.5 -26.5t39.5 -69.5q0 -29 -18 -48.5t-44 -19.5q-25 0 -40 10.5t-15 28.5q0 19 25 59q-22 12 -54 12q-43 0 -66 -20.5t-23 -58.5q0 -41 34.5 -78t120.5 -87t125.5 -100.5t39.5 -109.5q0 -45 -26.5 -84.5t-72.5 -61.5q11 -31 11 -59q0 -70 -52 -113.5t-135 -43.5z
M429 104q42 31 42 81q0 36 -27.5 68t-89.5 70q-112 66 -167 130q-40 -31 -40 -77q0 -38 31 -74t99 -77q103 -60 152 -121z" />
    <glyph glyph-name="dieresis" unicode="&#xa8;" 
d="M149 620q-27 0 -45 17.5t-18 44.5t18 45t45 18q28 0 46.5 -17.5t18.5 -44.5t-18.5 -45t-46.5 -18zM348 620q-28 0 -46 17.5t-18 44.5t18 45t46 18t46 -17.5t18 -44.5t-18 -45t-46 -18z" />
    <glyph glyph-name="copyright" unicode="&#xa9;" horiz-adv-x="795" 
d="M397 -12q-163 0 -250 89.5t-87 233.5q0 153 98 244.5t241 91.5q153 0 244.5 -87.5t91.5 -234.5q0 -152 -92.5 -244.5t-245.5 -92.5zM399 40q127 0 201.5 76.5t74.5 202.5q0 129 -76 202.5t-200 73.5q-121 0 -199 -77t-78 -206q0 -125 74 -198.5t203 -73.5zM409 106
q-93 0 -143.5 60t-50.5 147q0 94 52.5 150t132.5 56q55 0 91 -31l5 32h31l22 -132l-40 -7q-16 49 -41.5 70t-66.5 21q-47 0 -76 -42t-29 -116q0 -66 33 -112t86 -46q36 0 61 14.5t52 45.5l28 -27q-63 -83 -147 -83z" />
    <glyph glyph-name="ordfeminine" unicode="&#xaa;" horiz-adv-x="420" 
d="M149 362q-47 0 -79 24.5t-32 74.5q0 89 121 107q33 5 97 9v40q0 44 -19.5 62.5t-58.5 18.5q-44 0 -65 -16q19 -28 19 -38q0 -15 -11.5 -25.5t-33.5 -10.5q-45 0 -45 42q0 37 43 64.5t104 27.5q146 0 146 -131v-161q0 -33 34 -34q16 0 37 7l9 -32q-32 -29 -81 -29
q-63 0 -69 55q-39 -55 -116 -55zM177 416q29 0 54 18t25 55v45q-65 0 -100 -14.5t-35 -52.5q0 -25 16.5 -38t39.5 -13z" />
    <glyph glyph-name="guillemotleft" unicode="&#xab;" horiz-adv-x="483" 
d="M238 55l-166 168q-22 22 -22 43q0 16 28 45l159 163l31 -25l-123 -183l123 -187zM413 55l-166 168q-22 22 -22 43q0 16 28 45l159 163l31 -25l-123 -183l123 -187z" />
    <glyph glyph-name="logicalnot" unicode="&#xac;" horiz-adv-x="582" 
d="M438 154v150h-361v63h428v-213h-67z" />
    <glyph glyph-name="uni00AD" unicode="&#xad;" horiz-adv-x="354" 
d="M44 247v82h267v-82h-267z" />
    <glyph glyph-name="registered" unicode="&#xae;" horiz-adv-x="487" 
d="M243 404q-88 0 -135.5 48.5t-47.5 126.5q0 83 52.5 133t131.5 50q84 0 133.5 -48t49.5 -128q0 -81 -51.5 -131.5t-132.5 -50.5zM327 465q17 0 28 6v16h-9q-15 0 -23 18l-9 25q-8 22 -17.5 33.5t-31.5 16.5v1q24 4 43 19t19 43q0 60 -94 60h-82l-4 -16l16 -2q13 -1 13 -17
v-163q0 -17 -13 -18l-16 -2v-16h97v16l-17 2q-13 1 -13 18v71h14q24 0 40 -41l12 -32q8 -20 18 -29t29 -9zM214 595v88h17q56 0 56 -42q0 -46 -55 -46h-18z" />
    <glyph glyph-name="macron" unicode="&#xaf;" 
d="M110 635v73h280v-73h-280z" />
    <glyph glyph-name="degree" unicode="&#xb0;" horiz-adv-x="329" 
d="M164 547q-60 0 -90.5 32.5t-30.5 85.5q0 49 32.5 83t91.5 34q57 0 88 -31.5t31 -83.5t-32.5 -86t-89.5 -34zM166 598q29 0 46 19t17 48q0 31 -17.5 49t-48.5 18q-29 0 -45.5 -18.5t-16.5 -48.5t16.5 -48.5t48.5 -18.5z" />
    <glyph glyph-name="plusminus" unicode="&#xb1;" horiz-adv-x="582" 
d="M254 141v165h-177v63h177v152h67v-152h184v-63h-184v-165h-67zM77 1v63h428v-63h-428z" />
    <glyph glyph-name="uni00B2" unicode="&#xb2;" horiz-adv-x="397" 
d="M40 374l-6 46q146 136 188 188t42 100q0 36 -23.5 59.5t-63.5 23.5q-57 0 -73 -25q20 -31 20 -39q0 -15 -12 -26.5t-33 -11.5q-27 0 -40.5 14.5t-13.5 37.5q0 43 46 70.5t114 27.5q75 0 120.5 -33.5t45.5 -94.5q0 -49 -46 -105t-179 -164h97q46 0 59.5 10.5t34.5 59.5h45
l-13 -138h-309z" />
    <glyph glyph-name="uni00B3" unicode="&#xb3;" horiz-adv-x="423" 
d="M198 362q-124 0 -173 86l37 31q49 -58 121 -58q46 0 70.5 22t24.5 57q0 89 -124 85l4 41q54 5 82 31.5t28 63.5q0 29 -22 50t-59 21q-53 0 -70 -28q19 -26 19 -36q0 -16 -11.5 -27t-32.5 -11q-26 0 -39.5 14t-13.5 36q0 40 44 69.5t112 29.5q67 0 111 -32t44 -84
q0 -38 -27.5 -67.5t-69.5 -41.5v-2q115 -19 115 -114q0 -60 -51 -98t-119 -38z" />
    <glyph glyph-name="acute" unicode="&#xb4;" 
d="M197 580l-24 25l104 138q22 29 39 29q21 0 34.5 -15.5t13.5 -35.5q0 -29 -35 -53z" />
    <glyph glyph-name="uni00B5" unicode="&#xb5;" horiz-adv-x="611" 
d="M106 -229l-12 5q-10 106 -10 228l-10 504l92 8l12 -5q-11 -211 -11 -421q15 -15 42 -23.5t49 -8.5q64 0 101.5 38t37.5 101l-4 311l92 8l12 -5q-18 -206 -18 -320q0 -85 11.5 -108.5t52.5 -23.5q16 0 43 8l10 -41q-40 -40 -94 -40q-40 0 -61.5 24t-31.5 83h-3
q-20 -50 -59 -78.5t-86 -28.5q-59 0 -94 37h-2q0 -54 7.5 -112.5t15.5 -90.5l8 -31z" />
    <glyph glyph-name="paragraph" unicode="&#xb6;" horiz-adv-x="578" 
d="M285 238q-101 0 -158 60.5t-57 169.5q0 112 55.5 172t163.5 60h12v-462h-16zM252 -144v47l80 7q18 1 25 12.5t7 36.5v741h169v-47l-50 -6q-18 -2 -25 -13.5t-7 -36.5v-741h-199z" />
    <glyph glyph-name="periodcentered" unicode="&#xb7;" horiz-adv-x="319" 
d="M159 235q-33 0 -54.5 21t-21.5 54t21.5 54.5t54.5 21.5q34 0 55.5 -21t21.5 -54t-21.5 -54.5t-55.5 -21.5z" />
    <glyph glyph-name="cedilla" unicode="&#xb8;" 
d="M234 -229q-31 0 -57 13.5t-38 26.5l24 37q29 -22 64 -22q21 0 35.5 11t14.5 32q0 38 -50 38q-16 0 -30 -3l-8 21l35 88h46l-27 -70q49 6 77.5 -14t28.5 -62q0 -44 -29 -70t-86 -26z" />
    <glyph glyph-name="uni00B9" unicode="&#xb9;" horiz-adv-x="323" 
d="M38 374v41l65 10q14 2 19 9.5t5 22.5v272q0 22 -5 29t-26 10l-61 5l5 40l163 23l8 -7v-374q0 -15 5 -21.5t20 -8.5l62 -10v-41h-260z" />
    <glyph glyph-name="ordmasculine" unicode="&#xba;" horiz-adv-x="427" 
d="M210 362q-85 0 -130 50t-45 132q0 101 52.5 149.5t133.5 48.5q77 0 124 -46t47 -134q0 -95 -50 -147.5t-132 -52.5zM221 410q44 0 67.5 35t23.5 100q0 70 -27.5 110.5t-75.5 40.5q-95 0 -95 -130q0 -74 27.5 -115t79.5 -41z" />
    <glyph glyph-name="guillemotright" unicode="&#xbb;" horiz-adv-x="483" 
d="M71 55l-31 25l123 183l-123 187l30 24l166 -168q22 -22 22 -43q0 -16 -28 -45zM246 55l-31 25l123 183l-123 187l30 24l166 -168q22 -22 22 -43q0 -16 -28 -45z" />
    <glyph glyph-name="onequarter" unicode="&#xbc;" horiz-adv-x="966" 
d="M38 259v41l65 10q14 2 19 9.5t5 22.5v272q0 22 -5 29t-26 10l-61 5l5 40l163 23l8 -7v-374q0 -15 5 -21.5t20 -8.5l62 -10v-41h-260zM207 -14l417 728h67l-416 -728h-68zM754 0v91h-218l-8 49l215 316l84 10l8 -6v-315h78v-54h-78v-91h-81zM591 145h163v242z" />
    <glyph glyph-name="onehalf" unicode="&#xbd;" horiz-adv-x="958" 
d="M38 259v41l65 10q14 2 19 9.5t5 22.5v272q0 22 -5 29t-26 10l-61 5l5 40l163 23l8 -7v-374q0 -15 5 -21.5t20 -8.5l62 -10v-41h-260zM206 -14l417 728h67l-416 -728h-68zM596 13l-6 46q146 136 188 188t42 100q0 36 -23.5 59.5t-63.5 23.5q-57 0 -73 -25q20 -31 20 -39
q0 -15 -12 -26.5t-33 -11.5q-27 0 -40.5 14.5t-13.5 37.5q0 43 46 70.5t114 27.5q75 0 120.5 -33.5t45.5 -94.5q0 -49 -46 -105t-179 -164h97q46 0 59.5 10.5t34.5 59.5h45l-13 -138h-309z" />
    <glyph glyph-name="threequarters" unicode="&#xbe;" horiz-adv-x="966" 
d="M198 237q-124 0 -173 86l37 31q49 -58 121 -58q46 0 70.5 22t24.5 57q0 89 -124 85l4 41q54 5 82 31.5t28 63.5q0 29 -22 50t-59 21q-53 0 -70 -28q19 -26 19 -36q0 -16 -11.5 -27t-32.5 -11q-26 0 -39.5 14t-13.5 36q0 40 44 69.5t112 29.5q67 0 111 -32t44 -84
q0 -38 -27.5 -67.5t-69.5 -41.5v-2q115 -19 115 -114q0 -60 -51 -98t-119 -38zM249 -14l417 728h67l-416 -728h-68zM793 0v91h-218l-8 49l215 316l84 10l8 -6v-315h78v-54h-78v-91h-81zM630 145h163v242z" />
    <glyph glyph-name="questiondown" unicode="&#xbf;" horiz-adv-x="538" 
d="M294 524q31 0 51 -19.5t20 -49.5q0 -31 -20 -51t-51 -20t-50.5 19.5t-19.5 50.5q0 30 19.5 50t50.5 20zM323 316v-123q0 -29 -15 -55t-54 -65q-41 -41 -57 -67.5t-16 -55.5q0 -46 29.5 -73t79.5 -27q64 0 96 38q-32 44 -32 62t18 33t42 15q59 0 59 -60q0 -58 -59.5 -100
t-137.5 -42q-87 0 -139 44.5t-52 118.5q0 49 25.5 89.5t69.5 84.5q55 57 71 78.5t16 41.5v63h56z" />
    <glyph glyph-name="Agrave" unicode="&#xc0;" horiz-adv-x="735" 
d="M448 752l-151 66q-42 18 -42 56q0 18 12.5 33t30.5 15q13 0 39 -23l131 -119zM15 0v48l48 8q18 4 26 13.5t20 40.5l211 590h106l209 -591q11 -29 17.5 -37.5t26.5 -13.5l41 -8v-50h-267v48l58 7q20 3 24.5 13.5t-5.5 36.5l-43 126h-268l-42 -122q-9 -26 -4 -37.5
t27 -16.5l57 -8v-47h-242zM239 288h229l-111 329h-4z" />
    <glyph glyph-name="Aacute" unicode="&#xc1;" horiz-adv-x="735" 
d="M298 752l-20 28l131 119q26 23 39 23q18 0 30.5 -15t12.5 -33q0 -38 -42 -56zM15 0v48l48 8q18 4 26 13.5t20 40.5l211 590h106l209 -591q11 -29 17.5 -37.5t26.5 -13.5l41 -8v-50h-267v48l58 7q20 3 24.5 13.5t-5.5 36.5l-43 126h-268l-42 -122q-9 -26 -4 -37.5
t27 -16.5l57 -8v-47h-242zM239 288h229l-111 329h-4z" />
    <glyph glyph-name="Acircumflex" unicode="&#xc2;" horiz-adv-x="735" 
d="M234 750l-24 25l125 137q20 22 39 22q14 0 41 -28l121 -130l-25 -26l-137 84zM15 0v48l48 8q18 4 26 13.5t20 40.5l211 590h106l209 -591q11 -29 17.5 -37.5t26.5 -13.5l41 -8v-50h-267v48l58 7q20 3 24.5 13.5t-5.5 36.5l-43 126h-268l-42 -122q-9 -26 -4 -37.5
t27 -16.5l57 -8v-47h-242zM239 288h229l-111 329h-4z" />
    <glyph glyph-name="Atilde" unicode="&#xc3;" horiz-adv-x="735" 
d="M450 777q-35 0 -92 24q-60 24 -73 24q-14 0 -23.5 -7t-23.5 -29l-31 19q25 55 44.5 74.5t48.5 19.5q28 0 89 -26q59 -24 76 -24q12 0 20 7t24 30l31 -19q-26 -54 -45 -73.5t-45 -19.5zM15 0v48l48 8q18 4 26 13.5t20 40.5l211 590h106l209 -591q11 -29 17.5 -37.5
t26.5 -13.5l41 -8v-50h-267v48l58 7q20 3 24.5 13.5t-5.5 36.5l-43 126h-268l-42 -122q-9 -26 -4 -37.5t27 -16.5l57 -8v-47h-242zM239 288h229l-111 329h-4z" />
    <glyph glyph-name="Adieresis" unicode="&#xc4;" horiz-adv-x="735" 
d="M270 771q-28 0 -46 17.5t-18 45.5t18 46t46 18q29 0 47.5 -17.5t18.5 -45.5t-18.5 -46t-47.5 -18zM473 771q-29 0 -47 17.5t-18 45.5t18.5 46t46.5 18q29 0 47 -17.5t18 -45.5t-18.5 -46t-46.5 -18zM15 0v48l48 8q18 4 26 13.5t20 40.5l211 590h106l209 -591
q11 -29 17.5 -37.5t26.5 -13.5l41 -8v-50h-267v48l58 7q20 3 24.5 13.5t-5.5 36.5l-43 126h-268l-42 -122q-9 -26 -4 -37.5t27 -16.5l57 -8v-47h-242zM239 288h229l-111 329h-4z" />
    <glyph glyph-name="Aring" unicode="&#xc5;" horiz-adv-x="735" 
d="M372 742q-56 0 -83 28t-27 77q0 45 29 74.5t83 29.5q52 0 80 -27.5t28 -74.5q0 -48 -29 -77.5t-81 -29.5zM373 789q50 0 50 58q0 25 -13 41t-39 16q-51 0 -51 -57q0 -58 53 -58zM15 0v48l48 8q18 4 26 13.5t20 40.5l211 590h106l209 -591q11 -29 17.5 -37.5t26.5 -13.5
l41 -8v-50h-267v48l58 7q20 3 24.5 13.5t-5.5 36.5l-43 126h-268l-42 -122q-9 -26 -4 -37.5t27 -16.5l57 -8v-47h-242zM239 288h229l-111 329h-4z" />
    <glyph glyph-name="AE" unicode="&#xc6;" horiz-adv-x="997" 
d="M15 0v48l48 8q16 3 25.5 13.5t24.5 40.5l263 533l-64 9v48h573l37 -163l-52 -17q-30 79 -60 102.5t-103 23.5h-97v-274h87h24.5t19 2t14 2t10 6t7 6.5t5 11l4.5 13.5t4.5 19t4.5 22l46 6v-222l-46 -8q-9 60 -21.5 72.5t-71.5 12.5h-87v-261h129q72 0 100.5 24.5
t49.5 105.5h55l-24 -184h-498v48l58 9q19 3 25 13t6 38v207h-226l-99 -206q-23 -48 17 -54l57 -8v-47h-245zM313 372h198l1 274h-67z" />
    <glyph glyph-name="Ccedilla" unicode="&#xc7;" horiz-adv-x="699" 
d="M385 -14h-4l-17 -43q49 6 77.5 -14t28.5 -62q0 -44 -29 -70t-86 -26q-31 0 -57 13.5t-38 26.5l24 37q29 -22 64 -22q21 0 35.5 11t14.5 32q0 38 -50 38q-16 0 -30 -3l-8 21l25 64q-130 17 -207.5 114.5t-77.5 247.5q0 163 87.5 263t230.5 100q105 0 166 -61l10 63h49
l39 -233l-54 -12q-31 95 -80 137.5t-128 42.5q-104 0 -158.5 -76.5t-54.5 -222.5q0 -133 66 -215t172 -82q65 0 114 27t89 85l47 -34q-41 -68 -110.5 -107.5t-149.5 -39.5z" />
    <glyph glyph-name="Egrave" unicode="&#xc8;" horiz-adv-x="637" 
d="M400 752l-151 66q-42 18 -42 56q0 18 12.5 33t30.5 15q13 0 39 -23l131 -119zM62 0v48l58 9q19 3 25 13t6 38v488q0 26 -6.5 35t-26.5 12l-56 9v48h463l37 -163l-52 -17q-30 79 -60 102.5t-103 23.5h-97v-259h87q53 0 66 11.5t27 70.5l46 6v-227l-46 -8q-9 58 -24 71.5
t-69 13.5h-87v-271h129q72 0 100.5 24.5t49.5 105.5h55l-24 -184h-498z" />
    <glyph glyph-name="Eacute" unicode="&#xc9;" horiz-adv-x="637" 
d="M250 752l-20 28l131 119q26 23 39 23q18 0 30.5 -15t12.5 -33q0 -38 -42 -56zM62 0v48l58 9q19 3 25 13t6 38v488q0 26 -6.5 35t-26.5 12l-56 9v48h463l37 -163l-52 -17q-30 79 -60 102.5t-103 23.5h-97v-259h87q53 0 66 11.5t27 70.5l46 6v-227l-46 -8q-9 58 -24 71.5
t-69 13.5h-87v-271h129q72 0 100.5 24.5t49.5 105.5h55l-24 -184h-498z" />
    <glyph glyph-name="Ecircumflex" unicode="&#xca;" horiz-adv-x="637" 
d="M186 750l-24 25l125 137q20 22 39 22q14 0 41 -28l121 -130l-25 -26l-137 84zM62 0v48l58 9q19 3 25 13t6 38v488q0 26 -6.5 35t-26.5 12l-56 9v48h463l37 -163l-52 -17q-30 79 -60 102.5t-103 23.5h-97v-259h87q53 0 66 11.5t27 70.5l46 6v-227l-46 -8q-9 58 -24 71.5
t-69 13.5h-87v-271h129q72 0 100.5 24.5t49.5 105.5h55l-24 -184h-498z" />
    <glyph glyph-name="Edieresis" unicode="&#xcb;" horiz-adv-x="637" 
d="M222 771q-28 0 -46 17.5t-18 45.5t18 46t46 18q29 0 47.5 -17.5t18.5 -45.5t-18.5 -46t-47.5 -18zM425 771q-29 0 -47 17.5t-18 45.5t18.5 46t46.5 18q29 0 47 -17.5t18 -45.5t-18.5 -46t-46.5 -18zM62 0v48l58 9q19 3 25 13t6 38v488q0 26 -6.5 35t-26.5 12l-56 9v48
h463l37 -163l-52 -17q-30 79 -60 102.5t-103 23.5h-97v-259h87q53 0 66 11.5t27 70.5l46 6v-227l-46 -8q-9 58 -24 71.5t-69 13.5h-87v-271h129q72 0 100.5 24.5t49.5 105.5h55l-24 -184h-498z" />
    <glyph glyph-name="Igrave" unicode="&#xcc;" horiz-adv-x="409" 
d="M279 752l-151 66q-42 18 -42 56q0 18 12.5 33t30.5 15q13 0 39 -23l131 -119zM62 0v48l62 9q19 3 25 13t6 38v488q0 25 -6.5 34t-26.5 13l-60 9v48h285v-48l-63 -9q-18 -3 -24 -13.5t-6 -37.5v-488q0 -25 6 -34t26 -13l61 -9v-48h-285z" />
    <glyph glyph-name="Iacute" unicode="&#xcd;" horiz-adv-x="409" 
d="M129 752l-20 28l131 119q26 23 39 23q18 0 30.5 -15t12.5 -33q0 -38 -42 -56zM62 0v48l62 9q19 3 25 13t6 38v488q0 25 -6.5 34t-26.5 13l-60 9v48h285v-48l-63 -9q-18 -3 -24 -13.5t-6 -37.5v-488q0 -25 6 -34t26 -13l61 -9v-48h-285z" />
    <glyph glyph-name="Icircumflex" unicode="&#xce;" horiz-adv-x="409" 
d="M65 750l-24 25l125 137q20 22 39 22q14 0 41 -28l121 -130l-25 -26l-137 84zM62 0v48l62 9q19 3 25 13t6 38v488q0 25 -6.5 34t-26.5 13l-60 9v48h285v-48l-63 -9q-18 -3 -24 -13.5t-6 -37.5v-488q0 -25 6 -34t26 -13l61 -9v-48h-285z" />
    <glyph glyph-name="Idieresis" unicode="&#xcf;" horiz-adv-x="409" 
d="M101 771q-28 0 -46 17.5t-18 45.5t18 46t46 18q29 0 47.5 -17.5t18.5 -45.5t-18.5 -46t-47.5 -18zM304 771q-29 0 -47 17.5t-18 45.5t18.5 46t46.5 18q29 0 47 -17.5t18 -45.5t-18.5 -46t-46.5 -18zM62 0v48l62 9q19 3 25 13t6 38v488q0 25 -6.5 34t-26.5 13l-60 9v48
h285v-48l-63 -9q-18 -3 -24 -13.5t-6 -37.5v-488q0 -25 6 -34t26 -13l61 -9v-48h-285z" />
    <glyph glyph-name="Eth" unicode="&#xd0;" horiz-adv-x="765" 
d="M349 700q178 0 272 -84.5t94 -243.5q0 -175 -104.5 -273.5t-289.5 -98.5h-259v48l58 9q19 3 25 13t6 38v222h-110l8 63h102v203q0 25 -6.5 34t-26.5 13l-56 9v48h287zM322 55q147 0 216.5 75.5t69.5 233.5q0 138 -68 210t-199 72h-91v-253h191v-63h-191v-270q23 -5 72 -5
z" />
    <glyph glyph-name="Ntilde" unicode="&#xd1;" horiz-adv-x="835" 
d="M489 777q-35 0 -92 24q-60 24 -73 24q-14 0 -23.5 -7t-23.5 -29l-31 19q25 55 44.5 74.5t48.5 19.5q28 0 89 -26q59 -24 76 -24q12 0 20 7t24 30l31 -19q-26 -54 -45 -73.5t-45 -19.5zM62 0v48l58 9q18 3 24 13.5t6 37.5v488q0 25 -6 34t-26 13l-56 9v48h222l332 -571
v467q0 25 -6.5 34t-26.5 13l-55 9v48h245v-48l-57 -9q-19 -3 -25 -13t-6 -38v-592h-103l-362 609v-505q0 -25 6 -34t26 -13l56 -9v-48h-246z" />
    <glyph glyph-name="Ograve" unicode="&#xd2;" horiz-adv-x="760" 
d="M457 752l-151 66q-42 18 -42 56q0 18 12.5 33t30.5 15q13 0 39 -23l131 -119zM378 -14q-148 0 -238 96t-90 254q0 173 91.5 275.5t245.5 102.5q146 0 234.5 -95t88.5 -251q0 -171 -91.5 -276.5t-240.5 -105.5zM390 53q103 0 157 75.5t54 220.5q0 142 -60 221.5t-167 79.5
q-104 0 -161 -76.5t-57 -216.5t63 -222t171 -82z" />
    <glyph glyph-name="Oacute" unicode="&#xd3;" horiz-adv-x="760" 
d="M307 752l-20 28l131 119q26 23 39 23q18 0 30.5 -15t12.5 -33q0 -38 -42 -56zM378 -14q-148 0 -238 96t-90 254q0 173 91.5 275.5t245.5 102.5q146 0 234.5 -95t88.5 -251q0 -171 -91.5 -276.5t-240.5 -105.5zM390 53q103 0 157 75.5t54 220.5q0 142 -60 221.5t-167 79.5
q-104 0 -161 -76.5t-57 -216.5t63 -222t171 -82z" />
    <glyph glyph-name="Ocircumflex" unicode="&#xd4;" horiz-adv-x="760" 
d="M243 750l-24 25l125 137q20 22 39 22q14 0 41 -28l121 -130l-25 -26l-137 84zM378 -14q-148 0 -238 96t-90 254q0 173 91.5 275.5t245.5 102.5q146 0 234.5 -95t88.5 -251q0 -171 -91.5 -276.5t-240.5 -105.5zM390 53q103 0 157 75.5t54 220.5q0 142 -60 221.5t-167 79.5
q-104 0 -161 -76.5t-57 -216.5t63 -222t171 -82z" />
    <glyph glyph-name="Otilde" unicode="&#xd5;" horiz-adv-x="760" 
d="M459 777q-35 0 -92 24q-60 24 -73 24q-14 0 -23.5 -7t-23.5 -29l-31 19q25 55 44.5 74.5t48.5 19.5q28 0 89 -26q59 -24 76 -24q12 0 20 7t24 30l31 -19q-26 -54 -45 -73.5t-45 -19.5zM378 -14q-148 0 -238 96t-90 254q0 173 91.5 275.5t245.5 102.5q146 0 234.5 -95
t88.5 -251q0 -171 -91.5 -276.5t-240.5 -105.5zM390 53q103 0 157 75.5t54 220.5q0 142 -60 221.5t-167 79.5q-104 0 -161 -76.5t-57 -216.5t63 -222t171 -82z" />
    <glyph glyph-name="Odieresis" unicode="&#xd6;" horiz-adv-x="760" 
d="M279 771q-28 0 -46 17.5t-18 45.5t18 46t46 18q29 0 47.5 -17.5t18.5 -45.5t-18.5 -46t-47.5 -18zM482 771q-29 0 -47 17.5t-18 45.5t18.5 46t46.5 18q29 0 47 -17.5t18 -45.5t-18.5 -46t-46.5 -18zM378 -14q-148 0 -238 96t-90 254q0 173 91.5 275.5t245.5 102.5
q146 0 234.5 -95t88.5 -251q0 -171 -91.5 -276.5t-240.5 -105.5zM390 53q103 0 157 75.5t54 220.5q0 142 -60 221.5t-167 79.5q-104 0 -161 -76.5t-57 -216.5t63 -222t171 -82z" />
    <glyph glyph-name="multiply" unicode="&#xd7;" horiz-adv-x="582" 
d="M429 123l-139 140l-138 -137l-42 42l137 139l-138 136l45 42l136 -135l141 141l42 -44l-140 -141l140 -139z" />
    <glyph glyph-name="Oslash" unicode="&#xd8;" horiz-adv-x="760" 
d="M722 714l-90 -108q78 -92 78 -238q0 -171 -91.5 -276.5t-240.5 -105.5q-122 0 -206 67l-56 -67h-80l92 110q-78 95 -78 240q0 173 91.5 275.5t245.5 102.5q119 0 201 -65l54 65h80zM156 357q0 -108 38 -182l338 407q-59 68 -158 68q-104 0 -161 -76.5t-57 -216.5z
M601 349q0 105 -34 179l-338 -406q63 -69 161 -69q103 0 157 75.5t54 220.5z" />
    <glyph glyph-name="Ugrave" unicode="&#xd9;" horiz-adv-x="810" 
d="M491 752l-151 66q-42 18 -42 56q0 18 12.5 33t30.5 15q13 0 39 -23l131 -119zM404 -14q-135 0 -200.5 68.5t-65.5 210.5v331q0 25 -6.5 34t-26.5 13l-56 9v48h276v-48l-58 -9q-18 -3 -24 -13.5t-6 -37.5v-320q0 -115 42 -165.5t139 -50.5t143 54.5t46 168.5v317
q0 25 -6.5 34t-26.5 13l-55 9v48h246v-48l-57 -9q-19 -3 -25 -13t-6 -38v-301q0 -305 -273 -305z" />
    <glyph glyph-name="Uacute" unicode="&#xda;" horiz-adv-x="810" 
d="M341 752l-20 28l131 119q26 23 39 23q18 0 30.5 -15t12.5 -33q0 -38 -42 -56zM404 -14q-135 0 -200.5 68.5t-65.5 210.5v331q0 25 -6.5 34t-26.5 13l-56 9v48h276v-48l-58 -9q-18 -3 -24 -13.5t-6 -37.5v-320q0 -115 42 -165.5t139 -50.5t143 54.5t46 168.5v317
q0 25 -6.5 34t-26.5 13l-55 9v48h246v-48l-57 -9q-19 -3 -25 -13t-6 -38v-301q0 -305 -273 -305z" />
    <glyph glyph-name="Ucircumflex" unicode="&#xdb;" horiz-adv-x="810" 
d="M277 750l-24 25l125 137q20 22 39 22q14 0 41 -28l121 -130l-25 -26l-137 84zM404 -14q-135 0 -200.5 68.5t-65.5 210.5v331q0 25 -6.5 34t-26.5 13l-56 9v48h276v-48l-58 -9q-18 -3 -24 -13.5t-6 -37.5v-320q0 -115 42 -165.5t139 -50.5t143 54.5t46 168.5v317
q0 25 -6.5 34t-26.5 13l-55 9v48h246v-48l-57 -9q-19 -3 -25 -13t-6 -38v-301q0 -305 -273 -305z" />
    <glyph glyph-name="Udieresis" unicode="&#xdc;" horiz-adv-x="810" 
d="M313 771q-28 0 -46 17.5t-18 45.5t18 46t46 18q29 0 47.5 -17.5t18.5 -45.5t-18.5 -46t-47.5 -18zM516 771q-29 0 -47 17.5t-18 45.5t18.5 46t46.5 18q29 0 47 -17.5t18 -45.5t-18.5 -46t-46.5 -18zM404 -14q-135 0 -200.5 68.5t-65.5 210.5v331q0 25 -6.5 34t-26.5 13
l-56 9v48h276v-48l-58 -9q-18 -3 -24 -13.5t-6 -37.5v-320q0 -115 42 -165.5t139 -50.5t143 54.5t46 168.5v317q0 25 -6.5 34t-26.5 13l-55 9v48h246v-48l-57 -9q-19 -3 -25 -13t-6 -38v-301q0 -305 -273 -305z" />
    <glyph glyph-name="Yacute" unicode="&#xdd;" horiz-adv-x="716" 
d="M300 752l-20 28l131 119q26 23 39 23q18 0 30.5 -15t12.5 -33q0 -38 -42 -56zM213 0v48l62 9q19 3 25 13t6 38v185l-187 298q-16 27 -28 37t-32 14l-37 7v51h279v-48l-55 -7q-23 -2 -28 -15.5t9 -34.5l146 -237h5l138 233q28 41 -17 51l-46 11v47h241v-48l-49 -8
q-16 -2 -26.5 -12.5t-30.5 -42.5l-183 -297v-188q0 -25 6 -34t26 -13l61 -9v-48h-285z" />
    <glyph glyph-name="Thorn" unicode="&#xde;" horiz-adv-x="602" 
d="M62 0v48l58 9q19 3 25 13t6 38v484q0 28 -6 38t-25 13l-58 9v48h295v-48l-70 -8q-22 -3 -29.5 -13t-7.5 -37v-35h58q269 0 269 -191q0 -97 -68.5 -157t-179.5 -60h-79v-45q0 -27 7.5 -37t29.5 -13l70 -8v-48h-295zM250 205h58q162 0 162 160q0 73 -40.5 106.5
t-128.5 33.5h-51v-300z" />
    <glyph glyph-name="germandbls" unicode="&#xdf;" horiz-adv-x="677" 
d="M305 -14l-16 172l56 4q41 -116 133 -116q42 0 66.5 22t24.5 62q0 35 -23.5 58.5t-57 38t-67 31t-57 48t-23.5 77.5q0 35 18.5 69t40.5 57t40.5 58.5t18.5 72.5q0 88 -107 88q-58 0 -94 -31t-36 -98v-599h-181v48l57 9q20 3 25.5 14.5t5.5 36.5v336h-80v50l80 10v41
q0 109 61.5 173t169.5 64q79 0 130.5 -31t51.5 -100q0 -33 -17 -66.5t-37.5 -57t-37.5 -55t-17 -60.5q0 -31 22.5 -53.5t55 -38t64.5 -33.5t54.5 -52.5t22.5 -82.5q0 -69 -46 -117.5t-130 -48.5q-65 0 -118 37l-11 -37h-42z" />
    <glyph glyph-name="agrave" unicode="&#xe0;" horiz-adv-x="539" 
d="M303 580l-132 88q-35 24 -35 53q0 20 13.5 35.5t34.5 15.5q16 0 39 -29l104 -138zM192 -14q-63 0 -101.5 37t-38.5 98q0 82 63.5 118.5t223.5 44.5v68q0 61 -26 89.5t-82 28.5q-27 0 -53.5 -8.5t-38.5 -21.5q26 -43 26 -56q0 -19 -15.5 -32t-38.5 -13q-27 0 -42 13.5
t-15 38.5q0 52 57 91t134 39q187 0 187 -180v-241q0 -44 45 -44q22 0 47 8l10 -38q-42 -40 -92 -40q-86 0 -95 89q-56 -89 -155 -89zM230 55q46 0 77.5 30.5t31.5 75.5v71q-190 0 -190 -100q0 -36 21.5 -56.5t59.5 -20.5z" />
    <glyph glyph-name="aacute" unicode="&#xe1;" horiz-adv-x="539" 
d="M195 580l-24 25l104 138q22 29 39 29q21 0 34.5 -15.5t13.5 -35.5q0 -29 -35 -53zM192 -14q-63 0 -101.5 37t-38.5 98q0 82 63.5 118.5t223.5 44.5v68q0 61 -26 89.5t-82 28.5q-27 0 -53.5 -8.5t-38.5 -21.5q26 -43 26 -56q0 -19 -15.5 -32t-38.5 -13q-27 0 -42 13.5
t-15 38.5q0 52 57 91t134 39q187 0 187 -180v-241q0 -44 45 -44q22 0 47 8l10 -38q-42 -40 -92 -40q-86 0 -95 89q-56 -89 -155 -89zM230 55q46 0 77.5 30.5t31.5 75.5v71q-190 0 -190 -100q0 -36 21.5 -56.5t59.5 -20.5z" />
    <glyph glyph-name="acircumflex" unicode="&#xe2;" horiz-adv-x="539" 
d="M123 580l-26 25l114 152q18 22 39 22q20 0 41 -28l109 -145l-27 -26l-123 100zM192 -14q-63 0 -101.5 37t-38.5 98q0 82 63.5 118.5t223.5 44.5v68q0 61 -26 89.5t-82 28.5q-27 0 -53.5 -8.5t-38.5 -21.5q26 -43 26 -56q0 -19 -15.5 -32t-38.5 -13q-27 0 -42 13.5
t-15 38.5q0 52 57 91t134 39q187 0 187 -180v-241q0 -44 45 -44q22 0 47 8l10 -38q-42 -40 -92 -40q-86 0 -95 89q-56 -89 -155 -89zM230 55q46 0 77.5 30.5t31.5 75.5v71q-190 0 -190 -100q0 -36 21.5 -56.5t59.5 -20.5z" />
    <glyph glyph-name="atilde" unicode="&#xe3;" horiz-adv-x="539" 
d="M322 620q-34 0 -90 24q-59 25 -70 25q-14 0 -23 -7.5t-24 -29.5l-31 19q25 53 44 72t49 19t86 -24q63 -24 74 -24q13 0 21.5 7t22.5 30l31 -19q-25 -54 -44 -73t-46 -19zM192 -14q-63 0 -101.5 37t-38.5 98q0 82 63.5 118.5t223.5 44.5v68q0 61 -26 89.5t-82 28.5
q-27 0 -53.5 -8.5t-38.5 -21.5q26 -43 26 -56q0 -19 -15.5 -32t-38.5 -13q-27 0 -42 13.5t-15 38.5q0 52 57 91t134 39q187 0 187 -180v-241q0 -44 45 -44q22 0 47 8l10 -38q-42 -40 -92 -40q-86 0 -95 89q-56 -89 -155 -89zM230 55q46 0 77.5 30.5t31.5 75.5v71
q-190 0 -190 -100q0 -36 21.5 -56.5t59.5 -20.5z" />
    <glyph glyph-name="adieresis" unicode="&#xe4;" horiz-adv-x="539" 
d="M147 620q-27 0 -45 17.5t-18 44.5t18 45t45 18q28 0 46.5 -17.5t18.5 -44.5t-18.5 -45t-46.5 -18zM346 620q-28 0 -46 17.5t-18 44.5t18 45t46 18t46 -17.5t18 -44.5t-18 -45t-46 -18zM192 -14q-63 0 -101.5 37t-38.5 98q0 82 63.5 118.5t223.5 44.5v68q0 61 -26 89.5
t-82 28.5q-27 0 -53.5 -8.5t-38.5 -21.5q26 -43 26 -56q0 -19 -15.5 -32t-38.5 -13q-27 0 -42 13.5t-15 38.5q0 52 57 91t134 39q187 0 187 -180v-241q0 -44 45 -44q22 0 47 8l10 -38q-42 -40 -92 -40q-86 0 -95 89q-56 -89 -155 -89zM230 55q46 0 77.5 30.5t31.5 75.5v71
q-190 0 -190 -100q0 -36 21.5 -56.5t59.5 -20.5z" />
    <glyph glyph-name="aring" unicode="&#xe5;" horiz-adv-x="539" 
d="M248 582q-54 0 -81 27.5t-27 75.5q0 44 28.5 73t81.5 29q51 0 78.5 -27t27.5 -73q0 -48 -28.5 -76.5t-79.5 -28.5zM249 629q48 0 48 56q0 24 -12.5 40t-37.5 16t-37 -16t-12 -40t12.5 -40t38.5 -16zM192 -14q-63 0 -101.5 37t-38.5 98q0 82 63.5 118.5t223.5 44.5v68
q0 61 -26 89.5t-82 28.5q-27 0 -53.5 -8.5t-38.5 -21.5q26 -43 26 -56q0 -19 -15.5 -32t-38.5 -13q-27 0 -42 13.5t-15 38.5q0 52 57 91t134 39q187 0 187 -180v-241q0 -44 45 -44q22 0 47 8l10 -38q-42 -40 -92 -40q-86 0 -95 89q-56 -89 -155 -89zM230 55q46 0 77.5 30.5
t31.5 75.5v71q-190 0 -190 -100q0 -36 21.5 -56.5t59.5 -20.5z" />
    <glyph glyph-name="ae" unicode="&#xe6;" horiz-adv-x="804" 
d="M192 -14q-56 0 -98 33t-42 102q0 64 40.5 102t114.5 49q54 8 132 12v68q0 64 -27.5 91t-80.5 27q-30 0 -55.5 -9t-36.5 -21q26 -45 26 -56q0 -18 -15 -31.5t-39 -13.5q-57 0 -57 52q0 53 58 91.5t133 38.5q116 0 159 -67q67 67 171 67q80 0 132 -47.5t52 -129.5
q0 -48 -14 -98h-313q3 -86 45 -136t116 -50q80 0 138 60l35 -35q-31 -42 -82.5 -70.5t-113.5 -28.5q-133 0 -197 102q-55 -102 -181 -102zM432 302h230q3 19 3 46q0 120 -101 120q-117 0 -132 -166zM230 55q38 0 73.5 27t35.5 82v68q-43 0 -97 -9q-50 -8 -71.5 -33
t-21.5 -58q0 -39 23 -58t58 -19z" />
    <glyph glyph-name="ccedilla" unicode="&#xe7;" horiz-adv-x="499" 
d="M470 80q-32 -42 -80 -67.5t-101 -26.5l-17 -43q49 6 77.5 -14t28.5 -62q0 -44 -29 -70t-86 -26q-31 0 -57 13.5t-38 26.5l24 37q29 -22 64 -22q21 0 35.5 11t14.5 32q0 38 -50 38q-16 0 -30 -3l-8 21l25 64q-92 12 -144.5 80.5t-52.5 177.5q0 124 67 199t177 75
q77 0 128 -37.5t51 -93.5q0 -30 -18 -47.5t-48 -17.5q-28 0 -43.5 12.5t-15.5 35.5q0 21 28 68q-35 24 -90 24q-59 0 -97 -55t-38 -142q0 -95 43 -150t117 -55q77 0 129 52z" />
    <glyph glyph-name="egrave" unicode="&#xe8;" horiz-adv-x="519" 
d="M333 580l-132 88q-35 24 -35 53q0 20 13.5 35.5t34.5 15.5q16 0 39 -29l104 -138zM285 -14q-109 0 -174 71t-65 190q0 124 67 199t177 75q83 0 133.5 -49t50.5 -128q0 -42 -14 -98h-313q3 -88 45.5 -137t115.5 -49q80 0 138 60l35 -35q-34 -46 -87 -72.5t-109 -26.5z
M147 302h230q3 19 3 46q0 120 -101 120q-57 0 -90.5 -42.5t-41.5 -123.5z" />
    <glyph glyph-name="eacute" unicode="&#xe9;" horiz-adv-x="520" 
d="M226 580l-24 25l104 138q22 29 39 29q21 0 34.5 -15.5t13.5 -35.5q0 -29 -35 -53zM285 -14q-109 0 -174 71t-65 190q0 124 67 199t177 75q83 0 133.5 -49t50.5 -128q0 -42 -14 -98h-313q3 -88 45.5 -137t115.5 -49q80 0 138 60l35 -35q-34 -46 -87 -72.5t-109 -26.5z
M147 302h230q3 19 3 46q0 120 -101 120q-57 0 -90.5 -42.5t-41.5 -123.5z" />
    <glyph glyph-name="ecircumflex" unicode="&#xea;" horiz-adv-x="519" 
d="M153 580l-26 25l114 152q18 22 39 22q20 0 41 -28l109 -145l-27 -26l-123 100zM285 -14q-109 0 -174 71t-65 190q0 124 67 199t177 75q83 0 133.5 -49t50.5 -128q0 -42 -14 -98h-313q3 -88 45.5 -137t115.5 -49q80 0 138 60l35 -35q-34 -46 -87 -72.5t-109 -26.5z
M147 302h230q3 19 3 46q0 120 -101 120q-57 0 -90.5 -42.5t-41.5 -123.5z" />
    <glyph glyph-name="edieresis" unicode="&#xeb;" horiz-adv-x="520" 
d="M178 620q-27 0 -45 17.5t-18 44.5t18 45t45 18q28 0 46.5 -17.5t18.5 -44.5t-18.5 -45t-46.5 -18zM377 620q-28 0 -46 17.5t-18 44.5t18 45t46 18t46 -17.5t18 -44.5t-18 -45t-46 -18zM285 -14q-109 0 -174 71t-65 190q0 124 67 199t177 75q83 0 133.5 -49t50.5 -128
q0 -42 -14 -98h-313q3 -88 45.5 -137t115.5 -49q80 0 138 60l35 -35q-34 -46 -87 -72.5t-109 -26.5zM147 302h230q3 19 3 46q0 120 -101 120q-57 0 -90.5 -42.5t-41.5 -123.5z" />
    <glyph glyph-name="igrave" unicode="&#xec;" horiz-adv-x="333" 
d="M207 580l-132 88q-35 24 -35 53q0 20 13.5 35.5t34.5 15.5q16 0 39 -29l104 -138zM40 0v49l57 9q19 3 25 12.5t6 38.5v273q0 37 -6.5 48.5t-29.5 14.5l-48 7l7 50l158 8l12 -5v-400q0 -25 6.5 -34.5t25.5 -12.5l56 -10v-48h-269z" />
    <glyph glyph-name="iacute" unicode="&#xed;" horiz-adv-x="333" 
d="M99 580l-24 25l104 138q22 29 39 29q21 0 34.5 -15.5t13.5 -35.5q0 -29 -35 -53zM40 0v49l57 9q19 3 25 12.5t6 38.5v273q0 37 -6.5 48.5t-29.5 14.5l-48 7l7 50l158 8l12 -5v-400q0 -25 6.5 -34.5t25.5 -12.5l56 -10v-48h-269z" />
    <glyph glyph-name="icircumflex" unicode="&#xee;" horiz-adv-x="333" 
d="M27 580l-26 25l114 152q18 22 39 22q20 0 41 -28l109 -145l-27 -26l-123 100zM40 0v49l57 9q19 3 25 12.5t6 38.5v273q0 37 -6.5 48.5t-29.5 14.5l-48 7l7 50l158 8l12 -5v-400q0 -25 6.5 -34.5t25.5 -12.5l56 -10v-48h-269z" />
    <glyph glyph-name="idieresis" unicode="&#xef;" horiz-adv-x="333" 
d="M51 620q-27 0 -45 17.5t-18 44.5t18 45t45 18q28 0 46.5 -17.5t18.5 -44.5t-18.5 -45t-46.5 -18zM250 620q-28 0 -46 17.5t-18 44.5t18 45t46 18t46 -17.5t18 -44.5t-18 -45t-46 -18zM40 0v49l57 9q19 3 25 12.5t6 38.5v273q0 37 -6.5 48.5t-29.5 14.5l-48 7l7 50l158 8
l12 -5v-400q0 -25 6.5 -34.5t25.5 -12.5l56 -10v-48h-269z" />
    <glyph glyph-name="eth" unicode="&#xf0;" horiz-adv-x="579" 
d="M277 -14q-106 0 -168 68t-62 187q0 125 67.5 190t157.5 65q50 0 93 -22.5t68 -61.5l-2 14q-15 132 -85 211l-96 -73l-25 45l80 58q-65 49 -164 59l9 45q133 -7 213 -57l97 75l25 -45l-78 -60q125 -109 125 -336q0 -172 -65 -267t-190 -95zM293 47q65 0 100 53.5t35 146.5
q0 83 -18 120q-15 30 -48 48.5t-74 18.5q-61 0 -99.5 -48t-38.5 -142q0 -97 37 -147t106 -50z" />
    <glyph glyph-name="ntilde" unicode="&#xf1;" horiz-adv-x="662" 
d="M413 620q-34 0 -90 24q-59 25 -70 25q-14 0 -23 -7.5t-24 -29.5l-31 19q25 53 44 72t49 19t86 -24q63 -24 74 -24q13 0 21.5 7t22.5 30l31 -19q-25 -54 -44 -73t-46 -19zM55 0v47l48 9q16 3 21 12.5t5 35.5v282q0 36 -6 47.5t-28 14.5l-49 7l7 48l139 11l12 -7l7 -89h3
q27 47 74.5 75t100.5 28q80 0 122 -44t42 -127v-254q0 -23 6 -30.5t25 -10.5l47 -8v-47h-245v46l44 8q19 4 24.5 12t5.5 30v225q0 71 -22.5 99.5t-77.5 28.5q-63 0 -100.5 -38t-37.5 -101v-210q0 -23 5 -31.5t20 -11.5l53 -11v-46h-245z" />
    <glyph glyph-name="ograve" unicode="&#xf2;" horiz-adv-x="586" 
d="M349 580l-132 88q-35 24 -35 53q0 20 13.5 35.5t34.5 15.5q16 0 39 -29l104 -138zM289 -14q-112 0 -177.5 69t-65.5 187q0 129 69 204t188 75q109 0 173 -69t64 -185q0 -128 -68 -204.5t-183 -76.5zM303 48q65 0 100 50.5t35 144.5q0 101 -40.5 160t-110.5 59
q-68 0 -104 -49t-36 -141q0 -105 41.5 -164.5t114.5 -59.5z" />
    <glyph glyph-name="oacute" unicode="&#xf3;" horiz-adv-x="587" 
d="M243 580l-24 25l104 138q22 29 39 29q21 0 34.5 -15.5t13.5 -35.5q0 -29 -35 -53zM289 -14q-112 0 -177.5 69t-65.5 187q0 129 69 204t188 75q109 0 173 -69t64 -185q0 -128 -68 -204.5t-183 -76.5zM303 48q65 0 100 50.5t35 144.5q0 101 -40.5 160t-110.5 59
q-68 0 -104 -49t-36 -141q0 -105 41.5 -164.5t114.5 -59.5z" />
    <glyph glyph-name="ocircumflex" unicode="&#xf4;" horiz-adv-x="586" 
d="M169 580l-26 25l114 152q18 22 39 22q20 0 41 -28l109 -145l-27 -26l-123 100zM289 -14q-112 0 -177.5 69t-65.5 187q0 129 69 204t188 75q109 0 173 -69t64 -185q0 -128 -68 -204.5t-183 -76.5zM303 48q65 0 100 50.5t35 144.5q0 101 -40.5 160t-110.5 59
q-68 0 -104 -49t-36 -141q0 -105 41.5 -164.5t114.5 -59.5z" />
    <glyph glyph-name="otilde" unicode="&#xf5;" horiz-adv-x="586" 
d="M368 620q-34 0 -90 24q-59 25 -70 25q-14 0 -23 -7.5t-24 -29.5l-31 19q25 53 44 72t49 19t86 -24q63 -24 74 -24q13 0 21.5 7t22.5 30l31 -19q-25 -54 -44 -73t-46 -19zM289 -14q-112 0 -177.5 69t-65.5 187q0 129 69 204t188 75q109 0 173 -69t64 -185
q0 -128 -68 -204.5t-183 -76.5zM303 48q65 0 100 50.5t35 144.5q0 101 -40.5 160t-110.5 59q-68 0 -104 -49t-36 -141q0 -105 41.5 -164.5t114.5 -59.5z" />
    <glyph glyph-name="odieresis" unicode="&#xf6;" horiz-adv-x="587" 
d="M193 620q-27 0 -45 17.5t-18 44.5t18 45t45 18q28 0 46.5 -17.5t18.5 -44.5t-18.5 -45t-46.5 -18zM392 620q-28 0 -46 17.5t-18 44.5t18 45t46 18t46 -17.5t18 -44.5t-18 -45t-46 -18zM289 -14q-112 0 -177.5 69t-65.5 187q0 129 69 204t188 75q109 0 173 -69t64 -185
q0 -128 -68 -204.5t-183 -76.5zM303 48q65 0 100 50.5t35 144.5q0 101 -40.5 160t-110.5 59q-68 0 -104 -49t-36 -141q0 -105 41.5 -164.5t114.5 -59.5z" />
    <glyph glyph-name="divide" unicode="&#xf7;" horiz-adv-x="582" 
d="M290 398q-27 0 -46 17.5t-19 43.5t19 44t46 18t46.5 -17.5t19.5 -43.5t-19.5 -44t-46.5 -18zM77 275v63h428v-63h-428zM290 88q-27 0 -46 17.5t-19 43.5t19 44t46 18t46.5 -17.5t19.5 -43.5t-19.5 -44t-46.5 -18z" />
    <glyph glyph-name="oslash" unicode="&#xf8;" horiz-adv-x="587" 
d="M573 521l-81 -89q48 -65 48 -165q0 -128 -68 -204.5t-183 -76.5q-96 0 -158 51l-47 -51h-79l86 94q-45 65 -45 162q0 129 69 204t188 75q90 0 148 -47l43 47h79zM147 272q0 -62 16 -113l229 251q-39 52 -105 52q-68 0 -104 -49t-36 -141zM438 243q0 63 -17 112l-230 -251
q42 -56 112 -56q65 0 100 50.5t35 144.5z" />
    <glyph glyph-name="ugrave" unicode="&#xf9;" horiz-adv-x="634" 
d="M352 580l-132 88q-35 24 -35 53q0 20 13.5 35.5t34.5 15.5q16 0 39 -29l104 -138zM265 -14q-79 0 -119.5 43.5t-40.5 127.5v229q0 36 -6 47t-28 15l-44 7l8 48l151 11l12 -7v-321q0 -73 20.5 -100.5t75.5 -27.5q62 0 98.5 37.5t36.5 101.5v189q0 36 -6 47t-28 15l-45 7
l8 48l152 11l12 -7v-406q0 -24 6 -32.5t26 -12.5l50 -9v-47l-155 -6l-14 81h-3q-75 -89 -167 -89z" />
    <glyph glyph-name="uacute" unicode="&#xfa;" horiz-adv-x="634" 
d="M256 580l-24 25l104 138q22 29 39 29q21 0 34.5 -15.5t13.5 -35.5q0 -29 -35 -53zM265 -14q-79 0 -119.5 43.5t-40.5 127.5v229q0 36 -6 47t-28 15l-44 7l8 48l151 11l12 -7v-321q0 -73 20.5 -100.5t75.5 -27.5q62 0 98.5 37.5t36.5 101.5v189q0 36 -6 47t-28 15l-45 7
l8 48l152 11l12 -7v-406q0 -24 6 -32.5t26 -12.5l50 -9v-47l-155 -6l-14 81h-3q-75 -89 -167 -89z" />
    <glyph glyph-name="ucircumflex" unicode="&#xfb;" horiz-adv-x="634" 
d="M185 580l-26 25l114 152q18 22 39 22q20 0 41 -28l109 -145l-27 -26l-123 100zM265 -14q-79 0 -119.5 43.5t-40.5 127.5v229q0 36 -6 47t-28 15l-44 7l8 48l151 11l12 -7v-321q0 -73 20.5 -100.5t75.5 -27.5q62 0 98.5 37.5t36.5 101.5v189q0 36 -6 47t-28 15l-45 7l8 48
l152 11l12 -7v-406q0 -24 6 -32.5t26 -12.5l50 -9v-47l-155 -6l-14 81h-3q-75 -89 -167 -89z" />
    <glyph glyph-name="udieresis" unicode="&#xfc;" horiz-adv-x="634" 
d="M208 620q-27 0 -45 17.5t-18 44.5t18 45t45 18q28 0 46.5 -17.5t18.5 -44.5t-18.5 -45t-46.5 -18zM407 620q-28 0 -46 17.5t-18 44.5t18 45t46 18t46 -17.5t18 -44.5t-18 -45t-46 -18zM265 -14q-79 0 -119.5 43.5t-40.5 127.5v229q0 36 -6 47t-28 15l-44 7l8 48l151 11
l12 -7v-321q0 -73 20.5 -100.5t75.5 -27.5q62 0 98.5 37.5t36.5 101.5v189q0 36 -6 47t-28 15l-45 7l8 48l152 11l12 -7v-406q0 -24 6 -32.5t26 -12.5l50 -9v-47l-155 -6l-14 81h-3q-75 -89 -167 -89z" />
    <glyph glyph-name="yacute" unicode="&#xfd;" horiz-adv-x="576" 
d="M256 580l-24 25l104 138q22 29 39 29q21 0 34.5 -15.5t13.5 -35.5q0 -29 -35 -53zM113 -229q-47 0 -75 21.5t-28 58.5q0 29 18.5 48t46.5 19q48 0 53 -36q2 -14 -4 -57q31 -2 53.5 23.5t55.5 101.5l25 57l-165 392q-13 30 -20.5 38.5t-23.5 12.5l-35 8l10 49h238v-46
l-48 -7q-20 -3 -24.5 -13.5t5.5 -36.5l111 -280h5l111 273q10 25 4.5 37t-27.5 17l-44 10l10 46h209v-47l-37 -8q-17 -4 -25.5 -13t-21.5 -41l-193 -452q-43 -99 -82.5 -137t-101.5 -38z" />
    <glyph glyph-name="thorn" unicode="&#xfe;" horiz-adv-x="615" 
d="M34 -219v48l48 8q29 5 29 47v760q0 34 -7 45t-36 15l-44 7l6 50l163 5l11 -11v-328q20 29 38 47t53 32.5t80 14.5q90 0 141.5 -65t51.5 -183q0 -138 -61.5 -211t-170.5 -73q-81 0 -132 33v-135q0 -24 7 -35t25 -14l61 -10v-47h-263zM330 55q69 0 103.5 55t34.5 149
q0 191 -123 191q-59 0 -100 -35t-41 -112v-205q22 -20 57.5 -31.5t68.5 -11.5z" />
    <glyph glyph-name="ydieresis" unicode="&#xff;" horiz-adv-x="576" 
d="M208 620q-27 0 -45 17.5t-18 44.5t18 45t45 18q28 0 46.5 -17.5t18.5 -44.5t-18.5 -45t-46.5 -18zM407 620q-28 0 -46 17.5t-18 44.5t18 45t46 18t46 -17.5t18 -44.5t-18 -45t-46 -18zM113 -229q-47 0 -75 21.5t-28 58.5q0 29 18.5 48t46.5 19q48 0 53 -36q2 -14 -4 -57
q31 -2 53.5 23.5t55.5 101.5l25 57l-165 392q-13 30 -20.5 38.5t-23.5 12.5l-35 8l10 49h238v-46l-48 -7q-20 -3 -24.5 -13.5t5.5 -36.5l111 -280h5l111 273q10 25 4.5 37t-27.5 17l-44 10l10 46h209v-47l-37 -8q-17 -4 -25.5 -13t-21.5 -41l-193 -452q-43 -99 -82.5 -137
t-101.5 -38z" />
    <glyph glyph-name="Amacron" unicode="&#x100;" horiz-adv-x="735" 
d="M231 795v73h284v-73h-284zM15 0v48l48 8q18 4 26 13.5t20 40.5l211 590h106l209 -591q11 -29 17.5 -37.5t26.5 -13.5l41 -8v-50h-267v48l58 7q20 3 24.5 13.5t-5.5 36.5l-43 126h-268l-42 -122q-9 -26 -4 -37.5t27 -16.5l57 -8v-47h-242zM239 288h229l-111 329h-4z" />
    <glyph glyph-name="amacron" unicode="&#x101;" horiz-adv-x="539" 
d="M108 635v73h280v-73h-280zM192 -14q-63 0 -101.5 37t-38.5 98q0 82 63.5 118.5t223.5 44.5v68q0 61 -26 89.5t-82 28.5q-27 0 -53.5 -8.5t-38.5 -21.5q26 -43 26 -56q0 -19 -15.5 -32t-38.5 -13q-27 0 -42 13.5t-15 38.5q0 52 57 91t134 39q187 0 187 -180v-241
q0 -44 45 -44q22 0 47 8l10 -38q-42 -40 -92 -40q-86 0 -95 89q-56 -89 -155 -89zM230 55q46 0 77.5 30.5t31.5 75.5v71q-190 0 -190 -100q0 -36 21.5 -56.5t59.5 -20.5z" />
    <glyph glyph-name="Abreve" unicode="&#x102;" horiz-adv-x="735" 
d="M370 752q-71 0 -110 46.5t-46 117.5l40 12q14 -50 43 -73t78 -23q95 0 120 95l38 -10q-6 -66 -48.5 -115.5t-114.5 -49.5zM15 0v48l48 8q18 4 26 13.5t20 40.5l211 590h106l209 -591q11 -29 17.5 -37.5t26.5 -13.5l41 -8v-50h-267v48l58 7q20 3 24.5 13.5t-5.5 36.5
l-43 126h-268l-42 -122q-9 -26 -4 -37.5t27 -16.5l57 -8v-47h-242zM239 288h229l-111 329h-4z" />
    <glyph glyph-name="abreve" unicode="&#x103;" horiz-adv-x="539" 
d="M246 587q-66 0 -102 48.5t-44 120.5l40 12q29 -101 111 -101q84 0 110 100l38 -10q-6 -67 -46 -118.5t-107 -51.5zM192 -14q-63 0 -101.5 37t-38.5 98q0 82 63.5 118.5t223.5 44.5v68q0 61 -26 89.5t-82 28.5q-27 0 -53.5 -8.5t-38.5 -21.5q26 -43 26 -56
q0 -19 -15.5 -32t-38.5 -13q-27 0 -42 13.5t-15 38.5q0 52 57 91t134 39q187 0 187 -180v-241q0 -44 45 -44q22 0 47 8l10 -38q-42 -40 -92 -40q-86 0 -95 89q-56 -89 -155 -89zM230 55q46 0 77.5 30.5t31.5 75.5v71q-190 0 -190 -100q0 -36 21.5 -56.5t59.5 -20.5z" />
    <glyph glyph-name="Aogonek" unicode="&#x104;" horiz-adv-x="735" 
d="M631 0q-81 -66 -81 -123q0 -41 41 -41q20 0 49 9l11 -35q-47 -39 -95 -39q-42 0 -67 23t-25 58q0 78 110 148h-121v48l58 7q20 3 24.5 13.5t-5.5 36.5l-43 126h-268l-42 -122q-9 -26 -4 -37.5t27 -16.5l57 -8v-47h-242v48l48 8q18 4 26 13.5t20 40.5l211 590h106
l209 -591q11 -29 17.5 -37.5t26.5 -13.5l41 -8v-50h-89zM239 288h229l-111 329h-4z" />
    <glyph glyph-name="aogonek" unicode="&#x105;" horiz-adv-x="539" 
d="M464 -164q20 0 49 9l11 -35q-47 -39 -95 -39q-42 0 -67 23t-25 58q0 68 93 134q-74 7 -83 89q-56 -89 -155 -89q-63 0 -101.5 37t-38.5 98q0 82 63.5 118.5t223.5 44.5v68q0 61 -26 89.5t-82 28.5q-27 0 -53.5 -8.5t-38.5 -21.5q26 -43 26 -56q0 -19 -15.5 -32t-38.5 -13
q-27 0 -42 13.5t-15 38.5q0 52 57 91t134 39q187 0 187 -180v-241q0 -44 45 -44q22 0 47 8l10 -38q-7 -7 -25 -19q-86 -75 -86 -130q0 -41 41 -41zM339 161v71q-190 0 -190 -100q0 -36 21.5 -56.5t59.5 -20.5q46 0 77.5 30.5t31.5 75.5z" />
    <glyph glyph-name="Cacute" unicode="&#x106;" horiz-adv-x="699" 
d="M292 752l-20 28l131 119q26 23 39 23q18 0 30.5 -15t12.5 -33q0 -38 -42 -56zM385 -14q-151 0 -243 100t-92 265q0 163 87.5 263t230.5 100q105 0 166 -61l10 63h49l39 -233l-54 -12q-31 95 -80 137.5t-128 42.5q-104 0 -158.5 -76.5t-54.5 -222.5q0 -133 66 -215
t172 -82q65 0 114 27t89 85l47 -34q-41 -68 -110.5 -107.5t-149.5 -39.5z" />
    <glyph glyph-name="cacute" unicode="&#x107;" 
d="M230 580l-24 25l104 138q22 29 39 29q21 0 34.5 -15.5t13.5 -35.5q0 -29 -35 -53zM282 -14q-109 0 -172.5 70.5t-63.5 190.5q0 124 67 199t177 75q77 0 128 -37.5t51 -93.5q0 -30 -18 -47.5t-48 -17.5q-28 0 -43.5 12.5t-15.5 35.5q0 21 28 68q-35 24 -90 24
q-59 0 -97 -55t-38 -142q0 -95 43 -150t117 -55q77 0 129 52l34 -35q-32 -44 -82.5 -69t-105.5 -25z" />
    <glyph glyph-name="Ccircumflex" unicode="&#x108;" horiz-adv-x="699" 
d="M228 750l-24 25l125 137q20 22 39 22q14 0 41 -28l121 -130l-25 -26l-137 84zM385 -14q-151 0 -243 100t-92 265q0 163 87.5 263t230.5 100q105 0 166 -61l10 63h49l39 -233l-54 -12q-31 95 -80 137.5t-128 42.5q-104 0 -158.5 -76.5t-54.5 -222.5q0 -133 66 -215
t172 -82q65 0 114 27t89 85l47 -34q-41 -68 -110.5 -107.5t-149.5 -39.5z" />
    <glyph glyph-name="ccircumflex" unicode="&#x109;" horiz-adv-x="499" 
d="M158 580l-26 25l114 152q18 22 39 22q20 0 41 -28l109 -145l-27 -26l-123 100zM282 -14q-109 0 -172.5 70.5t-63.5 190.5q0 124 67 199t177 75q77 0 128 -37.5t51 -93.5q0 -30 -18 -47.5t-48 -17.5q-28 0 -43.5 12.5t-15.5 35.5q0 21 28 68q-35 24 -90 24q-59 0 -97 -55
t-38 -142q0 -95 43 -150t117 -55q77 0 129 52l34 -35q-32 -44 -82.5 -69t-105.5 -25z" />
    <glyph glyph-name="Cdotaccent" unicode="&#x10a;" horiz-adv-x="699" 
d="M366 767q-29 0 -48 18.5t-19 47.5t19 48t48 19q30 0 49 -18.5t19 -47.5t-19 -48t-49 -19zM385 -14q-151 0 -243 100t-92 265q0 163 87.5 263t230.5 100q105 0 166 -61l10 63h49l39 -233l-54 -12q-31 95 -80 137.5t-128 42.5q-104 0 -158.5 -76.5t-54.5 -222.5
q0 -133 66 -215t172 -82q65 0 114 27t89 85l47 -34q-41 -68 -110.5 -107.5t-149.5 -39.5z" />
    <glyph glyph-name="cdotaccent" unicode="&#x10b;" horiz-adv-x="499" 
d="M282 620q-29 0 -48 18.5t-19 47.5t19 48t48 19q30 0 49 -18.5t19 -47.5t-19 -48t-49 -19zM282 -14q-109 0 -172.5 70.5t-63.5 190.5q0 124 67 199t177 75q77 0 128 -37.5t51 -93.5q0 -30 -18 -47.5t-48 -17.5q-28 0 -43.5 12.5t-15.5 35.5q0 21 28 68q-35 24 -90 24
q-59 0 -97 -55t-38 -142q0 -95 43 -150t117 -55q77 0 129 52l34 -35q-32 -44 -82.5 -69t-105.5 -25z" />
    <glyph glyph-name="Ccaron" unicode="&#x10c;" horiz-adv-x="699" 
d="M366 752q-14 0 -41 28l-121 130l25 26l137 -84l140 84l24 -25l-125 -137q-20 -22 -39 -22zM385 -14q-151 0 -243 100t-92 265q0 163 87.5 263t230.5 100q105 0 166 -61l10 63h49l39 -233l-54 -12q-31 95 -80 137.5t-128 42.5q-104 0 -158.5 -76.5t-54.5 -222.5
q0 -133 66 -215t172 -82q65 0 114 27t89 85l47 -34q-41 -68 -110.5 -107.5t-149.5 -39.5z" />
    <glyph glyph-name="ccaron" unicode="&#x10d;" horiz-adv-x="499" 
d="M282 580q-20 0 -41 28l-109 145l27 26l123 -100l127 100l26 -25l-114 -152q-18 -22 -39 -22zM282 -14q-109 0 -172.5 70.5t-63.5 190.5q0 124 67 199t177 75q77 0 128 -37.5t51 -93.5q0 -30 -18 -47.5t-48 -17.5q-28 0 -43.5 12.5t-15.5 35.5q0 21 28 68q-35 24 -90 24
q-59 0 -97 -55t-38 -142q0 -95 43 -150t117 -55q77 0 129 52l34 -35q-32 -44 -82.5 -69t-105.5 -25z" />
    <glyph glyph-name="Dcaron" unicode="&#x10e;" horiz-adv-x="765" 
d="M356 752q-14 0 -41 28l-121 130l25 26l137 -84l140 84l24 -25l-125 -137q-20 -22 -39 -22zM62 0v48l58 9q19 3 25 13t6 38v488q0 25 -6.5 34t-26.5 13l-56 9v48h287q178 0 272 -84.5t94 -243.5q0 -175 -104.5 -273.5t-289.5 -98.5h-259zM322 55q147 0 216.5 75.5
t69.5 233.5q0 138 -68 210t-199 72h-91v-586q23 -5 72 -5z" />
    <glyph glyph-name="dcaron" unicode="&#x10f;" horiz-adv-x="678" 
d="M581 541l-26 28q41 54 41 82q0 17 -16 34q-20 21 -20 38q0 23 15.5 34t36.5 11q31 0 46 -20t15 -48q0 -37 -24.5 -81t-67.5 -78zM251 -14q-97 0 -151 66.5t-54 185.5q0 130 65.5 206.5t178.5 76.5q72 0 123 -33v156q0 34 -7.5 44.5t-35.5 15.5l-44 7l6 50l163 5l11 -11
v-657q0 -24 6.5 -32.5t26.5 -12.5l49 -9v-47l-154 -6l-14 79h-3q-66 -84 -166 -84zM280 58q59 0 96 43t37 111v201q-52 41 -125 41q-143 0 -143 -206q0 -92 35 -141t100 -49z" />
    <glyph glyph-name="Dcroat" unicode="&#x110;" horiz-adv-x="765" 
d="M349 700q178 0 272 -84.5t94 -243.5q0 -175 -104.5 -273.5t-289.5 -98.5h-259v48l58 9q19 3 25 13t6 38v222h-110l8 63h102v203q0 25 -6.5 34t-26.5 13l-56 9v48h287zM322 55q147 0 216.5 75.5t69.5 233.5q0 138 -68 210t-199 72h-91v-253h191v-63h-191v-270q23 -5 72 -5
z" />
    <glyph glyph-name="dcroat" unicode="&#x111;" horiz-adv-x="614" 
d="M47 238q0 130 65.5 206.5t178.5 76.5q72 0 123 -33v81h-147l8 57h139v18q0 34 -7 45t-36 15l-44 7l6 50l163 5l11 -11v-129h96v-57h-96v-471q0 -24 6 -32.5t27 -12.5l49 -9v-47l-154 -6l-14 79h-3q-66 -84 -166 -84q-98 0 -151.5 67t-53.5 185zM146 248q0 -86 32.5 -138
t102.5 -52q53 0 93 38.5t40 115.5v201q-52 41 -125 41q-143 0 -143 -206z" />
    <glyph glyph-name="Emacron" unicode="&#x112;" horiz-adv-x="637" 
d="M183 795v73h284v-73h-284zM62 0v48l58 9q19 3 25 13t6 38v488q0 26 -6.5 35t-26.5 12l-56 9v48h463l37 -163l-52 -17q-30 79 -60 102.5t-103 23.5h-97v-259h87q53 0 66 11.5t27 70.5l46 6v-227l-46 -8q-9 58 -24 71.5t-69 13.5h-87v-271h129q72 0 100.5 24.5t49.5 105.5
h55l-24 -184h-498z" />
    <glyph glyph-name="emacron" unicode="&#x113;" horiz-adv-x="519" 
d="M138 635v73h280v-73h-280zM285 -14q-109 0 -174 71t-65 190q0 124 67 199t177 75q83 0 133.5 -49t50.5 -128q0 -42 -14 -98h-313q3 -88 45.5 -137t115.5 -49q80 0 138 60l35 -35q-34 -46 -87 -72.5t-109 -26.5zM147 302h230q3 19 3 46q0 120 -101 120q-57 0 -90.5 -42.5
t-41.5 -123.5z" />
    <glyph glyph-name="Ebreve" unicode="&#x114;" horiz-adv-x="637" 
d="M322 752q-71 0 -110 46.5t-46 117.5l40 12q14 -50 43 -73t78 -23q95 0 120 95l38 -10q-6 -66 -48.5 -115.5t-114.5 -49.5zM62 0v48l58 9q19 3 25 13t6 38v488q0 26 -6.5 35t-26.5 12l-56 9v48h463l37 -163l-52 -17q-30 79 -60 102.5t-103 23.5h-97v-259h87q53 0 66 11.5
t27 70.5l46 6v-227l-46 -8q-9 58 -24 71.5t-69 13.5h-87v-271h129q72 0 100.5 24.5t49.5 105.5h55l-24 -184h-498z" />
    <glyph glyph-name="ebreve" unicode="&#x115;" horiz-adv-x="520" 
d="M276 587q-66 0 -102 48.5t-44 120.5l40 12q29 -101 111 -101q84 0 110 100l38 -10q-6 -67 -46 -118.5t-107 -51.5zM285 -14q-109 0 -174 71t-65 190q0 124 67 199t177 75q83 0 133.5 -49t50.5 -128q0 -42 -14 -98h-313q3 -88 45.5 -137t115.5 -49q80 0 138 60l35 -35
q-34 -46 -87 -72.5t-109 -26.5zM147 302h230q3 19 3 46q0 120 -101 120q-57 0 -90.5 -42.5t-41.5 -123.5z" />
    <glyph glyph-name="Edotaccent" unicode="&#x116;" horiz-adv-x="637" 
d="M324 767q-29 0 -48 18.5t-19 47.5t19 48t48 19q30 0 49 -18.5t19 -47.5t-19 -48t-49 -19zM62 0v48l58 9q19 3 25 13t6 38v488q0 26 -6.5 35t-26.5 12l-56 9v48h463l37 -163l-52 -17q-30 79 -60 102.5t-103 23.5h-97v-259h87q53 0 66 11.5t27 70.5l46 6v-227l-46 -8
q-9 58 -24 71.5t-69 13.5h-87v-271h129q72 0 100.5 24.5t49.5 105.5h55l-24 -184h-498z" />
    <glyph glyph-name="edotaccent" unicode="&#x117;" horiz-adv-x="519" 
d="M277 620q-29 0 -48 18.5t-19 47.5t19 48t48 19q30 0 49 -18.5t19 -47.5t-19 -48t-49 -19zM285 -14q-109 0 -174 71t-65 190q0 124 67 199t177 75q83 0 133.5 -49t50.5 -128q0 -42 -14 -98h-313q3 -88 45.5 -137t115.5 -49q80 0 138 60l35 -35q-34 -46 -87 -72.5
t-109 -26.5zM147 302h230q3 19 3 46q0 120 -101 120q-57 0 -90.5 -42.5t-41.5 -123.5z" />
    <glyph glyph-name="Eogonek" unicode="&#x118;" horiz-adv-x="637" 
d="M560 0q-40 -13 -74 -49.5t-34 -73.5q0 -41 41 -41q20 0 49 9l11 -35q-47 -39 -95 -39q-42 0 -67 23t-25 58q0 50 35.5 87.5t84.5 60.5h-424v48l58 9q19 3 25 13t6 38v488q0 26 -6.5 35t-26.5 12l-56 9v48h463l37 -163l-52 -17q-30 79 -60 102.5t-103 23.5h-97v-259h87
q53 0 66 11.5t27 70.5l46 6v-227l-46 -8q-9 58 -24 71.5t-69 13.5h-87v-271h129q72 0 100.5 24.5t49.5 105.5h55z" />
    <glyph glyph-name="eogonek" unicode="&#x119;" horiz-adv-x="520" 
d="M481 85q-25 -34 -60 -57q-114 -80 -114 -151q0 -41 41 -41q20 0 49 9l11 -35q-47 -39 -95 -39q-42 0 -67 23t-25 58q0 64 87 135q-8 -1 -23 -1q-109 0 -174 71t-65 190q0 124 67 199t177 75q83 0 133.5 -49t50.5 -128q0 -42 -14 -98h-313q3 -88 45.5 -137t115.5 -49
q80 0 138 60zM279 468q-57 0 -90.5 -42.5t-41.5 -123.5h230q3 19 3 46q0 120 -101 120z" />
    <glyph glyph-name="Ecaron" unicode="&#x11a;" horiz-adv-x="637" 
d="M324 752q-14 0 -41 28l-121 130l25 26l137 -84l140 84l24 -25l-125 -137q-20 -22 -39 -22zM62 0v48l58 9q19 3 25 13t6 38v488q0 26 -6.5 35t-26.5 12l-56 9v48h463l37 -163l-52 -17q-30 79 -60 102.5t-103 23.5h-97v-259h87q53 0 66 11.5t27 70.5l46 6v-227l-46 -8
q-9 58 -24 71.5t-69 13.5h-87v-271h129q72 0 100.5 24.5t49.5 105.5h55l-24 -184h-498z" />
    <glyph glyph-name="ecaron" unicode="&#x11b;" horiz-adv-x="519" 
d="M277 580q-20 0 -41 28l-109 145l27 26l123 -100l127 100l26 -25l-114 -152q-18 -22 -39 -22zM285 -14q-109 0 -174 71t-65 190q0 124 67 199t177 75q83 0 133.5 -49t50.5 -128q0 -42 -14 -98h-313q3 -88 45.5 -137t115.5 -49q80 0 138 60l35 -35q-34 -46 -87 -72.5
t-109 -26.5zM147 302h230q3 19 3 46q0 120 -101 120q-57 0 -90.5 -42.5t-41.5 -123.5z" />
    <glyph glyph-name="Gcircumflex" unicode="&#x11c;" horiz-adv-x="751" 
d="M228 750l-24 25l125 137q20 22 39 22q14 0 41 -28l121 -130l-25 -26l-137 84zM371 -14q-144 0 -232.5 97.5t-88.5 256.5q0 169 87 271.5t231 102.5q108 0 169 -61l10 63h49l46 -233l-55 -12q-30 93 -81.5 136.5t-131.5 43.5q-106 0 -161.5 -77.5t-55.5 -224.5
q0 -134 60.5 -215.5t160.5 -81.5q111 0 162 68v110q0 25 -6.5 34t-26.5 13l-60 9v48h271v-48l-53 -9q-18 -3 -24 -13.5t-6 -37.5v-229h-43l-26 47q-81 -58 -195 -58z" />
    <glyph glyph-name="gcircumflex" unicode="&#x11d;" horiz-adv-x="558" 
d="M140 580l-26 25l114 152q18 22 39 22q20 0 41 -28l109 -145l-27 -26l-123 100zM254 -229q-229 0 -229 123q0 72 91 114v4q-25 8 -41.5 30t-16.5 47q0 27 13.5 50.5t51.5 63.5v3q-74 38 -74 137q0 81 56.5 129.5t150.5 48.5q75 0 130 -33q33 94 104 94q29 0 48 -15t19 -38
q0 -22 -17.5 -39t-39.5 -17q-26 0 -40 27l-10 21q-16 -25 -29 -63q38 -46 38 -110q0 -79 -55 -126.5t-147 -47.5q-54 0 -81 10q-32 -36 -32 -60q0 -22 16.5 -31.5t53.5 -9.5h128q92 0 134.5 -31t42.5 -98q0 -87 -69.5 -135t-195.5 -48zM255 227q52 0 80.5 31t28.5 87
q0 59 -30 92t-85 33q-105 0 -105 -122q0 -56 30 -88.5t81 -32.5zM262 -166q76 0 119 25.5t43 70.5q0 62 -93 62h-168q-46 -34 -46 -83q0 -40 33.5 -57.5t111.5 -17.5z" />
    <glyph glyph-name="Gbreve" unicode="&#x11e;" horiz-adv-x="751" 
d="M373 762q-71 0 -110 46.5t-46 117.5l40 12q14 -50 43 -73t78 -23q95 0 120 95l38 -10q-6 -66 -48.5 -115.5t-114.5 -49.5zM371 -14q-144 0 -232.5 97.5t-88.5 256.5q0 169 87 271.5t231 102.5q108 0 169 -61l10 63h49l46 -233l-55 -12q-30 93 -81.5 136.5t-131.5 43.5
q-106 0 -161.5 -77.5t-55.5 -224.5q0 -134 60.5 -215.5t160.5 -81.5q111 0 162 68v110q0 25 -6.5 34t-26.5 13l-60 9v48h271v-48l-53 -9q-18 -3 -24 -13.5t-6 -37.5v-229h-43l-26 47q-81 -58 -195 -58z" />
    <glyph glyph-name="gbreve" unicode="&#x11f;" horiz-adv-x="558" 
d="M256 587q-66 0 -102 48.5t-44 120.5l40 12q29 -101 111 -101q84 0 110 100l38 -10q-6 -67 -46 -118.5t-107 -51.5zM254 -229q-229 0 -229 123q0 72 91 114v4q-25 8 -41.5 30t-16.5 47q0 27 13.5 50.5t51.5 63.5v3q-74 38 -74 137q0 81 56.5 129.5t150.5 48.5
q75 0 130 -33q33 94 104 94q29 0 48 -15t19 -38q0 -22 -17.5 -39t-39.5 -17q-26 0 -40 27l-10 21q-16 -25 -29 -63q38 -46 38 -110q0 -79 -55 -126.5t-147 -47.5q-54 0 -81 10q-32 -36 -32 -60q0 -22 16.5 -31.5t53.5 -9.5h128q92 0 134.5 -31t42.5 -98q0 -87 -69.5 -135
t-195.5 -48zM255 227q52 0 80.5 31t28.5 87q0 59 -30 92t-85 33q-105 0 -105 -122q0 -56 30 -88.5t81 -32.5zM262 -166q76 0 119 25.5t43 70.5q0 62 -93 62h-168q-46 -34 -46 -83q0 -40 33.5 -57.5t111.5 -17.5z" />
    <glyph glyph-name="Gdotaccent" unicode="&#x120;" horiz-adv-x="751" 
d="M366 767q-29 0 -48 18.5t-19 47.5t19 48t48 19q30 0 49 -18.5t19 -47.5t-19 -48t-49 -19zM371 -14q-144 0 -232.5 97.5t-88.5 256.5q0 169 87 271.5t231 102.5q108 0 169 -61l10 63h49l46 -233l-55 -12q-30 93 -81.5 136.5t-131.5 43.5q-106 0 -161.5 -77.5t-55.5 -224.5
q0 -134 60.5 -215.5t160.5 -81.5q111 0 162 68v110q0 25 -6.5 34t-26.5 13l-60 9v48h271v-48l-53 -9q-18 -3 -24 -13.5t-6 -37.5v-229h-43l-26 47q-81 -58 -195 -58z" />
    <glyph glyph-name="gdotaccent" unicode="&#x121;" horiz-adv-x="558" 
d="M258 620q-29 0 -48 18.5t-19 47.5t19 48t48 19q30 0 49 -18.5t19 -47.5t-19 -48t-49 -19zM254 -229q-229 0 -229 123q0 72 91 114v4q-25 8 -41.5 30t-16.5 47q0 27 13.5 50.5t51.5 63.5v3q-74 38 -74 137q0 81 56.5 129.5t150.5 48.5q75 0 130 -33q33 94 104 94
q29 0 48 -15t19 -38q0 -22 -17.5 -39t-39.5 -17q-26 0 -40 27l-10 21q-16 -25 -29 -63q38 -46 38 -110q0 -79 -55 -126.5t-147 -47.5q-54 0 -81 10q-32 -36 -32 -60q0 -22 16.5 -31.5t53.5 -9.5h128q92 0 134.5 -31t42.5 -98q0 -87 -69.5 -135t-195.5 -48zM255 227
q52 0 80.5 31t28.5 87q0 59 -30 92t-85 33q-105 0 -105 -122q0 -56 30 -88.5t81 -32.5zM262 -166q76 0 119 25.5t43 70.5q0 62 -93 62h-168q-46 -34 -46 -83q0 -40 33.5 -57.5t111.5 -17.5z" />
    <glyph glyph-name="uni0122" unicode="&#x122;" horiz-adv-x="751" 
d="M371 -14q-144 0 -232.5 97.5t-88.5 256.5q0 169 87 271.5t231 102.5q108 0 169 -61l10 63h49l46 -233l-55 -12q-30 93 -81.5 136.5t-131.5 43.5q-106 0 -161.5 -77.5t-55.5 -224.5q0 -134 60.5 -215.5t160.5 -81.5q111 0 162 68v110q0 25 -6.5 34t-26.5 13l-60 9v48h271
v-48l-53 -9q-18 -3 -24 -13.5t-6 -37.5v-229h-43l-26 47q-81 -58 -195 -58zM339 -268l-24 29q48 41 48 81h-10q-51 0 -51 46q0 25 16.5 40.5t44.5 15.5q34 0 50.5 -21t16.5 -51q0 -41 -24 -80t-67 -60z" />
    <glyph glyph-name="uni0123" unicode="&#x123;" horiz-adv-x="558" 
d="M261 578q-32 0 -49.5 21.5t-17.5 50.5q0 41 24 80t67 60l22 -29q-48 -41 -48 -83h8q51 0 51 -42q0 -25 -16 -41.5t-41 -16.5zM254 -229q-229 0 -229 123q0 72 91 114v4q-25 8 -41.5 30t-16.5 47q0 27 13.5 50.5t51.5 63.5v3q-74 38 -74 137q0 81 56.5 129.5t150.5 48.5
q75 0 130 -33q33 94 104 94q29 0 48 -15t19 -38q0 -22 -17.5 -39t-39.5 -17q-26 0 -40 27l-10 21q-16 -25 -29 -63q38 -46 38 -110q0 -79 -55 -126.5t-147 -47.5q-54 0 -81 10q-32 -36 -32 -60q0 -22 16.5 -31.5t53.5 -9.5h128q92 0 134.5 -31t42.5 -98q0 -87 -69.5 -135
t-195.5 -48zM255 227q52 0 80.5 31t28.5 87q0 59 -30 92t-85 33q-105 0 -105 -122q0 -56 30 -88.5t81 -32.5zM262 -166q76 0 119 25.5t43 70.5q0 62 -93 62h-168q-46 -34 -46 -83q0 -40 33.5 -57.5t111.5 -17.5z" />
    <glyph glyph-name="Hcircumflex" unicode="&#x124;" horiz-adv-x="839" 
d="M281 750l-24 25l125 137q20 22 39 22q14 0 41 -28l121 -130l-25 -26l-137 84zM62 0v48l58 9q19 3 25 13t6 38v488q0 25 -6.5 34t-26.5 13l-56 9v48h276v-48l-58 -9q-18 -3 -24 -13.5t-6 -37.5v-201h340v205q0 25 -6.5 34t-26.5 13l-55 9v48h275v-48l-57 -9
q-19 -3 -25 -13t-6 -38v-488q0 -25 6.5 -34t26.5 -13l55 -9v-48h-275v48l57 9q19 3 25 13t6 38v220h-340v-224q0 -25 6 -34t26 -13l56 -9v-48h-276z" />
    <glyph glyph-name="hcircumflex" unicode="&#x125;" horiz-adv-x="662" 
d="M6 800l-24 25l125 137q20 22 39 22q14 0 41 -28l121 -130l-25 -26l-137 84zM55 0v47l46 9q17 3 22.5 13t5.5 35v540q0 34 -7.5 44.5t-35.5 15.5l-44 7l6 50l163 5l11 -11v-327q23 42 69 67.5t98 25.5q80 0 122 -44t42 -127v-254q0 -22 5.5 -29.5t25.5 -11.5l47 -8v-47
h-245v46l44 8q19 4 24.5 12t5.5 30v225q0 71 -22.5 99.5t-77.5 28.5q-63 0 -100.5 -38t-37.5 -101v-210q0 -23 5 -31.5t20 -11.5l53 -11v-46h-245z" />
    <glyph glyph-name="Hbar" unicode="&#x126;" horiz-adv-x="840" 
d="M788 492h-99v-388q0 -25 6.5 -34t26.5 -13l55 -9v-48h-275v48l57 9q19 3 25 13t6 38v220h-340v-224q0 -25 6 -34t26 -13l56 -9v-48h-276v48l58 9q19 3 25 13t6 38v384h-103l8 57h95v47q0 25 -6.5 34t-26.5 13l-56 9v48h276v-48l-58 -9q-18 -3 -24 -13.5t-6 -37.5v-43h340
v47q0 25 -6.5 34t-26.5 13l-55 9v48h275v-48l-57 -9q-19 -3 -25 -13t-6 -38v-43h99v-57zM590 391v101h-340v-101h340z" />
    <glyph glyph-name="hbar" unicode="&#x127;" horiz-adv-x="662" 
d="M584 55l47 -8v-47h-245v46l44 8q19 4 24.5 12t5.5 30v225q0 71 -22.5 99.5t-77.5 28.5q-63 0 -100.5 -38t-37.5 -101v-210q0 -23 5 -31.5t20 -11.5l53 -11v-46h-245v47l46 9q17 3 22.5 13t5.5 35v465h-98l8 57h90v18q0 34 -7.5 44.5t-35.5 15.5l-44 7l6 50l163 5l11 -11
v-129h143v-57h-143v-141q23 42 69 67.5t98 25.5q80 0 122 -44t42 -127v-254q0 -22 5.5 -29.5t25.5 -11.5z" />
    <glyph glyph-name="Itilde" unicode="&#x128;" horiz-adv-x="409" 
d="M281 777q-35 0 -92 24q-60 24 -73 24q-14 0 -23.5 -7t-23.5 -29l-31 19q25 55 44.5 74.5t48.5 19.5q28 0 89 -26q59 -24 76 -24q12 0 20 7t24 30l31 -19q-26 -54 -45 -73.5t-45 -19.5zM62 0v48l62 9q19 3 25 13t6 38v488q0 25 -6.5 34t-26.5 13l-60 9v48h285v-48l-63 -9
q-18 -3 -24 -13.5t-6 -37.5v-488q0 -25 6 -34t26 -13l61 -9v-48h-285z" />
    <glyph glyph-name="itilde" unicode="&#x129;" horiz-adv-x="333" 
d="M226 620q-34 0 -90 24q-59 25 -70 25q-14 0 -23 -7.5t-24 -29.5l-31 19q25 53 44 72t49 19t86 -24q63 -24 74 -24q13 0 21.5 7t22.5 30l31 -19q-25 -54 -44 -73t-46 -19zM40 0v49l57 9q19 3 25 12.5t6 38.5v273q0 37 -6.5 48.5t-29.5 14.5l-48 7l7 50l158 8l12 -5v-400
q0 -25 6.5 -34.5t25.5 -12.5l56 -10v-48h-269z" />
    <glyph glyph-name="Imacron" unicode="&#x12a;" horiz-adv-x="409" 
d="M62 795v73h284v-73h-284zM62 0v48l62 9q19 3 25 13t6 38v488q0 25 -6.5 34t-26.5 13l-60 9v48h285v-48l-63 -9q-18 -3 -24 -13.5t-6 -37.5v-488q0 -25 6 -34t26 -13l61 -9v-48h-285z" />
    <glyph glyph-name="imacron" unicode="&#x12b;" horiz-adv-x="333" 
d="M12 635v73h280v-73h-280zM40 0v49l57 9q19 3 25 12.5t6 38.5v273q0 37 -6.5 48.5t-29.5 14.5l-48 7l7 50l158 8l12 -5v-400q0 -25 6.5 -34.5t25.5 -12.5l56 -10v-48h-269z" />
    <glyph glyph-name="Ibreve" unicode="&#x12c;" horiz-adv-x="409" 
d="M201 752q-71 0 -110 46.5t-46 117.5l40 12q14 -50 43 -73t78 -23q95 0 120 95l38 -10q-6 -66 -48.5 -115.5t-114.5 -49.5zM62 0v48l62 9q19 3 25 13t6 38v488q0 25 -6.5 34t-26.5 13l-60 9v48h285v-48l-63 -9q-18 -3 -24 -13.5t-6 -37.5v-488q0 -25 6 -34t26 -13l61 -9
v-48h-285z" />
    <glyph glyph-name="ibreve" unicode="&#x12d;" horiz-adv-x="333" 
d="M149 587q-66 0 -102 48.5t-44 120.5l40 12q29 -101 111 -101q84 0 110 100l38 -10q-6 -67 -46 -118.5t-107 -51.5zM40 0v49l57 9q19 3 25 12.5t6 38.5v273q0 37 -6.5 48.5t-29.5 14.5l-48 7l7 50l158 8l12 -5v-400q0 -25 6.5 -34.5t25.5 -12.5l56 -10v-48h-269z" />
    <glyph glyph-name="Iogonek" unicode="&#x12e;" horiz-adv-x="401" 
d="M284 643q-18 -3 -24 -13.5t-6 -37.5v-488q0 -25 6 -34t26 -13l61 -9v-48h-83q-81 -66 -81 -123q0 -41 41 -41q20 0 49 9l11 -35q-47 -39 -95 -39q-42 0 -67 23t-25 58q0 78 110 148h-145v48l62 9q19 3 25 13t6 38v488q0 25 -6.5 34t-26.5 13l-60 9v48h285v-48z" />
    <glyph glyph-name="iogonek" unicode="&#x12f;" horiz-adv-x="333" 
d="M160 620q-29 0 -48 18.5t-19 47.5t19 48t48 19q30 0 49 -18.5t19 -47.5t-19 -48t-49 -19zM243 0q-81 -66 -81 -123q0 -41 41 -41q20 0 49 9l11 -35q-47 -39 -95 -39q-42 0 -67 23t-25 58q0 78 110 148h-146v49l57 9q19 3 25 12.5t6 38.5v273q0 37 -6.5 48.5t-29.5 14.5
l-48 7l7 50l158 8l12 -5v-400q0 -25 6.5 -34.5t25.5 -12.5l56 -10v-48h-66z" />
    <glyph glyph-name="Idotaccent" unicode="&#x130;" horiz-adv-x="409" 
d="M203 767q-29 0 -48 18.5t-19 47.5t19 48t48 19q30 0 49 -18.5t19 -47.5t-19 -48t-49 -19zM62 0v48l62 9q19 3 25 13t6 38v488q0 25 -6.5 34t-26.5 13l-60 9v48h285v-48l-63 -9q-18 -3 -24 -13.5t-6 -37.5v-488q0 -25 6 -34t26 -13l61 -9v-48h-285z" />
    <glyph glyph-name="dotlessi" unicode="&#x131;" horiz-adv-x="333" 
d="M40 0v49l57 9q19 3 25 12.5t6 38.5v273q0 37 -6.5 48.5t-29.5 14.5l-48 7l7 50l158 8l12 -5v-400q0 -25 6.5 -34.5t25.5 -12.5l56 -10v-48h-269z" />
    <glyph glyph-name="IJ" unicode="&#x132;" horiz-adv-x="966" 
d="M62 0v48l62 9q19 3 25 13t6 38v488q0 25 -6.5 34t-26.5 13l-60 9v48h285v-48l-63 -9q-18 -3 -24 -13.5t-6 -37.5v-488q0 -25 6 -34t26 -13l61 -9v-48h-285zM628 -14q-79 0 -129 34.5t-50 87.5q0 35 21.5 58.5t53.5 23.5q30 0 46.5 -12t16.5 -33t-30 -71q26 -24 77 -24
q54 0 79.5 37t25.5 114v393q0 26 -6.5 35t-26.5 12l-70 10v49h295v-48l-63 -9q-18 -2 -24 -12.5t-6 -38.5v-368q0 -113 -55 -175.5t-155 -62.5z" />
    <glyph glyph-name="ij" unicode="&#x133;" horiz-adv-x="642" 
d="M160 620q-29 0 -48 18.5t-19 47.5t19 48t48 19q30 0 49 -18.5t19 -47.5t-19 -48t-49 -19zM486 620q-29 0 -48 18.5t-19 47.5t19 48t48 19q30 0 49 -18.5t19 -47.5t-19 -48t-49 -19zM40 0v49l57 9q19 3 25 12.5t6 38.5v273q0 37 -6.5 48.5t-29.5 14.5l-48 7l7 50l158 8
l12 -5v-400q0 -25 6.5 -34.5t25.5 -12.5l56 -10v-48h-269zM395 -229l-28 41q47 37 67 87t20 129v354q0 37 -6.5 48.5t-29.5 14.5l-48 7l8 50l157 8l12 -5v-410q0 -136 -33 -206.5t-119 -117.5z" />
    <glyph glyph-name="Jcircumflex" unicode="&#x134;" horiz-adv-x="557" 
d="M242 750l-24 25l125 137q20 22 39 22q14 0 41 -28l121 -130l-25 -26l-137 84zM219 -14q-79 0 -129 34.5t-50 87.5q0 35 21.5 58.5t53.5 23.5q30 0 46.5 -12t16.5 -33t-30 -71q26 -24 77 -24q54 0 79.5 37t25.5 114v393q0 26 -6.5 35t-26.5 12l-70 10v49h295v-48l-63 -9
q-18 -2 -24 -12.5t-6 -38.5v-368q0 -113 -55 -175.5t-155 -62.5z" />
    <glyph glyph-name="jcircumflex" unicode="&#x135;" horiz-adv-x="309" 
d="M15 580l-26 25l114 152q18 22 39 22q20 0 41 -28l109 -145l-27 -26l-123 100zM62 -229l-28 41q48 38 67.5 89t19.5 127v354q0 36 -6 48t-30 15l-48 7l8 50l157 8l12 -5v-410q0 -136 -33 -206.5t-119 -117.5z" />
    <glyph glyph-name="uni0136" unicode="&#x136;" horiz-adv-x="754" 
d="M632 -14q-54 0 -90.5 22.5t-70.5 76.5l-157 251l-60 -61v-171q0 -25 6 -34t26 -13l61 -9v-48h-285v48l62 9q19 3 25 13t6 38v488q0 25 -6.5 34t-26.5 13l-60 9v48h285v-48l-63 -9q-18 -2 -24 -12.5t-6 -38.5v-242l243 243q16 17 12.5 31.5t-25.5 18.5l-48 8l10 49h237
v-50l-38 -8q-28 -6 -68 -46l-194 -195l175 -265q33 -50 57 -66.5t65 -16.5q18 0 45 9l10 -36q-38 -40 -103 -40zM351 -268l-24 29q48 41 48 81h-10q-51 0 -51 46q0 25 16.5 40.5t44.5 15.5q34 0 50.5 -21t16.5 -51q0 -41 -24 -80t-67 -60z" />
    <glyph glyph-name="uni0137" unicode="&#x137;" horiz-adv-x="610" 
d="M43 0v48l57 9q19 3 25 12.5t6 38.5v536q0 34 -7.5 44.5t-35.5 15.5l-44 7l5 50l164 5l11 -11v-651q0 -24 5.5 -33.5t21.5 -13.5l36 -8v-49h-244zM528 -9q-40 0 -65.5 14.5t-62.5 59.5l-169 201v8l159 143q13 11 13 23t-13 14l-45 7l9 46h224v-45l-29 -8q-38 -11 -70 -38
l-149 -126l166 -189q38 -42 73 -42q8 0 39 8l10 -36q-42 -40 -90 -40zM292 -268l-24 29q48 41 48 81h-10q-51 0 -51 46q0 25 16.5 40.5t44.5 15.5q34 0 50.5 -21t16.5 -51q0 -41 -24 -80t-67 -60z" />
    <glyph glyph-name="kgreenlandic" unicode="&#x138;" horiz-adv-x="610" 
d="M43 0v48l57 9q19 3 25 13t6 38v283q0 34 -7 45t-36 15l-44 7l5 50l164 5l11 -11v-398q0 -23 5 -33t22 -14l36 -8v-49h-244zM528 -9q-44 0 -68.5 16t-59.5 58l-169 201v8l159 143q14 13 13 24t-13 13l-45 7l9 46h224v-45l-29 -8q-35 -10 -70 -38l-149 -126l166 -189
q38 -42 69 -42q20 0 43 8l10 -36q-42 -40 -90 -40z" />
    <glyph glyph-name="Lacute" unicode="&#x139;" horiz-adv-x="637" 
d="M126 752l-20 28l131 119q26 23 39 23q18 0 30.5 -15t12.5 -33q0 -38 -42 -56zM62 0v48l58 9q19 3 25 13t6 38v488q0 25 -6.5 34t-26.5 13l-56 9v48h286v-48l-66 -9q-20 -4 -26 -13t-6 -34v-541h113q68 0 98.5 30.5t60.5 128.5h55l-25 -214h-490z" />
    <glyph glyph-name="lacute" unicode="&#x13a;" horiz-adv-x="335" 
d="M71 802l-20 28l131 119q26 23 39 23q18 0 30.5 -15t12.5 -33q0 -38 -42 -56zM42 0v49l57 9q19 3 25 12.5t6 38.5v534q0 34 -7.5 44.5t-35.5 15.5l-44 7l6 51l163 5l11 -11v-650q0 -25 6.5 -34.5t25.5 -12.5l56 -10v-48h-269z" />
    <glyph glyph-name="uni013B" unicode="&#x13b;" horiz-adv-x="637" 
d="M62 0v48l58 9q19 3 25 13t6 38v488q0 25 -6.5 34t-26.5 13l-56 9v48h286v-48l-66 -9q-20 -4 -26 -13t-6 -34v-541h113q68 0 98.5 30.5t60.5 128.5h55l-25 -214h-490zM299 -268l-24 29q48 41 48 81h-10q-51 0 -51 46q0 25 16.5 40.5t44.5 15.5q34 0 50.5 -21t16.5 -51
q0 -41 -24 -80t-67 -60z" />
    <glyph glyph-name="uni013C" unicode="&#x13c;" horiz-adv-x="335" 
d="M42 0v49l57 9q19 3 25 12.5t6 38.5v534q0 34 -7.5 44.5t-35.5 15.5l-44 7l6 51l163 5l11 -11v-650q0 -25 6.5 -34.5t25.5 -12.5l56 -10v-48h-269zM149 -268l-24 29q48 41 48 81h-10q-51 0 -51 46q0 25 16.5 40.5t44.5 15.5q34 0 50.5 -21t16.5 -51q0 -41 -24 -80t-67 -60
z" />
    <glyph glyph-name="Lcaron" unicode="&#x13d;" horiz-adv-x="637" 
d="M430 541l-26 28q41 54 41 82q0 17 -16 34q-20 21 -20 38q0 23 15.5 34t36.5 11q31 0 46 -20t15 -48q0 -37 -24.5 -81t-67.5 -78zM62 0v48l58 9q19 3 25 13t6 38v488q0 25 -6.5 34t-26.5 13l-56 9v48h286v-48l-66 -9q-20 -4 -26 -13t-6 -34v-541h113q68 0 98.5 30.5
t60.5 128.5h55l-25 -214h-490z" />
    <glyph glyph-name="lcaron" unicode="&#x13e;" horiz-adv-x="389" 
d="M296 541l-26 28q41 54 41 82q0 17 -16 34q-20 21 -20 38q0 23 15.5 34t36.5 11q31 0 46 -20t15 -48q0 -37 -24.5 -81t-67.5 -78zM42 0v49l57 9q19 3 25 12.5t6 38.5v534q0 34 -7.5 44.5t-35.5 15.5l-44 7l6 51l163 5l11 -11v-650q0 -25 6.5 -34.5t25.5 -12.5l56 -10v-48
h-269z" />
    <glyph glyph-name="Ldot" unicode="&#x13f;" horiz-adv-x="637" 
d="M62 0v48l58 9q19 3 25 13t6 38v488q0 25 -6.5 34t-26.5 13l-56 9v48h286v-48l-66 -9q-20 -4 -26 -13t-6 -34v-541h113q68 0 98.5 30.5t60.5 128.5h55l-25 -214h-490zM506 318q-29 0 -48 18.5t-19 47.5t19 48t48 19q30 0 49 -18.5t19 -47.5t-19 -48t-49 -19z" />
    <glyph glyph-name="ldot" unicode="&#x140;" horiz-adv-x="395" 
d="M42 0v49l57 9q19 3 25 12.5t6 38.5v534q0 34 -7.5 44.5t-35.5 15.5l-44 7l6 51l163 5l11 -11v-650q0 -25 6.5 -34.5t25.5 -12.5l56 -10v-48h-269zM367 330q-29 0 -48 18.5t-19 47.5t19 48t48 19q30 0 49 -18.5t19 -47.5t-19 -48t-49 -19z" />
    <glyph glyph-name="Lslash" unicode="&#x141;" horiz-adv-x="637" 
d="M522 214h55l-25 -214h-490v48l58 9q19 3 25 13t6 38v193l-123 -66v68l123 65v228q0 25 -6.5 34t-26.5 13l-56 9v48h286v-48l-66 -9q-20 -4 -26 -13t-6 -34v-185l192 103v-67l-192 -103v-289h113q68 0 98.5 30.5t60.5 128.5z" />
    <glyph glyph-name="lslash" unicode="&#x142;" horiz-adv-x="359" 
d="M334 442l-105 -57v-280q0 -25 6.5 -34.5t25.5 -12.5l56 -10v-48h-269v49l57 9q19 3 25 12.5t6 38.5v236l-106 -58v72l106 57v227q0 34 -7.5 44.5t-35.5 15.5l-44 7l6 51l163 5l11 -11v-299l105 57v-71z" />
    <glyph glyph-name="Nacute" unicode="&#x143;" horiz-adv-x="835" 
d="M337 752l-20 28l131 119q26 23 39 23q18 0 30.5 -15t12.5 -33q0 -38 -42 -56zM62 0v48l58 9q18 3 24 13.5t6 37.5v488q0 25 -6 34t-26 13l-56 9v48h222l332 -571v467q0 25 -6.5 34t-26.5 13l-55 9v48h245v-48l-57 -9q-19 -3 -25 -13t-6 -38v-592h-103l-362 609v-505
q0 -25 6 -34t26 -13l56 -9v-48h-246z" />
    <glyph glyph-name="nacute" unicode="&#x144;" horiz-adv-x="662" 
d="M285 580l-24 25l104 138q22 29 39 29q21 0 34.5 -15.5t13.5 -35.5q0 -29 -35 -53zM55 0v47l48 9q16 3 21 12.5t5 35.5v282q0 36 -6 47.5t-28 14.5l-49 7l7 48l139 11l12 -7l7 -89h3q27 47 74.5 75t100.5 28q80 0 122 -44t42 -127v-254q0 -23 6 -30.5t25 -10.5l47 -8v-47
h-245v46l44 8q19 4 24.5 12t5.5 30v225q0 71 -22.5 99.5t-77.5 28.5q-63 0 -100.5 -38t-37.5 -101v-210q0 -23 5 -31.5t20 -11.5l53 -11v-46h-245z" />
    <glyph glyph-name="uni0145" unicode="&#x145;" horiz-adv-x="835" 
d="M62 0v48l58 9q18 3 24 13.5t6 37.5v488q0 25 -6 34t-26 13l-56 9v48h222l332 -571v467q0 25 -6.5 34t-26.5 13l-55 9v48h245v-48l-57 -9q-19 -3 -25 -13t-6 -38v-592h-103l-362 609v-505q0 -25 6 -34t26 -13l56 -9v-48h-246zM383 -268l-24 29q48 41 48 81h-10
q-51 0 -51 46q0 25 16.5 40.5t44.5 15.5q34 0 50.5 -21t16.5 -51q0 -41 -24 -80t-67 -60z" />
    <glyph glyph-name="uni0146" unicode="&#x146;" horiz-adv-x="662" 
d="M55 0v47l48 9q16 3 21 12.5t5 35.5v282q0 36 -6 47.5t-28 14.5l-49 7l7 48l139 11l12 -7l7 -89h3q27 47 74.5 75t100.5 28q80 0 122 -44t42 -127v-254q0 -23 6 -30.5t25 -10.5l47 -8v-47h-245v46l44 8q19 4 24.5 12t5.5 30v225q0 71 -22.5 99.5t-77.5 28.5
q-63 0 -100.5 -38t-37.5 -101v-210q0 -23 5 -31.5t20 -11.5l53 -11v-46h-245zM313 -268l-24 29q48 41 48 81h-10q-51 0 -51 46q0 25 16.5 40.5t44.5 15.5q34 0 50.5 -21t16.5 -51q0 -41 -24 -80t-67 -60z" />
    <glyph glyph-name="Ncaron" unicode="&#x147;" horiz-adv-x="835" 
d="M411 752q-14 0 -41 28l-121 130l25 26l137 -84l140 84l24 -25l-125 -137q-20 -22 -39 -22zM62 0v48l58 9q18 3 24 13.5t6 37.5v488q0 25 -6 34t-26 13l-56 9v48h222l332 -571v467q0 25 -6.5 34t-26.5 13l-55 9v48h245v-48l-57 -9q-19 -3 -25 -13t-6 -38v-592h-103
l-362 609v-505q0 -25 6 -34t26 -13l56 -9v-48h-246z" />
    <glyph glyph-name="ncaron" unicode="&#x148;" horiz-adv-x="662" 
d="M338 580q-20 0 -41 28l-109 145l27 26l123 -100l127 100l26 -25l-114 -152q-18 -22 -39 -22zM55 0v47l48 9q16 3 21 12.5t5 35.5v282q0 36 -6 47.5t-28 14.5l-49 7l7 48l139 11l12 -7l7 -89h3q27 47 74.5 75t100.5 28q80 0 122 -44t42 -127v-254q0 -23 6 -30.5t25 -10.5
l47 -8v-47h-245v46l44 8q19 4 24.5 12t5.5 30v225q0 71 -22.5 99.5t-77.5 28.5q-63 0 -100.5 -38t-37.5 -101v-210q0 -23 5 -31.5t20 -11.5l53 -11v-46h-245z" />
    <glyph glyph-name="napostrophe" unicode="&#x149;" horiz-adv-x="717" 
d="M17 493l-24 29q48 41 48 81h-10q-51 0 -51 46q0 25 16.5 40.5t44.5 15.5q34 0 50.5 -21t16.5 -51q0 -41 -24 -80t-67 -60zM110 0v47l48 9q16 3 21 12.5t5 35.5v282q0 36 -6 47.5t-28 14.5l-49 7l7 48l139 11l12 -7l7 -89h3q27 47 74.5 75t100.5 28q80 0 122 -44t42 -127
v-254q0 -23 6 -30.5t25 -10.5l47 -8v-47h-245v46l44 8q19 4 24.5 12t5.5 30v225q0 71 -22.5 99.5t-77.5 28.5q-63 0 -100.5 -38t-37.5 -101v-210q0 -23 5 -31.5t20 -11.5l53 -11v-46h-245z" />
    <glyph glyph-name="Eng" unicode="&#x14a;" horiz-adv-x="824" 
d="M774 700v-48l-57 -9q-19 -3 -25 -13t-6 -38v-497q0 -133 -34.5 -204.5t-122.5 -119.5l-28 41q83 66 87 195l-366 602h-1v-505q0 -25 6 -34t26 -13l56 -9v-48h-246v48l58 9q18 3 24 13.5t6 37.5v488q0 25 -6 34t-26 13l-56 9v48h222l330 -555h2v451q0 25 -6.5 34t-26.5 13
l-55 9v48h245z" />
    <glyph glyph-name="eng" unicode="&#x14b;" horiz-adv-x="645" 
d="M389 521q80 0 122 -44t42 -127v-255q0 -136 -33 -206.5t-119 -117.5l-28 41q48 38 67.5 89t19.5 127v293q0 71 -22.5 99.5t-77.5 28.5q-63 0 -100.5 -38t-37.5 -101v-210q0 -23 5 -31.5t20 -11.5l53 -11v-46h-245v47l48 9q16 3 21 12.5t5 35.5v282q0 36 -6 47.5t-28 14.5
l-49 7l7 48l139 11l12 -7l7 -89h3q27 47 74.5 75t100.5 28z" />
    <glyph glyph-name="Omacron" unicode="&#x14c;" horiz-adv-x="760" 
d="M240 795v73h284v-73h-284zM378 -14q-148 0 -238 96t-90 254q0 173 91.5 275.5t245.5 102.5q146 0 234.5 -95t88.5 -251q0 -171 -91.5 -276.5t-240.5 -105.5zM390 53q103 0 157 75.5t54 220.5q0 142 -60 221.5t-167 79.5q-104 0 -161 -76.5t-57 -216.5t63 -222t171 -82z
" />
    <glyph glyph-name="omacron" unicode="&#x14d;" horiz-adv-x="586" 
d="M154 635v73h280v-73h-280zM289 -14q-112 0 -177.5 69t-65.5 187q0 129 69 204t188 75q109 0 173 -69t64 -185q0 -128 -68 -204.5t-183 -76.5zM303 48q65 0 100 50.5t35 144.5q0 101 -40.5 160t-110.5 59q-68 0 -104 -49t-36 -141q0 -105 41.5 -164.5t114.5 -59.5z" />
    <glyph glyph-name="Obreve" unicode="&#x14e;" horiz-adv-x="760" 
d="M379 752q-71 0 -110 46.5t-46 117.5l40 12q14 -50 43 -73t78 -23q95 0 120 95l38 -10q-6 -66 -48.5 -115.5t-114.5 -49.5zM378 -14q-148 0 -238 96t-90 254q0 173 91.5 275.5t245.5 102.5q146 0 234.5 -95t88.5 -251q0 -171 -91.5 -276.5t-240.5 -105.5zM390 53
q103 0 157 75.5t54 220.5q0 142 -60 221.5t-167 79.5q-104 0 -161 -76.5t-57 -216.5t63 -222t171 -82z" />
    <glyph glyph-name="obreve" unicode="&#x14f;" horiz-adv-x="586" 
d="M291 587q-66 0 -102 48.5t-44 120.5l40 12q29 -101 111 -101q84 0 110 100l38 -10q-6 -67 -46 -118.5t-107 -51.5zM289 -14q-112 0 -177.5 69t-65.5 187q0 129 69 204t188 75q109 0 173 -69t64 -185q0 -128 -68 -204.5t-183 -76.5zM303 48q65 0 100 50.5t35 144.5
q0 101 -40.5 160t-110.5 59q-68 0 -104 -49t-36 -141q0 -105 41.5 -164.5t114.5 -59.5z" />
    <glyph glyph-name="Ohungarumlaut" unicode="&#x150;" horiz-adv-x="760" 
d="M270 752l-20 28l117 123q26 23 39 23q18 0 29.5 -15t11.5 -33q0 -38 -42 -56zM448 752l-20 28l118 118q23 23 39 23q18 0 30.5 -14t12.5 -31q0 -34 -42 -56zM378 -14q-148 0 -238 96t-90 254q0 173 91.5 275.5t245.5 102.5q146 0 234.5 -95t88.5 -251
q0 -171 -91.5 -276.5t-240.5 -105.5zM390 53q103 0 157 75.5t54 220.5q0 142 -60 221.5t-167 79.5q-104 0 -161 -76.5t-57 -216.5t63 -222t171 -82z" />
    <glyph glyph-name="ohungarumlaut" unicode="&#x151;" horiz-adv-x="586" 
d="M207 580l-24 25l84 136q18 29 38 29q21 0 32 -12t11 -32q0 -29 -31 -54zM348 580l-24 25l93 133q21 29 40 29q21 0 32 -12t11 -30q0 -33 -34 -57zM289 -14q-112 0 -177.5 69t-65.5 187q0 129 69 204t188 75q109 0 173 -69t64 -185q0 -128 -68 -204.5t-183 -76.5zM303 48
q65 0 100 50.5t35 144.5q0 101 -40.5 160t-110.5 59q-68 0 -104 -49t-36 -141q0 -105 41.5 -164.5t114.5 -59.5z" />
    <glyph glyph-name="OE" unicode="&#x152;" horiz-adv-x="1090" 
d="M387 -14q-148 0 -238 96t-90 254q0 172 90 275t241 103q137 0 220 -95v81h368l37 -163l-52 -17q-30 79 -60 102.5t-103 23.5h-97v-259h87q53 0 66 11.5t27 70.5l46 6v-227l-46 -8q-9 58 -24 71.5t-69 13.5h-87v-271h129q72 0 100.5 24.5t49.5 105.5h55l-24 -184h-403v89
q-85 -103 -223 -103zM399 53q103 0 157 75.5t54 220.5q0 142 -60 221.5t-167 79.5q-104 0 -161 -76.5t-57 -216.5t63 -222t171 -82z" />
    <glyph glyph-name="oe" unicode="&#x153;" horiz-adv-x="908" 
d="M290 -14q-115 0 -179 71t-64 185q0 141 74 210t183 69q120 0 187 -92q66 92 188 92q80 0 132 -47.5t52 -129.5q0 -48 -14 -98h-313q3 -86 45 -136t116 -50q80 0 138 60l35 -35q-31 -42 -82.5 -70.5t-113.5 -28.5q-126 0 -188 98q-74 -98 -196 -98zM541 302h230q3 19 3 46
q0 120 -101 120q-117 0 -132 -166zM304 48q64 0 99.5 50t35.5 145q0 103 -41 161t-110 58q-65 0 -102.5 -47t-37.5 -143q0 -103 41 -163.5t115 -60.5z" />
    <glyph glyph-name="Racute" unicode="&#x154;" horiz-adv-x="725" 
d="M260 752l-20 28l131 119q26 23 39 23q18 0 30.5 -15t12.5 -33q0 -38 -42 -56zM597 -14q-54 0 -85.5 27.5t-61.5 100.5l-48 115q-24 58 -44 75t-63 17q-25 0 -45 -3v-212q0 -27 7.5 -37t29.5 -13l70 -8v-48h-295v48l58 9q19 3 25 13t6 38v488q0 25 -6.5 34t-26.5 13l-56 9
v48h251q132 0 200.5 -45.5t68.5 -133.5q0 -65 -50 -117.5t-124 -65.5v-3q38 -11 61.5 -31.5t39.5 -59.5l35 -82q15 -36 20.5 -47.5t18 -30.5t26.5 -25t34 -6q18 0 45 9l10 -36q-41 -40 -101 -40zM306 369q80 0 124.5 38t44.5 108q0 68 -40.5 99.5t-128.5 31.5h-56v-275
q50 -2 56 -2z" />
    <glyph glyph-name="racute" unicode="&#x155;" horiz-adv-x="473" 
d="M222 580l-24 25l104 138q22 29 39 29q21 0 34.5 -15.5t13.5 -35.5q0 -29 -35 -53zM55 0v48l48 9q16 3 21 12.5t5 35.5v280q0 36 -6 47t-28 15l-49 7l7 49l135 11l12 -7l11 -90h3q60 104 149 104q47 0 75 -26t28 -70q0 -79 -67 -79q-59 0 -59 44q0 20 19 58
q-44 22 -90.5 -26t-46.5 -116v-203q0 -25 4.5 -32.5t20.5 -10.5l86 -13v-47h-278z" />
    <glyph glyph-name="uni0156" unicode="&#x156;" horiz-adv-x="725" 
d="M597 -14q-54 0 -85.5 27.5t-61.5 100.5l-48 115q-24 58 -44 75t-63 17q-25 0 -45 -3v-212q0 -27 7.5 -37t29.5 -13l70 -8v-48h-295v48l58 9q19 3 25 13t6 38v488q0 25 -6.5 34t-26.5 13l-56 9v48h251q132 0 200.5 -45.5t68.5 -133.5q0 -65 -50 -117.5t-124 -65.5v-3
q38 -11 61.5 -31.5t39.5 -59.5l35 -82q15 -36 20.5 -47.5t18 -30.5t26.5 -25t34 -6q18 0 45 9l10 -36q-41 -40 -101 -40zM306 369q80 0 124.5 38t44.5 108q0 68 -40.5 99.5t-128.5 31.5h-56v-275q50 -2 56 -2zM332 -268l-24 29q48 41 48 81h-10q-51 0 -51 46q0 25 16.5 40.5
t44.5 15.5q34 0 50.5 -21t16.5 -51q0 -41 -24 -80t-67 -60z" />
    <glyph glyph-name="uni0157" unicode="&#x157;" horiz-adv-x="473" 
d="M55 0v48l48 9q16 3 21 12.5t5 35.5v280q0 36 -6 47t-28 15l-49 7l7 49l135 11l12 -7l11 -90h3q60 104 149 104q47 0 75 -26t28 -70q0 -79 -67 -79q-59 0 -59 44q0 20 19 58q-44 22 -90.5 -26t-46.5 -116v-203q0 -25 4.5 -32.5t20.5 -10.5l86 -13v-47h-278zM147 -268
l-24 29q48 41 48 81h-10q-51 0 -51 46q0 25 16.5 40.5t44.5 15.5q34 0 50.5 -21t16.5 -51q0 -41 -24 -80t-67 -60z" />
    <glyph glyph-name="Rcaron" unicode="&#x158;" horiz-adv-x="725" 
d="M319 752q-14 0 -41 28l-121 130l25 26l137 -84l140 84l24 -25l-125 -137q-20 -22 -39 -22zM597 -14q-54 0 -85.5 27.5t-61.5 100.5l-48 115q-24 58 -44 75t-63 17q-25 0 -45 -3v-212q0 -27 7.5 -37t29.5 -13l70 -8v-48h-295v48l58 9q19 3 25 13t6 38v488q0 25 -6.5 34
t-26.5 13l-56 9v48h251q132 0 200.5 -45.5t68.5 -133.5q0 -65 -50 -117.5t-124 -65.5v-3q38 -11 61.5 -31.5t39.5 -59.5l35 -82q15 -36 20.5 -47.5t18 -30.5t26.5 -25t34 -6q18 0 45 9l10 -36q-41 -40 -101 -40zM306 369q80 0 124.5 38t44.5 108q0 68 -40.5 99.5
t-128.5 31.5h-56v-275q50 -2 56 -2z" />
    <glyph glyph-name="rcaron" unicode="&#x159;" horiz-adv-x="473" 
d="M273 580q-20 0 -41 28l-109 145l27 26l123 -100l127 100l26 -25l-114 -152q-18 -22 -39 -22zM55 0v48l48 9q16 3 21 12.5t5 35.5v280q0 36 -6 47t-28 15l-49 7l7 49l135 11l12 -7l11 -90h3q60 104 149 104q47 0 75 -26t28 -70q0 -79 -67 -79q-59 0 -59 44q0 20 19 58
q-44 22 -90.5 -26t-46.5 -116v-203q0 -25 4.5 -32.5t20.5 -10.5l86 -13v-47h-278z" />
    <glyph glyph-name="Sacute" unicode="&#x15a;" horiz-adv-x="598" 
d="M223 752l-20 28l131 119q26 23 39 23q18 0 30.5 -15t12.5 -33q0 -38 -42 -56zM316 -14q-51 0 -100 18t-80 49l-16 -59h-44l-20 216l57 5q61 -165 200 -165q62 0 96 30t34 85t-35 88t-122 61q-113 36 -159 82t-46 125q0 86 59 139.5t155 53.5q88 0 148 -52l13 52h47
l22 -202l-56 -8q-46 155 -171 155q-54 0 -87 -30.5t-33 -79.5t34 -80t121 -60q115 -39 161 -85.5t46 -123.5q0 -94 -63 -154t-161 -60z" />
    <glyph glyph-name="sacute" unicode="&#x15b;" horiz-adv-x="452" 
d="M182 580l-24 25l104 138q22 29 39 29q21 0 34.5 -15.5t13.5 -35.5q0 -29 -35 -53zM65 -14l-16 172l56 4q41 -116 140 -116q44 0 69 22.5t25 61.5q0 32 -25 51t-92 38q-89 25 -125 59t-36 93q0 68 46.5 109t125.5 41q69 0 110 -34l8 34h44l13 -163l-57 5q-10 46 -42 75
t-74 29q-90 0 -90 -73q0 -32 24 -50.5t91 -37.5q90 -25 126 -59.5t36 -94.5q0 -73 -50 -119.5t-129 -46.5q-82 0 -125 34l-11 -34h-42z" />
    <glyph glyph-name="Scircumflex" unicode="&#x15c;" horiz-adv-x="598" 
d="M159 750l-24 25l125 137q20 22 39 22q14 0 41 -28l121 -130l-25 -26l-137 84zM316 -14q-51 0 -100 18t-80 49l-16 -59h-44l-20 216l57 5q61 -165 200 -165q62 0 96 30t34 85t-35 88t-122 61q-113 36 -159 82t-46 125q0 86 59 139.5t155 53.5q88 0 148 -52l13 52h47
l22 -202l-56 -8q-46 155 -171 155q-54 0 -87 -30.5t-33 -79.5t34 -80t121 -60q115 -39 161 -85.5t46 -123.5q0 -94 -63 -154t-161 -60z" />
    <glyph glyph-name="scircumflex" unicode="&#x15d;" horiz-adv-x="452" 
d="M116 580l-26 25l114 152q18 22 39 22q20 0 41 -28l109 -145l-27 -26l-123 100zM65 -14l-16 172l56 4q41 -116 140 -116q44 0 69 22.5t25 61.5q0 32 -25 51t-92 38q-89 25 -125 59t-36 93q0 68 46.5 109t125.5 41q69 0 110 -34l8 34h44l13 -163l-57 5q-10 46 -42 75
t-74 29q-90 0 -90 -73q0 -32 24 -50.5t91 -37.5q90 -25 126 -59.5t36 -94.5q0 -73 -50 -119.5t-129 -46.5q-82 0 -125 34l-11 -34h-42z" />
    <glyph glyph-name="Scedilla" unicode="&#x15e;" horiz-adv-x="598" 
d="M540 200q0 -94 -63 -154t-160 -60l-17 -43q49 6 77.5 -14t28.5 -62q0 -44 -29 -70t-86 -26q-31 0 -57 13.5t-38 26.5l24 37q29 -22 64 -22q21 0 35.5 11t14.5 32q0 38 -50 38q-16 0 -30 -3l-8 21l26 65q-84 13 -136 63l-16 -59h-44l-20 216l57 5q61 -165 200 -165
q62 0 96 30t34 85t-35 88t-122 61q-113 36 -159 82t-46 125q0 86 59 139.5t155 53.5q88 0 148 -52l13 52h47l22 -202l-56 -8q-46 155 -171 155q-54 0 -87 -30.5t-33 -79.5t34 -80t121 -60q115 -39 161 -85.5t46 -123.5z" />
    <glyph glyph-name="scedilla" unicode="&#x15f;" horiz-adv-x="452" 
d="M422 152q0 -70 -46 -115.5t-120 -50.5l-17 -43q49 6 77.5 -14t28.5 -62q0 -44 -29 -70t-86 -26q-31 0 -57 13.5t-38 26.5l24 37q29 -22 64 -22q21 0 35.5 11t14.5 32q0 38 -50 38q-17 0 -30 -3l-8 21l25 63q-59 6 -92 32l-11 -34h-42l-16 172l56 4q41 -116 140 -116
q44 0 69 22.5t25 61.5q0 32 -25 51t-92 38q-89 25 -125 59t-36 93q0 68 46.5 109t125.5 41q69 0 110 -34l8 34h44l13 -163l-57 5q-10 46 -42 75t-74 29q-90 0 -90 -73q0 -32 24 -50.5t91 -37.5q90 -25 126 -59.5t36 -94.5z" />
    <glyph glyph-name="Scaron" unicode="&#x160;" horiz-adv-x="598" 
d="M297 752q-14 0 -41 28l-121 130l25 26l137 -84l140 84l24 -25l-125 -137q-20 -22 -39 -22zM316 -14q-51 0 -100 18t-80 49l-16 -59h-44l-20 216l57 5q61 -165 200 -165q62 0 96 30t34 85t-35 88t-122 61q-113 36 -159 82t-46 125q0 86 59 139.5t155 53.5q88 0 148 -52
l13 52h47l22 -202l-56 -8q-46 155 -171 155q-54 0 -87 -30.5t-33 -79.5t34 -80t121 -60q115 -39 161 -85.5t46 -123.5q0 -94 -63 -154t-161 -60z" />
    <glyph glyph-name="scaron" unicode="&#x161;" horiz-adv-x="452" 
d="M234 580q-20 0 -41 28l-109 145l27 26l123 -100l127 100l26 -25l-114 -152q-18 -22 -39 -22zM65 -14l-16 172l56 4q41 -116 140 -116q44 0 69 22.5t25 61.5q0 32 -25 51t-92 38q-89 25 -125 59t-36 93q0 68 46.5 109t125.5 41q69 0 110 -34l8 34h44l13 -163l-57 5
q-10 46 -42 75t-74 29q-90 0 -90 -73q0 -32 24 -50.5t91 -37.5q90 -25 126 -59.5t36 -94.5q0 -73 -50 -119.5t-129 -46.5q-82 0 -125 34l-11 -34h-42z" />
    <glyph glyph-name="uni0162" unicode="&#x162;" horiz-adv-x="738" 
d="M659 700l37 -200l-55 -13q-32 100 -62.5 129t-103.5 29h-56v-539q0 -25 6.5 -33.5t27.5 -12.5l79 -12v-48h-143l-22 -57q49 6 77.5 -14t28.5 -62q0 -44 -29 -70t-86 -26q-31 0 -57 13.5t-38 26.5l24 37q29 -22 64 -22q21 0 35.5 11t14.5 32q0 38 -50 38q-17 0 -30 -3
l-8 21l30 75h-136v48l80 12q19 3 26 14t7 36v535h-55q-74 0 -105 -29t-64 -129l-54 13l39 200h578z" />
    <glyph glyph-name="uni0163" unicode="&#x163;" horiz-adv-x="404" 
d="M399 55q-62 -63 -136 -68l-17 -44q49 6 77.5 -14t28.5 -62q0 -44 -29 -70t-86 -26q-31 0 -57 13.5t-38 26.5l24 37q29 -22 64 -22q21 0 35.5 11t14.5 32q0 38 -50 38q-16 0 -30 -3l-8 21l25 63q-101 16 -101 147v309h-79v52q53 4 78.5 45.5t32.5 132.5l48 6l13 -6v-167
h156v-63h-156v-302q0 -83 71 -83q49 0 96 32z" />
    <glyph glyph-name="Tcaron" unicode="&#x164;" horiz-adv-x="738" 
d="M368 752q-14 0 -41 28l-121 130l25 26l137 -84l140 84l24 -25l-125 -137q-20 -22 -39 -22zM207 0v48l80 12q19 3 26 14t7 36v535h-55q-74 0 -105 -29t-64 -129l-54 13l39 200h578l37 -200l-55 -13q-32 100 -62.5 129t-103.5 29h-56v-539q0 -25 6.5 -33.5t27.5 -12.5
l79 -12v-48h-325z" />
    <glyph glyph-name="tcaron" unicode="&#x165;" horiz-adv-x="404" 
d="M307 570l-26 28q41 54 41 82q0 17 -16 34q-20 21 -20 38q0 23 15.5 34t36.5 11q31 0 46 -20t15 -48q0 -37 -24.5 -81t-67.5 -78zM249 -14q-68 0 -100.5 36.5t-32.5 112.5v309h-79v52q53 4 78.5 45.5t32.5 132.5l48 6l13 -6v-167h156v-63h-156v-302q0 -83 71 -83
q49 0 96 32l23 -36q-67 -69 -150 -69z" />
    <glyph glyph-name="Tbar" unicode="&#x166;" horiz-adv-x="738" 
d="M659 700l37 -200l-55 -13q-32 100 -62.5 129t-103.5 29h-56v-267h156v-63h-156v-209q0 -25 6.5 -33.5t27.5 -12.5l79 -12v-48h-325v48l80 12q19 3 26 14t7 36v205h-155l8 63h147v267h-55q-74 0 -105 -29t-64 -129l-54 13l39 200h578z" />
    <glyph glyph-name="tbar" unicode="&#x167;" horiz-adv-x="404" 
d="M376 91l23 -36q-67 -69 -150 -69q-68 0 -100.5 36.5t-32.5 112.5v127h-84l8 59h76v123h-79v52q53 4 78.5 45.5t32.5 132.5l48 6l13 -6v-167h156v-63h-156v-123h156v-59h-156v-120q0 -83 71 -83q49 0 96 32z" />
    <glyph glyph-name="Utilde" unicode="&#x168;" horiz-adv-x="810" 
d="M493 777q-35 0 -92 24q-60 24 -73 24q-14 0 -23.5 -7t-23.5 -29l-31 19q25 55 44.5 74.5t48.5 19.5q28 0 89 -26q59 -24 76 -24q12 0 20 7t24 30l31 -19q-26 -54 -45 -73.5t-45 -19.5zM404 -14q-135 0 -200.5 68.5t-65.5 210.5v331q0 25 -6.5 34t-26.5 13l-56 9v48h276
v-48l-58 -9q-18 -3 -24 -13.5t-6 -37.5v-320q0 -115 42 -165.5t139 -50.5t143 54.5t46 168.5v317q0 25 -6.5 34t-26.5 13l-55 9v48h246v-48l-57 -9q-19 -3 -25 -13t-6 -38v-301q0 -305 -273 -305z" />
    <glyph glyph-name="utilde" unicode="&#x169;" horiz-adv-x="634" 
d="M384 620q-34 0 -90 24q-59 25 -70 25q-14 0 -23 -7.5t-24 -29.5l-31 19q25 53 44 72t49 19t86 -24q63 -24 74 -24q13 0 21.5 7t22.5 30l31 -19q-25 -54 -44 -73t-46 -19zM265 -14q-79 0 -119.5 43.5t-40.5 127.5v229q0 36 -6 47t-28 15l-44 7l8 48l151 11l12 -7v-321
q0 -73 20.5 -100.5t75.5 -27.5q62 0 98.5 37.5t36.5 101.5v189q0 36 -6 47t-28 15l-45 7l8 48l152 11l12 -7v-406q0 -24 6 -32.5t26 -12.5l50 -9v-47l-155 -6l-14 81h-3q-75 -89 -167 -89z" />
    <glyph glyph-name="Umacron" unicode="&#x16a;" horiz-adv-x="810" 
d="M274 795v73h284v-73h-284zM404 -14q-135 0 -200.5 68.5t-65.5 210.5v331q0 25 -6.5 34t-26.5 13l-56 9v48h276v-48l-58 -9q-18 -3 -24 -13.5t-6 -37.5v-320q0 -115 42 -165.5t139 -50.5t143 54.5t46 168.5v317q0 25 -6.5 34t-26.5 13l-55 9v48h246v-48l-57 -9
q-19 -3 -25 -13t-6 -38v-301q0 -305 -273 -305z" />
    <glyph glyph-name="umacron" unicode="&#x16b;" horiz-adv-x="634" 
d="M170 635v73h280v-73h-280zM265 -14q-79 0 -119.5 43.5t-40.5 127.5v229q0 36 -6 47t-28 15l-44 7l8 48l151 11l12 -7v-321q0 -73 20.5 -100.5t75.5 -27.5q62 0 98.5 37.5t36.5 101.5v189q0 36 -6 47t-28 15l-45 7l8 48l152 11l12 -7v-406q0 -24 6 -32.5t26 -12.5l50 -9
v-47l-155 -6l-14 81h-3q-75 -89 -167 -89z" />
    <glyph glyph-name="Ubreve" unicode="&#x16c;" horiz-adv-x="810" 
d="M413 752q-71 0 -110 46.5t-46 117.5l40 12q14 -50 43 -73t78 -23q95 0 120 95l38 -10q-6 -66 -48.5 -115.5t-114.5 -49.5zM404 -14q-135 0 -200.5 68.5t-65.5 210.5v331q0 25 -6.5 34t-26.5 13l-56 9v48h276v-48l-58 -9q-18 -3 -24 -13.5t-6 -37.5v-320q0 -115 42 -165.5
t139 -50.5t143 54.5t46 168.5v317q0 25 -6.5 34t-26.5 13l-55 9v48h246v-48l-57 -9q-19 -3 -25 -13t-6 -38v-301q0 -305 -273 -305z" />
    <glyph glyph-name="ubreve" unicode="&#x16d;" horiz-adv-x="634" 
d="M306 587q-66 0 -102 48.5t-44 120.5l40 12q29 -101 111 -101q84 0 110 100l38 -10q-6 -67 -46 -118.5t-107 -51.5zM265 -14q-79 0 -119.5 43.5t-40.5 127.5v229q0 36 -6 47t-28 15l-44 7l8 48l151 11l12 -7v-321q0 -73 20.5 -100.5t75.5 -27.5q62 0 98.5 37.5t36.5 101.5
v189q0 36 -6 47t-28 15l-45 7l8 48l152 11l12 -7v-406q0 -24 6 -32.5t26 -12.5l50 -9v-47l-155 -6l-14 81h-3q-75 -89 -167 -89z" />
    <glyph glyph-name="Uring" unicode="&#x16e;" horiz-adv-x="810" 
d="M415 742q-56 0 -83 28t-27 77q0 45 29 74.5t83 29.5q52 0 80 -27.5t28 -74.5q0 -48 -29 -77.5t-81 -29.5zM416 789q50 0 50 58q0 25 -13 41t-39 16q-51 0 -51 -57q0 -58 53 -58zM404 -14q-135 0 -200.5 68.5t-65.5 210.5v331q0 25 -6.5 34t-26.5 13l-56 9v48h276v-48
l-58 -9q-18 -3 -24 -13.5t-6 -37.5v-320q0 -115 42 -165.5t139 -50.5t143 54.5t46 168.5v317q0 25 -6.5 34t-26.5 13l-55 9v48h246v-48l-57 -9q-19 -3 -25 -13t-6 -38v-301q0 -305 -273 -305z" />
    <glyph glyph-name="uring" unicode="&#x16f;" horiz-adv-x="634" 
d="M310 582q-54 0 -81 27.5t-27 75.5q0 44 28.5 73t81.5 29q51 0 78.5 -27t27.5 -73q0 -48 -28.5 -76.5t-79.5 -28.5zM311 629q48 0 48 56q0 24 -12.5 40t-37.5 16t-37 -16t-12 -40t12.5 -40t38.5 -16zM265 -14q-79 0 -119.5 43.5t-40.5 127.5v229q0 36 -6 47t-28 15l-44 7
l8 48l151 11l12 -7v-321q0 -73 20.5 -100.5t75.5 -27.5q62 0 98.5 37.5t36.5 101.5v189q0 36 -6 47t-28 15l-45 7l8 48l152 11l12 -7v-406q0 -24 6 -32.5t26 -12.5l50 -9v-47l-155 -6l-14 81h-3q-75 -89 -167 -89z" />
    <glyph glyph-name="Uhungarumlaut" unicode="&#x170;" horiz-adv-x="810" 
d="M304 752l-20 28l117 123q26 23 39 23q18 0 29.5 -15t11.5 -33q0 -38 -42 -56zM482 752l-20 28l118 118q23 23 39 23q18 0 30.5 -14t12.5 -31q0 -34 -42 -56zM404 -14q-135 0 -200.5 68.5t-65.5 210.5v331q0 25 -6.5 34t-26.5 13l-56 9v48h276v-48l-58 -9
q-18 -3 -24 -13.5t-6 -37.5v-320q0 -115 42 -165.5t139 -50.5t143 54.5t46 168.5v317q0 25 -6.5 34t-26.5 13l-55 9v48h246v-48l-57 -9q-19 -3 -25 -13t-6 -38v-301q0 -305 -273 -305z" />
    <glyph glyph-name="uhungarumlaut" unicode="&#x171;" horiz-adv-x="634" 
d="M223 580l-24 25l84 136q18 29 38 29q21 0 32 -12t11 -32q0 -29 -31 -54zM364 580l-24 25l93 133q21 29 40 29q21 0 32 -12t11 -30q0 -33 -34 -57zM265 -14q-79 0 -119.5 43.5t-40.5 127.5v229q0 36 -6 47t-28 15l-44 7l8 48l151 11l12 -7v-321q0 -73 20.5 -100.5
t75.5 -27.5q62 0 98.5 37.5t36.5 101.5v189q0 36 -6 47t-28 15l-45 7l8 48l152 11l12 -7v-406q0 -24 6 -32.5t26 -12.5l50 -9v-47l-155 -6l-14 81h-3q-75 -89 -167 -89z" />
    <glyph glyph-name="Uogonek" unicode="&#x172;" horiz-adv-x="810" 
d="M519 700h246v-48l-57 -9q-19 -3 -25 -13t-6 -38v-301q0 -232 -157 -287q-37 -23 -64 -58t-27 -69q0 -41 41 -41q20 0 49 9l11 -35q-47 -39 -95 -39q-42 0 -67 23t-25 58q0 72 90 135q-9 -1 -29 -1q-135 0 -200.5 68.5t-65.5 210.5v331q0 25 -6.5 34t-26.5 13l-56 9v48
h276v-48l-58 -9q-18 -3 -24 -13.5t-6 -37.5v-320q0 -115 42 -165.5t139 -50.5t143 54.5t46 168.5v317q0 25 -6.5 34t-26.5 13l-55 9v48z" />
    <glyph glyph-name="uogonek" unicode="&#x173;" horiz-adv-x="634" 
d="M576 -1q-80 -66 -80 -122q0 -41 41 -41q20 0 49 9l11 -35q-47 -39 -95 -39q-42 0 -67 23t-25 58q0 76 104 145l-65 -3l-14 81h-3q-75 -89 -167 -89q-79 0 -119.5 43.5t-40.5 127.5v229q0 36 -6 47t-28 15l-44 7l8 48l151 11l12 -7v-321q0 -73 20.5 -100.5t75.5 -27.5
q62 0 98.5 37.5t36.5 101.5v189q0 36 -6 47t-28 15l-45 7l8 48l152 11l12 -7v-406q0 -24 6 -32.5t26 -12.5l50 -9v-47z" />
    <glyph glyph-name="Wcircumflex" unicode="&#x174;" horiz-adv-x="1092" 
d="M409 750l-24 25l125 137q20 22 39 22q14 0 41 -28l121 -130l-25 -26l-137 84zM259 0l-152 591q-7 27 -15 36.5t-30 13.5l-40 8v51h264v-48l-51 -7q-20 -3 -24.5 -13t1.5 -37l117 -509h5l161 614h109l179 -609h5l118 498q6 27 1 37.5t-25 15.5l-49 11v47h237v-48l-47 -8
q-20 -3 -30 -14.5t-17 -39.5l-151 -590h-113l-174 601h-3l-156 -601h-120z" />
    <glyph glyph-name="wcircumflex" unicode="&#x175;" horiz-adv-x="860" 
d="M321 580l-26 25l114 152q18 22 39 22q20 0 41 -28l109 -145l-27 -26l-123 100zM209 0l-123 399q-8 27 -15.5 36.5t-28.5 14.5l-35 8l10 49h235v-46l-48 -7q-19 -3 -23 -12.5t3 -37.5l88 -321h5l116 424h107l112 -422h5l87 312q7 27 2.5 38t-25.5 16l-43 10l9 46h206v-47
l-37 -8q-19 -4 -28 -14.5t-18 -39.5l-121 -398h-105l-109 412h-5l-111 -412h-110z" />
    <glyph glyph-name="Ycircumflex" unicode="&#x176;" horiz-adv-x="716" 
d="M236 750l-24 25l125 137q20 22 39 22q14 0 41 -28l121 -130l-25 -26l-137 84zM213 0v48l62 9q19 3 25 13t6 38v185l-187 298q-16 27 -28 37t-32 14l-37 7v51h279v-48l-55 -7q-23 -2 -28 -15.5t9 -34.5l146 -237h5l138 233q28 41 -17 51l-46 11v47h241v-48l-49 -8
q-16 -2 -26.5 -12.5t-30.5 -42.5l-183 -297v-188q0 -25 6 -34t26 -13l61 -9v-48h-285z" />
    <glyph glyph-name="ycircumflex" unicode="&#x177;" horiz-adv-x="576" 
d="M184 580l-26 25l114 152q18 22 39 22q20 0 41 -28l109 -145l-27 -26l-123 100zM113 -229q-47 0 -75 21.5t-28 58.5q0 29 18.5 48t46.5 19q48 0 53 -36q2 -14 -4 -57q31 -2 53.5 23.5t55.5 101.5l25 57l-165 392q-13 30 -20.5 38.5t-23.5 12.5l-35 8l10 49h238v-46l-48 -7
q-20 -3 -24.5 -13.5t5.5 -36.5l111 -280h5l111 273q10 25 4.5 37t-27.5 17l-44 10l10 46h209v-47l-37 -8q-17 -4 -25.5 -13t-21.5 -41l-193 -452q-43 -99 -82.5 -137t-101.5 -38z" />
    <glyph glyph-name="Ydieresis" unicode="&#x178;" horiz-adv-x="716" 
d="M272 771q-28 0 -46 17.5t-18 45.5t18 46t46 18q29 0 47.5 -17.5t18.5 -45.5t-18.5 -46t-47.5 -18zM475 771q-29 0 -47 17.5t-18 45.5t18.5 46t46.5 18q29 0 47 -17.5t18 -45.5t-18.5 -46t-46.5 -18zM213 0v48l62 9q19 3 25 13t6 38v185l-187 298q-16 27 -28 37t-32 14
l-37 7v51h279v-48l-55 -7q-23 -2 -28 -15.5t9 -34.5l146 -237h5l138 233q28 41 -17 51l-46 11v47h241v-48l-49 -8q-16 -2 -26.5 -12.5t-30.5 -42.5l-183 -297v-188q0 -25 6 -34t26 -13l61 -9v-48h-285z" />
    <glyph glyph-name="Zacute" unicode="&#x179;" horiz-adv-x="657" 
d="M250 752l-20 28l131 119q26 23 39 23q18 0 30.5 -15t12.5 -33q0 -38 -42 -56zM58 0v48l412 599h-214q-55 0 -79.5 -25t-50.5 -108l-59 -5l12 191h509v-50l-410 -595h211q62 0 92.5 29t60.5 115h55l-19 -199h-520z" />
    <glyph glyph-name="zacute" unicode="&#x17a;" horiz-adv-x="486" 
d="M193 580l-24 25l104 138q22 29 39 29q21 0 34.5 -15.5t13.5 -35.5q0 -29 -35 -53zM37 0v44l299 410h-117q-58 0 -79.5 -19.5t-42.5 -89.5l-57 -5l12 167h393v-46l-298 -406h118q64 0 86.5 20t53.5 106h54l-14 -181h-408z" />
    <glyph glyph-name="Zdotaccent" unicode="&#x17b;" horiz-adv-x="657" 
d="M324 767q-29 0 -48 18.5t-19 47.5t19 48t48 19q30 0 49 -18.5t19 -47.5t-19 -48t-49 -19zM58 0v48l412 599h-214q-55 0 -79.5 -25t-50.5 -108l-59 -5l12 191h509v-50l-410 -595h211q62 0 92.5 29t60.5 115h55l-19 -199h-520z" />
    <glyph glyph-name="zdotaccent" unicode="&#x17c;" horiz-adv-x="486" 
d="M244 620q-29 0 -48 18.5t-19 47.5t19 48t48 19q30 0 49 -18.5t19 -47.5t-19 -48t-49 -19zM37 0v44l299 410h-117q-58 0 -79.5 -19.5t-42.5 -89.5l-57 -5l12 167h393v-46l-298 -406h118q64 0 86.5 20t53.5 106h54l-14 -181h-408z" />
    <glyph glyph-name="Zcaron" unicode="&#x17d;" horiz-adv-x="657" 
d="M324 752q-14 0 -41 28l-121 130l25 26l137 -84l140 84l24 -25l-125 -137q-20 -22 -39 -22zM58 0v48l412 599h-214q-55 0 -79.5 -25t-50.5 -108l-59 -5l12 191h509v-50l-410 -595h211q62 0 92.5 29t60.5 115h55l-19 -199h-520z" />
    <glyph glyph-name="zcaron" unicode="&#x17e;" horiz-adv-x="486" 
d="M244 580q-20 0 -41 28l-109 145l27 26l123 -100l127 100l26 -25l-114 -152q-18 -22 -39 -22zM37 0v44l299 410h-117q-58 0 -79.5 -19.5t-42.5 -89.5l-57 -5l12 167h393v-46l-298 -406h118q64 0 86.5 20t53.5 106h54l-14 -181h-408z" />
    <glyph glyph-name="uni018F" unicode="&#x18f;" horiz-adv-x="701" 
d="M314 -14q-108 0 -181 65t-73 175q0 70 19 134h455q-5 120 -68.5 194t-174.5 74q-106 0 -201 -86l-40 37q42 57 112.5 96t158.5 39q152 0 236 -101.5t84 -260.5q0 -171 -90 -268.5t-237 -97.5zM329 48q92 0 144.5 69t60.5 166h-367q-4 -34 -4 -62q0 -86 45 -129.5
t121 -43.5z" />
    <glyph glyph-name="florin" unicode="&#x192;" horiz-adv-x="529" 
d="M39 -193q-58 0 -94.5 24.5t-36.5 69.5q0 28 18.5 48t47.5 20q50 0 50 -40q0 -21 -27 -60q20 -10 49 -10q81 0 99 131l48 391h-80l7 54h80l6 43q14 110 69.5 173t139.5 63q58 0 96 -25.5t38 -70.5q0 -28 -18.5 -48t-47.5 -20q-50 0 -50 40q0 21 27 60q-24 12 -52 12
q-42 0 -67 -30.5t-35 -99.5l-12 -95h146l-8 -56h-146l-41 -336q-14 -109 -69.5 -173.5t-136.5 -64.5z" />
    <glyph glyph-name="Ohorn" unicode="&#x1a0;" horiz-adv-x="834" 
d="M387 -14q-151 0 -239.5 97t-88.5 251q0 98 28 172.5t76.5 118t107 65t125.5 21.5q98 0 176 -47t116 -136q75 41 82 117h-9q-62 0 -62 50q0 30 18.5 48.5t45.5 18.5q71 0 71 -88q0 -50 -34.5 -108.5t-94.5 -87.5q14 -53 14 -112q0 -178 -94.5 -279t-237.5 -101zM399 53
q100 0 155.5 72.5t55.5 221.5q0 145 -61 222.5t-166 77.5q-99 0 -158.5 -71.5t-59.5 -220.5q0 -140 63 -221t171 -81z" />
    <glyph glyph-name="ohorn" unicode="&#x1a1;" horiz-adv-x="616" 
d="M290 -14q-115 0 -179 71t-64 185q0 141 74 210t183 69q118 0 184 -81q59 42 64 107h-9q-62 0 -62 50q0 30 18.5 48.5t45.5 18.5q71 0 71 -88q0 -43 -27 -95t-74 -85q26 -54 26 -129q0 -133 -70 -207t-181 -74zM304 48q64 0 99.5 50t35.5 145q0 103 -41 161t-110 58
q-65 0 -102.5 -47t-37.5 -143q0 -103 41 -163.5t115 -60.5z" />
    <glyph glyph-name="Uhorn" unicode="&#x1af;" horiz-adv-x="866" 
d="M404 -14q-145 0 -205.5 73.5t-60.5 205.5v331q0 25 -6 34t-27 13l-56 9v48h276v-48l-58 -9q-19 -3 -24.5 -14.5t-5.5 -36.5v-320q0 -113 41.5 -164.5t139.5 -51.5q93 0 141 52t48 171v317q0 25 -6 34t-27 13l-55 9v48h158v-183q117 37 125 128h-9q-62 0 -62 50
q0 30 18.5 48.5t45.5 18.5q71 0 71 -88q0 -38 -18.5 -79t-63.5 -80t-107 -52v-172q0 -305 -273 -305z" />
    <glyph glyph-name="uhorn" unicode="&#x1b0;" horiz-adv-x="686" 
d="M265 -14q-160 0 -160 171v229q0 35 -6 46.5t-28 15.5l-44 7l8 48l151 11l12 -7v-321q0 -33 2.5 -51t11 -38.5t29 -29.5t53.5 -9q57 0 96 35t39 105v188q0 35 -6 46.5t-28 15.5l-45 7l8 48l152 11l12 -7v-86q93 40 100 126h-9q-62 0 -62 50q0 30 18.5 48.5t45.5 18.5
q71 0 71 -88q0 -59 -44.5 -124t-119.5 -86v-265q0 -24 6 -32.5t26 -12.5l50 -9v-47l-155 -6l-14 82h-3q-74 -90 -167 -90z" />
    <glyph glyph-name="uni01C4" unicode="&#x1c4;" horiz-adv-x="1412" 
d="M1079 752q-14 0 -41 28l-121 130l25 26l137 -84l140 84l24 -25l-125 -137q-20 -22 -39 -22zM62 0v48l58 9q19 3 25 13t6 38v488q0 25 -6.5 34t-26.5 13l-56 9v48h287q178 0 272 -84.5t94 -243.5q0 -175 -104.5 -273.5t-289.5 -98.5h-259zM813 0v48l412 599h-214
q-55 0 -79.5 -25t-50.5 -108l-59 -5l12 191h509v-50l-410 -595h211q62 0 92.5 29t60.5 115h55l-19 -199h-520zM322 55q147 0 216.5 75.5t69.5 233.5q0 138 -68 210t-199 72h-91v-586q23 -5 72 -5z" />
    <glyph glyph-name="uni01C5" unicode="&#x1c5;" horiz-adv-x="1251" 
d="M1009 580q-20 0 -41 28l-109 145l27 26l123 -100l127 100l26 -25l-114 -152q-18 -22 -39 -22zM62 0v48l58 9q19 3 25 13t6 38v488q0 25 -6.5 34t-26.5 13l-56 9v48h287q178 0 272 -84.5t94 -243.5q0 -175 -104.5 -273.5t-289.5 -98.5h-259zM322 55q147 0 216.5 75.5
t69.5 233.5q0 138 -68 210t-199 72h-91v-586q23 -5 72 -5zM802 0v44l299 410h-117q-58 0 -79.5 -19.5t-42.5 -89.5l-57 -5l12 167h393v-46l-298 -406h118q64 0 86.5 20t53.5 106h54l-14 -181h-408z" />
    <glyph glyph-name="uni01C6" unicode="&#x1c6;" horiz-adv-x="1098" 
d="M856 580q-20 0 -41 28l-109 145l27 26l123 -100l127 100l26 -25l-114 -152q-18 -22 -39 -22zM251 -14q-97 0 -151 66.5t-54 185.5q0 130 65.5 206.5t178.5 76.5q72 0 123 -33v156q0 34 -7.5 44.5t-35.5 15.5l-44 7l6 50l163 5l11 -11v-657q0 -24 6.5 -32.5t26.5 -12.5
l49 -9v-47l-154 -6l-14 79h-3q-66 -84 -166 -84zM649 0v44l299 410h-117q-58 0 -79.5 -19.5t-42.5 -89.5l-57 -5l12 167h393v-46l-298 -406h118q64 0 86.5 20t53.5 106h54l-14 -181h-408zM280 58q59 0 96 43t37 111v201q-52 41 -125 41q-143 0 -143 -206q0 -92 35 -141
t100 -49z" />
    <glyph glyph-name="uni01C7" unicode="&#x1c7;" horiz-adv-x="1184" 
d="M62 0v48l58 9q19 3 25 13t6 38v488q0 25 -6.5 34t-26.5 13l-56 9v48h286v-48l-66 -9q-20 -4 -26 -13t-6 -34v-541h113q68 0 98.5 30.5t60.5 128.5h55l-25 -214h-490zM846 -14q-79 0 -129 34.5t-50 87.5q0 35 21.5 58.5t53.5 23.5q30 0 46.5 -12t16.5 -33t-30 -71
q26 -24 77 -24q54 0 79.5 37t25.5 114v393q0 26 -6.5 35t-26.5 12l-70 10v49h295v-48l-63 -9q-18 -2 -24 -12.5t-6 -38.5v-368q0 -113 -55 -175.5t-155 -62.5z" />
    <glyph glyph-name="uni01C8" unicode="&#x1c8;" horiz-adv-x="946" 
d="M790 620q-29 0 -48 18.5t-19 47.5t19 48t48 19q30 0 49 -18.5t19 -47.5t-19 -48t-49 -19zM62 0v48l58 9q19 3 25 13t6 38v488q0 25 -6.5 34t-26.5 13l-56 9v48h286v-48l-66 -9q-20 -4 -26 -13t-6 -34v-541h113q68 0 98.5 30.5t60.5 128.5h55l-25 -214h-490zM699 -229
l-28 41q47 37 67 87t20 129v354q0 37 -6.5 48.5t-29.5 14.5l-48 7l8 50l157 8l12 -5v-410q0 -136 -33 -206.5t-119 -117.5z" />
    <glyph glyph-name="uni01C9" unicode="&#x1c9;" horiz-adv-x="644" 
d="M42 0v49l57 9q19 3 25 12.5t6 38.5v534q0 34 -7.5 44.5t-35.5 15.5l-44 7l6 51l163 5l11 -11v-650q0 -25 6.5 -34.5t25.5 -12.5l56 -10v-48h-269zM488 620q-29 0 -48 18.5t-19 47.5t19 48t48 19q30 0 49 -18.5t19 -47.5t-19 -48t-49 -19zM397 -229l-28 41q47 37 67 87
t20 129v354q0 37 -6.5 48.5t-29.5 14.5l-48 7l8 50l157 8l12 -5v-410q0 -136 -33 -206.5t-119 -117.5z" />
    <glyph glyph-name="uni01CA" unicode="&#x1ca;" horiz-adv-x="1372" 
d="M62 0v48l58 9q18 3 24 13.5t6 37.5v488q0 25 -6 34t-26 13l-56 9v48h222l332 -571v467q0 25 -6.5 34t-26.5 13l-55 9v48h245v-48l-57 -9q-19 -3 -25 -13t-6 -38v-592h-103l-362 609v-505q0 -25 6 -34t26 -13l56 -9v-48h-246zM1034 -14q-79 0 -129 34.5t-50 87.5
q0 35 21.5 58.5t53.5 23.5q30 0 46.5 -12t16.5 -33t-30 -71q26 -24 77 -24q54 0 79.5 37t25.5 114v393q0 26 -6.5 35t-26.5 12l-70 10v49h295v-48l-63 -9q-18 -2 -24 -12.5t-6 -38.5v-368q0 -113 -55 -175.5t-155 -62.5z" />
    <glyph glyph-name="uni01CB" unicode="&#x1cb;" horiz-adv-x="1144" 
d="M988 620q-29 0 -48 18.5t-19 47.5t19 48t48 19q30 0 49 -18.5t19 -47.5t-19 -48t-49 -19zM62 0v48l58 9q18 3 24 13.5t6 37.5v488q0 25 -6 34t-26 13l-56 9v48h222l332 -571v467q0 25 -6.5 34t-26.5 13l-55 9v48h245v-48l-57 -9q-19 -3 -25 -13t-6 -38v-592h-103
l-362 609v-505q0 -25 6 -34t26 -13l56 -9v-48h-246zM897 -229l-28 41q47 37 67 87t20 129v354q0 37 -6.5 48.5t-29.5 14.5l-48 7l8 50l157 8l12 -5v-410q0 -136 -33 -206.5t-119 -117.5z" />
    <glyph glyph-name="uni01CC" unicode="&#x1cc;" horiz-adv-x="956" 
d="M800 620q-29 0 -48 18.5t-19 47.5t19 48t48 19q30 0 49 -18.5t19 -47.5t-19 -48t-49 -19zM55 0v47l48 9q16 3 21 12.5t5 35.5v282q0 36 -6 47.5t-28 14.5l-49 7l7 48l139 11l12 -7l7 -89h3q27 47 74.5 75t100.5 28q80 0 122 -44t42 -127v-254q0 -23 6 -30.5t25 -10.5
l47 -8v-47h-245v46l44 8q19 4 24.5 12t5.5 30v225q0 71 -22.5 99.5t-77.5 28.5q-63 0 -100.5 -38t-37.5 -101v-210q0 -23 5 -31.5t20 -11.5l53 -11v-46h-245zM709 -229l-28 41q47 37 67 87t20 129v354q0 37 -6.5 48.5t-29.5 14.5l-48 7l8 50l157 8l12 -5v-410
q0 -136 -33 -206.5t-119 -117.5z" />
    <glyph glyph-name="uni01CD" unicode="&#x1cd;" horiz-adv-x="735" 
d="M372 752q-14 0 -41 28l-121 130l25 26l137 -84l140 84l24 -25l-125 -137q-20 -22 -39 -22zM15 0v48l48 8q18 4 26 13.5t20 40.5l211 590h106l209 -591q11 -29 17.5 -37.5t26.5 -13.5l41 -8v-50h-267v48l58 7q20 3 24.5 13.5t-5.5 36.5l-43 126h-268l-42 -122
q-9 -26 -4 -37.5t27 -16.5l57 -8v-47h-242zM239 288h229l-111 329h-4z" />
    <glyph glyph-name="uni01CE" unicode="&#x1ce;" horiz-adv-x="539" 
d="M247 580q-20 0 -41 28l-109 145l27 26l123 -100l127 100l26 -25l-114 -152q-18 -22 -39 -22zM192 -14q-63 0 -101.5 37t-38.5 98q0 82 63.5 118.5t223.5 44.5v68q0 61 -26 89.5t-82 28.5q-27 0 -53.5 -8.5t-38.5 -21.5q26 -43 26 -56q0 -19 -15.5 -32t-38.5 -13
q-27 0 -42 13.5t-15 38.5q0 52 57 91t134 39q187 0 187 -180v-241q0 -44 45 -44q22 0 47 8l10 -38q-42 -40 -92 -40q-86 0 -95 89q-56 -89 -155 -89zM230 55q46 0 77.5 30.5t31.5 75.5v71q-190 0 -190 -100q0 -36 21.5 -56.5t59.5 -20.5z" />
    <glyph glyph-name="uni01CF" unicode="&#x1cf;" horiz-adv-x="409" 
d="M203 752q-14 0 -41 28l-121 130l25 26l137 -84l140 84l24 -25l-125 -137q-20 -22 -39 -22zM62 0v48l62 9q19 3 25 13t6 38v488q0 25 -6.5 34t-26.5 13l-60 9v48h285v-48l-63 -9q-18 -3 -24 -13.5t-6 -37.5v-488q0 -25 6 -34t26 -13l61 -9v-48h-285z" />
    <glyph glyph-name="uni01D0" unicode="&#x1d0;" horiz-adv-x="333" 
d="M151 580q-20 0 -41 28l-109 145l27 26l123 -100l127 100l26 -25l-114 -152q-18 -22 -39 -22zM40 0v49l57 9q19 3 25 12.5t6 38.5v273q0 37 -6.5 48.5t-29.5 14.5l-48 7l7 50l158 8l12 -5v-400q0 -25 6.5 -34.5t25.5 -12.5l56 -10v-48h-269z" />
    <glyph glyph-name="uni01D1" unicode="&#x1d1;" horiz-adv-x="760" 
d="M381 752q-14 0 -41 28l-121 130l25 26l137 -84l140 84l24 -25l-125 -137q-20 -22 -39 -22zM378 -14q-148 0 -238 96t-90 254q0 173 91.5 275.5t245.5 102.5q146 0 234.5 -95t88.5 -251q0 -171 -91.5 -276.5t-240.5 -105.5zM390 53q103 0 157 75.5t54 220.5
q0 142 -60 221.5t-167 79.5q-104 0 -161 -76.5t-57 -216.5t63 -222t171 -82z" />
    <glyph glyph-name="uni01D2" unicode="&#x1d2;" horiz-adv-x="586" 
d="M293 580q-20 0 -41 28l-109 145l27 26l123 -100l127 100l26 -25l-114 -152q-18 -22 -39 -22zM289 -14q-112 0 -177.5 69t-65.5 187q0 129 69 204t188 75q109 0 173 -69t64 -185q0 -128 -68 -204.5t-183 -76.5zM303 48q65 0 100 50.5t35 144.5q0 101 -40.5 160t-110.5 59
q-68 0 -104 -49t-36 -141q0 -105 41.5 -164.5t114.5 -59.5z" />
    <glyph glyph-name="uni01D3" unicode="&#x1d3;" horiz-adv-x="810" 
d="M415 752q-14 0 -41 28l-121 130l25 26l137 -84l140 84l24 -25l-125 -137q-20 -22 -39 -22zM404 -14q-135 0 -200.5 68.5t-65.5 210.5v331q0 25 -6.5 34t-26.5 13l-56 9v48h276v-48l-58 -9q-18 -3 -24 -13.5t-6 -37.5v-320q0 -115 42 -165.5t139 -50.5t143 54.5t46 168.5
v317q0 25 -6.5 34t-26.5 13l-55 9v48h246v-48l-57 -9q-19 -3 -25 -13t-6 -38v-301q0 -305 -273 -305z" />
    <glyph glyph-name="uni01D4" unicode="&#x1d4;" horiz-adv-x="634" 
d="M309 580q-20 0 -41 28l-109 145l27 26l123 -100l127 100l26 -25l-114 -152q-18 -22 -39 -22zM265 -14q-79 0 -119.5 43.5t-40.5 127.5v229q0 36 -6 47t-28 15l-44 7l8 48l151 11l12 -7v-321q0 -73 20.5 -100.5t75.5 -27.5q62 0 98.5 37.5t36.5 101.5v189q0 36 -6 47
t-28 15l-45 7l8 48l152 11l12 -7v-406q0 -24 6 -32.5t26 -12.5l50 -9v-47l-155 -6l-14 81h-3q-75 -89 -167 -89z" />
    <glyph glyph-name="uni01D5" unicode="&#x1d5;" horiz-adv-x="810" 
d="M274 969v73h284v-73h-284zM313 771q-28 0 -46 17.5t-18 45.5t18 46t46 18q29 0 47.5 -17.5t18.5 -45.5t-18.5 -46t-47.5 -18zM516 771q-29 0 -47 17.5t-18 45.5t18.5 46t46.5 18q29 0 47 -17.5t18 -45.5t-18.5 -46t-46.5 -18zM404 -14q-135 0 -200.5 68.5t-65.5 210.5
v331q0 25 -6.5 34t-26.5 13l-56 9v48h276v-48l-58 -9q-18 -3 -24 -13.5t-6 -37.5v-320q0 -115 42 -165.5t139 -50.5t143 54.5t46 168.5v317q0 25 -6.5 34t-26.5 13l-55 9v48h246v-48l-57 -9q-19 -3 -25 -13t-6 -38v-301q0 -305 -273 -305z" />
    <glyph glyph-name="uni01D6" unicode="&#x1d6;" horiz-adv-x="634" 
d="M168 821v73h284v-73h-284zM209 620q-27 0 -45 17.5t-18 44.5t18 45t45 18q28 0 46.5 -17.5t18.5 -44.5t-18.5 -45t-46.5 -18zM408 620q-28 0 -46 17.5t-18 44.5t18 45t46 18t46 -17.5t18 -44.5t-18 -45t-46 -18zM265 -14q-79 0 -119.5 43.5t-40.5 127.5v229q0 36 -6 47
t-28 15l-44 7l8 48l151 11l12 -7v-321q0 -73 20.5 -100.5t75.5 -27.5q62 0 98.5 37.5t36.5 101.5v189q0 36 -6 47t-28 15l-45 7l8 48l152 11l12 -7v-406q0 -24 6 -32.5t26 -12.5l50 -9v-47l-155 -6l-14 81h-3q-75 -89 -167 -89z" />
    <glyph glyph-name="uni01D7" unicode="&#x1d7;" horiz-adv-x="810" 
d="M341 942l-20 28l131 119q26 23 39 23q18 0 30.5 -15t12.5 -33q0 -38 -42 -56zM313 771q-28 0 -46 17.5t-18 45.5t18 46t46 18q29 0 47.5 -17.5t18.5 -45.5t-18.5 -46t-47.5 -18zM516 771q-29 0 -47 17.5t-18 45.5t18.5 46t46.5 18q29 0 47 -17.5t18 -45.5t-18.5 -46
t-46.5 -18zM404 -14q-135 0 -200.5 68.5t-65.5 210.5v331q0 25 -6.5 34t-26.5 13l-56 9v48h276v-48l-58 -9q-18 -3 -24 -13.5t-6 -37.5v-320q0 -115 42 -165.5t139 -50.5t143 54.5t46 168.5v317q0 25 -6.5 34t-26.5 13l-55 9v48h246v-48l-57 -9q-19 -3 -25 -13t-6 -38v-301
q0 -305 -273 -305z" />
    <glyph glyph-name="uni01D8" unicode="&#x1d8;" horiz-adv-x="634" 
d="M235 798l-20 28l131 119q26 23 39 23q18 0 30.5 -15t12.5 -33q0 -38 -42 -56zM209 620q-27 0 -45 17.5t-18 44.5t18 45t45 18q28 0 46.5 -17.5t18.5 -44.5t-18.5 -45t-46.5 -18zM408 620q-28 0 -46 17.5t-18 44.5t18 45t46 18t46 -17.5t18 -44.5t-18 -45t-46 -18z
M265 -14q-79 0 -119.5 43.5t-40.5 127.5v229q0 36 -6 47t-28 15l-44 7l8 48l151 11l12 -7v-321q0 -73 20.5 -100.5t75.5 -27.5q62 0 98.5 37.5t36.5 101.5v189q0 36 -6 47t-28 15l-45 7l8 48l152 11l12 -7v-406q0 -24 6 -32.5t26 -12.5l50 -9v-47l-155 -6l-14 81h-3
q-75 -89 -167 -89z" />
    <glyph glyph-name="uni01D9" unicode="&#x1d9;" horiz-adv-x="810" 
d="M415 940q-14 0 -41 28l-121 130l25 26l137 -84l140 84l24 -25l-125 -137q-20 -22 -39 -22zM313 771q-28 0 -46 17.5t-18 45.5t18 46t46 18q29 0 47.5 -17.5t18.5 -45.5t-18.5 -46t-47.5 -18zM516 771q-29 0 -47 17.5t-18 45.5t18.5 46t46.5 18q29 0 47 -17.5t18 -45.5
t-18.5 -46t-46.5 -18zM404 -14q-135 0 -200.5 68.5t-65.5 210.5v331q0 25 -6.5 34t-26.5 13l-56 9v48h276v-48l-58 -9q-18 -3 -24 -13.5t-6 -37.5v-320q0 -115 42 -165.5t139 -50.5t143 54.5t46 168.5v317q0 25 -6.5 34t-26.5 13l-55 9v48h246v-48l-57 -9q-19 -3 -25 -13
t-6 -38v-301q0 -305 -273 -305z" />
    <glyph glyph-name="uni01DA" unicode="&#x1da;" horiz-adv-x="634" 
d="M309 800q-14 0 -41 28l-121 130l25 26l137 -84l140 84l24 -25l-125 -137q-20 -22 -39 -22zM209 620q-27 0 -45 17.5t-18 44.5t18 45t45 18q28 0 46.5 -17.5t18.5 -44.5t-18.5 -45t-46.5 -18zM408 620q-28 0 -46 17.5t-18 44.5t18 45t46 18t46 -17.5t18 -44.5t-18 -45
t-46 -18zM265 -14q-79 0 -119.5 43.5t-40.5 127.5v229q0 36 -6 47t-28 15l-44 7l8 48l151 11l12 -7v-321q0 -73 20.5 -100.5t75.5 -27.5q62 0 98.5 37.5t36.5 101.5v189q0 36 -6 47t-28 15l-45 7l8 48l152 11l12 -7v-406q0 -24 6 -32.5t26 -12.5l50 -9v-47l-155 -6l-14 81
h-3q-75 -89 -167 -89z" />
    <glyph glyph-name="uni01DB" unicode="&#x1db;" horiz-adv-x="810" 
d="M491 940l-151 66q-42 18 -42 56q0 18 12.5 33t30.5 15q13 0 39 -23l131 -119zM313 771q-28 0 -46 17.5t-18 45.5t18 46t46 18q29 0 47.5 -17.5t18.5 -45.5t-18.5 -46t-47.5 -18zM516 771q-29 0 -47 17.5t-18 45.5t18.5 46t46.5 18q29 0 47 -17.5t18 -45.5t-18.5 -46
t-46.5 -18zM404 -14q-135 0 -200.5 68.5t-65.5 210.5v331q0 25 -6.5 34t-26.5 13l-56 9v48h276v-48l-58 -9q-18 -3 -24 -13.5t-6 -37.5v-320q0 -115 42 -165.5t139 -50.5t143 54.5t46 168.5v317q0 25 -6.5 34t-26.5 13l-55 9v48h246v-48l-57 -9q-19 -3 -25 -13t-6 -38v-301
q0 -305 -273 -305z" />
    <glyph glyph-name="uni01DC" unicode="&#x1dc;" horiz-adv-x="634" 
d="M385 800l-151 66q-42 18 -42 56q0 18 12.5 33t30.5 15q13 0 39 -23l131 -119zM209 620q-27 0 -45 17.5t-18 44.5t18 45t45 18q28 0 46.5 -17.5t18.5 -44.5t-18.5 -45t-46.5 -18zM408 620q-28 0 -46 17.5t-18 44.5t18 45t46 18t46 -17.5t18 -44.5t-18 -45t-46 -18z
M265 -14q-79 0 -119.5 43.5t-40.5 127.5v229q0 36 -6 47t-28 15l-44 7l8 48l151 11l12 -7v-321q0 -73 20.5 -100.5t75.5 -27.5q62 0 98.5 37.5t36.5 101.5v189q0 36 -6 47t-28 15l-45 7l8 48l152 11l12 -7v-406q0 -24 6 -32.5t26 -12.5l50 -9v-47l-155 -6l-14 81h-3
q-75 -89 -167 -89z" />
    <glyph glyph-name="Gcaron" unicode="&#x1e6;" horiz-adv-x="751" 
d="M366 752q-14 0 -41 28l-121 130l25 26l137 -84l140 84l24 -25l-125 -137q-20 -22 -39 -22zM371 -14q-144 0 -232.5 97.5t-88.5 256.5q0 169 87 271.5t231 102.5q108 0 169 -61l10 63h49l46 -233l-55 -12q-30 93 -81.5 136.5t-131.5 43.5q-106 0 -161.5 -77.5
t-55.5 -224.5q0 -134 60.5 -215.5t160.5 -81.5q111 0 162 68v110q0 25 -6.5 34t-26.5 13l-60 9v48h271v-48l-53 -9q-18 -3 -24 -13.5t-6 -37.5v-229h-43l-26 47q-81 -58 -195 -58z" />
    <glyph glyph-name="gcaron" unicode="&#x1e7;" horiz-adv-x="558" 
d="M258 580q-20 0 -41 28l-109 145l27 26l123 -100l127 100l26 -25l-114 -152q-18 -22 -39 -22zM254 -229q-229 0 -229 123q0 72 91 114v4q-25 8 -41.5 30t-16.5 47q0 27 13.5 50.5t51.5 63.5v3q-74 38 -74 137q0 81 56.5 129.5t150.5 48.5q75 0 130 -33q33 94 104 94
q29 0 48 -15t19 -38q0 -22 -17.5 -39t-39.5 -17q-26 0 -40 27l-10 21q-16 -25 -29 -63q38 -46 38 -110q0 -79 -55 -126.5t-147 -47.5q-54 0 -81 10q-32 -36 -32 -60q0 -22 16.5 -31.5t53.5 -9.5h128q92 0 134.5 -31t42.5 -98q0 -87 -69.5 -135t-195.5 -48zM255 227
q52 0 80.5 31t28.5 87q0 59 -30 92t-85 33q-105 0 -105 -122q0 -56 30 -88.5t81 -32.5zM262 -166q76 0 119 25.5t43 70.5q0 62 -93 62h-168q-46 -34 -46 -83q0 -40 33.5 -57.5t111.5 -17.5z" />
    <glyph glyph-name="uni01EA" unicode="&#x1ea;" horiz-adv-x="760" 
d="M710 368q0 -135 -58.5 -231t-159.5 -132h1q-87 -72 -87 -128q0 -41 41 -41q20 0 49 9l11 -35q-47 -39 -95 -39q-42 0 -67 23t-25 58q0 74 91 135q-11 -1 -33 -1q-148 0 -238 96t-90 254q0 173 91.5 275.5t245.5 102.5q146 0 234.5 -95t88.5 -251zM390 53q103 0 157 75.5
t54 220.5q0 142 -60 221.5t-167 79.5q-104 0 -161 -76.5t-57 -216.5t63 -222t171 -82z" />
    <glyph glyph-name="uni01EB" unicode="&#x1eb;" horiz-adv-x="586" 
d="M540 267q0 -96 -39.5 -164.5t-109.5 -97.5q-87 -72 -87 -128q0 -41 41 -41q20 0 49 9l11 -35q-47 -39 -95 -39q-42 0 -67 23t-25 58q0 73 90 135q-6 -1 -19 -1q-112 0 -177.5 69t-65.5 187q0 129 69 204t188 75q109 0 173 -69t64 -185zM303 48q65 0 100 50.5t35 144.5
q0 101 -40.5 160t-110.5 59q-68 0 -104 -49t-36 -141q0 -105 41.5 -164.5t114.5 -59.5z" />
    <glyph glyph-name="Aringacute" unicode="&#x1fa;" horiz-adv-x="735" 
d="M449 951l-151 -66l-20 28l131 119q26 23 39 23q18 0 30.5 -15t12.5 -33q0 -38 -42 -56zM679 58l41 -8v-50h-267v48l58 7q20 3 24.5 13.5t-5.5 36.5l-43 126h-268l-42 -122q-9 -26 -4 -37.5t27 -16.5l57 -8v-47h-242v48l48 8q18 4 26 13.5t20 40.5l200 560q-41 25 -41 85
q0 43 27.5 71t79.5 28q50 0 76.5 -26t26.5 -71q0 -59 -42 -86l199 -562q11 -29 17.5 -37.5t26.5 -13.5zM372 809q-24 0 -36 -15.5t-12 -38.5t12 -38.5t38 -15.5q47 0 47 54q0 23 -12.5 38.5t-36.5 15.5zM239 288h229l-111 329h-4z" />
    <glyph glyph-name="aringacute" unicode="&#x1fb;" horiz-adv-x="539" 
d="M173 821l-20 28l131 119q26 23 39 23q18 0 30.5 -15t12.5 -33q0 -38 -42 -56zM248 582q-53 0 -79 26.5t-26 73.5q0 43 27.5 71t79.5 28q50 0 76.5 -26t26.5 -71q0 -46 -27.5 -74t-77.5 -28zM249 628q47 0 47 54q0 23 -12.5 38.5t-36.5 15.5t-36 -15.5t-12 -38.5t12 -38.5
t38 -15.5zM192 -14q-63 0 -101.5 37t-38.5 98q0 82 63.5 118.5t223.5 44.5v68q0 61 -26 89.5t-82 28.5q-27 0 -53.5 -8.5t-38.5 -21.5q26 -43 26 -56q0 -19 -15.5 -32t-38.5 -13q-27 0 -42 13.5t-15 38.5q0 52 57 91t134 39q187 0 187 -180v-241q0 -44 45 -44q22 0 47 8
l10 -38q-42 -40 -92 -40q-86 0 -95 89q-56 -89 -155 -89zM230 55q46 0 77.5 30.5t31.5 75.5v71q-190 0 -190 -100q0 -36 21.5 -56.5t59.5 -20.5z" />
    <glyph glyph-name="AEacute" unicode="&#x1fc;" horiz-adv-x="997" 
d="M580 752l-20 28l131 119q26 23 39 23q18 0 30.5 -15t12.5 -33q0 -38 -42 -56zM15 0v48l48 8q16 3 25.5 13.5t24.5 40.5l263 533l-64 9v48h573l37 -163l-52 -17q-30 79 -60 102.5t-103 23.5h-97v-274h87h24.5t19 2t14 2t10 6t7 6.5t5 11l4.5 13.5t4.5 19t4.5 22l46 6v-222
l-46 -8q-9 60 -21.5 72.5t-71.5 12.5h-87v-261h129q72 0 100.5 24.5t49.5 105.5h55l-24 -184h-498v48l58 9q19 3 25 13t6 38v207h-226l-99 -206q-23 -48 17 -54l57 -8v-47h-245zM313 372h198l1 274h-67z" />
    <glyph glyph-name="aeacute" unicode="&#x1fd;" horiz-adv-x="809" 
d="M385 580l-24 25l104 138q22 29 39 29q21 0 34.5 -15.5t13.5 -35.5q0 -29 -35 -53zM192 -14q-56 0 -98 33t-42 102q0 64 40.5 102t114.5 49q54 8 132 12v68q0 64 -27.5 91t-80.5 27q-30 0 -55.5 -9t-36.5 -21q26 -45 26 -56q0 -18 -15 -31.5t-39 -13.5q-57 0 -57 52
q0 53 58 91.5t133 38.5q116 0 159 -67q67 67 171 67q80 0 132 -47.5t52 -129.5q0 -48 -14 -98h-313q3 -86 45 -136t116 -50q80 0 138 60l35 -35q-31 -42 -82.5 -70.5t-113.5 -28.5q-133 0 -197 102q-55 -102 -181 -102zM432 302h230q3 19 3 46q0 120 -101 120
q-117 0 -132 -166zM230 55q38 0 73.5 27t35.5 82v68q-43 0 -97 -9q-50 -8 -71.5 -33t-21.5 -58q0 -39 23 -58t58 -19z" />
    <glyph glyph-name="Oslashacute" unicode="&#x1fe;" horiz-adv-x="760" 
d="M458 818l-151 -66l-20 28l131 119q26 23 39 23q18 0 30.5 -15t12.5 -33q0 -38 -42 -56zM722 714l-90 -108q78 -92 78 -238q0 -171 -91.5 -276.5t-240.5 -105.5q-122 0 -206 67l-56 -67h-80l92 110q-78 95 -78 240q0 173 91.5 275.5t245.5 102.5q119 0 201 -65l54 65h80z
M156 357q0 -108 38 -182l338 407q-59 68 -158 68q-104 0 -161 -76.5t-57 -216.5zM601 349q0 105 -34 179l-338 -406q63 -69 161 -69q103 0 157 75.5t54 220.5z" />
    <glyph glyph-name="oslashacute" unicode="&#x1ff;" horiz-adv-x="587" 
d="M375 668l-132 -88l-24 25l104 138q22 29 39 29q21 0 34.5 -15.5t13.5 -35.5q0 -29 -35 -53zM573 521l-81 -89q48 -65 48 -165q0 -128 -68 -204.5t-183 -76.5q-96 0 -158 51l-47 -51h-79l86 94q-45 65 -45 162q0 129 69 204t188 75q90 0 148 -47l43 47h79zM147 272
q0 -62 16 -113l229 251q-39 52 -105 52q-68 0 -104 -49t-36 -141zM438 243q0 63 -17 112l-230 -251q42 -56 112 -56q65 0 100 50.5t35 144.5z" />
    <glyph glyph-name="uni0200" unicode="&#x200;" horiz-adv-x="735" 
d="M457 760l-110 92q-31 25 -31 54q0 20 11 32t32 12q20 0 38 -29l84 -136zM316 760l-118 88q-34 24 -34 57q0 18 11 30t32 12q19 0 40 -29l93 -133zM15 0v48l48 8q18 4 26 13.5t20 40.5l211 590h106l209 -591q11 -29 17.5 -37.5t26.5 -13.5l41 -8v-50h-267v48l58 7
q20 3 24.5 13.5t-5.5 36.5l-43 126h-268l-42 -122q-9 -26 -4 -37.5t27 -16.5l57 -8v-47h-242zM239 288h229l-111 329h-4z" />
    <glyph glyph-name="uni0201" unicode="&#x201;" horiz-adv-x="539" 
d="M332 580l-110 92q-31 25 -31 54q0 20 11 32t32 12q20 0 38 -29l84 -136zM191 580l-118 88q-34 24 -34 57q0 18 11 30t32 12q19 0 40 -29l93 -133zM192 -14q-63 0 -101.5 37t-38.5 98q0 82 63.5 118.5t223.5 44.5v68q0 61 -26 89.5t-82 28.5q-27 0 -53.5 -8.5t-38.5 -21.5
q26 -43 26 -56q0 -19 -15.5 -32t-38.5 -13q-27 0 -42 13.5t-15 38.5q0 52 57 91t134 39q187 0 187 -180v-241q0 -44 45 -44q22 0 47 8l10 -38q-42 -40 -92 -40q-86 0 -95 89q-56 -89 -155 -89zM230 55q46 0 77.5 30.5t31.5 75.5v71q-190 0 -190 -100q0 -36 21.5 -56.5
t59.5 -20.5z" />
    <glyph glyph-name="uni0202" unicode="&#x202;" horiz-adv-x="735" 
d="M377 921q71 0 110 -46.5t46 -117.5l-40 -12q-14 50 -43 73t-78 23q-95 0 -120 -95l-38 10q6 66 48.5 115.5t114.5 49.5zM15 0v48l48 8q18 4 26 13.5t20 40.5l211 590h106l209 -591q11 -29 17.5 -37.5t26.5 -13.5l41 -8v-50h-267v48l58 7q20 3 24.5 13.5t-5.5 36.5
l-43 126h-268l-42 -122q-9 -26 -4 -37.5t27 -16.5l57 -8v-47h-242zM239 288h229l-111 329h-4z" />
    <glyph glyph-name="uni0203" unicode="&#x203;" horiz-adv-x="539" 
d="M258 758q66 0 102 -48.5t44 -120.5l-40 -12q-29 101 -111 101q-84 0 -110 -100l-38 10q6 67 46 118.5t107 51.5zM192 -14q-63 0 -101.5 37t-38.5 98q0 82 63.5 118.5t223.5 44.5v68q0 61 -26 89.5t-82 28.5q-27 0 -53.5 -8.5t-38.5 -21.5q26 -43 26 -56q0 -19 -15.5 -32
t-38.5 -13q-27 0 -42 13.5t-15 38.5q0 52 57 91t134 39q187 0 187 -180v-241q0 -44 45 -44q22 0 47 8l10 -38q-42 -40 -92 -40q-86 0 -95 89q-56 -89 -155 -89zM230 55q46 0 77.5 30.5t31.5 75.5v71q-190 0 -190 -100q0 -36 21.5 -56.5t59.5 -20.5z" />
    <glyph glyph-name="uni0204" unicode="&#x204;" horiz-adv-x="637" 
d="M437 752l-135 70q-42 22 -42 56q0 18 11.5 33t29.5 15q16 0 39 -23l117 -123zM259 752l-138 68q-42 20 -42 56q0 17 12.5 31t30.5 14q16 0 39 -23l118 -118zM62 0v48l58 9q19 3 25 13t6 38v488q0 26 -6.5 35t-26.5 12l-56 9v48h463l37 -163l-52 -17q-30 79 -60 102.5
t-103 23.5h-97v-259h87q53 0 66 11.5t27 70.5l46 6v-227l-46 -8q-9 58 -24 71.5t-69 13.5h-87v-271h129q72 0 100.5 24.5t49.5 105.5h55l-24 -184h-498z" />
    <glyph glyph-name="uni0205" unicode="&#x205;" horiz-adv-x="519" 
d="M362 580l-110 92q-31 25 -31 54q0 20 11 32t32 12q20 0 38 -29l84 -136zM221 580l-118 88q-34 24 -34 57q0 18 11 30t32 12q19 0 40 -29l93 -133zM285 -14q-109 0 -174 71t-65 190q0 124 67 199t177 75q83 0 133.5 -49t50.5 -128q0 -42 -14 -98h-313q3 -88 45.5 -137
t115.5 -49q80 0 138 60l35 -35q-34 -46 -87 -72.5t-109 -26.5zM147 302h230q3 19 3 46q0 120 -101 120q-57 0 -90.5 -42.5t-41.5 -123.5z" />
    <glyph glyph-name="uni0206" unicode="&#x206;" horiz-adv-x="637" 
d="M329 921q71 0 110 -46.5t46 -117.5l-40 -12q-14 50 -43 73t-78 23q-95 0 -120 -95l-38 10q6 66 48.5 115.5t114.5 49.5zM62 0v48l58 9q19 3 25 13t6 38v488q0 26 -6.5 35t-26.5 12l-56 9v48h463l37 -163l-52 -17q-30 79 -60 102.5t-103 23.5h-97v-259h87q53 0 66 11.5
t27 70.5l46 6v-227l-46 -8q-9 58 -24 71.5t-69 13.5h-87v-271h129q72 0 100.5 24.5t49.5 105.5h55l-24 -184h-498z" />
    <glyph glyph-name="uni0207" unicode="&#x207;" horiz-adv-x="519" 
d="M288 758q66 0 102 -48.5t44 -120.5l-40 -12q-29 101 -111 101q-84 0 -110 -100l-38 10q6 67 46 118.5t107 51.5zM285 -14q-109 0 -174 71t-65 190q0 124 67 199t177 75q83 0 133.5 -49t50.5 -128q0 -42 -14 -98h-313q3 -88 45.5 -137t115.5 -49q80 0 138 60l35 -35
q-34 -46 -87 -72.5t-109 -26.5zM147 302h230q3 19 3 46q0 120 -101 120q-57 0 -90.5 -42.5t-41.5 -123.5z" />
    <glyph glyph-name="uni0208" unicode="&#x208;" horiz-adv-x="409" 
d="M316 752l-135 70q-42 22 -42 56q0 18 11.5 33t29.5 15q16 0 39 -23l117 -123zM138 752l-138 68q-42 20 -42 56q0 17 12.5 31t30.5 14q16 0 39 -23l118 -118zM62 0v48l62 9q19 3 25 13t6 38v488q0 25 -6.5 34t-26.5 13l-60 9v48h285v-48l-63 -9q-18 -3 -24 -13.5t-6 -37.5
v-488q0 -25 6 -34t26 -13l61 -9v-48h-285z" />
    <glyph glyph-name="uni0209" unicode="&#x209;" horiz-adv-x="333" 
d="M236 580l-110 92q-31 25 -31 54q0 20 11 32t32 12q20 0 38 -29l84 -136zM95 580l-118 88q-34 24 -34 57q0 18 11 30t32 12q19 0 40 -29l93 -133zM40 0v49l57 9q19 3 25 12.5t6 38.5v273q0 37 -6.5 48.5t-29.5 14.5l-48 7l7 50l158 8l12 -5v-400q0 -25 6.5 -34.5
t25.5 -12.5l56 -10v-48h-269z" />
    <glyph glyph-name="uni020A" unicode="&#x20a;" horiz-adv-x="409" 
d="M208 921q71 0 110 -46.5t46 -117.5l-40 -12q-14 50 -43 73t-78 23q-95 0 -120 -95l-38 10q6 66 48.5 115.5t114.5 49.5zM62 0v48l62 9q19 3 25 13t6 38v488q0 25 -6.5 34t-26.5 13l-60 9v48h285v-48l-63 -9q-18 -3 -24 -13.5t-6 -37.5v-488q0 -25 6 -34t26 -13l61 -9v-48
h-285z" />
    <glyph glyph-name="uni020B" unicode="&#x20b;" horiz-adv-x="333" 
d="M162 758q66 0 102 -48.5t44 -120.5l-40 -12q-29 101 -111 101q-84 0 -110 -100l-38 10q6 67 46 118.5t107 51.5zM40 0v49l57 9q19 3 25 12.5t6 38.5v273q0 37 -6.5 48.5t-29.5 14.5l-48 7l7 50l158 8l12 -5v-400q0 -25 6.5 -34.5t25.5 -12.5l56 -10v-48h-269z" />
    <glyph glyph-name="uni020C" unicode="&#x20c;" horiz-adv-x="760" 
d="M494 752l-135 70q-42 22 -42 56q0 18 11.5 33t29.5 15q16 0 39 -23l117 -123zM316 752l-138 68q-42 20 -42 56q0 17 12.5 31t30.5 14q16 0 39 -23l118 -118zM378 -14q-148 0 -238 96t-90 254q0 173 91.5 275.5t245.5 102.5q146 0 234.5 -95t88.5 -251
q0 -171 -91.5 -276.5t-240.5 -105.5zM390 53q103 0 157 75.5t54 220.5q0 142 -60 221.5t-167 79.5q-104 0 -161 -76.5t-57 -216.5t63 -222t171 -82z" />
    <glyph glyph-name="uni020D" unicode="&#x20d;" horiz-adv-x="586" 
d="M378 580l-110 92q-31 25 -31 54q0 20 11 32t32 12q20 0 38 -29l84 -136zM237 580l-118 88q-34 24 -34 57q0 18 11 30t32 12q19 0 40 -29l93 -133zM289 -14q-112 0 -177.5 69t-65.5 187q0 129 69 204t188 75q109 0 173 -69t64 -185q0 -128 -68 -204.5t-183 -76.5zM303 48
q65 0 100 50.5t35 144.5q0 101 -40.5 160t-110.5 59q-68 0 -104 -49t-36 -141q0 -105 41.5 -164.5t114.5 -59.5z" />
    <glyph glyph-name="uni020E" unicode="&#x20e;" horiz-adv-x="760" 
d="M386 921q71 0 110 -46.5t46 -117.5l-40 -12q-14 50 -43 73t-78 23q-95 0 -120 -95l-38 10q6 66 48.5 115.5t114.5 49.5zM378 -14q-148 0 -238 96t-90 254q0 173 91.5 275.5t245.5 102.5q146 0 234.5 -95t88.5 -251q0 -171 -91.5 -276.5t-240.5 -105.5zM390 53
q103 0 157 75.5t54 220.5q0 142 -60 221.5t-167 79.5q-104 0 -161 -76.5t-57 -216.5t63 -222t171 -82z" />
    <glyph glyph-name="uni020F" unicode="&#x20f;" horiz-adv-x="586" 
d="M304 758q66 0 102 -48.5t44 -120.5l-40 -12q-29 101 -111 101q-84 0 -110 -100l-38 10q6 67 46 118.5t107 51.5zM289 -14q-112 0 -177.5 69t-65.5 187q0 129 69 204t188 75q109 0 173 -69t64 -185q0 -128 -68 -204.5t-183 -76.5zM303 48q65 0 100 50.5t35 144.5
q0 101 -40.5 160t-110.5 59q-68 0 -104 -49t-36 -141q0 -105 41.5 -164.5t114.5 -59.5z" />
    <glyph glyph-name="uni0210" unicode="&#x210;" horiz-adv-x="725" 
d="M432 752l-135 70q-42 22 -42 56q0 18 11.5 33t29.5 15q16 0 39 -23l117 -123zM254 752l-138 68q-42 20 -42 56q0 17 12.5 31t30.5 14q16 0 39 -23l118 -118zM597 -14q-54 0 -85.5 27.5t-61.5 100.5l-48 115q-24 58 -44 75t-63 17q-25 0 -45 -3v-212q0 -27 7.5 -37
t29.5 -13l70 -8v-48h-295v48l58 9q19 3 25 13t6 38v488q0 25 -6.5 34t-26.5 13l-56 9v48h251q132 0 200.5 -45.5t68.5 -133.5q0 -65 -50 -117.5t-124 -65.5v-3q38 -11 61.5 -31.5t39.5 -59.5l35 -82q15 -36 20.5 -47.5t18 -30.5t26.5 -25t34 -6q18 0 45 9l10 -36
q-41 -40 -101 -40zM306 369q80 0 124.5 38t44.5 108q0 68 -40.5 99.5t-128.5 31.5h-56v-275q50 -2 56 -2z" />
    <glyph glyph-name="uni0211" unicode="&#x211;" horiz-adv-x="473" 
d="M358 580l-110 92q-31 25 -31 54q0 20 11 32t32 12q20 0 38 -29l84 -136zM217 580l-118 88q-34 24 -34 57q0 18 11 30t32 12q19 0 40 -29l93 -133zM55 0v48l48 9q16 3 21 12.5t5 35.5v280q0 36 -6 47t-28 15l-49 7l7 49l135 11l12 -7l11 -90h3q60 104 149 104q47 0 75 -26
t28 -70q0 -79 -67 -79q-59 0 -59 44q0 20 19 58q-44 22 -90.5 -26t-46.5 -116v-203q0 -25 4.5 -32.5t20.5 -10.5l86 -13v-47h-278z" />
    <glyph glyph-name="uni0212" unicode="&#x212;" horiz-adv-x="725" 
d="M324 921q71 0 110 -46.5t46 -117.5l-40 -12q-14 50 -43 73t-78 23q-95 0 -120 -95l-38 10q6 66 48.5 115.5t114.5 49.5zM597 -14q-54 0 -85.5 27.5t-61.5 100.5l-48 115q-24 58 -44 75t-63 17q-25 0 -45 -3v-212q0 -27 7.5 -37t29.5 -13l70 -8v-48h-295v48l58 9
q19 3 25 13t6 38v488q0 25 -6.5 34t-26.5 13l-56 9v48h251q132 0 200.5 -45.5t68.5 -133.5q0 -65 -50 -117.5t-124 -65.5v-3q38 -11 61.5 -31.5t39.5 -59.5l35 -82q15 -36 20.5 -47.5t18 -30.5t26.5 -25t34 -6q18 0 45 9l10 -36q-41 -40 -101 -40zM306 369q80 0 124.5 38
t44.5 108q0 68 -40.5 99.5t-128.5 31.5h-56v-275q50 -2 56 -2z" />
    <glyph glyph-name="uni0213" unicode="&#x213;" horiz-adv-x="473" 
d="M284 758q66 0 102 -48.5t44 -120.5l-40 -12q-29 101 -111 101q-84 0 -110 -100l-38 10q6 67 46 118.5t107 51.5zM55 0v48l48 9q16 3 21 12.5t5 35.5v280q0 36 -6 47t-28 15l-49 7l7 49l135 11l12 -7l11 -90h3q60 104 149 104q47 0 75 -26t28 -70q0 -79 -67 -79
q-59 0 -59 44q0 20 19 58q-44 22 -90.5 -26t-46.5 -116v-203q0 -25 4.5 -32.5t20.5 -10.5l86 -13v-47h-278z" />
    <glyph glyph-name="uni0214" unicode="&#x214;" horiz-adv-x="810" 
d="M528 752l-135 70q-42 22 -42 56q0 18 11.5 33t29.5 15q16 0 39 -23l117 -123zM350 752l-138 68q-42 20 -42 56q0 17 12.5 31t30.5 14q16 0 39 -23l118 -118zM404 -14q-135 0 -200.5 68.5t-65.5 210.5v331q0 25 -6.5 34t-26.5 13l-56 9v48h276v-48l-58 -9
q-18 -3 -24 -13.5t-6 -37.5v-320q0 -115 42 -165.5t139 -50.5t143 54.5t46 168.5v317q0 25 -6.5 34t-26.5 13l-55 9v48h246v-48l-57 -9q-19 -3 -25 -13t-6 -38v-301q0 -305 -273 -305z" />
    <glyph glyph-name="uni0215" unicode="&#x215;" horiz-adv-x="634" 
d="M394 580l-110 92q-31 25 -31 54q0 20 11 32t32 12q20 0 38 -29l84 -136zM253 580l-118 88q-34 24 -34 57q0 18 11 30t32 12q19 0 40 -29l93 -133zM265 -14q-79 0 -119.5 43.5t-40.5 127.5v229q0 36 -6 47t-28 15l-44 7l8 48l151 11l12 -7v-321q0 -73 20.5 -100.5
t75.5 -27.5q62 0 98.5 37.5t36.5 101.5v189q0 36 -6 47t-28 15l-45 7l8 48l152 11l12 -7v-406q0 -24 6 -32.5t26 -12.5l50 -9v-47l-155 -6l-14 81h-3q-75 -89 -167 -89z" />
    <glyph glyph-name="uni0216" unicode="&#x216;" horiz-adv-x="810" 
d="M420 921q71 0 110 -46.5t46 -117.5l-40 -12q-14 50 -43 73t-78 23q-95 0 -120 -95l-38 10q6 66 48.5 115.5t114.5 49.5zM404 -14q-135 0 -200.5 68.5t-65.5 210.5v331q0 25 -6.5 34t-26.5 13l-56 9v48h276v-48l-58 -9q-18 -3 -24 -13.5t-6 -37.5v-320q0 -115 42 -165.5
t139 -50.5t143 54.5t46 168.5v317q0 25 -6.5 34t-26.5 13l-55 9v48h246v-48l-57 -9q-19 -3 -25 -13t-6 -38v-301q0 -305 -273 -305z" />
    <glyph glyph-name="uni0217" unicode="&#x217;" horiz-adv-x="634" 
d="M310 758q66 0 102 -48.5t44 -120.5l-40 -12q-29 101 -111 101q-84 0 -110 -100l-38 10q6 67 46 118.5t107 51.5zM265 -14q-79 0 -119.5 43.5t-40.5 127.5v229q0 36 -6 47t-28 15l-44 7l8 48l151 11l12 -7v-321q0 -73 20.5 -100.5t75.5 -27.5q62 0 98.5 37.5t36.5 101.5
v189q0 36 -6 47t-28 15l-45 7l8 48l152 11l12 -7v-406q0 -24 6 -32.5t26 -12.5l50 -9v-47l-155 -6l-14 81h-3q-75 -89 -167 -89z" />
    <glyph glyph-name="uni0218" unicode="&#x218;" horiz-adv-x="598" 
d="M316 -14q-51 0 -100 18t-80 49l-16 -59h-44l-20 216l57 5q61 -165 200 -165q62 0 96 30t34 85t-35 88t-122 61q-113 36 -159 82t-46 125q0 86 59 139.5t155 53.5q88 0 148 -52l13 52h47l22 -202l-56 -8q-46 155 -171 155q-54 0 -87 -30.5t-33 -79.5t34 -80t121 -60
q115 -39 161 -85.5t46 -123.5q0 -94 -63 -154t-161 -60zM275 -268l-24 29q48 41 48 81h-10q-51 0 -51 46q0 25 16.5 40.5t44.5 15.5q34 0 50.5 -21t16.5 -51q0 -41 -24 -80t-67 -60z" />
    <glyph glyph-name="uni0219" unicode="&#x219;" horiz-adv-x="452" 
d="M65 -14l-16 172l56 4q41 -116 140 -116q44 0 69 22.5t25 61.5q0 32 -25 51t-92 38q-89 25 -125 59t-36 93q0 68 46.5 109t125.5 41q69 0 110 -34l8 34h44l13 -163l-57 5q-10 46 -42 75t-74 29q-90 0 -90 -73q0 -32 24 -50.5t91 -37.5q90 -25 126 -59.5t36 -94.5
q0 -73 -50 -119.5t-129 -46.5q-82 0 -125 34l-11 -34h-42zM210 -268l-24 29q48 41 48 81h-10q-51 0 -51 46q0 25 16.5 40.5t44.5 15.5q34 0 50.5 -21t16.5 -51q0 -41 -24 -80t-67 -60z" />
    <glyph glyph-name="uni021A" unicode="&#x21a;" horiz-adv-x="738" 
d="M207 0v48l80 12q19 3 26 14t7 36v535h-55q-74 0 -105 -29t-64 -129l-54 13l39 200h578l37 -200l-55 -13q-32 100 -62.5 129t-103.5 29h-56v-539q0 -25 6.5 -33.5t27.5 -12.5l79 -12v-48h-325zM342 -268l-24 29q48 41 48 81h-10q-51 0 -51 46q0 25 16.5 40.5t44.5 15.5
q34 0 50.5 -21t16.5 -51q0 -41 -24 -80t-67 -60z" />
    <glyph glyph-name="uni021B" unicode="&#x21b;" horiz-adv-x="404" 
d="M249 -14q-68 0 -100.5 36.5t-32.5 112.5v309h-79v52q53 4 78.5 45.5t32.5 132.5l48 6l13 -6v-167h156v-63h-156v-302q0 -83 71 -83q49 0 96 32l23 -36q-67 -69 -150 -69zM216 -268l-24 29q48 41 48 81h-10q-51 0 -51 46q0 25 16.5 40.5t44.5 15.5q34 0 50.5 -21t16.5 -51
q0 -41 -24 -80t-67 -60z" />
    <glyph glyph-name="uni022A" unicode="&#x22a;" horiz-adv-x="760" 
d="M249 968v73h284v-73h-284zM279 771q-28 0 -46 17.5t-18 45.5t18 46t46 18q29 0 47.5 -17.5t18.5 -45.5t-18.5 -46t-47.5 -18zM482 771q-29 0 -47 17.5t-18 45.5t18.5 46t46.5 18q29 0 47 -17.5t18 -45.5t-18.5 -46t-46.5 -18zM378 -14q-148 0 -238 96t-90 254
q0 173 91.5 275.5t245.5 102.5q146 0 234.5 -95t88.5 -251q0 -171 -91.5 -276.5t-240.5 -105.5zM390 53q103 0 157 75.5t54 220.5q0 142 -60 221.5t-167 79.5q-104 0 -161 -76.5t-57 -216.5t63 -222t171 -82z" />
    <glyph glyph-name="uni022B" unicode="&#x22b;" horiz-adv-x="587" 
d="M153 795v73h284v-73h-284zM195 596q-27 0 -45 17.5t-18 44.5t18 45t45 18q28 0 46.5 -17.5t18.5 -44.5t-18.5 -45t-46.5 -18zM394 596q-28 0 -46 17.5t-18 44.5t18 45t46 18t46 -17.5t18 -44.5t-18 -45t-46 -18zM289 -14q-112 0 -177.5 69t-65.5 187q0 129 69 204t188 75
q109 0 173 -69t64 -185q0 -128 -68 -204.5t-183 -76.5zM303 48q65 0 100 50.5t35 144.5q0 101 -40.5 160t-110.5 59q-68 0 -104 -49t-36 -141q0 -105 41.5 -164.5t114.5 -59.5z" />
    <glyph glyph-name="uni022C" unicode="&#x22c;" horiz-adv-x="760" 
d="M249 980v73h284v-73h-284zM468 776q-35 0 -92 24q-60 24 -73 24q-14 0 -23.5 -7t-23.5 -29l-31 19q25 55 44.5 74.5t48.5 19.5q28 0 89 -26q59 -24 76 -24q12 0 20 7t24 30l31 -19q-26 -54 -45 -73.5t-45 -19.5zM378 -14q-148 0 -238 96t-90 254q0 173 91.5 275.5
t245.5 102.5q146 0 234.5 -95t88.5 -251q0 -171 -91.5 -276.5t-240.5 -105.5zM390 53q103 0 157 75.5t54 220.5q0 142 -60 221.5t-167 79.5q-104 0 -161 -76.5t-57 -216.5t63 -222t171 -82z" />
    <glyph glyph-name="uni022D" unicode="&#x22d;" horiz-adv-x="587" 
d="M153 795v73h284v-73h-284zM369 587q-34 0 -90 24q-59 25 -70 25q-14 0 -23 -7.5t-24 -29.5l-31 19q25 53 44 72t49 19q31 0 86 -24q57 -24 74 -24q12 0 21 7.5t23 29.5l31 -19q-25 -54 -44 -73t-46 -19zM289 -14q-112 0 -177.5 69t-65.5 187q0 129 69 204t188 75
q109 0 173 -69t64 -185q0 -128 -68 -204.5t-183 -76.5zM303 48q65 0 100 50.5t35 144.5q0 101 -40.5 160t-110.5 59q-68 0 -104 -49t-36 -141q0 -105 41.5 -164.5t114.5 -59.5z" />
    <glyph glyph-name="uni0230" unicode="&#x230;" horiz-adv-x="779" 
d="M249 968v73h284v-73h-284zM381 767q-29 0 -48 18.5t-19 47.5t19 48t48 19q30 0 49 -18.5t19 -47.5t-19 -48t-49 -19zM378 -14q-148 0 -238 96t-90 254q0 173 91.5 275.5t245.5 102.5q146 0 234.5 -95t88.5 -251q0 -171 -91.5 -276.5t-240.5 -105.5zM390 53
q103 0 157 75.5t54 220.5q0 142 -60 221.5t-167 79.5q-104 0 -161 -76.5t-57 -216.5t63 -222t171 -82z" />
    <glyph glyph-name="uni0231" unicode="&#x231;" horiz-adv-x="587" 
d="M153 795v73h284v-73h-284zM294 602q-29 0 -48 18.5t-19 47.5t19 48t48 19q30 0 49 -18.5t19 -47.5t-19 -48t-49 -19zM289 -14q-112 0 -177.5 69t-65.5 187q0 129 69 204t188 75q109 0 173 -69t64 -185q0 -128 -68 -204.5t-183 -76.5zM303 48q65 0 100 50.5t35 144.5
q0 101 -40.5 160t-110.5 59q-68 0 -104 -49t-36 -141q0 -105 41.5 -164.5t114.5 -59.5z" />
    <glyph glyph-name="uni0232" unicode="&#x232;" horiz-adv-x="716" 
d="M233 795v73h284v-73h-284zM213 0v48l62 9q19 3 25 13t6 38v185l-187 298q-16 27 -28 37t-32 14l-37 7v51h279v-48l-55 -7q-23 -2 -28 -15.5t9 -34.5l146 -237h5l138 233q28 41 -17 51l-46 11v47h241v-48l-49 -8q-16 -2 -26.5 -12.5t-30.5 -42.5l-183 -297v-188
q0 -25 6 -34t26 -13l61 -9v-48h-285z" />
    <glyph glyph-name="uni0233" unicode="&#x233;" horiz-adv-x="576" 
d="M169 635v73h280v-73h-280zM113 -229q-47 0 -75 21.5t-28 58.5q0 29 18.5 48t46.5 19q48 0 53 -36q2 -14 -4 -57q31 -2 53.5 23.5t55.5 101.5l25 57l-165 392q-13 30 -20.5 38.5t-23.5 12.5l-35 8l10 49h238v-46l-48 -7q-20 -3 -24.5 -13.5t5.5 -36.5l111 -280h5l111 273
q10 25 4.5 37t-27.5 17l-44 10l10 46h209v-47l-37 -8q-17 -4 -25.5 -13t-21.5 -41l-193 -452q-43 -99 -82.5 -137t-101.5 -38z" />
    <glyph glyph-name="uni0237" unicode="&#x237;" horiz-adv-x="309" 
d="M62 -229l-28 41q48 38 67.5 89t19.5 127v354q0 36 -6 48t-30 15l-48 7l8 50l157 8l12 -5v-410q0 -136 -33 -206.5t-119 -117.5z" />
    <glyph glyph-name="uni0251" unicode="&#x251;" horiz-adv-x="626" 
d="M247 -14q-93 0 -146.5 68.5t-53.5 183.5q0 129 67 206t178 77q84 0 142 -43l45 43l28 -8v-395q0 -62 45 -62q16 0 43 8l10 -38q-44 -40 -99 -40q-77 0 -89 84h-3q-61 -84 -167 -84zM281 58q53 0 93 38.5t40 115.5v202q-52 41 -125 41q-143 0 -143 -207q0 -86 32.5 -138
t102.5 -52z" />
    <glyph glyph-name="uni0259" unicode="&#x259;" horiz-adv-x="519" 
d="M229 -14q-80 0 -132 47.5t-52 129.5q0 48 14 98h313q-3 86 -45 136t-116 50q-80 0 -138 -60l-35 35q31 42 82.5 70.5t113.5 28.5q114 0 176.5 -73.5t62.5 -188.5q0 -126 -68 -199.5t-176 -73.5zM240 39q117 0 132 166h-230q-3 -19 -3 -46q0 -120 101 -120z" />
    <glyph glyph-name="uni0261" unicode="&#x261;" horiz-adv-x="597" 
d="M270 -229q-101 0 -146.5 26.5t-45.5 69.5q0 32 18 48.5t45 16.5q20 0 32.5 -9t14.5 -24q2 -22 -7 -57q31 -17 82 -17q151 0 151 164v81q-61 -84 -167 -84q-93 0 -146.5 68.5t-53.5 183.5q0 129 67 206t178 77q84 0 142 -43l45 43l28 -8v-497q0 -58 -16 -102.5t-40 -71
t-57 -43t-63 -22.5t-61 -6zM281 58q53 0 93 38.5t40 115.5v202q-52 41 -125 41q-143 0 -143 -207q0 -86 32.5 -138t102.5 -52z" />
    <glyph glyph-name="uni02B9" unicode="&#x2b9;" horiz-adv-x="213" 
d="M88 580l-33 8l12 159q4 62 53 62q16 0 31.5 -10.5t15.5 -27.5q0 -10 -10 -33z" />
    <glyph glyph-name="uni02BA" unicode="&#x2ba;" horiz-adv-x="376" 
d="M88 580l-33 8l12 159q4 62 53 62q16 0 31.5 -10.5t15.5 -27.5q0 -10 -10 -33zM251 580l-33 8l12 159q4 62 53 62q16 0 31.5 -10.5t15.5 -27.5q0 -10 -10 -33z" />
    <glyph glyph-name="uni02BB" unicode="&#x2bb;" horiz-adv-x="0" 
d="M2 578q-32 0 -49.5 21.5t-17.5 50.5q0 41 24 80t67 60l22 -29q-48 -41 -48 -83h8q51 0 51 -42q0 -25 -16 -41.5t-41 -16.5z" />
    <glyph glyph-name="uni02BC" unicode="&#x2bc;" 
d="M218 578l-22 29q48 41 48 83h-8q-51 0 -51 42q0 25 16 41.5t41 16.5q32 0 49.5 -21.5t17.5 -50.5q0 -41 -24 -80t-67 -60z" />
    <glyph glyph-name="uni02BE" unicode="&#x2be;" 
d="M208 582v45h4q24 0 36 15.5t12 38.5t-12 38.5t-38 15.5h-2v46h3q53 0 79 -26.5t26 -73.5q0 -43 -27.5 -71t-79.5 -28h-1z" />
    <glyph glyph-name="uni02BF" unicode="&#x2bf;" 
d="M289 582q-53 0 -79 26.5t-26 73.5q0 43 27.5 71t79.5 28h1v-45h-4q-24 0 -36 -15.5t-12 -38.5t12 -38.5t38 -15.5h2v-46h-3z" />
    <glyph glyph-name="circumflex" unicode="&#x2c6;" 
d="M125 580l-26 25l114 152q18 22 39 22q20 0 41 -28l109 -145l-27 -26l-123 100z" />
    <glyph glyph-name="caron" unicode="&#x2c7;" 
d="M248 580q-20 0 -41 28l-109 145l27 26l123 -100l127 100l26 -25l-114 -152q-18 -22 -39 -22z" />
    <glyph glyph-name="uni02C8" unicode="&#x2c8;" 
d="M219 578v207h62v-207h-62z" />
    <glyph glyph-name="uni02C9" unicode="&#x2c9;" 
d="M110 635v73h280v-73h-280z" />
    <glyph glyph-name="uni02CA" unicode="&#x2ca;" 
d="M197 580l-24 25l104 138q23 29 39 29q21 0 34.5 -15.5t13.5 -35.5q0 -32 -35 -53z" />
    <glyph glyph-name="uni02CB" unicode="&#x2cb;" 
d="M304 580l-132 88q-35 24 -35 53q0 20 13.5 35.5t34.5 15.5q16 0 39 -29l104 -138z" />
    <glyph glyph-name="uni02CC" unicode="&#x2cc;" 
d="M219 -249v194h62v-194h-62z" />
    <glyph glyph-name="breve" unicode="&#x2d8;" 
d="M247 587q-66 0 -102 48.5t-44 120.5l40 12q29 -101 111 -101q84 0 110 100l38 -10q-6 -67 -46 -118.5t-107 -51.5z" />
    <glyph glyph-name="dotaccent" unicode="&#x2d9;" 
d="M249 620q-29 0 -48 18.5t-19 47.5t19 48t48 19q30 0 49 -18.5t19 -47.5t-19 -48t-49 -19z" />
    <glyph glyph-name="ring" unicode="&#x2da;" 
d="M250 582q-54 0 -81 27.5t-27 75.5q0 44 28.5 73t81.5 29q51 0 78.5 -27t27.5 -73q0 -48 -28.5 -76.5t-79.5 -28.5zM251 629q48 0 48 56q0 24 -12.5 40t-37.5 16t-37 -16t-12 -40t12.5 -40t38.5 -16z" />
    <glyph glyph-name="ogonek" unicode="&#x2db;" 
d="M235 -229q-42 0 -67 23t-25 58q0 28 11 52t33 44.5t38 32.5t42 28l49 -4q-87 -72 -87 -128q0 -41 41 -41q20 0 49 9l11 -35q-47 -39 -95 -39z" />
    <glyph glyph-name="tilde" unicode="&#x2dc;" 
d="M324 620q-34 0 -90 24q-59 25 -70 25q-14 0 -23 -7.5t-24 -29.5l-31 19q25 53 44 72t49 19t86 -24q63 -24 74 -24q13 0 21.5 7t22.5 30l31 -19q-25 -54 -44 -73t-46 -19z" />
    <glyph glyph-name="hungarumlaut" unicode="&#x2dd;" 
d="M163 580l-24 25l84 136q18 29 38 29q21 0 32 -12t11 -32q0 -29 -31 -54zM304 580l-24 25l93 133q21 29 40 29q21 0 32 -12t11 -30q0 -33 -34 -57z" />
    <glyph glyph-name="gravecomb" unicode="&#x300;" horiz-adv-x="0" 
d="M55 580l-132 88q-35 24 -35 53q0 20 13.5 35.5t34.5 15.5q16 0 39 -29l104 -138z" />
    <glyph glyph-name="acutecomb" unicode="&#x301;" horiz-adv-x="0" 
d="M-3 580l-24 25l104 138q22 29 39 29q21 0 34.5 -15.5t13.5 -35.5q0 -29 -35 -53z" />
    <glyph glyph-name="uni0302" unicode="&#x302;" horiz-adv-x="0" 
d="M-125 580l-26 25l114 152q18 22 39 22q20 0 41 -28l109 -145l-27 -26l-123 100z" />
    <glyph glyph-name="tildecomb" unicode="&#x303;" horiz-adv-x="0" 
d="M74 620q-34 0 -90 24q-59 25 -70 25q-14 0 -23 -7.5t-24 -29.5l-31 19q25 53 44 72t49 19q31 0 86 -24q57 -24 74 -24q12 0 21 7.5t23 29.5l31 -19q-25 -54 -44 -73t-46 -19z" />
    <glyph glyph-name="uni0304" unicode="&#x304;" horiz-adv-x="0" 
d="M-140 635v73h280v-73h-280z" />
    <glyph glyph-name="uni0306" unicode="&#x306;" horiz-adv-x="0" 
d="M-3 587q-66 0 -102 48.5t-44 120.5l40 12q29 -101 111 -101q84 0 110 100l38 -10q-6 -67 -46 -118.5t-107 -51.5z" />
    <glyph glyph-name="uni0307" unicode="&#x307;" horiz-adv-x="0" 
d="M-1 622q-29 0 -48 18.5t-19 47.5t19 48t48 19q30 0 49 -18.5t19 -47.5t-19 -48t-49 -19z" />
    <glyph glyph-name="uni0308" unicode="&#x308;" horiz-adv-x="0" 
d="M-100 620q-27 0 -45 17.5t-18 44.5t18 45t45 18q28 0 46.5 -17.5t18.5 -44.5t-18.5 -45t-46.5 -18zM99 620q-28 0 -46 17.5t-18 44.5t18 45t46 18t46 -17.5t18 -44.5t-18 -45t-46 -18z" />
    <glyph glyph-name="hookabovecomb" unicode="&#x309;" horiz-adv-x="0" 
d="M-35 575v47q0 25 37 54.5t37 51.5q0 37 -44 37q-36 0 -52 -14q18 -20 18 -31q0 -13 -12.5 -22t-30.5 -9t-28 10.5t-10 28.5q0 36 34 58t83 22q118 0 118 -82q0 -23 -13.5 -44t-30 -33.5t-30 -26.5t-13.5 -25v-22h-63z" />
    <glyph glyph-name="uni030A" unicode="&#x30a;" horiz-adv-x="0" 
d="M0 582q-53 0 -79 26.5t-26 73.5q0 43 27.5 71t79.5 28q50 0 76.5 -26t26.5 -71q0 -46 -27.5 -74t-77.5 -28zM1 628q47 0 47 54q0 23 -12.5 38.5t-36.5 15.5t-36 -15.5t-12 -38.5t12 -38.5t38 -15.5z" />
    <glyph glyph-name="uni030B" unicode="&#x30b;" horiz-adv-x="0" 
d="M-87 580l-24 25l84 136q18 29 38 29q21 0 32 -12t11 -32q0 -29 -31 -54zM54 580l-24 25l93 133q21 29 40 29q21 0 32 -12t11 -30q0 -33 -34 -57z" />
    <glyph glyph-name="uni030C" unicode="&#x30c;" horiz-adv-x="0" 
d="M-2 580q-20 0 -41 28l-109 145l27 26l123 -100l127 100l26 -25l-114 -152q-18 -22 -39 -22z" />
    <glyph glyph-name="uni030F" unicode="&#x30f;" horiz-adv-x="0" 
d="M84 580l-110 92q-31 25 -31 54q0 20 11 32t32 12q20 0 38 -29l84 -136zM-57 580l-118 88q-34 24 -34 57q0 18 11 30t32 12q19 0 40 -29l93 -133z" />
    <glyph glyph-name="uni0311" unicode="&#x311;" horiz-adv-x="0" 
d="M10 758q66 0 102 -48.5t44 -120.5l-40 -12q-29 101 -111 101q-84 0 -110 -100l-38 10q6 67 46 118.5t107 51.5z" />
    <glyph glyph-name="uni0312" unicode="&#x312;" horiz-adv-x="0" 
d="M2 578q-32 0 -49.5 21.5t-17.5 50.5q0 41 24 80t67 60l22 -29q-48 -41 -48 -83h8q51 0 51 -42q0 -25 -16 -41.5t-41 -16.5z" />
    <glyph glyph-name="uni031B" unicode="&#x31b;" horiz-adv-x="0" 
d="M-98 365v54q98 39 105 128h-9q-62 0 -62 50q0 30 18.5 48.5t45.5 18.5q71 0 71 -88q0 -60 -45.5 -126t-123.5 -85z" />
    <glyph glyph-name="dotbelowcomb" unicode="&#x323;" horiz-adv-x="0" 
d="M1 -207q-29 0 -48 18.5t-19 47.5t19 48t48 19q30 0 49 -18.5t19 -47.5t-19 -48t-49 -19z" />
    <glyph glyph-name="uni0324" unicode="&#x324;" horiz-adv-x="0" 
d="M-100 -190q-27 0 -45 17.5t-18 44.5t18 45t45 18q28 0 46.5 -17.5t18.5 -44.5t-18.5 -45t-46.5 -18zM99 -190q-28 0 -46 17.5t-18 44.5t18 45t46 18t46 -17.5t18 -44.5t-18 -45t-46 -18z" />
    <glyph glyph-name="uni0326" unicode="&#x326;" horiz-adv-x="0" 
d="M-26 -268l-24 29q48 41 48 81h-10q-51 0 -51 46q0 25 16.5 40.5t44.5 15.5q34 0 50.5 -21t16.5 -51q0 -41 -24 -80t-67 -60z" />
    <glyph glyph-name="uni0327" unicode="&#x327;" horiz-adv-x="0" 
d="M-9 -229q-31 0 -57 13.5t-38 26.5l24 37q29 -22 64 -22q21 0 35.5 11t14.5 32q0 38 -50 38q-16 0 -30 -3l-8 21l35 88h46l-27 -70q49 6 77.5 -14t28.5 -62q0 -44 -29 -70t-86 -26z" />
    <glyph glyph-name="uni0328" unicode="&#x328;" horiz-adv-x="0" 
d="M-1 -229q-42 0 -67 23t-25 58q0 28 11 52t33 44.5t38 32.5t42 28l49 -4q-87 -72 -87 -128q0 -41 41 -41q20 0 49 9l11 -35q-47 -39 -95 -39z" />
    <glyph glyph-name="uni032E" unicode="&#x32e;" horiz-adv-x="0" 
d="M-3 -224q-66 0 -100.5 44t-42.5 112l39 10q14 -46 39 -66t69 -20q81 0 106 85l39 -8q-6 -63 -44 -110t-105 -47z" />
    <glyph glyph-name="uni0331" unicode="&#x331;" horiz-adv-x="0" 
d="M-140 -172v73h280v-73h-280z" />
    <glyph glyph-name="uni0374" unicode="&#x374;" horiz-adv-x="358" 
d="M85 523l-35 18l64 176q16 45 49 45q41 0 63 -49l-1 -14z" />
    <glyph glyph-name="uni0375" unicode="&#x375;" 
d="M227 -181q-41 0 -63 49l1 14l140 176l35 -18l-64 -176q-16 -45 -49 -45z" />
    <glyph glyph-name="uni037A" unicode="&#x37a;" 
d="M258 -229q-47 0 -68 22t-21 71q0 55 -3 85l76 7l9 -4q-5 -50 -5 -75q0 -45 49 -45q9 0 37 5l7 -36q-38 -30 -81 -30z" />
    <glyph glyph-name="uni037E" unicode="&#x37e;" horiz-adv-x="328" 
d="M159 370q-33 0 -54.5 21t-21.5 54t21.5 54.5t54.5 21.5q34 0 55.5 -21t21.5 -54t-21.5 -54.5t-55.5 -21.5zM115 -168l-29 37q81 62 87 131h-24q-62 0 -62 55q0 32 20 53t53 21q42 0 63.5 -28t21.5 -70q0 -49 -34 -106t-96 -93z" />
    <glyph glyph-name="tonos" unicode="&#x384;" 
d="M219 573l-35 18l67 163q9 23 19.5 33t29.5 10q40 0 63 -51l-1 -14z" />
    <glyph glyph-name="dieresistonos" unicode="&#x385;" 
d="M208 574l-37 15l50 170q8 24 18 35.5t32 11.5q38 0 62 -45v-14zM89 620q-27 0 -45 17.5t-18 44.5t18 45t45 18q28 0 46.5 -17.5t18.5 -44.5t-18.5 -45t-46.5 -18zM410 620q-28 0 -46 17.5t-18 44.5t18 45t46 18t46 -17.5t18 -44.5t-18 -45t-46 -18z" />
    <glyph glyph-name="Alphatonos" unicode="&#x386;" horiz-adv-x="735" 
d="M96 492l-35 18l67 163q9 23 19.5 33t29.5 10q40 0 63 -51l-1 -14zM15 0v48l48 8q18 3 26.5 13t19.5 41l211 590h106l209 -591q10 -30 18.5 -39t25.5 -12l41 -8v-50h-267v48l58 7q20 2 24 13t-5 37l-43 126h-268l-42 -122q-17 -49 23 -54l57 -8v-47h-242zM239 288h229
l-111 329h-4z" />
    <glyph glyph-name="anoteleia" unicode="&#x387;" 
d="M249 370q-33 0 -54.5 21t-21.5 54t21.5 54.5t54.5 21.5q34 0 55.5 -21t21.5 -54t-21.5 -54.5t-55.5 -21.5z" />
    <glyph glyph-name="Epsilontonos" unicode="&#x388;" horiz-adv-x="637" 
d="M-127 492l-35 18l67 163q9 23 19.5 33t29.5 10q40 0 63 -51l-1 -14zM62 0v48l58 9q19 3 25 13t6 38v488q0 26 -6.5 35t-26.5 12l-56 9v48h463l37 -163l-52 -17q-30 79 -60 102.5t-103 23.5h-97v-259h87q53 0 66 11.5t27 70.5l46 6v-227l-46 -8q-9 58 -24 71.5t-69 13.5
h-87v-271h129q72 0 100.5 24.5t49.5 105.5h55l-24 -184h-498z" />
    <glyph glyph-name="Etatonos" unicode="&#x389;" horiz-adv-x="840" 
d="M-127 492l-35 18l67 163q9 23 19.5 33t29.5 10q40 0 63 -51l-1 -14zM62 0v48l58 9q19 3 25 13t6 38v488q0 25 -6.5 34t-26.5 13l-56 9v48h276v-48l-58 -9q-18 -3 -24 -13.5t-6 -37.5v-201h340v205q0 25 -6.5 34t-26.5 13l-55 9v48h275v-48l-57 -9q-19 -3 -25 -13t-6 -38
v-488q0 -25 6.5 -34t26.5 -13l55 -9v-48h-275v48l57 9q19 3 25 13t6 38v220h-340v-224q0 -25 6 -34t26 -13l56 -9v-48h-276z" />
    <glyph glyph-name="Iotatonos" unicode="&#x38a;" horiz-adv-x="401" 
d="M-127 492l-35 18l67 163q9 23 19.5 33t29.5 10q40 0 63 -51l-1 -14zM62 0v48l62 9q19 3 25 13t6 38v488q0 25 -6.5 34t-26.5 13l-60 9v48h285v-48l-63 -9q-18 -3 -24 -13.5t-6 -37.5v-488q0 -25 6 -34t26 -13l61 -9v-48h-285z" />
    <glyph glyph-name="Omicrontonos" unicode="&#x38c;" horiz-adv-x="779" 
d="M-51 492l-35 18l67 163q9 23 19.5 33t29.5 10q40 0 63 -51l-1 -14zM378 -14q-148 0 -238 96t-90 254q0 173 91.5 275.5t245.5 102.5q146 0 234.5 -95t88.5 -251q0 -171 -91.5 -276.5t-240.5 -105.5zM390 53q103 0 157 75.5t54 220.5q0 142 -60 221.5t-167 79.5
q-104 0 -161 -76.5t-57 -216.5t63 -222t171 -82z" />
    <glyph glyph-name="Upsilontonos" unicode="&#x38e;" horiz-adv-x="708" 
d="M-177 492l-35 18l67 163q9 23 19.5 33t29.5 10q40 0 63 -51l-1 -14zM213 0v48l62 9q20 3 25.5 14.5t5.5 36.5v185l-187 298q-16 26 -27.5 36.5t-32.5 14.5l-37 7v51h279v-48l-55 -7q-47 -5 -19 -50l146 -237h5l138 233q13 24 9 35t-26 16l-46 11v47h241v-48l-49 -8
q-17 -3 -27.5 -14t-29.5 -41l-183 -297v-188q0 -25 5.5 -34t26.5 -13l61 -9v-48h-285z" />
    <glyph glyph-name="Omegatonos" unicode="&#x38f;" horiz-adv-x="830" 
d="M-36 492l-35 18l67 163q9 23 19.5 33t29.5 10q40 0 63 -51l-1 -14zM82 0l-22 184h55q14 -43 20.5 -60t20 -37t32.5 -26t49 -6h78v47q-103 28 -165.5 110t-62.5 188q0 139 93.5 226.5t241.5 87.5q146 0 233.5 -82.5t87.5 -220.5q0 -106 -63 -191.5t-165 -118.5v-46h78
q52 0 74 23.5t48 105.5h55l-22 -184h-292v141q97 33 139.5 97t42.5 176q0 105 -62 170.5t-160 65.5q-108 0 -165.5 -63t-57.5 -180q0 -106 43.5 -169.5t137.5 -95.5v-142h-292z" />
    <glyph glyph-name="iotadieresistonos" unicode="&#x390;" horiz-adv-x="296" 
d="M129 574l-37 15l50 170q8 24 18 35.5t32 11.5q38 0 62 -45v-14zM10 620q-27 0 -45 17.5t-18 44.5t18 45t45 18q28 0 46.5 -17.5t18.5 -44.5t-18.5 -45t-46.5 -18zM331 620q-28 0 -46 17.5t-18 44.5t18 45t46 18t46 -17.5t18 -44.5t-18 -45t-46 -18zM179 -14q-30 0 -51 10
t-32 23.5t-17 36.5t-7.5 41.5t-1.5 45.5l-5 365l92 8l11 -5q-16 -208 -16 -371q0 -45 14 -63t59 -18q38 0 61 8l10 -41q-40 -40 -117 -40z" />
    <glyph glyph-name="Alpha" unicode="&#x391;" horiz-adv-x="735" 
d="M15 0v48l48 8q18 3 26.5 13t19.5 41l211 590h106l209 -591q10 -30 18.5 -39t25.5 -12l41 -8v-50h-267v48l58 7q20 2 24 13t-5 37l-43 126h-268l-42 -122q-17 -49 23 -54l57 -8v-47h-242zM239 288h229l-111 329h-4z" />
    <glyph glyph-name="Beta" unicode="&#x392;" horiz-adv-x="660" 
d="M62 0v48l58 9q20 3 25.5 14.5t5.5 36.5v488q0 25 -6 34t-27 13l-56 9v48h255q125 0 192 -38t67 -128q0 -60 -42.5 -102.5t-102.5 -56.5v-5q88 -8 136.5 -50.5t48.5 -120.5q0 -93 -75 -146t-218 -53h-261zM305 389q77 0 120.5 36.5t43.5 104.5q0 67 -40 91.5t-121 24.5
h-58v-255q13 -2 55 -2zM321 55q91 0 139.5 37t48.5 110q0 135 -184 135q-44 0 -75 -4v-273q22 -5 71 -5z" />
    <glyph glyph-name="Gamma" unicode="&#x393;" horiz-adv-x="605" 
d="M62 0v48l58 9q20 3 25.5 14.5t5.5 36.5v488q0 25 -6 34t-27 13l-56 9v48h464l36 -179l-52 -18q-33 89 -63 116t-103 27h-94v-540q0 -26 7 -36.5t30 -13.5l70 -8v-48h-295z" />
    <glyph glyph-name="uni0394" unicode="&#x394;" horiz-adv-x="619" 
d="M27 0l-12 52l243 648h105l241 -648l-11 -52h-566zM93 77h393l-191 540h-5z" />
    <glyph glyph-name="Epsilon" unicode="&#x395;" horiz-adv-x="637" 
d="M62 0v48l58 9q19 3 25 13t6 38v488q0 26 -6.5 35t-26.5 12l-56 9v48h463l37 -163l-52 -17q-30 79 -60 102.5t-103 23.5h-97v-259h87q53 0 66 11.5t27 70.5l46 6v-227l-46 -8q-9 58 -24 71.5t-69 13.5h-87v-271h129q72 0 100.5 24.5t49.5 105.5h55l-24 -184h-498z" />
    <glyph glyph-name="Zeta" unicode="&#x396;" horiz-adv-x="657" 
d="M58 0v48l412 599h-214q-55 0 -79.5 -25t-50.5 -108l-59 -5l12 191h509v-50l-410 -595h211q62 0 92.5 29t60.5 115h55l-19 -199h-520z" />
    <glyph glyph-name="Eta" unicode="&#x397;" horiz-adv-x="839" 
d="M62 0v48l58 9q19 3 25 13t6 38v488q0 25 -6.5 34t-26.5 13l-56 9v48h276v-48l-58 -9q-18 -3 -24 -13.5t-6 -37.5v-201h340v205q0 25 -6.5 34t-26.5 13l-55 9v48h275v-48l-57 -9q-19 -3 -25 -13t-6 -38v-488q0 -25 6.5 -34t26.5 -13l55 -9v-48h-275v48l57 9q19 3 25 13
t6 38v220h-340v-224q0 -25 6 -34t26 -13l56 -9v-48h-276z" />
    <glyph glyph-name="Theta" unicode="&#x398;" horiz-adv-x="760" 
d="M378 -14q-151 0 -239.5 98t-88.5 252q0 79 18.5 143t50.5 107t75.5 72.5t91.5 42.5t101 13q138 0 230.5 -90.5t92.5 -255.5q0 -178 -94.5 -280t-237.5 -102zM390 53q100 0 155.5 73.5t55.5 222.5q0 145 -61.5 223t-165.5 78q-99 0 -158.5 -72t-59.5 -221q0 -140 63 -222
t171 -82zM228 250v202l41 7q7 -49 18 -62t45 -13h92q34 0 43 11t20 62l41 5v-202l-41 -7q-7 50 -17.5 62.5t-45.5 12.5h-92q-33 0 -42.5 -11t-20.5 -62z" />
    <glyph glyph-name="Iota" unicode="&#x399;" horiz-adv-x="409" 
d="M62 0v48l62 9q19 3 25 13t6 38v488q0 25 -6.5 34t-26.5 13l-60 9v48h285v-48l-63 -9q-18 -3 -24 -13.5t-6 -37.5v-488q0 -25 6 -34t26 -13l61 -9v-48h-285z" />
    <glyph glyph-name="Kappa" unicode="&#x39a;" horiz-adv-x="754" 
d="M632 -14q-54 0 -90.5 22.5t-70.5 76.5l-157 251l-60 -61v-171q0 -25 6 -34t26 -13l61 -9v-48h-285v48l62 9q19 3 25 13t6 38v488q0 25 -6.5 34t-26.5 13l-60 9v48h285v-48l-63 -9q-18 -2 -24 -12.5t-6 -38.5v-242l243 243q16 17 12.5 31.5t-25.5 18.5l-48 8l10 49h237
v-50l-38 -8q-28 -6 -68 -46l-194 -195l175 -265q33 -50 57 -66.5t65 -16.5q18 0 45 9l10 -36q-38 -40 -103 -40z" />
    <glyph glyph-name="Lambda" unicode="&#x39b;" horiz-adv-x="715" 
d="M15 0v48l48 8q18 3 27.5 15t22.5 50l197 579h106l199 -591q10 -29 17.5 -38t26.5 -13l41 -8v-50h-267v48l58 7q34 4 23 38l-167 524h-4l-167 -512q-8 -22 -2.5 -34t28.5 -16l55 -8v-47h-242z" />
    <glyph glyph-name="Mu" unicode="&#x39c;" horiz-adv-x="1003" 
d="M63 0v48l57 9q13 2 20 9.5t8.5 15t2.5 26.5l30 488q0 25 -6 34t-26 13l-56 9v48h232l171 -507l4 10l179 497h231v-48l-63 -9q-18 -2 -24 -12.5t-6 -38.5l30 -488q0 -25 6 -34t26 -13l61 -9v-48h-285v48l62 9q19 3 25 13t6 38l-30 506v8l-187 -509h-100l-180 510v-8
l-30 -511q-2 -25 4.5 -34t27.5 -13l56 -9v-48h-246z" />
    <glyph glyph-name="Nu" unicode="&#x39d;" horiz-adv-x="835" 
d="M62 0v48l58 9q18 3 24 13.5t6 37.5v488q0 25 -6 34t-26 13l-56 9v48h222l332 -571v467q0 25 -6.5 34t-26.5 13l-55 9v48h245v-48l-57 -9q-19 -3 -25 -13t-6 -38v-592h-103l-362 609v-505q0 -25 6 -34t26 -13l56 -9v-48h-246z" />
    <glyph glyph-name="Xi" unicode="&#x39e;" horiz-adv-x="671" 
d="M114 515l-52 17l37 168h473l37 -168l-52 -17q-24 66 -48 84t-86 18h-186q-53 0 -77 -20t-46 -82zM147 245v202l41 7q7 -49 18 -62t45 -13h161q33 0 43 11.5t20 61.5l41 5v-202l-41 -7q-6 49 -17 62t-46 13h-161q-33 0 -43 -11.5t-20 -61.5zM76 0l-23 193h55
q18 -68 40.5 -89t78.5 -21h216q57 0 80 21t40 89h55l-24 -193h-518z" />
    <glyph glyph-name="Omicron" unicode="&#x39f;" horiz-adv-x="760" 
d="M378 -14q-148 0 -238 96t-90 254q0 173 91.5 275.5t245.5 102.5q146 0 234.5 -95t88.5 -251q0 -171 -91.5 -276.5t-240.5 -105.5zM390 53q103 0 157 75.5t54 220.5q0 142 -60 221.5t-167 79.5q-104 0 -161 -76.5t-57 -216.5t63 -222t171 -82z" />
    <glyph glyph-name="Pi" unicode="&#x3a0;" horiz-adv-x="829" 
d="M62 0v48l58 9q20 3 25.5 14t5.5 37v488q0 25 -6 34t-27 13l-56 9v48h705v-48l-57 -9q-20 -3 -25.5 -15t-5.5 -36v-488q0 -25 6 -34t27 -13l55 -9v-48h-275v48l58 9q19 3 24.5 14t5.5 37v529h-330v-533q0 -25 5.5 -34t26.5 -13l56 -9v-48h-276z" />
    <glyph glyph-name="Rho" unicode="&#x3a1;" horiz-adv-x="602" 
d="M62 0v48l58 9q19 3 25 13t6 38v488q0 25 -6.5 34t-26.5 13l-56 9v48h246q269 0 269 -198q0 -101 -68.5 -163t-179.5 -62q-62 0 -79 5v-176q0 -27 7.5 -37t29.5 -13l70 -8v-48h-295zM308 331q162 0 162 168q0 76 -40.5 111.5t-128.5 35.5h-51v-310q17 -5 58 -5z" />
    <glyph glyph-name="Sigma" unicode="&#x3a3;" horiz-adv-x="653" 
d="M62 0v42l216 285l-220 323v50h503l12 -191l-59 5q-25 79 -48 106t-82 27h-198l197 -281v-9l-211 -272h224q61 0 86 28t56 116h55l-21 -229h-510z" />
    <glyph glyph-name="Tau" unicode="&#x3a4;" horiz-adv-x="738" 
d="M207 0v48l80 12q19 3 26 14t7 36v535h-55q-74 0 -105 -29t-64 -129l-54 13l39 200h578l37 -200l-55 -13q-32 100 -62.5 129t-103.5 29h-56v-539q0 -25 6.5 -33.5t27.5 -12.5l79 -12v-48h-325z" />
    <glyph glyph-name="Upsilon" unicode="&#x3a5;" horiz-adv-x="716" 
d="M213 0v48l62 9q20 3 25.5 14.5t5.5 36.5v185l-187 298q-16 26 -27.5 36.5t-32.5 14.5l-37 7v51h279v-48l-55 -7q-47 -5 -19 -50l146 -237h5l138 233q13 24 9 35t-26 16l-46 11v47h241v-48l-49 -8q-17 -3 -27.5 -14t-29.5 -41l-183 -297v-188q0 -25 5.5 -34t26.5 -13
l61 -9v-48h-285z" />
    <glyph glyph-name="Phi" unicode="&#x3a6;" horiz-adv-x="836" 
d="M285 -30v48l52 9q17 3 23.5 12t7.5 31q-148 8 -234 82.5t-86 195.5q0 125 84.5 199.5t235.5 82.5q-1 22 -7.5 30.5t-25.5 12.5l-50 9v48h265v-48l-53 -9q-17 -3 -23.5 -12.5t-6.5 -31.5q148 -9 233.5 -83.5t85.5 -193.5q0 -124 -84.5 -199t-234.5 -83q0 -22 6 -30.5
t26 -12.5l51 -9v-48h-265zM368 133v435q-102 -3 -158 -58.5t-56 -154.5q0 -96 56.5 -154.5t157.5 -67.5zM467 132q101 3 156.5 58.5t55.5 154.5q0 95 -56 153t-156 68v-434z" />
    <glyph glyph-name="Chi" unicode="&#x3a7;" horiz-adv-x="707" 
d="M15 0v50l38 8q22 5 34 12.5t28 29.5l183 240l-186 253q-18 24 -30 33t-32 14l-35 8l10 52h244v-49l-40 -7q-34 -6 -6 -43l136 -186l128 182q16 22 14.5 30.5t-22.5 13.5l-38 10l10 49h215v-50l-38 -8q-21 -5 -33 -13.5t-29 -32.5l-170 -232l189 -257q32 -44 69 -49l38 -6
v-52h-269v50l45 6q37 4 8 44l-140 189l-140 -190q-10 -13 -12 -20.5t2.5 -12t17.5 -7.5l44 -10v-49h-233z" />
    <glyph glyph-name="Psi" unicode="&#x3a8;" horiz-adv-x="905" 
d="M310 0v48l62 9q19 3 25 13t6 38v81q-276 13 -276 269v134q0 29 -6 39.5t-24 13.5l-48 7v48h148v-238q0 -203 206 -209v343q0 26 -6.5 35t-26.5 12l-60 9v48h285v-48l-63 -9q-18 -2 -24 -13t-6 -38v-339q206 6 206 209v238h148v-48l-48 -7q-18 -3 -24 -13.5t-6 -39.5v-128
q0 -262 -276 -275v-85q0 -26 6.5 -35t25.5 -12l61 -9v-48h-285z" />
    <glyph glyph-name="uni03A9" unicode="&#x3a9;" horiz-adv-x="830" 
d="M82 0l-22 184h55q14 -43 20.5 -60t20 -37t32.5 -26t49 -6h78v47q-103 28 -165.5 110t-62.5 188q0 139 93.5 226.5t241.5 87.5q146 0 233.5 -82.5t87.5 -220.5q0 -106 -63 -191.5t-165 -118.5v-46h78q52 0 74 23.5t48 105.5h55l-22 -184h-292v141q97 33 139.5 97t42.5 176
q0 105 -62 170.5t-160 65.5q-108 0 -165.5 -63t-57.5 -180q0 -106 43.5 -169.5t137.5 -95.5v-142h-292z" />
    <glyph glyph-name="Iotadieresis" unicode="&#x3aa;" horiz-adv-x="409" 
d="M101 771q-28 0 -46 17.5t-18 45.5t18 46t46 18q29 0 47.5 -17.5t18.5 -45.5t-18.5 -46t-47.5 -18zM304 771q-29 0 -47 17.5t-18 45.5t18.5 46t46.5 18q29 0 47 -17.5t18 -45.5t-18.5 -46t-46.5 -18zM62 0v48l62 9q19 3 25 13t6 38v488q0 25 -6.5 34t-26.5 13l-60 9v48
h285v-48l-63 -9q-18 -3 -24 -13.5t-6 -37.5v-488q0 -25 6 -34t26 -13l61 -9v-48h-285z" />
    <glyph glyph-name="Upsilondieresis" unicode="&#x3ab;" horiz-adv-x="716" 
d="M272 771q-28 0 -46 17.5t-18 45.5t18 46t46 18q29 0 47.5 -17.5t18.5 -45.5t-18.5 -46t-47.5 -18zM475 771q-29 0 -47 17.5t-18 45.5t18.5 46t46.5 18q29 0 47 -17.5t18 -45.5t-18.5 -46t-46.5 -18zM213 0v48l62 9q19 3 25 13t6 38v185l-187 298q-16 27 -28 37t-32 14
l-37 7v51h279v-48l-55 -7q-23 -2 -28 -15.5t9 -34.5l146 -237h5l138 233q28 41 -17 51l-46 11v47h241v-48l-49 -8q-16 -2 -26.5 -12.5t-30.5 -42.5l-183 -297v-188q0 -25 6 -34t26 -13l61 -9v-48h-285z" />
    <glyph glyph-name="alphatonos" unicode="&#x3ac;" horiz-adv-x="618" 
d="M281 573l-35 18l67 163q9 23 19.5 33t29.5 10q40 0 63 -51l-1 -14zM242 -14q-89 0 -139.5 69.5t-50.5 191.5q0 127 58 200.5t158 73.5q107 0 149 -93l19 76l81 11l13 -6q-44 -185 -44 -315q0 -76 13 -105.5t47 -29.5q12 0 42 8l10 -41q-40 -40 -95 -40q-40 0 -61 24.5
t-31 82.5h-3q-47 -107 -166 -107zM272 48q79 0 131 117q-1 33 4 182q-12 52 -46.5 83.5t-80.5 31.5q-62 0 -94.5 -53.5t-32.5 -153.5q0 -207 119 -207z" />
    <glyph glyph-name="epsilontonos" unicode="&#x3ad;" horiz-adv-x="529" 
d="M269 573l-35 18l67 163q9 23 19.5 33t29.5 10q40 0 63 -51l-1 -14zM266 -14q-98 0 -156 39t-58 105q0 89 107 128v1q-98 32 -98 111q0 68 59 109.5t156 41.5t153 -35t56 -96q0 -27 -17 -42.5t-46 -15.5q-56 0 -56 42q0 22 26 64q-41 22 -112 22q-129 0 -129 -87
q0 -30 21 -53t58 -34q36 27 67 27q26 0 43 -14.5t17 -36.5q0 -23 -17 -38.5t-43 -15.5q-40 0 -72 27q-34 -11 -53 -34t-19 -52q0 -38 36.5 -62t94.5 -24q114 0 176 63l34 -35q-33 -47 -96.5 -76t-131.5 -29z" />
    <glyph glyph-name="etatonos" unicode="&#x3ae;" horiz-adv-x="595" 
d="M271 573l-35 18l67 163q9 23 19.5 33t29.5 10q40 0 63 -51l-1 -14zM508 -229l-90 18q19 116 19 237v295q0 65 -19 96.5t-82 31.5q-51 0 -91 -35.5t-40 -103.5v-310h-93v397q0 28 -7.5 38.5t-27.5 10.5t-42 -8l-10 38q42 40 94 40q34 0 52.5 -20.5t22.5 -77.5h3
q59 103 171 103q162 0 162 -171v-343q0 -54 -2.5 -112t-5.5 -89l-2 -30z" />
    <glyph glyph-name="iotatonos" unicode="&#x3af;" horiz-adv-x="296" 
d="M129 573l-35 18l67 163q9 23 19.5 33t29.5 10q40 0 63 -51l-1 -14zM179 -14q-30 0 -51 10t-32 23.5t-17 36.5t-7.5 41.5t-1.5 45.5l-5 365l92 8l11 -5q-16 -208 -16 -371q0 -45 14 -63t59 -18q38 0 61 8l10 -41q-40 -40 -117 -40z" />
    <glyph glyph-name="upsilondieresistonos" unicode="&#x3b0;" horiz-adv-x="592" 
d="M289 574l-37 15l50 170q8 24 18 35.5t32 11.5q38 0 62 -45v-14zM170 620q-27 0 -45 17.5t-18 44.5t18 45t45 18q28 0 46.5 -17.5t18.5 -44.5t-18.5 -45t-46.5 -18zM491 620q-28 0 -46 17.5t-18 44.5t18 45t46 18t46 -17.5t18 -44.5t-18 -45t-46 -18zM309 -14
q-98 0 -149 52t-51 151q0 53 5 114t5 97q0 46 -40 46q-20 0 -42 -8l-10 38q43 40 94 40q37 0 62 -22.5t25 -67.5q0 -39 -5 -98t-5 -108q0 -166 117 -166q68 0 96.5 52t28.5 154q0 104 -59 237l86 18l13 -6q56 -120 56 -249t-59.5 -201.5t-167.5 -72.5z" />
    <glyph glyph-name="alpha" unicode="&#x3b1;" horiz-adv-x="618" 
d="M242 -14q-89 0 -139.5 69.5t-50.5 191.5q0 127 58 200.5t158 73.5q107 0 149 -93l19 76l81 11l13 -6q-44 -185 -44 -315q0 -76 13 -105.5t47 -29.5q12 0 42 8l10 -41q-40 -40 -95 -40q-40 0 -61 24.5t-31 82.5h-3q-47 -107 -166 -107zM272 48q79 0 131 117q-1 33 4 182
q-12 52 -46.5 83.5t-80.5 31.5q-62 0 -94.5 -53.5t-32.5 -153.5q0 -207 119 -207z" />
    <glyph glyph-name="beta" unicode="&#x3b2;" horiz-adv-x="611" 
d="M96 -229l-12 5q-10 109 -10 231v531q0 113 57.5 178.5t174.5 65.5q84 0 144 -48.5t60 -141.5q0 -106 -82 -159v-2q56 -13 96 -65.5t40 -136.5q0 -106 -70 -174.5t-180 -68.5q-44 0 -84 13t-61 27h-2q0 -54 4.5 -113t9.5 -91l5 -33zM309 48q68 0 111 45.5t43 124.5
q0 131 -95 177q-51 -36 -83 -36q-33 0 -49 17t-16 39q0 27 16.5 44t48.5 17q42 0 76 -29q20 18 31 31t22.5 43t11.5 68q0 73 -37.5 103.5t-84.5 30.5q-37 0 -63.5 -13t-40.5 -31t-22 -46t-9.5 -49.5t-1.5 -50.5v-440q19 -19 60 -32t82 -13z" />
    <glyph glyph-name="gamma" unicode="&#x3b3;" horiz-adv-x="562" 
d="M220 -186q-46 74 -15 183q-13 179 -29.5 274t-42 135t-69.5 40q-15 0 -42 -8l-10 38q14 15 45 27.5t56 12.5q56 0 85.5 -35.5t46 -122.5t26.5 -260l1 -11q64 61 103.5 159t39.5 196q0 35 -6 65h81l13 -6q3 -25 3 -52q0 -126 -62 -248t-163 -194q15 -94 15 -151
q0 -20 -3 -34q-47 -10 -73 -8z" />
    <glyph glyph-name="delta" unicode="&#x3b4;" horiz-adv-x="547" 
d="M271 -14q-112 0 -174 61t-62 171q0 89 48.5 154.5t134.5 91.5q-67 50 -93 86t-26 78q0 70 53.5 112t141.5 42t145 -38t57 -97q0 -68 -63 -68q-26 0 -41.5 12.5t-15.5 32.5q0 26 28 69q-39 28 -116 28q-49 0 -77.5 -21t-28.5 -56q0 -31 23.5 -55t110.5 -84
q104 -72 147 -135.5t43 -143.5q0 -104 -66.5 -172t-168.5 -68zM270 48q61 0 99.5 47.5t38.5 123.5q0 71 -33 122.5t-106 91.5q-64 -22 -99 -79.5t-35 -139.5q0 -79 35 -122.5t100 -43.5z" />
    <glyph glyph-name="epsilon" unicode="&#x3b5;" horiz-adv-x="529" 
d="M266 -14q-98 0 -156 39t-58 105q0 89 107 128v1q-98 32 -98 111q0 68 59 109.5t156 41.5t153 -35t56 -96q0 -27 -17 -42.5t-46 -15.5q-56 0 -56 42q0 22 26 64q-41 22 -112 22q-129 0 -129 -87q0 -30 21 -53t58 -34q36 27 67 27q26 0 43 -14.5t17 -36.5q0 -23 -17 -38.5
t-43 -15.5q-40 0 -72 27q-34 -11 -53 -34t-19 -52q0 -38 36.5 -62t94.5 -24q114 0 176 63l34 -35q-33 -47 -96.5 -76t-131.5 -29z" />
    <glyph glyph-name="zeta" unicode="&#x3b6;" horiz-adv-x="454" 
d="M356 -234l-40 31q49 65 49 107q0 35 -25.5 55.5t-84.5 31.5q-112 22 -160 66t-48 127q0 95 66 225.5t171 242.5q-44 -5 -81 -5q-75 0 -110 22t-35 69q0 28 18 46t46 18q25 0 41 -13.5t16 -35.5q0 -12 -15 -41q57 -18 171 -8q32 35 67 66l62 -53l-1 -14
q-155 -131 -243.5 -262t-88.5 -229q0 -55 35 -86.5t116 -47.5q94 -19 131.5 -51t37.5 -94q0 -38 -26.5 -85t-68.5 -82z" />
    <glyph glyph-name="eta" unicode="&#x3b7;" horiz-adv-x="595" 
d="M508 -229l-90 18q19 116 19 237v295q0 65 -19 96.5t-82 31.5q-51 0 -91 -35.5t-40 -103.5v-310h-93v397q0 28 -7.5 38.5t-27.5 10.5t-42 -8l-10 38q42 40 94 40q34 0 52.5 -20.5t22.5 -77.5h3q59 103 171 103q162 0 162 -171v-343q0 -54 -2.5 -112t-5.5 -89l-2 -30z" />
    <glyph glyph-name="theta" unicode="&#x3b8;" horiz-adv-x="588" 
d="M291 -14q-239 0 -239 401q0 190 64 292.5t185 102.5q235 0 235 -397q0 -85 -13.5 -155t-41.5 -126t-76.5 -87t-113.5 -31zM148 425h291q-5 298 -150 298q-65 0 -102.5 -72t-38.5 -226zM298 48q141 0 141 304l-291 -14q10 -290 150 -290z" />
    <glyph glyph-name="iota" unicode="&#x3b9;" horiz-adv-x="296" 
d="M179 -14q-30 0 -51 10t-32 23.5t-17 36.5t-7.5 41.5t-1.5 45.5l-5 365l92 8l11 -5q-16 -208 -16 -371q0 -45 14 -63t59 -18q38 0 61 8l10 -41q-40 -40 -117 -40z" />
    <glyph glyph-name="kappa" unicode="&#x3ba;" horiz-adv-x="577" 
d="M447 -11q-39 0 -62.5 16.5t-53.5 66.5q-14 23 -40 77.5t-40 89.5l-95 -117l3 -122h-82l-8 508l92 8l11 -5q-11 -179 -14 -293l169 214q41 52 67 70.5t57 18.5q36 0 57 -18.5t21 -48.5q0 -32 -17.5 -48.5t-46.5 -16.5q-49 0 -52 44q-14 -5 -55 -58l-52 -67
q26 -65 100 -191q21 -35 36.5 -45t43.5 -10q20 0 46 8l10 -41q-43 -40 -95 -40z" />
    <glyph glyph-name="lambda" unicode="&#x3bb;" horiz-adv-x="573" 
d="M481 -14q-46 0 -69 25.5t-43 100.5l-79 299l-3 -8l-161 -403h-92l-13 6l240 516l-25 97q-14 52 -37 76t-65 24q-28 0 -46 -7q24 -33 24 -57q0 -16 -13.5 -28.5t-41.5 -12.5q-31 0 -44 18.5t-13 43.5q0 53 41.5 79.5t102.5 26.5q69 0 109.5 -36.5t63.5 -118.5l135 -498
q11 -40 26.5 -55t39.5 -15q19 0 45 8l10 -41q-40 -40 -92 -40z" />
    <glyph glyph-name="uni03BC" unicode="&#x3bc;" horiz-adv-x="611" 
d="M106 -229l-12 5q-10 106 -10 228l-10 504l92 8l12 -5q-11 -211 -11 -421q15 -15 42 -23.5t49 -8.5q64 0 101.5 38t37.5 101l-4 311l92 8l12 -5q-18 -206 -18 -320q0 -85 11.5 -108.5t52.5 -23.5q16 0 43 8l10 -41q-40 -40 -94 -40q-40 0 -61.5 24t-31.5 83h-3
q-20 -50 -59 -78.5t-86 -28.5q-59 0 -94 37h-2q0 -54 7.5 -112.5t15.5 -90.5l8 -31z" />
    <glyph glyph-name="nu" unicode="&#x3bd;" horiz-adv-x="572" 
d="M280 -18l-72 11q-14 251 -46.5 352t-99.5 101q-19 0 -40 -8l-10 38q16 16 47 28t57 12q56 0 87.5 -37t49.5 -133.5t26 -277.5l6 7q66 79 103 175t37 189q0 37 -6 68h81l13 -6q3 -27 3 -52q0 -128 -63.5 -253.5t-172.5 -213.5z" />
    <glyph glyph-name="xi" unicode="&#x3be;" horiz-adv-x="489" 
d="M374 -234l-40 31q49 65 49 107q0 61 -120 87q-119 27 -166 67.5t-47 115.5q0 64 44 118.5t112 75.5v2q-121 39 -121 137q0 90 93 162q-73 -13 -116.5 8.5t-43.5 70.5q0 28 18 46t46 18q25 0 41 -13.5t16 -35.5q0 -10 -15 -41q17 -12 118 -12q80 43 167 64l39 -63v-12
q-153 -43 -216 -86.5t-63 -106.5q0 -37 23.5 -62.5t67.5 -34.5q52 34 86 34q33 0 55.5 -17.5t22.5 -43.5q0 -31 -19.5 -50.5t-50.5 -19.5q-27 0 -45 5.5t-49 23.5q-125 -53 -125 -137q0 -52 35 -79.5t129 -48.5q93 -20 131.5 -52.5t38.5 -90.5q0 -38 -26.5 -85t-68.5 -82z
" />
    <glyph glyph-name="omicron" unicode="&#x3bf;" horiz-adv-x="577" 
d="M286 -14q-108 0 -173.5 68.5t-65.5 186.5q0 128 66.5 204t186.5 76q105 0 168 -70.5t63 -184.5q0 -132 -69.5 -206t-175.5 -74zM300 48q59 0 94 50t35 144q0 101 -41 160.5t-104 59.5t-99.5 -49t-36.5 -142q0 -99 39 -161t113 -62z" />
    <glyph glyph-name="pi" unicode="&#x3c0;" horiz-adv-x="641" 
d="M501 -14q-64 0 -93 36.5t-29 109.5q0 93 18 291h-170l-57 -423l-92 -8l-13 6l90 425h-140l10 60q50 16 119 19l448 5v-70l-14 -14h-108v-291q0 -41 16.5 -58.5t63.5 -17.5q18 0 46 8l10 -38q-42 -40 -105 -40z" />
    <glyph glyph-name="rho" unicode="&#x3c1;" horiz-adv-x="572" 
d="M77 -229l-12 5q-10 109 -10 231v266q0 115 64 181.5t168 66.5q112 0 175 -68t63 -192q0 -121 -59.5 -198t-180.5 -77q-37 0 -76 13t-59 27h-2q0 -54 5 -113t9 -91l5 -33zM276 48q53 0 87.5 32t47.5 77.5t13 102.5q0 98 -36.5 150t-105.5 52q-134 0 -134 -170v-199
q18 -19 56 -32t72 -13z" />
    <glyph glyph-name="uni03C2" unicode="&#x3c2;" horiz-adv-x="499" 
d="M356 -234l-40 31q49 65 49 107q0 14 -3 24t-13 22t-33.5 22.5t-60.5 18.5q-45 10 -77 23t-64.5 38.5t-49.5 69t-17 105.5q0 125 60.5 209.5t183.5 84.5q76 0 127.5 -37t51.5 -94q0 -28 -16.5 -46.5t-49.5 -18.5q-59 0 -59 48q0 21 28 68q-38 24 -90 24q-67 0 -101 -62
t-34 -158q0 -69 25.5 -109t108.5 -58q95 -21 132 -53t37 -92q0 -42 -28.5 -88.5t-66.5 -78.5z" />
    <glyph glyph-name="sigma" unicode="&#x3c3;" horiz-adv-x="624" 
d="M286 -14q-109 0 -174 66t-65 182q0 124 71.5 198.5t217.5 74.5h248v-73l-14 -14h-132v-2q93 -41 93 -177q0 -106 -66 -180.5t-179 -74.5zM300 48q67 0 100.5 47t33.5 133q0 128 -79 192h-46q-161 0 -161 -176q0 -81 38.5 -138.5t113.5 -57.5z" />
    <glyph glyph-name="tau" unicode="&#x3c4;" horiz-adv-x="504" 
d="M300 -14q-72 0 -101.5 37.5t-29.5 109.5q0 75 22 290h-176l10 60q50 16 119 19l330 5v-70l-14 -14h-198q-8 -133 -8 -263q0 -101 76 -101q50 0 97 32l22 -36q-65 -69 -149 -69z" />
    <glyph glyph-name="upsilon" unicode="&#x3c5;" horiz-adv-x="592" 
d="M309 -14q-98 0 -149 52t-51 151q0 53 5 114t5 97q0 46 -40 46q-20 0 -42 -8l-10 38q43 40 94 40q37 0 62 -22.5t25 -67.5q0 -39 -5 -98t-5 -108q0 -166 117 -166q68 0 96.5 52t28.5 154q0 104 -59 237l86 18l13 -6q56 -120 56 -249t-59.5 -201.5t-167.5 -72.5z" />
    <glyph glyph-name="phi" unicode="&#x3c6;" horiz-adv-x="762" 
d="M341 -219l-2 205q-132 6 -212 73t-80 191q0 111 70.5 185.5t219.5 85.5l-2 180l85 10l13 -6l-5 -184q128 -6 208 -72.5t80 -186.5q0 -131 -83 -201t-216 -76l-5 -204h-71zM339 49l-2 415q-90 -3 -140 -52.5t-50 -140.5q0 -204 192 -222zM418 43q93 1 145.5 50.5
t52.5 149.5q0 195 -189 215z" />
    <glyph glyph-name="chi" unicode="&#x3c7;" horiz-adv-x="553" 
d="M479 -233q-62 0 -90.5 30.5t-63.5 133.5l-46 135l-2 5l-125 -290h-90l-13 6l198 354l-68 170q-35 88 -55.5 111.5t-63.5 23.5q-19 0 -40 -8l-10 38q38 40 100 40q55 0 82.5 -26.5t55.5 -105.5l50 -146l3 -9l129 278h90l13 -6l-201 -342l59 -152q41 -107 60 -133
q25 -33 62 -34q13 0 45 8l10 -41q-41 -40 -89 -40z" />
    <glyph glyph-name="psi" unicode="&#x3c8;" horiz-adv-x="763" 
d="M359 -219l-2 205q-248 0 -248 203q0 41 5 111.5t5 100.5q0 45 -40 45q-20 0 -42 -8l-10 38q42 40 95 40q39 0 62.5 -24.5t23.5 -63.5q0 -25 -5 -98.5t-5 -123.5q0 -77 33 -114.5t126 -37.5l-3 647l84 10l13 -6l-14 -651q75 0 124.5 49.5t49.5 158.5q0 102 -59 235l86 18
l13 -6q56 -118 56 -246q0 -123 -73 -200t-199 -77l-4 -205h-72z" />
    <glyph glyph-name="omega" unicode="&#x3c9;" horiz-adv-x="787" 
d="M230 -14q-83 0 -133 65t-50 172q0 93 44.5 171.5t109.5 119.5l40 -27q-95 -121 -95 -272q0 -68 24.5 -112.5t76.5 -44.5q76 0 115 105q-38 62 -38 105q0 42 20 68.5t48 26.5t50 -26t22 -69q0 -41 -38 -105q39 -105 115 -105q49 0 73.5 46t24.5 126q0 63 -28 137.5
t-72 125.5l80 22l12 -3q41 -41 72.5 -118t31.5 -158q0 -112 -50.5 -181t-135.5 -69q-53 0 -94 28.5t-59 80.5h-3q-12 -40 -56.5 -74.5t-106.5 -34.5z" />
    <glyph glyph-name="iotadieresis" unicode="&#x3ca;" horiz-adv-x="296" 
d="M19 610q-27 0 -45 17.5t-18 44.5t18 45t45 18q28 0 46.5 -17.5t18.5 -44.5t-18.5 -45t-46.5 -18zM218 610q-28 0 -46 17.5t-18 44.5t18 45t46 18t46 -17.5t18 -44.5t-18 -45t-46 -18zM179 -14q-30 0 -51 10t-32 23.5t-17 36.5t-7.5 41.5t-1.5 45.5l-5 365l92 8l11 -5
q-16 -208 -16 -371q0 -45 14 -63t59 -18q38 0 61 8l10 -41q-40 -40 -117 -40z" />
    <glyph glyph-name="upsilondieresis" unicode="&#x3cb;" horiz-adv-x="592" 
d="M170 610q-27 0 -45 17.5t-18 44.5t18 45t45 18q28 0 46.5 -17.5t18.5 -44.5t-18.5 -45t-46.5 -18zM369 610q-28 0 -46 17.5t-18 44.5t18 45t46 18t46 -17.5t18 -44.5t-18 -45t-46 -18zM309 -14q-98 0 -149 52t-51 151q0 53 5 114t5 97q0 46 -40 46q-20 0 -42 -8l-10 38
q43 40 94 40q37 0 62 -22.5t25 -67.5q0 -39 -5 -98t-5 -108q0 -166 117 -166q68 0 96.5 52t28.5 154q0 104 -59 237l86 18l13 -6q56 -120 56 -249t-59.5 -201.5t-167.5 -72.5z" />
    <glyph glyph-name="omicrontonos" unicode="&#x3cc;" horiz-adv-x="577" 
d="M292 573l-35 18l67 163q9 23 19.5 33t29.5 10q40 0 63 -51l-1 -14zM286 -14q-108 0 -173.5 68.5t-65.5 186.5q0 128 66.5 204t186.5 76q105 0 168 -70.5t63 -184.5q0 -132 -69.5 -206t-175.5 -74zM300 48q59 0 94 50t35 144q0 101 -41 160.5t-104 59.5t-99.5 -49
t-36.5 -142q0 -99 39 -161t113 -62z" />
    <glyph glyph-name="upsilontonos" unicode="&#x3cd;" horiz-adv-x="592" 
d="M289 573l-35 18l67 163q9 23 19.5 33t29.5 10q40 0 63 -51l-1 -14zM309 -14q-98 0 -149 52t-51 151q0 53 5 114t5 97q0 46 -40 46q-20 0 -42 -8l-10 38q43 40 94 40q37 0 62 -22.5t25 -67.5q0 -39 -5 -98t-5 -108q0 -166 117 -166q68 0 96.5 52t28.5 154q0 104 -59 237
l86 18l13 -6q56 -120 56 -249t-59.5 -201.5t-167.5 -72.5z" />
    <glyph glyph-name="omegatonos" unicode="&#x3ce;" horiz-adv-x="787" 
d="M391 573l-35 18l67 163q9 23 19.5 33t29.5 10q40 0 63 -51l-1 -14zM230 -14q-83 0 -133 65t-50 172q0 93 44.5 171.5t109.5 119.5l40 -27q-95 -121 -95 -272q0 -68 24.5 -112.5t76.5 -44.5q76 0 115 105q-38 62 -38 105q0 42 20 68.5t48 26.5t50 -26t22 -69
q0 -41 -38 -105q39 -105 115 -105q49 0 73.5 46t24.5 126q0 63 -28 137.5t-72 125.5l80 22l12 -3q41 -41 72.5 -118t31.5 -158q0 -112 -50.5 -181t-135.5 -69q-53 0 -94 28.5t-59 80.5h-3q-12 -40 -56.5 -74.5t-106.5 -34.5z" />
    <glyph glyph-name="uni03D7" unicode="&#x3d7;" horiz-adv-x="569" 
d="M323 -229q-47 0 -74 10v53h9q98 0 142.5 26.5t44.5 87.5q0 24 -16.5 50t-63.5 74q-101 104 -101 189q0 27 11 47q-63 -85 -121 -186v-122h-79l-6 508l90 8l10 -5l-14 -295q74 134 156.5 219.5t142.5 85.5q34 0 53.5 -19t19.5 -52q0 -28 -16.5 -44.5t-44.5 -16.5
q-17 0 -28.5 4.5t-16.5 12.5t-7 14t-3 14q-79 -44 -79 -114q0 -29 16 -59.5t77 -100.5q67 -77 88 -117.5t21 -92.5q0 -84 -54.5 -131.5t-156.5 -47.5z" />
    <glyph glyph-name="uni03D8" unicode="&#x3d8;" horiz-adv-x="760" 
d="M343 -219l-12 5l4 202q-131 11 -208 105t-77 243q0 173 91.5 275.5t245.5 102.5q146 0 234.5 -95t88.5 -251q0 -153 -79 -256.5t-210 -121.5q4 -84 12 -201zM421 56q87 14 133.5 89.5t46.5 203.5q0 142 -60 221.5t-167 79.5q-104 0 -161 -76.5t-57 -216.5
q0 -125 46.5 -203.5t131.5 -95.5l-4 157l87 11l13 -6q-9 -121 -9 -164z" />
    <glyph glyph-name="uni03D9" unicode="&#x3d9;" horiz-adv-x="586" 
d="M265 -161l-10 4q3 95 4 145q-102 9 -157.5 78.5t-55.5 175.5q0 141 74 210t183 69q104 0 170.5 -66t66.5 -188q0 -120 -58 -193t-153 -85l9 -144zM329 50q52 9 80.5 58.5t28.5 134.5q0 103 -41 161t-110 58q-65 0 -102.5 -47t-37.5 -143q0 -87 28.5 -143.5t82.5 -73.5
l-3 82l70 9l11 -5z" />
    <glyph glyph-name="uni03DA" unicode="&#x3da;" horiz-adv-x="659" 
d="M472 -225l-41 13q38 72 38 111q0 52 -95 80q-176 55 -250 137t-74 223q0 174 89 274.5t243 100.5q96 0 159.5 -42.5t63.5 -106.5q0 -33 -20 -53t-54 -20q-32 0 -49.5 14.5t-17.5 39.5q0 24 32 77q-36 27 -118 27q-108 0 -164.5 -76t-56.5 -222q0 -105 58 -170.5
t186 -104.5q86 -26 121.5 -57t35.5 -79q0 -70 -86 -166z" />
    <glyph glyph-name="uni03DB" unicode="&#x3db;" horiz-adv-x="503" 
d="M358 -181l-38 12q35 67 35 101q0 24 -15.5 37t-62.5 27q-122 37 -176.5 97t-54.5 156q0 125 68.5 198.5t184.5 73.5q80 0 101.5 5.5t25.5 31.5v9l30 7q20 -32 18 -69q-2 -41 -35 -52.5t-146 -9.5q-71 2 -108.5 -43t-37.5 -132q0 -71 36.5 -114.5t118.5 -68.5
q79 -24 106.5 -47.5t27.5 -67.5q0 -61 -78 -151z" />
    <glyph glyph-name="uni03DC" unicode="&#x3dc;" horiz-adv-x="615" 
d="M62 0v48l58 9q19 3 25 13t6 38v488q0 26 -6.5 35t-26.5 12l-56 9v48h474l36 -179l-52 -18q-34 91 -64.5 117t-101.5 26h-104v-279h87q55 0 68 11.5t25 70.5l46 6v-247l-46 -8q-11 73 -25 89t-68 16h-87v-199q0 -27 7.5 -37.5t29.5 -12.5l70 -8v-48h-295z" />
    <glyph glyph-name="uni03DD" unicode="&#x3dd;" horiz-adv-x="379" 
d="M132 -8l-12 5q1 77 1 111v336h-80v50l80 10v41q0 111 47.5 174t136.5 63q60 0 100 -25.5t40 -70.5q0 -27 -16 -46.5t-44 -19.5q-55 0 -55 39q0 17 25 59q-22 12 -54 12q-45 0 -66 -30.5t-21 -100.5v-92h146v-63h-146v-325l5 -119z" />
    <glyph glyph-name="uni03DE" unicode="&#x3de;" horiz-adv-x="553" 
d="M323 -89q-38 0 -62.5 21.5t-24.5 62.5q0 37 26 83t126 191l-300 -157l-38 60l93 145q84 132 84 180q0 35 -37 35q-20 0 -42 -8l-8 36q36 40 89 40q44 0 66 -24t22 -59q0 -38 -25 -82t-127 -193l300 157l38 -60l-107 -167q-70 -111 -70 -158q0 -35 37 -35q20 0 42 8l8 -36
q-36 -40 -90 -40z" />
    <glyph glyph-name="uni03DF" unicode="&#x3df;" horiz-adv-x="465" 
d="M260 -59q-38 0 -61 19.5t-23 52.5q0 25 12.5 49.5t50.5 73.5l58 74h-247v30l100 129q50 65 50 91q0 34 -36 34q-20 0 -40 -8l-7 36q34 34 87 34q39 0 62 -19.5t23 -52.5q0 -43 -56 -114l-65 -83h247v-30l-100 -129q-50 -66 -50 -91q0 -34 36 -34q21 0 40 8l7 -36
q-34 -34 -88 -34z" />
    <glyph glyph-name="uni03E0" unicode="&#x3e0;" horiz-adv-x="738" 
d="M673 -172l-87 2q5 68 5 133q0 104 -18 179l-296 -215q-23 -16 -13 -34l17 -33l-33 -22l-104 149l32 20l18 -18q13 -13 20 -13t23 12l311 230q-26 60 -73 107l-314 -230q-23 -17 -14 -34l18 -33l-34 -22l-103 149l32 20l18 -18q12 -12 19 -12.5t23 11.5l293 217
q-106 64 -278 67l3 72q273 -3 407.5 -139t134.5 -408q0 -78 -7 -137z" />
    <glyph glyph-name="uni03E1" unicode="&#x3e1;" horiz-adv-x="573" 
d="M465 -247l-73 20q28 75 41.5 156t8.5 136l-244 -98q-22 -9 -18 -26l7 -32l-32 -11l-59 151l33 13l15 -26q5 -10 10.5 -10.5t20.5 5.5l261 106q-7 51 -31 108l-269 -108q-23 -11 -19 -26l7 -33l-32 -11l-58 151l32 13l15 -26q5 -9 10.5 -10t20.5 5l260 106
q-72 111 -234 159l20 60q179 -48 273 -168t94 -300q0 -139 -60 -304z" />
    <glyph glyph-name="uni0400" unicode="&#x400;" horiz-adv-x="637" 
d="M400 752l-151 66q-42 18 -42 56q0 18 12.5 33t30.5 15q13 0 39 -23l131 -119zM62 0v48l58 9q19 3 25 13t6 38v488q0 26 -6.5 35t-26.5 12l-56 9v48h463l37 -163l-52 -17q-30 79 -60 102.5t-103 23.5h-97v-259h87q53 0 66 11.5t27 70.5l46 6v-227l-46 -8q-9 58 -24 71.5
t-69 13.5h-87v-271h129q72 0 100.5 24.5t49.5 105.5h55l-24 -184h-498z" />
    <glyph glyph-name="uni0401" unicode="&#x401;" horiz-adv-x="637" 
d="M222 771q-28 0 -46 17.5t-18 45.5t18 46t46 18q29 0 47.5 -17.5t18.5 -45.5t-18.5 -46t-47.5 -18zM425 771q-29 0 -47 17.5t-18 45.5t18.5 46t46.5 18q29 0 47 -17.5t18 -45.5t-18.5 -46t-46.5 -18zM62 0v48l58 9q19 3 25 13t6 38v488q0 26 -6.5 35t-26.5 12l-56 9v48
h463l37 -163l-52 -17q-30 79 -60 102.5t-103 23.5h-97v-259h87q53 0 66 11.5t27 70.5l46 6v-227l-46 -8q-9 58 -24 71.5t-69 13.5h-87v-271h129q72 0 100.5 24.5t49.5 105.5h55l-24 -184h-498z" />
    <glyph glyph-name="uni0402" unicode="&#x402;" horiz-adv-x="832" 
d="M583 -109l-28 41q130 103 130 254q0 163 -145 163q-46 0 -97.5 -21t-84.5 -53v-169q0 -27 5.5 -36t23.5 -12l59 -10v-48h-276v48l56 9q19 3 26 14t7 38v536h-26q-74 0 -105 -29t-64 -129l-54 13l39 200h599l37 -200l-55 -13q-32 100 -62.5 129t-103.5 29h-106v-302
q100 74 209 74q103 0 162 -58t59 -159q0 -198 -205 -309z" />
    <glyph glyph-name="uni0403" unicode="&#x403;" horiz-adv-x="604" 
d="M285 752l-20 28l131 119q26 23 39 23q18 0 30.5 -15t12.5 -33q0 -38 -42 -56zM62 0v48l58 9q20 3 25.5 14.5t5.5 36.5v488q0 25 -6 34t-27 13l-56 9v48h476l36 -179l-52 -18q-34 91 -64.5 117t-101.5 26h-106v-540q0 -26 7 -36.5t30 -13.5l70 -8v-48h-295z" />
    </font>
</defs>
</svg>
