<svg width="36" height="36" viewBox="0 0 36 36" fill="none" xmlns="http://www.w3.org/2000/svg">
<g>
<path d="M34.577 27.113C34.293 26.051 33.19 25.414 32.128 25.699L24.757 27.675L12 24.257V22.177L19.758 24.256C20.82 24.541 21.922 23.904 22.207 22.842C22.492 21.78 21.855 20.677 20.793 20.393L12 18.037V18L0 21.238V34.9953L9.138 31.772L17.09 33.903L33.163 29.562C34.226 29.278 34.861 28.176 34.577 27.113ZM19 0H17V6H19V0ZM10.221 8.808L5.979 4.565L4.565 5.98L8.80701 10.223L10.221 8.808ZM30 17V19H35.999V17H30ZM31.436 5.979L30.022 4.564L25.78 8.806L27.194 10.221L31.436 5.979Z" fill="#EC231A"/>
</g>
<defs>
<clipPath id="clip0">
<path d="M0 0H35.999V36H0V0Z" fill="white"/>
</clipPath>
</defs>
</svg>
