<svg width="102" height="78" viewBox="0 0 102 78" fill="none" xmlns="http://www.w3.org/2000/svg">
<path d="M101.688 17.9985H92.8865C89.8455 18.0853 88.559 18.8948 87.5063 20.8318L72.3306 49.5981L77.126 58.6761L77.6816 59.7458C79.3483 59.3699 80.2839 58.5604 81.0442 57.1438L101.688 17.9985Z" fill="url(#paint0_linear)"/>
<path d="M75.4005 18.0566H66.6284L87.2429 57.2019C88.354 59.2546 89.7868 60.0062 93.3249 60.0062H101.424L80.7808 20.861C79.7573 18.924 78.4415 18.1434 75.4005 18.0566Z" fill="#002F6C"/>
<path fill-rule="evenodd" clip-rule="evenodd" d="M57.185 20.8318L60.0213 26.1803H47.331L43.0034 17.9985H51.8048C54.8458 18.0853 56.1324 18.8948 57.185 20.8318ZM61.1035 28.2615L77.1273 58.6757L77.6828 59.7454C76.7863 59.911 75.8754 59.9885 74.9635 59.9767H69.7294C66.1913 59.9767 64.7586 59.225 63.6182 57.1435L48.4132 28.2615H61.1035Z" fill="#002F6C"/>
<path d="M19.6691 18.23C18.0024 18.5769 17.096 19.3864 16.3065 20.832L0.312012 59.9772H7.97299C11.0432 59.8616 12.3298 59.081 13.3825 57.1439L25.0201 28.3777L27.5527 22.1128L20.2247 19.2997L19.6691 18.23Z" fill="url(#paint1_linear)"/>
<path d="M19.6697 18.2295C19.2891 18.3103 18.9171 18.4264 18.5586 18.5765C19.3331 18.8279 20.0149 19.3008 20.5177 19.9353C20.5762 19.9931 20.8686 20.4557 20.8686 20.4557L40.1672 57.1435C41.2199 59.0805 42.5357 59.8611 45.5767 59.9768H54.3488L33.7343 20.8315C32.6232 18.7499 31.1904 17.9982 27.6523 17.9982H22.3891C21.4767 17.9747 20.5646 18.0523 19.6697 18.2295Z" fill="#002F6C"/>
<defs>
<linearGradient id="paint0_linear" x1="78.5355" y1="45.4227" x2="70.3359" y2="55.0177" gradientUnits="userSpaceOnUse">
<stop stop-color="#C09A5D"/>
<stop offset="1" stop-color="#675431"/>
</linearGradient>
<linearGradient id="paint1_linear" x1="-27962.3" y1="152008" x2="-27313.3" y2="151249" gradientUnits="userSpaceOnUse">
<stop stop-color="#C09A5D"/>
<stop offset="1" stop-color="#675431"/>
</linearGradient>
</defs>
</svg>
