<svg width="50" height="26" viewBox="0 0 50 26" fill="none" xmlns="http://www.w3.org/2000/svg">
<path d="M36.2495 19.1775C35.1235 19.1775 34.2099 18.3461 34.2099 17.3215C34.2099 16.2968 35.1235 15.4655 36.2495 15.4655C37.3755 15.4655 38.289 16.2968 38.289 17.3215C38.289 18.3461 37.3755 19.1775 36.2495 19.1775ZM13.793 19.1775C12.667 19.1775 11.7535 18.3461 11.7535 17.3215C11.7535 16.2968 12.667 15.4655 13.793 15.4655C14.919 15.4655 15.8326 16.2968 15.8326 17.3215C15.8326 18.3461 14.919 19.1775 13.793 19.1775ZM36.9718 8.04164L41.0509 1.64241C41.2846 1.27508 41.1359 0.811086 40.7323 0.598422C40.3286 0.385759 39.8187 0.52109 39.585 0.888418L35.4634 7.36498C32.3191 6.05034 28.7923 5.31568 25.0319 5.31568C21.2714 5.31568 17.7234 6.05034 14.5791 7.34565L10.4575 0.869085C10.2238 0.501757 9.71391 0.366426 9.31024 0.579089C8.90658 0.791753 8.75786 1.25575 8.99156 1.62307L13.0494 8.0223C6.08093 11.4829 1.30071 17.9015 0.599609 25.4994H49.4004C48.7205 17.9208 43.9616 11.5022 36.9718 8.04164Z" fill="#3DDC84"/>
</svg>
