<svg width="41" height="36" viewBox="0 0 41 36" fill="none" xmlns="http://www.w3.org/2000/svg">
<g clip-path="url(#clip0)">
<path d="M0.998047 34.9999H40.998C40.3844 28.4009 36.5706 22.7428 31.1326 19.5551L35.0059 12.8464L33.5561 12.0093L29.6551 18.7665C27.0316 17.5108 24.1017 16.7926 20.9985 16.7926C17.8961 16.7926 14.9654 17.51 12.3427 18.7657L8.44172 12.0093L6.99184 12.8464L10.8652 19.5542C5.42644 22.7428 1.61249 28.4009 0.998047 34.9999ZM30.2068 25.7924C31.131 25.7924 31.881 26.5416 31.881 27.4667C31.881 28.3917 31.131 29.1409 30.2068 29.1409C29.2826 29.1409 28.5325 28.3917 28.5325 27.4667C28.5325 26.5416 29.2826 25.7924 30.2068 25.7924ZM11.7902 25.7924C12.7144 25.7924 13.4644 26.5416 13.4644 27.4667C13.4644 28.3917 12.7144 29.1409 11.7902 29.1409C10.866 29.1409 10.116 28.3917 10.116 27.4667C10.116 26.5416 10.866 25.7924 11.7902 25.7924Z" fill="#EC231A"/>
</g>
<defs>
<clipPath id="clip0">
<path d="M0.998047 0H40.998V36H0.998047V0Z" fill="white"/>
</clipPath>
</defs>
</svg>
