<svg xmlns="http://www.w3.org/2000/svg" width="141" height="36" fill="none">
  <g clip-path="url(#clip11)">
    <path fill="#BEBEBE" d="M84.6152.701172h-7.3381c-2.5354.071447-3.6081.738288-4.4857 2.333948L60.1387 26.7318l3.9981 7.4782.4632.8811c1.3896-.3096 2.1698-.9764 2.8036-2.1434L84.6152.701172z"/>
    <path fill="#868686" d="M62.6985.749023h-7.3137L72.572 32.9956c.9264 1.6909 2.121 2.3101 5.0708 2.3101h6.753L67.1842 3.05915C66.331 1.4635 65.2339.820471 62.6985.749023zM49.8761 7.44104l-2.3648-4.40592C46.6337 1.43946 45.561.772619 43.0256.701172h-7.3381l3.6081 6.739868h10.5805zM64.1385 34.21L50.7787 9.15576H40.1982L52.8753 32.9477c.9508 1.7148 2.1454 2.334 5.0953 2.334h4.3638c.7603.0096 1.5198-.0542 2.2673-.1906l-.4632-.8811z"/>
    <path fill="#BEBEBE" d="M16.2327.891602c-1.3896.285788-2.1454.952628-2.8036 2.143418L.09375 35.2816h6.38731c2.55979-.0953 3.63244-.7383 4.51014-2.334L20.694 9.25094l-3.9981-7.47815-.4632-.881188z"/>
    <path fill="#868686" d="M16.233.891665c-.3173.066499-.6275.162185-.9264.285785.6458.20715 1.2142.59668 1.6334 1.11935.0488.04763.2926.42868.2926.42868L33.3227 32.9477c.8777 1.5957 1.9747 2.2387 4.5102 2.3339h7.3137L27.9594 3.03508C27.033 1.32035 25.8384.701139 22.8885.701139h-4.3882c-.7607-.019383-1.5212.044524-2.2673.190526zM93.6358 20.898h-.5607l-.5363-1.1907h-2.511l-.5364 1.1907h-.5363l2.0966-4.525h.4876l2.0965 4.525zm-2.3647-3.9296l-1.0483 2.2864h2.0966l-1.0483-2.2864zM95.757 18.3963c1.0239.2143 1.4871.5954 1.4871 1.286 0 .6907-.6339 1.2623-1.5603 1.2623-.6965.0067-1.3689-.2492-1.8772-.7145l.317-.3572c.4269.398.9945.6198 1.5846.6192.6095 0 1.0239-.3096 1.0239-.7621s-.2194-.6669-1.1945-.8574c-.9752-.1905-1.5359-.5716-1.5359-1.3099 0-.7383.6338-1.2146 1.5115-1.2146.5881-.0238 1.1634.1721 1.609.5478l-.3169.381c-.3655-.309-.8332-.4782-1.3165-.4763-.5851 0-.9752.3096-.9752.7145 0 .4049.2438.6668 1.2434.8812zM99.6337 20.8967h-.5363v-4.0249h-1.5359v-.4763h3.6085v.4763h-1.5363v4.0249zM105.509 20.8971h-.561l-.536-1.1908h-2.511l-.537 1.1908h-.536l2.097-4.525h.487l2.097 4.525zm-2.34-3.9296l-1.049 2.2863h2.072l-1.023-2.2863zM109.458 16.3955h.512v4.5012h-.414l-2.975-3.6915v3.6915h-.487v-4.5012h.463l2.901 3.5962v-3.5962zM115.211 20.8971h-.536l-.561-1.1908h-2.487l-.56 1.1908h-.512l2.096-4.525h.488l2.072 4.525zm-2.34-3.9296l-1.049 2.2863h2.097l-1.048-2.2863zM89.9065 23.4453v4.5012h-.512v-4.5012h.512zM94.3184 23.4453h.4876v4.5012h-.4145l-2.9499-3.6915v3.6915h-.5119v-4.5012h.4876l2.9011 3.62v-3.62zM97.5371 27.9465h-.5364v-4.0249h-1.5359v-.4763h3.6081v.4763h-1.5358v4.0249zM103.023 23.9216h-2.804v1.5242h2.511v.4764h-2.511v1.5718h2.852v.4525h-3.364v-4.5012h3.316v.4763zM106.948 27.9465l-1.341-1.7386h-1.317v1.7386h-.512v-4.5012h1.975c1.024 0 1.658.5478 1.658 1.3575s-.512 1.1908-1.244 1.3099l1.414 1.8338h-.633zm-1.219-4.0249h-1.439v1.8338h1.414c.707 0 1.195-.3572 1.195-.9288 0-.5716-.439-.905-1.17-.905zM111.579 23.4453h.512v4.5012h-.414l-2.975-3.6915v3.6915h-.512v-4.5012h.488l2.901 3.62v-3.62zM117.333 27.9469h-.561l-.536-1.1908h-2.487l-.56 1.1908h-.512l2.096-4.525h.464l2.096 4.525zm-2.34-3.9296l-1.049 2.2863h2.097l-1.048-2.2863zM119.063 27.9465h-.512v-4.0249h-1.56v-.4763h3.608v.4763h-1.536v4.0249zM121.819 23.4453v4.5012h-.512v-4.5012h.512zM124.963 28.0176c-.31.0033-.618-.0544-.905-.1697-.287-.1152-.548-.2856-.766-.5011-.218-.2155-.39-.4717-.505-.7533-.115-.2816-.171-.5829-.164-.886-.004-.3054.055-.6084.173-.8914.117-.283.291-.5405.511-.7575.219-.2171.481-.3894.77-.507.288-.1175.598-.1781.91-.1781.589.0613 1.133.3338 1.528.7648.395.431.612.9898.609 1.568-.003.5783-.226 1.1349-.625 1.5619-.4.427-.947.6941-1.536.7494zm0-4.1677c-1.048 0-1.78.8097-1.78 1.8338 0 1.024.756 1.8814 1.804 1.8814.245-.003.486-.0538.71-.1494.224-.0956.426-.2341.594-.4073.168-.1731.299-.3775.385-.6009.086-.2235.125-.4615.115-.7.007-.2397-.035-.4782-.124-.7018-.089-.2236-.222-.4277-.392-.6005-.17-.1729-.374-.3109-.599-.4063-.225-.0953-.468-.146-.713-.149zM131.472 23.4453h.512v4.5012h-.415l-2.974-3.6915v3.6915h-.512v-4.5012h.488l2.901 3.62v-3.62zM137.226 27.9469h-.561l-.536-1.1908h-2.487l-.561 1.1908h-.536l2.097-4.525h.487l2.097 4.525zm-2.341-3.9296l-1.048 2.2863h2.097l-1.049-2.2863zM137.811 23.4453h.512v4.0249h2.584v.4763h-3.096v-4.5012zM92.6613 30.9711h-2.8036v1.548h2.511v.4525h-2.511v1.5718H92.71v.4525h-3.3643v-4.4773h3.3156v.4525zM96.6101 34.9959l-1.4871-1.9291-1.4627 1.9291h-.5851l1.7553-2.2863-1.7065-2.191h.6094l1.414 1.8338 1.414-1.8338h.5851l-1.6822 2.191 1.7553 2.2863h-.6095zM99.6092 35.0912c-1.3165 0-2.2916-1.024-2.2916-2.3339-.0099-.302.0429-.6028.1551-.8843.1123-.2815.2817-.5379.4981-.7537.2164-.2159.4753-.3867.761-.5022.2858-.1155.5925-.1733.9018-.1699.3327-.0087.6634.0479.9734.1666.31.1186.593.2968.831.524l-.366.3811c-.184-.1939-.406-.349-.653-.4555-.248-.1065-.515-.1622-.7854-.1637-1.0239 0-1.7797.8097-1.7797 1.8576 0 1.0479.7558 1.8576 1.7797 1.8576.2802.0006.5574-.0563.8134-.1671s.486-.2729.674-.4759l.341.3096c-.23.2583-.515.4645-.835.6044-.32.1398-.6673.2099-1.0178.2053zM102.559 32.9716v2.0243h-.512v-4.4773h.512v2.0005h2.657v-2.0005h.512v4.4773h-.512v-2.0243h-2.657zM110.969 34.9957h-.561l-.536-1.1908h-2.487l-.561 1.1908h-.512l2.097-4.525h.463l2.097 4.525zm-2.34-3.9296l-1.049 2.2863h2.097l-1.048-2.2863zM114.943 30.5186h.512v4.4773h-.414l-2.974-3.6676v3.6676h-.512v-4.4773h.487l2.901 3.5961v-3.5961zM118.552 35.0911c-1.439 0-2.341-1.0479-2.341-2.334-.01-.3019.043-.6027.155-.8842.113-.2815.282-.5379.498-.7538.217-.2158.476-.3866.761-.5021.286-.1155.593-.1734.902-.17.626-.0231 1.237.1901 1.707.5954l-.342.3811c-.183-.1742-.401-.3104-.64-.4005-.239-.09-.493-.132-.749-.1235-1.024 0-1.756.8336-1.756 1.8576 0 1.0241.707 1.8577 1.829 1.8577.474-.0034.935-.1535 1.316-.4287v-1.1194h-1.389v-.4525h1.901v1.7862c-.515.4357-1.171.6802-1.852.6907zM124.549 30.9711h-2.804v1.548h2.511v.4525h-2.511v1.5718h2.853v.4525h-3.365v-4.4773h3.316v.4525z"/>
  </g>
  <defs>
    <clipPath id="clip11">
      <path fill="#fff" d="M.09375.69043h140.813v34.6262H.09375z"/>
    </clipPath>
  </defs>
</svg>