<svg width="32" height="39" viewBox="0 0 32 39" fill="none" xmlns="http://www.w3.org/2000/svg">
<path d="M13.8667 30.3333C11.5104 30.3333 9.6 32.2736 9.6 34.6667C9.6 37.0619 11.5104 39 13.8667 39C16.2229 39 18.1333 37.0619 18.1333 34.6667C18.1333 32.2736 16.2229 30.3333 13.8667 30.3333ZM29 2V0H27V2H5V0H3V2H0V8H32V2H29ZM0 26H16C16 22.4156 18.8708 19.5 22.4 19.5C25.9292 19.5 28.8 22.4156 28.8 26H32V10H0V26ZM12.8082 12.6389C13.397 12.6389 13.8748 13.1242 13.8748 13.7222C13.8748 14.3202 13.397 14.8056 12.8082 14.8056C12.2194 14.8056 11.7415 14.3202 11.7415 13.7222C11.7415 13.1242 12.2194 12.6389 12.8082 12.6389ZM8.54152 12.6389C9.13032 12.6389 9.60818 13.1242 9.60818 13.7222C9.60818 14.3202 9.13032 14.8056 8.54152 14.8056C7.95272 14.8056 7.47485 14.3202 7.47485 13.7222C7.47485 13.1242 7.95272 12.6389 8.54152 12.6389ZM8.54152 16.9722C9.13032 16.9722 9.60818 17.4576 9.60818 18.0556C9.60818 18.6536 9.13032 19.1389 8.54152 19.1389C7.95272 19.1389 7.47485 18.6536 7.47485 18.0556C7.47485 17.4576 7.95272 16.9722 8.54152 16.9722ZM4.27485 12.6389C4.86365 12.6389 5.34152 13.1242 5.34152 13.7222C5.34152 14.3202 4.86365 14.8056 4.27485 14.8056C3.68605 14.8056 3.20818 14.3202 3.20818 13.7222C3.20818 13.1242 3.68605 12.6389 4.27485 12.6389ZM4.27485 16.9722C4.86365 16.9722 5.34152 17.4576 5.34152 18.0556C5.34152 18.6536 4.86365 19.1389 4.27485 19.1389C3.68605 19.1389 3.20818 18.6536 3.20818 18.0556C3.20818 17.4576 3.68605 16.9722 4.27485 16.9722ZM4.27485 21.3056C4.86365 21.3056 5.34152 21.7909 5.34152 22.3889C5.34152 22.9869 4.86365 23.4722 4.27485 23.4722C3.68605 23.4722 3.20818 22.9869 3.20818 22.3889C3.20818 21.7909 3.68605 21.3056 4.27485 21.3056ZM22.4 21.6667C20.0437 21.6667 18.1333 23.6069 18.1333 26C18.1333 28.3938 20.0437 30.3333 22.4 30.3333C24.7563 30.3333 26.6667 28.3938 26.6667 26C26.6667 23.6069 24.7563 21.6667 22.4 21.6667Z" fill="#F04F48"/>
</svg>
