<svg width="44" height="44" viewBox="0 0 44 44" fill="none" xmlns="http://www.w3.org/2000/svg">
<g clip-path="url(#clip10)">
<path d="M3.90723 0.481934V26.8755H13.5335L21.999 12.2124H43.5049V0.481934H3.90723Z" fill="#DB4437"/>
<path d="M3.90723 0.481934V26.8755H13.5335L21.999 12.2124H43.5049V0.481934H3.90723Z" fill="url(#paint0_linear)"/>
<path d="M13.7667 26.7901L4.03286 10.0962L3.89111 10.3406L13.5541 26.9099L13.7667 26.7901Z" fill="#3E2723" fill-opacity="0.15"/>
<path d="M0.494141 43.4928H20.9663L30.4679 33.9911V26.8746H13.5345L0.494141 4.50854V43.4928Z" fill="#0F9D58"/>
<path d="M0.494141 43.4928H20.9663L30.4679 33.9911V26.8746H13.5345L0.494141 4.50854V43.4928Z" fill="url(#paint1_linear)"/>
<path d="M30.2698 27.1998L30.067 27.0825L20.6851 43.493H20.9661L30.2772 27.2072L30.2698 27.1998Z" fill="#263238" fill-opacity="0.15"/>
<path d="M22.0001 12.2124L30.468 26.8755L20.9663 43.4937H43.5059V12.2124H22.0001Z" fill="#FFCD40"/>
<path d="M22.0001 12.2124L30.468 26.8755L20.9663 43.4937H43.5059V12.2124H22.0001Z" fill="url(#paint2_linear)"/>
<path d="M3.90723 0.481934V26.8755H13.5335L21.999 12.2124H43.5049V0.481934H3.90723Z" fill="#DB4437"/>
<path d="M3.90723 0.481934V26.8755H13.5335L21.999 12.2124H43.5049V0.481934H3.90723Z" fill="url(#paint3_linear)"/>
<path d="M22 12.2124V17.3323L41.1598 12.2124H22Z" fill="url(#paint4_radial)"/>
<path d="M0.494141 43.4928H20.9663L30.4679 33.9911V26.8746H13.5345L0.494141 4.50854V43.4928Z" fill="#0F9D58"/>
<path d="M0.494141 43.4928H20.9663L30.4679 33.9911V26.8746H13.5345L0.494141 4.50854V43.4928Z" fill="url(#paint5_linear)"/>
<path d="M3.9082 10.3669L17.8992 24.3555L13.5345 26.8751L3.9082 10.3669Z" fill="url(#paint6_radial)"/>
<path d="M20.981 43.4659L26.1033 24.355L30.468 26.8746L20.981 43.4659Z" fill="url(#paint7_radial)"/>
<path d="M22 11.9675C16.6015 11.9675 12.2246 16.3445 12.2246 21.7429V21.9873C12.2246 16.5888 16.6015 12.2119 22 12.2119H43.5059V11.9675H22Z" fill="#3E2723" fill-opacity="0.2"/>
<path d="M30.4557 26.8746C28.7646 29.7926 25.6144 31.7623 22 31.7623C18.3831 31.7623 15.233 29.7926 13.5418 26.8746H13.5321L0.494141 4.50854V4.75293L13.5345 27.119H13.5443C15.2354 30.037 18.3855 32.0067 22.0024 32.0067C25.6169 32.0067 28.767 30.0394 30.4582 27.119H30.4704V26.8746H30.4557Z" fill="white" fill-opacity="0.1"/>
<path opacity="0.1" d="M22.2443 12.2117C22.2027 12.2117 22.1636 12.2166 22.1221 12.219C27.4643 12.285 31.7753 16.6301 31.7753 21.9871C31.7753 27.344 27.4643 31.6891 22.1221 31.7551C22.1636 31.7551 22.2027 31.7625 22.2443 31.7625C27.6427 31.7625 32.0197 27.3855 32.0197 21.9871C32.0197 16.5886 27.6427 12.2117 22.2443 12.2117Z" fill="#3E2723"/>
<path d="M30.5535 27.197C31.3844 25.7601 31.8659 24.0982 31.8659 22.3191C31.8659 21.2878 31.7046 20.2956 31.4089 19.3645C31.641 20.2003 31.7754 21.0776 31.7754 21.9868C31.7754 23.7659 31.294 25.4277 30.4631 26.8647L30.468 26.8744L20.9663 43.4926H21.2498L30.5584 27.2068L30.5535 27.197Z" fill="white" fill-opacity="0.2"/>
<path d="M22 0.726318C33.8356 0.726318 43.4374 10.2891 43.5034 22.11C43.5034 22.0684 43.5059 22.0293 43.5059 21.9878C43.5059 10.1107 33.8771 0.481934 22 0.481934C10.1229 0.481934 0.494141 10.1107 0.494141 21.9878C0.494141 22.0293 0.496585 22.0684 0.496585 22.11C0.562568 10.2891 10.1644 0.726318 22 0.726318Z" fill="white" fill-opacity="0.2"/>
<path d="M22 43.2482C33.8356 43.2482 43.4374 33.6854 43.5034 21.8645C43.5034 21.906 43.5059 21.9451 43.5059 21.9867C43.5059 33.8638 33.8771 43.4926 22 43.4926C10.1229 43.4926 0.494141 33.8638 0.494141 21.9867C0.494141 21.9451 0.496585 21.906 0.496585 21.8645C0.562568 33.6854 10.1644 43.2482 22 43.2482Z" fill="#3E2723" fill-opacity="0.15"/>
<path d="M22 43.4937C33.8774 43.4937 43.5059 33.8652 43.5059 21.9878C43.5059 10.1104 33.8774 0.481934 22 0.481934C10.1226 0.481934 0.494141 10.1104 0.494141 21.9878C0.494141 33.8652 10.1226 43.4937 22 43.4937Z" fill="url(#paint8_radial)"/>
<path d="M22.0001 12.2124L30.468 26.8755L20.9663 43.4937H43.5059V12.2124H22.0001Z" fill="#FFCD40"/>
<path d="M22.0001 12.2124L30.468 26.8755L20.9663 43.4937H43.5059V12.2124H22.0001Z" fill="url(#paint9_linear)"/>
<path d="M22 31.7632C27.3988 31.7632 31.7754 27.3866 31.7754 21.9878C31.7754 16.589 27.3988 12.2124 22 12.2124C16.6012 12.2124 12.2246 16.589 12.2246 21.9878C12.2246 27.3866 16.6012 31.7632 22 31.7632Z" fill="#F1F1F1"/>
<path d="M21.9995 29.8081C26.3186 29.8081 29.8198 26.3068 29.8198 21.9878C29.8198 17.6688 26.3186 14.1675 21.9995 14.1675C17.6805 14.1675 14.1792 17.6688 14.1792 21.9878C14.1792 26.3068 17.6805 29.8081 21.9995 29.8081Z" fill="#4285F4"/>
</g>
<defs>
<linearGradient id="paint0_linear" x1="5.70761" y1="16.8608" x2="18.5378" y2="9.3663" gradientUnits="userSpaceOnUse">
<stop stop-color="#A52714" stop-opacity="0.6"/>
<stop offset="0.66" stop-color="#A52714" stop-opacity="0"/>
</linearGradient>
<linearGradient id="paint1_linear" x1="25.6345" y1="38.7261" x2="11.3785" y2="30.3764" gradientUnits="userSpaceOnUse">
<stop stop-color="#055524" stop-opacity="0.4"/>
<stop offset="0.33" stop-color="#055524" stop-opacity="0"/>
</linearGradient>
<linearGradient id="paint2_linear" x1="28.3194" y1="10.6982" x2="31.9091" y2="26.4185" gradientUnits="userSpaceOnUse">
<stop stop-color="#EA6100" stop-opacity="0.3"/>
<stop offset="0.66" stop-color="#EA6100" stop-opacity="0"/>
</linearGradient>
<linearGradient id="paint3_linear" x1="5.70761" y1="16.8608" x2="18.5378" y2="9.3663" gradientUnits="userSpaceOnUse">
<stop stop-color="#A52714" stop-opacity="0.6"/>
<stop offset="0.66" stop-color="#A52714" stop-opacity="0"/>
</linearGradient>
<radialGradient id="paint4_radial" cx="0" cy="0" r="1" gradientUnits="userSpaceOnUse" gradientTransform="translate(21.0655 12.1997) scale(20.5474)">
<stop stop-color="#3E2723" stop-opacity="0.2"/>
<stop offset="1" stop-color="#3E2723" stop-opacity="0"/>
</radialGradient>
<linearGradient id="paint5_linear" x1="25.6345" y1="38.7261" x2="11.3785" y2="30.3764" gradientUnits="userSpaceOnUse">
<stop stop-color="#055524" stop-opacity="0.4"/>
<stop offset="0.33" stop-color="#055524" stop-opacity="0"/>
</linearGradient>
<radialGradient id="paint6_radial" cx="0" cy="0" r="1" gradientUnits="userSpaceOnUse" gradientTransform="translate(3.88499 10.3841) scale(19.0728)">
<stop stop-color="#3E2723" stop-opacity="0.2"/>
<stop offset="1" stop-color="#3E2723" stop-opacity="0"/>
</radialGradient>
<radialGradient id="paint7_radial" cx="0" cy="0" r="1" gradientUnits="userSpaceOnUse" gradientTransform="translate(21.9619 22.0206) scale(21.4741)">
<stop stop-color="#263238" stop-opacity="0.2"/>
<stop offset="1" stop-color="#263238" stop-opacity="0"/>
</radialGradient>
<radialGradient id="paint8_radial" cx="0" cy="0" r="1" gradientUnits="userSpaceOnUse" gradientTransform="translate(6.91804 6.35059) scale(43.194)">
<stop stop-color="white" stop-opacity="0.1"/>
<stop offset="1" stop-color="white" stop-opacity="0"/>
</radialGradient>
<linearGradient id="paint9_linear" x1="28.3194" y1="10.6982" x2="31.9091" y2="26.4185" gradientUnits="userSpaceOnUse">
<stop stop-color="#EA6100" stop-opacity="0.3"/>
<stop offset="0.66" stop-color="#EA6100" stop-opacity="0"/>
</linearGradient>
<clipPath id="clip10">
<rect x="0.494141" y="0.481934" width="43.0117" height="43.0117" rx="21.5059" fill="white"/>
</clipPath>
</defs>
</svg>
