<svg width="37" height="36" viewBox="0 0 37 36" fill="none" xmlns="http://www.w3.org/2000/svg">
<g clip-path="url(#clip9)">
<path fill-rule="evenodd" clip-rule="evenodd" d="M17.4103 7.00008L10.7032 0.292969L9.28899 1.70718L13.5819 6.00008H0.996094V8.00008H13.5819L9.28899 12.293L10.7032 13.7072L17.4103 7.00008ZM36.9961 20.0328V17H7.99609V20.0328L22.4961 28.4029L36.9961 20.0328ZM20.0794 29.5194V32.3747H24.9128V29.5182L36.9961 22.5437V33.583C36.9961 34.917 35.9146 35.9997 34.5794 35.9997H10.4128C9.07876 35.9997 7.99609 34.917 7.99609 33.583V22.5449L20.0794 29.5194ZM25.9961 12L28.9961 14.9997H15.9961L18.9961 12H25.9961Z" fill="#EC231A"/>
</g>
<defs>
<clipPath id="clip9">
<path d="M0.996094 0H36.9961V36H0.996094V0Z" fill="white"/>
</clipPath>
</defs>
</svg>
