<svg width="41" height="36" viewBox="0 0 41 36" fill="none" xmlns="http://www.w3.org/2000/svg">
<g>
<path d="M40.9971 32C40.9971 33.657 39.6531 35 37.9971 35H3.99707C2.34107 35 0.99707 33.657 0.99707 32H16.42L16.9971 33H24.9971L25.5741 32H40.9971ZM37.9971 6V27C37.9971 28.656 36.6531 30 34.9971 30H6.99707C5.34107 30 3.99707 28.656 3.99707 27V6H37.9971ZM12.9971 15H10.9971V22H12.9971V15ZM18.9971 13H16.9971V20H18.9971V13ZM24.9971 15H22.9971V22H24.9971V15ZM30.9971 11H28.9971V18H30.9971V11Z" fill="#EC231A"/>
</g>
<defs>
<clipPath id="clip0">
<path d="M0.998047 0H40.998V36H0.998047V0Z" fill="white"/>
</clipPath>
</defs>
</svg>
