<svg width="70" height="33" viewBox="0 0 70 33" fill="none" xmlns="http://www.w3.org/2000/svg">
<path fill-rule="evenodd" clip-rule="evenodd" d="M13.0107 16.024H9.00705V4.00732H13.0107V16.024ZM21.0188 25.3623H17.017V8.01137H21.0188V25.3623ZM53.0512 22.6929H49.0471V6.67675H53.0512V22.6929ZM69.0674 16.0241H65.0633V6.67675H69.0674V16.0241ZM61.0593 29.3664H57.0552V12.0155H61.0593V29.3664ZM5.00259 25.3623H3.18233H0.998535V16.024H5.00259V25.3623Z" fill="#E1E1E1"/>
<path fill-rule="evenodd" clip-rule="evenodd" d="M45.0432 32.0363H41.0392V12.0161H45.0432V32.0363ZM29.027 8.01201H25.0229V0.00390625H29.027V8.01201ZM29.027 32.0363H25.0229V12.0161H29.027V32.0363ZM37.0351 32.0363H33.0311V0.00390625H37.0351V32.0363ZM45.0432 8.01201H41.0392V0.00390625H45.0432V8.01201Z" fill="#7A53B2"/>
</svg>
