<svg width="28" height="32" viewBox="0 0 28 32" fill="none" xmlns="http://www.w3.org/2000/svg">
<path d="M23.171 21C21.745 25.124 18.623 28 15 28C11.091 28 7.76499 24.653 6.52499 20H15L16.732 17H6.03799C6.01699 16.67 6 16.338 6 16C6 15.662 6.01799 15.33 6.03799 15H15L16.732 12H6.52399C7.76399 7.347 11.09 4 14.999 4C18.622 4 21.744 6.876 23.17 11H27.34C25.629 4.621 20.748 0 14.999 0C8.95499 0 3.875 5.11 2.427 12H0V15H2.04099C2.02399 15.332 2 15.662 2 16C2 16.338 2.02399 16.668 2.04099 17H0V20H2.42801C3.87701 26.89 8.956 32 15 32C20.749 32 25.63 27.379 27.341 21H23.171Z" fill="#DDDDDD"/>
</svg>
