<svg width="37" height="36" viewBox="0 0 37 36" fill="none" xmlns="http://www.w3.org/2000/svg">
<g>
<path d="M6.99847 25.3921L4.06445 25.9091L0.939453 8.18213L27.5295 3.49414L29.0295 12.0021H6.99847V25.3921ZM35.9985 14.0011V32.0011H8.99847V14.0011H35.9985ZM33.9985 23.0011C33.9985 21.5241 33.1885 20.2491 31.9985 19.5561V18.0011H25.9455C25.2525 16.8111 23.9765 16.0011 22.5005 16.0011C21.0245 16.0011 19.7485 16.8111 19.0555 18.0011H12.9985V19.5561C11.8085 20.2491 10.9985 21.5251 10.9985 23.0011C10.9985 24.4771 11.8085 25.7531 12.9985 26.4461V28.0011H19.0555C19.7485 29.1911 21.0245 30.0011 22.5005 30.0011C23.9765 30.0011 25.2525 29.1911 25.9455 28.0011H31.9985V26.4461C33.1885 25.7531 33.9985 24.4781 33.9985 23.0011Z" fill="#EC231A"/>
</g>
<defs>
<clipPath id="clip0">
<path d="M0.998047 0H36.998V36H0.998047V0Z" fill="white"/>
</clipPath>
</defs>
</svg>
