<svg width="22" height="30" viewBox="0 0 22 30" fill="none" xmlns="http://www.w3.org/2000/svg">
<path d="M14.3266 13.5484V16.9335H7.61127V22.5077C7.61127 23.821 7.27316 25.0548 6.68577 26.129H21.0124V30H0.308499C0.308499 30 0.30468 30 0 30V26.129C2.27316 26.129 3.8768 24.5042 3.8768 22.5077V16.9335H0V13.5484H3.8768V9.19355C3.8768 4.12452 7.94748 0 12.9503 0C17.7918 0 21.7498 3.86613 22 8.70968H18.1796C17.937 6.00097 15.6858 3.87097 12.9503 3.87097C10.0544 3.87097 7.61127 6.25936 7.61127 9.19355V13.5484H14.3266Z" fill="#DDDDDD"/>
</svg>
