<svg xmlns="http://www.w3.org/2000/svg" width="150" height="64" fill="none">
  <path fill="#868686" fill-rule="evenodd" d="M0 1.74522C0 1.26835.370892.897461.847753.897461c.476867 0 .847757.423879.847757.900739v60.3495c0 .4769-.37089.8478-.847757.8478C.370892 62.9955 0 62.6246 0 62.1477V1.74522zM49.5938 23.6814c-.4768 0-.8477.3709-.8477.8478v14.8886c0 .4769.3709.8478.8477.8478.4769 0 .8478-.3709.8478-.8478V24.5821c0-.4768-.3709-.9007-.8478-.9007zM13.9883 39.4178V23.7344h8.0007c1.0055 0 2.1584.4998 2.9671 1.0597.4769.3709.9007.8477 1.2716 1.4306.5299.7417.7948 1.8014.7948 3.0731 0 .9537-.2119 1.8014-.5828 2.4902-.3709.7948-.9538 1.2717-1.5366 1.6426-.4239.3179-.9007.4768-1.2716.5828-.5828.159-1.1657.2649-1.7485.2649h-6.1992v5.1395c0 .4769-.3709.8478-.8478.8478-.4768 0-.8477-.3709-.8477-.8478zm8.6895-13.776c-.4239-.1059-.6888-.1059-.6888-.1059h-6.0403v7.0469H22.0419c.0954-.0106.1908-.0191.2862-.0275.3815-.0339.7629-.0679 1.1444-.2374.4769-.2119.9008-.4239 1.1657-.6888.2119-.2119.3709-.4239.4769-.6888.1589-.3709.2649-.8478.2649-1.5366 0-1.1656-.212-1.9604-.5829-2.4373-.4238-.5828-.7947-.8477-1.2716-1.0596-.1568-.0941-.3322-.1325-.5042-.1702-.1185-.0259-.2354-.0515-.3435-.0948zm9.537 13.829c0 .4769-.3709.8478-.8477.8478-.5829 0-1.0067-.4239-1.0067-.9008V23.7344h8.0006c1.0959 0 2.2901.4442 3.1791 1.0597.4769.3709.9007.8477 1.2716 1.4306.5299.7417.7948 1.8014.7948 3.0731 0 .6888-.053 1.2716-.2649 1.8544l-.0181.0398c-.2566.5648-.4672 1.0284-.8297 1.3908-.6888.8478-1.5895 1.2716-2.4373 1.5366-.1059 0-.1722.0265-.2384.0529-.0662.0265-.1325.053-.2384.053l4.6096 4.6097c.3709.3179.3709.9007 0 1.2716-.3179.3709-.9007.3709-1.2716 0l-5.7753-5.7753h-4.9276v5.1395zm9.0074-12.5044c-.6478-.8907-1.701-1.4305-2.8082-1.4305h-6.0932v7.0999H38.52c.4239 0 .7948 0 1.2716-.2119.3709-.106.9008-.4239 1.1657-.6888.2009-.134.296-.3103.3923-.4887.0561-.104.1125-.2086.1905-.3061.159-.3709.2649-.8478.2649-1.5366 0-1.1656-.2119-1.9604-.5828-2.4373zm14.518 12.5574V24.6351c0-.6141.6719-1.1144 1.3246-.5828l7.8948 7.8417 7.8417-7.8417c.6108-.5629 1.5365-.0225 1.5365.6358v14.9947c0 .4768-.3709.8477-.8477.8477-.4769 0-.8478-.3709-.8478-.8477V26.8605l-6.9939 6.941c-.3179.3709-.9008.3709-1.2717 0l-6.941-6.941v12.6633c0 .4769-.3709.8478-.8477.8478-.4769 0-.8478-.3709-.8478-.8478zm35.5518-13.988c.4769 0 .8478-.3709.8478-.8477 0-.4769-.3709-.8478-.8478-.8478H78.4697v16.6372H91.292c.4769 0 .8478-.3709.8478-.8477 0-.4769-.3709-.8478-.8478-.8478H80.2712v-5.6164h8.6895c.4768 0 .8477-.3709.8477-.8477 0-.4769-.3709-.8478-.8477-.8478h-8.6895v-5.9343H91.292z" clip-rule="evenodd"/>
  <path fill="#BEBEBE" fill-rule="evenodd" d="M57.613 56.8498c-.0662.0265-.1324.053-.2384.053l4.3447 4.6627c.3709.3179.3709.9007 0 1.2716-.3179.3709-.9007.3709-1.2716 0l-5.7753-5.7753h-4.8216v5.1395c0 .4768-.3709.8477-.8478.8477-.4768 0-.8477-.3709-.8477-.8477V46.5178h8.0007c.1059 0 .5828 0 1.1656.106.5828.053 1.3246.3709 2.0134.8477.4769.3709.9008.8478 1.2717 1.4306.5298.7418.7947 1.8015.7947 3.0731 0 .6888-.053 1.2717-.2649 1.8545l-.018.0397c-.2567.5648-.4673 1.0285-.8297 1.3909-.6888.8477-1.5896 1.2716-2.4373 1.5365-.106 0-.1722.0265-.2385.053zm-7.5503-8.4245v6.835c.8478 0 2.4903 0 6.3052.2649.4239 0 .7948 0 1.2716-.2119.3709-.106.9008-.4239 1.1657-.6888.2009-.134.296-.3103.3923-.4887.0561-.1039.1125-.2086.1905-.3061.159-.3709.2649-.8478.2649-1.5366 0-1.1656-.2119-1.9604-.5828-2.4372-.4239-.5829-.7948-.8478-1.2716-1.0597-.1568-.0941-.3322-.1325-.5042-.1702-.1185-.0259-.2355-.0515-.3436-.0948-.4238-.1059-.6888-.1059-.6888-.1059h-6.1992zm-23.8957.6888c.5298.7418.7947 1.8015.7947 3.0731 0 .6358-.053 1.2186-.3709 1.9604l-.018.0397c-.2566.5648-.4673 1.0285-.8297 1.3909-.6888.8478-1.5896 1.2716-2.4373 1.5366-.5828.1059-1.1657.2119-1.6425.2119h-6.1992v5.1395c0 .4769-.3709.8478-.8478.8478s-.8477-.3709-.8477-.8478V46.7298h7.9477c.0654 0 .2726.0202.5589.0482.177.0173.3841.0375.6067.0577.5828.053 1.3246.3709 2.0134.8478.4769.3709.9008.8477 1.2717 1.4306zm-1.5152 4.8097c.0561-.1039.1126-.2085.1905-.306.212-.3709.318-.8478.3709-1.3246 0-1.1657-.2119-1.9605-.5828-2.4373-.4239-.5829-.7948-.8478-1.2716-1.0597-.1568-.0941-.3322-.1325-.5042-.1702-.1186-.0259-.2355-.0515-.3436-.0948-.4239-.1059-.6888-.1059-.6888-.1059H15.623v6.888H21.8222c.4239 0 .7948 0 1.2717-.212.3708-.1059.9007-.4238 1.1656-.6888.2009-.1339.296-.3102.3923-.4887zm103.9352 3.085c.105 0 .172-.0265.238-.053s.132-.053.238-.053c.848-.2649 1.749-.6888 2.438-1.5366.362-.3624.573-.826.829-1.3909l.018-.0396c.212-.5829.265-1.1657.265-1.8545 0-1.2716-.265-2.3313-.794-3.0731-.371-.5828-.795-1.0597-1.272-1.4306-.689-.4769-1.431-.7948-2.013-.8477-.223-.0203-.43-.0405-.607-.0578-.287-.028-.494-.0482-.559-.0482h-8.001v15.7364c0 .4769.371.8478.848.8478s.848-.3709.848-.8478v-5.1395h4.821l5.776 5.7753c.371.3709.953.3709 1.271 0 .371-.3709.371-.9537 0-1.2716l-4.344-4.7156zm-7.524-1.7485v-6.835h6.517s.265 0 .689.1059c.108.0433.225.0689.343.0948.172.0377.348.0761.504.1701.477.212.848.4769 1.272 1.0597.371.4769.583 1.2717.583 2.4373 0 .6888-.106 1.1657-.265 1.5366-.078.0974-.135.2021-.191.3059-.096.1785-.191.3549-.392.4889-.265.2649-.795.5828-1.166.6888-.476.2119-.847.2119-1.271.2119h-6.623v-.2649zm-5.298-7.6828c0 .4769-.371.8478-.848.8478h-11.021v5.8283h8.69c.477 0 .847.3709.847.8477 0 .4769-.37.8478-.847.8478h-8.69v5.6164h11.021c.477 0 .848.3709.848.8477 0 .4769-.371.8478-.848.8478h-12.822V46.7298h12.822c.477 0 .848.3709.848.8477zm-36.8787-1.0067H64.1036c-.4768 0-.8477.3709-.8477.8478 0 .4768.3709.8477.8477.8477h6.4641v13.776c0 .4769.3709.8478.8478.8478s.8477-.3709.8477-.8478v-13.617h6.4642c.4768 0 .8477-.3709.8477-.8478s-.1059-1.0067-.6888-1.0067zM149.251 56.32c.423.3709.582.9537.688 1.5365 0 .0606.009.1168.019.1811.133.8669-.141 1.7943-.496 2.5741l-.045.0681c-.308.4633-.671 1.0091-1.226 1.3625-1.166.9008-2.808 1.3776-4.928 1.3776-1.695 0-3.762-.3709-6.252-1.1656-.477-.212-.795-.6888-.583-1.1657.212-.4769.689-.7948 1.166-.5828 2.278.7947 4.133 1.0597 5.669 1.0597 1.431 0 2.385-.212 3.179-.5829.742-.4238 1.219-.7947 1.431-1.2716.106-.2649.212-.5828.212-.8478v-.2649c0-.3179-.053-.5828-.265-.7947-.082-.246-.291-.3968-.504-.5507-.062-.0449-.125-.0903-.185-.1381-.583-.4239-1.483-.6888-2.437-.7948-.319-.0608-.651-.1215-.99-.1835-.843-.1543-1.729-.3163-2.56-.5053l-.167-.0605c-1.1-.3994-2.099-.7622-2.906-1.3171-.583-.3709-1.113-.8478-1.378-1.5366-.159-.3709-.265-.7947-.265-1.1656v-.212c0-.8477.212-1.6425.689-2.2253.477-.6358 1.06-1.0597 1.749-1.4306 1.324-.6888 2.967-.9537 4.609-.9537 1.06 0 2.12.1059 3.073.2649.954.1589 1.802.4768 2.491.9537.37.3179.529.9008.264 1.2716-.317.3709-.9.5299-1.271.265-.371-.3179-1.113-.5829-1.908-.7948-.741-.159-1.748-.2649-2.596-.2649-.795 0-1.642 0-2.331.2119-.795.106-1.378.4239-1.855.6888-.214.1432-.357.3105-.492.4693-.064.0764-.128.1507-.196.2195-.265.3179-.371.6888-.371 1.1657v.1059c0 .212 0 .3709.212.5829.041.0411.082.0843.124.1287.176.1841.372.3893.67.5601.742.4768 1.802.9007 3.074 1.1656.68.1458 1.494.247 2.278.3445l.212.0264c.848.106 1.695.3179 2.49.6888.742.3709 1.431.8478 1.908 1.5366zm-51.5019-9.7492c-.4769 0-.8478.3709-.8478.8478V59.87L83.9731 46.8357c-.2649-.2649-.6888-.3709-.9537-.2119-.3709.106-.5829.4768-.5829.8477v14.7828c0 .4768.3709.8477.8478.8477.4768 0 .8477-.3709.8477-.8477V49.6969l12.9283 13.1402c.2649.2649.6888.3709.9537.2119.2649-.1589.5828-.4768.5828-.8477V47.4186c.106-.4769-.3708-.8478-.8477-.8478zm-61.727.106c.3179 0 .5828.2119.7947.4769l8.6365 14.6767c.3179.4769.212 1.0067-.2649 1.2716-.4769.3179-1.0067.212-1.2716-.2649l-2.1194-3.55H30.1937l-2.1193 3.55c-.3179.3709-.9008.5298-1.2717.2649-.3709-.3179-.5298-.7947-.2649-1.2716l8.6895-14.6767c.2119-.265.5298-.4769.7948-.4769zm0 2.8082l-4.7157 7.8947h9.4313l-4.7156-7.8947z" clip-rule="evenodd"/>
  <path fill="#B0B0B0" fill-rule="evenodd" d="M21.4058 17.2173c2.2253 0 4.1328-.8478 5.6163-2.2254l.2649-.2649-.1059-6.35818h-5.6694c-.4768 0-.8477.37089-.8477.84775 0 .47687.3709.84773.8477.84773h3.8679v3.7619c-1.1657.9538-2.4903 1.5366-4.0798 1.5366-1.7485 0-3.391-.6888-4.5567-1.9075-1.1657-1.1656-1.8545-2.8081-1.8545-4.55663 0-1.7485.6888-3.39102 1.8545-4.55668 1.1657-1.16567 2.8082-1.85446 4.5567-1.90745 1.7485 0 3.285.6888 4.4507 1.85446.3709.3709.9537.3709 1.2716 0 .3709-.37089.3709-.95372 0-1.27163-1.4306-1.43058-3.497-2.437292-5.7753-2.437292-2.2783 0-4.3447.953722-5.7753 2.437292-1.4306 1.43059-2.4373 3.54997-2.4373 5.8813 0 2.33133.9537 4.34473 2.4373 5.88133 1.5895 1.4835 3.6029 2.4373 5.9343 2.4373zM60.1911 14.78c-1.4306 1.4835-3.444 2.4373-5.7754 2.4373-2.2253 0-4.2387-.9538-5.7753-2.4373-1.4836-1.5366-2.4373-3.55-2.4373-5.88133 0-2.33133 1.0067-4.39773 2.4373-5.8813C50.071 1.5338 52.0844.580078 54.4157.580078c2.2254 0 4.3448 1.006712 5.7754 2.437292 1.4835 1.53656 2.4373 3.54997 2.4373 5.8813 0 2.33133-1.0067 4.45073-2.4373 5.88133zM54.5217 2.48752c-1.7485.05299-3.391.74179-4.5567 1.90745-1.1656 1.16566-1.9074 2.80819-1.8544 4.55668 0 1.74845.6888 3.39105 1.8544 4.55665 1.1657 1.2187 2.8082 1.9075 4.5567 1.9075 1.7485-.053 3.391-.7418 4.5567-1.9075 1.1657-1.1656 1.8545-2.8082 1.8545-4.55665 0-1.74849-.6888-3.39102-1.8545-4.55668-1.1657-1.21864-2.8082-1.90745-4.5567-1.90745zm39.2609-1.21864l8.6894 14.78272c.212.5298.106 1.0067-.212 1.2716-.477.3179-1.007.212-1.271-.2649l-2.2258-3.6559H87.2655l-2.2253 3.6559c-.3179.3709-.7948.5299-1.2717.2649-.3708-.3179-.5298-.7947-.2649-1.2716l8.6895-14.78272c.2119-.26492.5298-.476857.7948-.476857.3179 0 .5828.211937.7947.476857zm-.9007 2.33133l-4.6097 7.84169h9.2194l-4.6097-7.84169zM45.0369 16.4755c0 .4768-.3709.8477-.8478.8477H32.2676V1.9047c0-.47686.3709-.84775.8477-.84775.4769 0 .8478.37089.8478.84775v13.723h10.226c.4769 0 .8478.3709.8478.8478zm72.5891-.9008h-10.332V1.69275c0-.47686-.371-.847749-.848-.847749-.476 0-.847.370889-.847.847749V17.4292h12.186c.477 0 .848-.3709.848-.8478 0-.4768-.424-1.0067-1.007-1.0067zm-38.785 1.2717c-1.1657.4768-2.2253.5828-2.3313.5828h-9.9081V.950989h9.5372c.2649 0 .8477 0 1.4306.105971.0631.02103.1267.04207.1908.06326.5817.19231 1.2022.39743 1.8226.73151.4769.31791.9007.6888 1.2716 1.16566.5299.58283.7948 1.48357.7948 2.43729-.0191.10483-.0364.20623-.0533.30482-.0769.44955-.1438.84064-.3176 1.23174-.2119.47686-.5298.90074-.7948 1.16566-.1674.20095-.3984.33839-.6126.46584-.1246.07418-.2436.14499-.3411.22296.1259.03148.1957.08166.2761.13943.0549.03947.1147.08248.2008.12549.3709.31791.6888.6888.9537 1.16568.3709.6888.5828 1.4836.5828 2.3313v.3709c-.1059 1.0597-.4768 1.9074-.9537 2.4903-.4769.6888-1.1657 1.1127-1.7485 1.3776zm.9007-11.4447c0-1.81851-1.6411-2.64923-3.6559-2.64923h-7.8417v5.19249h7.8947c1.3893 0 3.6029-.72475 3.6029-2.54326zm-4.8745 4.29176h-6.5701v5.98724h8.0536c.0439 0 .0969-.0182.159-.0395.0878-.0301.1937-.0664.3179-.0664.0323-.0081.0649-.0162.0979-.0244.3987-.0987.8392-.2078 1.2797-.4525.3179-.212.5828-.4239.7948-.6888.3179-.3709.4768-.7418.5828-1.4306v-.2649c0-.4769-.106-.9008-.2119-1.1657-.106-.3179-.265-.5828-.4769-.7948-.3709-.3708-.9537-.6358-1.5366-.84771-.3709-.21194-.7417-.21193-.9537-.21193H74.8672z" clip-rule="evenodd"/>
</svg>