<svg width="32" height="32" viewBox="0 0 32 32" fill="none" xmlns="http://www.w3.org/2000/svg">
<path d="M15.9993 13.3333C14.5261 13.3333 13.3328 14.528 13.3328 16C13.3328 17.472 14.5261 18.6667 15.9993 18.6667C17.4713 18.6667 18.6659 17.472 18.6659 16C18.6659 14.528 17.4726 13.3333 15.9993 13.3333ZM17.1993 9.33333L17.8286 1.99198C17.9233 0.891984 17.1046 0 15.9993 0C14.894 0 14.0767 0.891984 14.1701 1.99198L14.7994 9.33333H17.1993ZM10.4396 12.136L12.1355 10.4387L7.38903 4.80265C6.67706 3.95732 5.46777 3.90535 4.68647 4.68669C3.90517 5.46669 3.95717 6.67731 4.80246 7.38798L10.4396 12.136ZM9.33428 14.8L1.99326 14.1707C0.891968 14.076 0.00133477 14.896 1.49053e-06 16C-0.00133179 17.104 0.891968 17.924 1.99326 17.828L9.33428 17.2V14.8ZM4.8038 24.6093C3.9585 25.3227 3.90917 26.5307 4.6878 27.312C5.46911 28.096 6.67972 28.044 7.39036 27.196L12.1368 21.5613L10.4396 19.864L4.8038 24.6093ZM14.8007 22.6653L14.1701 30.0053C14.0767 31.108 14.8967 31.9973 15.998 32C17.1046 32 17.9246 31.108 17.8286 30.0053L17.2006 22.664L14.8007 22.6653ZM21.5618 19.8613L19.8658 21.56L24.611 27.196C25.3243 28.0413 26.5322 28.0907 27.3135 27.3147C28.0948 26.5307 28.0455 25.32 27.1962 24.6093L21.5618 19.8613ZM30.0041 14.1707L22.6644 14.7973V17.1987L30.0054 17.8293C31.1067 17.9227 31.9973 17.1027 32 16.0013C31.9987 14.8933 31.108 14.0733 30.0041 14.1707ZM27.1962 7.38798C28.0428 6.67598 28.0922 5.46668 27.3149 4.68534C26.5296 3.90401 25.3216 3.95332 24.611 4.80265L19.8632 10.4373L21.5604 12.1333L27.1962 7.38798Z" fill="#CCCCCC"/>
</svg>
