<svg width="48" height="48" viewBox="0 0 48 48" fill="none" xmlns="http://www.w3.org/2000/svg">
<path d="M0 24C0 37.2548 10.7452 48 24 48C37.2548 48 48 37.2548 48 24C48 10.7452 37.2548 0 24 0C10.7452 0 0 10.7452 0 24Z" fill="white"/>
<path d="M18.2371 12.8443C18.2371 14.2203 17.2021 15.3233 15.5381 15.3233H15.5071C13.9051 15.3243 12.8711 14.2193 12.8711 12.8443C12.8711 11.4353 13.9381 10.3623 15.5691 10.3623C17.2021 10.3613 18.2071 11.4353 18.2371 12.8443ZM13.1511 31.6373H17.9231V17.2843H13.1511V31.6373ZM29.6351 16.9483C27.1041 16.9483 25.9711 18.3383 25.3341 19.3183V19.3643H25.3031C25.3151 19.3503 25.3261 19.3343 25.3341 19.3183V17.2853H20.5631C20.6251 18.6303 20.5631 31.6383 20.5631 31.6383H25.3341V23.6223C25.3341 23.1903 25.3631 22.7673 25.4911 22.4583C25.8371 21.6043 26.6231 20.7113 27.9371 20.7113C29.6661 20.7113 30.3571 22.0303 30.3571 23.9583V31.6383H35.1281V23.4093C35.1291 18.9973 32.7731 16.9483 29.6351 16.9483Z" fill="#0E76A8"/>
</svg>
