<svg xmlns="http://www.w3.org/2000/svg" width="180" height="64" fill="none">
  <path fill="#868686" fill-rule="evenodd" d="M146.775 11.9598h-3.864V8.45435h3.864v3.50545zm-3.935 1.717h3.863V28.271h-3.863V13.6768zM43.9707 28.1995h4.0778V8.52588h-4.0778V28.1995zm20.818-9.801c0-1.8601-.5008-3.1478-1.4308-3.9348-1.0016-.7869-2.2178-1.1446-3.7917-1.2161-1.2877 0-2.2177.3577-3.0047.93-.4292.3577-.8584.93-1.3592 1.6454v-2.1462h-3.6486v14.5943h3.7917v-7.8695c0-.93.2146-1.6454.4292-2.2177.5008-1.0732 1.3593-1.6455 2.647-1.6455 1.0731 0 1.717.4293 2.1462 1.1447.1431.3577.2862.93.2862 1.7169v8.7995h3.9347v-9.801zm1.8607-1.8601v-2.7185h2.0031V9.74207h3.7917v4.07783h2.3608v2.7185h-2.3608v7.6548c0 .6439.0715.9301.2146 1.1447.1431.1431.6439.2146 1.4308.2146h.8585v2.7901l-1.9316.0715c-1.7885.0716-3.0762-.2146-3.6486-.93-.4292-.4292-.6438-1.1446-.6438-2.0031v-8.9426h-2.0747zm22.4638-.4292c-.7154-.9301-1.5739-1.717-2.5755-2.1462-1.0731-.4293-2.1462-.6439-3.5055-.5724-2.1462 0-3.8632.6439-5.2224 2.0032-1.3593 1.3592-2.0032 3.2193-2.0032 5.7947 0 2.647.7154 4.5786 2.2178 5.7948 1.5023 1.1447 3.2193 1.7885 5.1509 1.7885 2.4324 0 4.2209-.7154 5.5086-2.1462.8585-.93 1.2877-1.7885 1.4308-2.647H86.18c-.2146.4293-.5008.787-.7869 1.0016-.5008.4292-1.2162.6439-2.0747.6439-.787 0-1.5024-.2147-2.0747-.5724-.93-.5723-1.4308-1.5739-1.5023-3.0762h10.731c0-1.2162 0-2.2178-.143-2.8616-.2862-1.1447-.5724-2.1462-1.2162-3.0047zm-9.3003 3.4339c.0715-1.0016.4292-1.717 1.0016-2.2893.5723-.5723 1.2877-.8585 2.2893-.7869.93 0 1.6454.2861 2.2893.7869.5723.5723.93 1.2877 1.0015 2.2893h-6.5817zm20.8181-6.2241h.358v3.9347c-.108 0-.215-.0179-.322-.0358-.108-.0179-.215-.0357-.322-.0357h-.4295c-1.5023 0-2.5754.5007-3.0762 1.5023-.2862.5723-.4292 1.4308-.4292 2.5755v6.9394h-3.8632V13.6767h3.6485v2.5754c.5724-.93 1.0731-1.6454 1.5024-2.0031.7154-.6439 1.6454-.93 2.7902-.93h.143zm8.727 5.9976c-.133.0254-.276.0527-.429.0833h-1.288c-1.502.2146-2.575.5008-3.362.93-1.431.8585-2.075 2.1462-2.075 3.9348 0 1.4308.429 2.5039 1.288 3.2193.858.7154 2.003 1.1446 3.291 1.1446 1.073 0 1.931-.2861 2.79-.7154.644-.4292 1.287-.93 1.788-1.5023.034.1677.052.3196.068.4632v.0001c.02.1627.037.3147.075.4667.024.0954.04.1908.056.2862.032.1907.064.3815.159.5723h4.149v-.5723c-.214-.0716-.429-.2862-.572-.4293-.072-.1431-.215-.5008-.215-1.0015V17.826c0-1.7885-.643-2.9331-1.86-3.577-1.216-.5723-2.718-.93-4.292-.93-2.432 0-4.221.6438-5.223 1.9316-.643.8585-1.001 1.86-1.073 3.1477h3.649c.143-.5723.286-1.0015.572-1.3592.358-.4293 1.002-.6439 1.932-.6439.858 0 1.431.1431 1.86.3577.429.2146.644.5723.644 1.2162 0 .5008-.286.8585-.859 1.0731-.225.1125-.582.1808-1.073.2744zm1.574 2.0149c.125-.0715.25-.1431.358-.2146l.071 1.5023c0 1.2878-.429 2.1462-1.073 2.647-.715.5008-1.431.7154-2.289.7154-.572 0-1.002-.1431-1.359-.4292-.43-.2862-.573-.787-.573-1.4308 0-.7154.286-1.2877.93-1.6455.286-.143.93-.3577 1.717-.5007l.859-.1431c.183-.0611.353-.0961.505-.1272.203-.0419.373-.0769.496-.159.108-.0715.233-.1431.358-.2146zm16.098-2.4324c-.072-.5723-.215-1.0015-.573-1.5023-.429-.5723-1.073-.93-2.003-.93-1.288 0-2.146.6438-2.647 1.9315-.215.6439-.429 1.5739-.429 2.7186 0 1.0731.143 1.9316.429 2.5754.429 1.2162 1.288 1.7885 2.576 1.7885.93 0 1.502-.2146 1.931-.7154.429-.5007.644-1.1446.644-1.86h3.935c-.143 1.2162-.501 2.2893-1.216 3.2909-1.217 1.6454-2.934 2.5039-5.294 2.5039-2.361 0-4.078-.6439-5.223-2.0747-1.145-1.4308-1.645-3.2193-1.645-5.4371 0-2.5039.644-4.4355 1.788-5.7948 1.216-1.4308 2.862-2.0746 5.08-2.0746 1.788 0 3.362.4292 4.435 1.2162 1.145.8584 1.86 2.2893 2.075 4.3639h-3.863zm5.151-5.0792v2.7185h2.146v8.9426c0 .8585.214 1.5739.644 2.0031.572.7154 1.86 1.0016 3.648.93l1.86-.0715v-2.7901h-.858c-.787 0-1.288-.0715-1.431-.2146-.143-.2146-.215-.5008-.215-1.1447v-7.6548h2.361v-2.7185h-2.361V9.74207h-3.791v4.07783h-2.003zm31.048-.1431h-4.078l-3.076 10.731-3.077-10.731h-4.292l5.222 14.5942h4.007l5.294-14.5942zm11.089.2862c1.001.4292 1.86 1.2161 2.575 2.1462.644.8585.93 1.86 1.216 3.0047.143.6438.143 1.6454.143 2.8616h-10.659c.071 1.5023.572 2.5039 1.502 3.0762.573.3577 1.288.5724 2.075.5724.858 0 1.574-.2147 2.075-.6439.286-.2146.572-.5723.787-1.0016h3.934c-.143.8585-.572 1.717-1.431 2.647-1.287 1.4308-3.076 2.1462-5.508 2.1462-1.932 0-3.649-.6438-5.151-1.7885-1.502-1.2162-2.218-3.1478-2.218-5.7948 0-2.5754.644-4.4355 2.003-5.7947 1.36-1.3593 3.077-2.0032 5.223-2.0032 1.288-.0715 2.432.1431 3.434.5724zm-5.724 3.2908c-.572.5723-.93 1.2877-1.001 2.2893h6.582c-.072-1.0016-.43-1.717-1.002-2.2893-.644-.5008-1.359-.7869-2.289-.7869-.93-.0716-1.717.2146-2.29.7869zM44.1138 34.4255h8.4418c2.2893 0 3.9347.6439 4.9362 2.0032.5724.7869.8585 1.7169.8585 2.79 0 1.2162-.3577 2.2893-1.0731 3.0763-.3577.4292-.93.7869-1.5739 1.1446 1.0016.4293 1.717.787 2.2893 1.2878.9301.8584 1.2878 2.0031 1.2878 3.577 0 1.2162-.4293 2.4324-1.2162 3.4339-1.2162 1.5024-3.0763 2.2893-5.7233 2.2893h-8.3702V34.4255h.1431zm7.5117 8.2987c1.1447 0 2.0032-.1431 2.647-.4292 1.0016-.5008 1.5024-1.3593 1.5024-2.647 0-1.2877-.5008-2.1462-1.5739-2.5755-.6439-.2146-1.5024-.4292-2.647-.4292h-4.7932v6.0809h4.8647zm.8585 9.0857c1.6454 0 2.7901-.4293 3.5055-1.4308.4292-.6439.6439-1.2878.6439-2.1463 0-1.4308-.6439-2.3608-1.9316-2.9331-.6439-.2862-1.5739-.4293-2.7186-.4293h-5.294v6.8679l5.7948.0716zm33.5524-17.3844h2.2893V45.872l6.1525-6.0809h3.0762l-5.5086 5.294 5.7948 9.0141h-3.0763l-4.507-7.2972-2.0032 1.9316v5.3656h-2.2893l.0716-19.6737zm-4.3639 17.8851c1.1447-1.5023 1.717-3.4339 1.717-5.7232 0-2.3608-.7154-4.2209-1.9316-5.4371-1.2877-1.1446-2.8616-1.7885-4.7216-1.86-2.0747 0-3.6486.7154-4.8648 2.1462-1.1446 1.5023-1.7885 3.3624-1.7885 5.7948 0 2.2893.5723 4.0062 1.717 5.3655 1.1446 1.3593 2.647 2.0031 4.6501 2.0031 2.4324 0 4.0778-.7869 5.2224-2.2893zm-.8584-5.5801c0 1.4308-.3577 2.7901-.9301 4.0063-.5007 1.1446-1.5738 1.7885-3.1477 1.7885-1.4308 0-2.504-.5008-3.1478-1.5024-.6439-1.0016-1.0016-2.2893-1.0016-3.7916 0-1.5739.3577-2.9332 1.0016-4.0778.6438-1.1447 1.6454-1.717 3.1478-1.717 1.6454 0 2.7901.7154 3.4339 2.0031.4293.8585.6439 1.9316.6439 3.2909zm-16.3822-7.011h-2.2893v14.2876h2.4323v-7.992c0-1.0016.2862-1.9316.9301-2.7186.6439-.7869 1.5739-1.2162 2.7901-1.2162h.4292c.0715 0 .1431.0179.2146.0358h.0001c.0715.0179.143.0358.2145.0358v-2.5755c-.2861-.0715-.4292-.0715-.5723-.0715h-.2146c-1.0016 0-1.8601.3577-2.5755 1.0016-.7154.6438-1.2161 1.2161-1.3592 1.7169v-2.5039zm45.6421 2.2893c-.429-.787-1.216-1.4308-2.146-1.8601-1.002-.4292-1.932-.7154-3.076-.6438-2.003 0-3.649.7154-4.865 2.1462-1.2162 1.4308-1.86 3.2908-1.86 5.5801 0 2.3609.6438 4.1494 1.86 5.4371 1.216 1.2877 2.79 1.9316 4.507 1.9316.787 0 1.431-.0715 2.003-.2146 1.073-.2862 2.003-.787 2.719-1.5024.501-.3577.858-.93 1.216-1.5739.358-.5723.572-1.2162.644-1.7169h-2.361c-.215.7154-.501 1.2161-.93 1.7169-.715.787-1.789 1.2162-3.005 1.2162-1.287 0-2.289-.3577-2.933-1.2877-.572-.93-.93-2.0031-1.001-3.5055h10.373c0-1.4308-.072-2.5039-.215-3.1478-.143-1.0015-.501-1.86-.93-2.5754zm-1.931 1.2877c.286.6439.5 1.5023.643 2.5039l-7.94.0716c.071-1.2878.5-2.2893 1.216-3.0763.787-.7869 1.717-1.2162 2.79-1.2162 1.574 0 2.647.5008 3.291 1.717zm5.937-3.577h2.289v2.5039c.143-.5008.644-1.0731 1.36-1.7169.715-.6439 1.574-1.0016 2.575-1.0016h.215c.143 0 .286 0 .572.0715v2.5755c-.072 0-.143-.0179-.215-.0358-.071-.0179-.143-.0358-.214-.0358h-.429c-1.217 0-2.147.4293-2.791 1.2162-.643.787-.93 1.717-.93 2.7186v7.992h-2.432V39.7195zm11.162 11.7326c-.358-.4292-.573-1.0731-.644-1.86h-2.218c.143 1.5023.572 2.7185 1.502 3.6486.93 1.0015 2.433 1.5023 4.579 1.5023 1.931 0 3.505-.5008 4.435-1.4308 1.002-.93 1.503-2.0031 1.503-3.2909 0-1.2877-.501-2.2177-1.431-2.8616-.644-.3577-1.86-.7869-3.577-1.2162l-1.646-.4292c-.643-.1431-1.216-.3577-1.573-.5723-.573-.3577-.93-.8585-.93-1.5024 0-.5723.286-1.0016.715-1.3593.429-.3577 1.145-.5007 2.075-.5007 1.43 0 2.36.2861 2.933.93.357.5008.501.93.572 1.5023h2.289c0-.8584-.286-1.7885-.93-2.5754-.93-1.2877-2.504-1.9316-4.721-1.9316-1.717 0-3.077.3577-4.007 1.2162-1.001.8585-1.502 1.9316-1.502 3.2908 0 1.2162.501 2.0747 1.574 2.7186.644.3577 1.574.7154 2.79 1.0015l1.932.5008c1.001.2146 1.717.5008 2.074.6439.573.3577.859.7869.859 1.4308 0 .8585-.358 1.3593-1.002 1.7885-.715.4292-1.502.5723-2.432.5723-1.503 0-2.576-.4292-3.219-1.2162z" clip-rule="evenodd"/>
  <path fill="#7F7F7F" d="M0 54.0286V27.7617l23.9178 26.2669H0z"/>
  <path fill="#B0B0B0" d="M27.7588 34.1729c.0295-3.9511-3.1495-7.1779-7.1006-7.2074-3.951-.0295-7.1779 3.1496-7.2074 7.1006-.0294 3.951 3.1496 7.1779 7.1007 7.2074 3.951.0295 7.1778-3.1496 7.2073-7.1006zM0 27.7618v26.2668L23.9178 0 0 27.7618z"/>
</svg>