<svg width="88" height="51" viewBox="0 0 88 51" fill="none" xmlns="http://www.w3.org/2000/svg">
<path fill-rule="evenodd" clip-rule="evenodd" d="M62.4992 1C75.8631 1 86.728 11.6998 86.9942 25H87.9944C87.728 11.1475 76.4154 0 62.4992 0C52.9978 0 44.7101 5.1965 40.3232 12.9025L39.2523 6.82951L38.2675 7.00316L39.6567 14.8816L47.5352 13.4924L47.3615 12.5076L41.0686 13.6172C45.2501 6.09212 53.28 1 62.4992 1ZM84.3473 46.4727L83.2607 40.3103C78.6358 46.7817 71.0605 51 62.5 51C54.125 51 46.6929 46.962 42.0449 40.7289C39.4084 37.1932 36.4109 33.5017 32.9886 30.6952C29.5688 27.8906 25.7619 26 21.5 26H0V25H21.5C26.0747 25 30.0994 27.0325 33.6228 29.9219C37.1437 32.8094 40.2007 36.5829 42.8466 40.1311C47.314 46.122 54.4541 50 62.5 50C70.7398 50 78.0295 45.9324 82.4707 39.6956L76.2381 40.7946L76.0645 39.8098L83.9429 38.4206L85.3321 46.2991L84.3473 46.4727ZM62.5 38C69.4036 38 75 32.4036 75 25.5C75 18.5964 69.4036 13 62.5 13C55.5964 13 50 18.5964 50 25.5C50 32.4036 55.5964 38 62.5 38Z" fill="#F04F48"/>
</svg>
