<svg width="210" height="25" viewBox="0 0 210 25" fill="none" xmlns="http://www.w3.org/2000/svg">
<path fill-rule="evenodd" clip-rule="evenodd" d="M74.7681 14.9085C74.9739 13.8544 75.839 13 76.913 13H210V12H76.913C75.839 12 74.9739 11.1456 74.7681 10.0915C73.6455 4.34036 68.5796 0 62.5 0C55.5964 0 50 5.59644 50 12.5C50 19.4036 55.5964 25 62.5 25C68.5796 25 73.6455 20.6596 74.7681 14.9085ZM39.1588 13H0V12H39.2426L34.7509 7.50838L35.458 6.80127L40.7613 12.1046L41.1149 12.4581L40.7613 12.8117L35.458 18.115L34.7509 17.4079L39.1588 13Z" fill="#F04F48"/>
</svg>
