<svg width="668" height="51" viewBox="0 0 668 51" fill="none" xmlns="http://www.w3.org/2000/svg">
<path fill-rule="evenodd" clip-rule="evenodd" d="M24.7682 27.9085C24.9739 26.8544 25.8391 26 26.913 26H160V25H26.913C25.8391 25 24.9739 24.1456 24.7682 23.0915C23.6456 17.3404 18.5797 13 12.5 13C5.59643 13 0 18.5964 0 25.5C0 32.4036 5.59643 38 12.5 38C18.5797 38 23.6456 33.6596 24.7682 27.9085Z" fill="#F04F48"/>
<path fill-rule="evenodd" clip-rule="evenodd" d="M234.768 27.9085C234.974 26.8544 235.839 26 236.913 26H370V25H236.913C235.839 25 234.974 24.1456 234.768 23.0915C233.646 17.3404 228.58 13 222.5 13C215.596 13 210 18.5964 210 25.5C210 32.4036 215.596 38 222.5 38C228.58 38 233.646 33.6596 234.768 27.9085ZM199.159 26H160V25H199.243L194.751 20.5084L195.458 19.8013L200.761 25.1046L201.115 25.4581L200.761 25.8117L195.458 31.115L194.751 30.4079L199.159 26Z" fill="#F04F48"/>
<path fill-rule="evenodd" clip-rule="evenodd" d="M444.768 27.9085C444.974 26.8544 445.839 26 446.913 26H580V25H446.913C445.839 25 444.974 24.1456 444.768 23.0915C443.646 17.3404 438.58 13 432.5 13C425.596 13 420 18.5964 420 25.5C420 32.4036 425.596 38 432.5 38C438.58 38 443.646 33.6596 444.768 27.9085ZM409.159 26H370V25H409.243L404.751 20.5084L405.458 19.8013L410.761 25.1046L411.115 25.4581L410.761 25.8117L405.458 31.115L404.751 30.4079L409.159 26Z" fill="#F04F48"/>
<path fill-rule="evenodd" clip-rule="evenodd" d="M642.499 1C655.863 1 666.728 11.6998 666.994 25H667.994C667.728 11.1475 656.415 0 642.499 0C632.998 0 624.71 5.1965 620.323 12.9025L619.252 6.82951L618.268 7.00316L619.657 14.8816L627.535 13.4924L627.362 12.5076L621.069 13.6172C625.25 6.09212 633.28 1 642.499 1ZM664.347 46.4727L663.261 40.3103C658.636 46.7817 651.061 51 642.5 51C634.125 51 626.693 46.962 622.045 40.7289C619.408 37.1932 616.411 33.5017 612.989 30.6952C609.569 27.8906 605.762 26 601.5 26H580V25H601.5C606.075 25 610.099 27.0325 613.623 29.9219C617.144 32.8094 620.201 36.5829 622.847 40.1311C627.314 46.122 634.454 50 642.5 50C650.74 50 658.029 45.9324 662.471 39.6956L656.238 40.7946L656.064 39.8098L663.943 38.4206L665.332 46.2991L664.347 46.4727ZM642.5 38C649.404 38 655 32.4036 655 25.5C655 18.5964 649.404 13 642.5 13C635.596 13 630 18.5964 630 25.5C630 32.4036 635.596 38 642.5 38Z" fill="#F04F48"/>
</svg>
