<svg width="36" height="44" viewBox="0 0 36 44" fill="none" xmlns="http://www.w3.org/2000/svg">
<path d="M34.6397 15.0685C34.446 15.1898 29.8344 17.7492 29.8344 23.4238C30.0518 29.8954 35.654 32.165 35.7501 32.165C35.654 32.2863 34.9043 35.2567 32.6836 38.3704C30.9212 41.0526 28.965 43.7569 25.9946 43.7569C23.1691 43.7569 22.1548 41.9693 18.8946 41.9693C15.3934 41.9693 14.4027 43.7569 11.7221 43.7569C8.75167 43.7569 6.65064 40.9077 4.79216 38.2507C2.37771 34.7732 0.325508 29.3159 0.253059 24.0759C0.204234 21.2992 0.736579 18.5697 2.08792 16.2514C3.99522 13.0148 7.40034 10.8177 11.1189 10.7452C13.968 10.6491 16.5037 12.7013 18.2425 12.7013C19.9089 12.7013 23.0242 10.7452 26.549 10.7452C28.0704 10.7468 32.1276 11.2051 34.6397 15.0685ZM18.0016 10.1908C17.4944 7.65509 18.8946 5.11937 20.1987 3.50186C21.865 1.54573 24.4968 0.218018 26.7663 0.218018C26.9112 2.75374 25.993 5.24064 24.3519 7.05187C22.8793 9.00801 20.3436 10.4806 18.0016 10.1908Z" fill="#8C8C8C"/>
</svg>
