<svg width="35" height="36" viewBox="0 0 35 36" fill="none" xmlns="http://www.w3.org/2000/svg">
<g clip-path="url(#clip5)">
<path fill-rule="evenodd" clip-rule="evenodd" d="M0.998047 16.3956C0.998047 10.9499 0.998047 8.22699 2.07466 6.15443C2.9819 4.40791 4.40595 2.98386 6.15248 2.07661C8.22504 1 10.9479 1 16.3937 1H19.6024C25.0482 1 27.7711 1 29.8436 2.07661C31.5901 2.98386 33.0142 4.40791 33.9214 6.15443C34.998 8.22699 34.998 10.9499 34.998 16.3956V19.6044C34.998 25.0501 34.998 27.773 33.9214 29.8456C33.0142 31.5921 31.5901 33.0161 29.8436 33.9234C27.7711 35 25.0482 35 19.6024 35H16.3937C10.9479 35 8.22504 35 6.15248 33.9234C4.40595 33.0161 2.9819 31.5921 2.07466 29.8456C0.998047 27.773 0.998047 25.0501 0.998047 19.6044V16.3956ZM19.075 7.66888C19.827 6.78888 21.096 6.13187 22.143 6.08887C22.278 7.30987 21.788 8.53487 21.061 9.41687C20.332 10.2959 19.139 10.9819 17.969 10.8909C17.811 9.69587 18.401 8.44788 19.075 7.66888ZM25.038 24.3389C24.169 25.6079 23.268 26.8719 21.849 26.8999C21.1672 26.9116 20.7111 26.7141 20.2372 26.509C19.7408 26.2942 19.225 26.0709 18.41 26.0709C17.5568 26.0709 17.0169 26.3007 16.4966 26.5221C16.0454 26.714 15.609 26.8997 14.996 26.9239C13.627 26.9759 12.582 25.5519 11.707 24.2869C9.91799 21.7009 8.55099 16.9769 10.387 13.7889C11.299 12.2059 12.928 11.2039 14.698 11.1769C15.4614 11.1621 16.2007 11.4552 16.8476 11.7117C17.3413 11.9075 17.7812 12.0819 18.137 12.0819C18.4552 12.0819 18.8826 11.9134 19.3814 11.7167C20.1678 11.4066 21.1318 11.0265 22.125 11.1269C22.805 11.1559 24.711 11.4019 25.937 13.1939L25.9279 13.1994C25.7462 13.3098 23.6604 14.5774 23.6829 17.1579C23.7119 20.3031 26.4358 21.3558 26.4799 21.3729L26.4765 21.3841C26.4293 21.5393 26.0104 22.917 25.038 24.3389Z" fill="#EC231A"/>
</g>
<defs>
<clipPath id="clip5">
<path d="M0.998047 0H34.998V36H0.998047V0Z" fill="white"/>
</clipPath>
</defs>
</svg>
