<svg width="36" height="36" viewBox="0 0 36 36" fill="none" xmlns="http://www.w3.org/2000/svg">
<g clip-path="url(#clip4)">
<path d="M-0.00195312 8V2H35.998V8H-0.00195312ZM3.18005 4C2.62805 4 2.18005 4.448 2.18005 5C2.18005 5.552 2.62805 6 3.18005 6C3.73205 6 4.18005 5.552 4.18005 5C4.18005 4.448 3.73105 4 3.18005 4ZM7.18005 4C6.62805 4 6.18005 4.448 6.18005 5C6.18005 5.552 6.62805 6 7.18005 6C7.73205 6 8.18005 5.552 8.18005 5C8.18005 4.448 7.73105 4 7.18005 4ZM11.1801 4C10.6281 4 10.1801 4.448 10.1801 5C10.1801 5.552 10.6281 6 11.1801 6C11.7321 6 12.1801 5.552 12.1801 5C12.1801 4.448 11.7311 4 11.1801 4ZM-0.00195312 10V34H35.998V10H-0.00195312ZM19.549 27.363L18.135 25.949L22.084 22H9.99805V20H22.084L18.135 16.051L19.549 14.637L25.912 21L19.549 27.363Z" fill="#EC231A"/>
</g>
<defs>
<clipPath id="clip4">
<path d="M-0.000976562 0H35.998V36H-0.000976562V0Z" fill="white"/>
</clipPath>
</defs>
</svg>
