<svg width="310" height="141" viewBox="0 0 310 141" fill="none" xmlns="http://www.w3.org/2000/svg">
<rect y="0.00439453" width="310" height="140" fill="#EC231A"/>
<path d="M186.569 97.3444C185.556 97.3444 184.612 97.1631 183.735 96.8004C182.874 96.4377 182.118 95.9087 181.468 95.2136C180.834 94.5184 180.327 93.6646 179.95 92.652C179.587 91.6244 179.405 90.4532 179.405 89.1384C179.405 87.8236 179.602 86.66 179.995 85.6474C180.403 84.6198 180.939 83.7584 181.604 83.0632C182.269 82.368 183.04 81.8467 183.917 81.4991C184.793 81.1364 185.707 80.955 186.659 80.955C187.249 80.955 187.785 80.9928 188.269 81.0684C188.752 81.1439 189.176 81.2422 189.538 81.3631C189.901 81.4688 190.211 81.5822 190.468 81.7031C190.725 81.8089 190.921 81.9071 191.057 81.9978L190.558 83.3352C190.181 83.1085 189.697 82.8894 189.108 82.6778C188.533 82.4511 187.816 82.3378 186.954 82.3378C185.972 82.3378 185.11 82.504 184.37 82.8365C183.644 83.169 183.032 83.6375 182.534 84.242C182.035 84.8465 181.657 85.5643 181.4 86.3955C181.158 87.2267 181.038 88.1485 181.038 89.1611C181.038 90.2038 181.158 91.1483 181.4 91.9946C181.657 92.8258 182.027 93.5361 182.511 94.1255C182.995 94.7149 183.584 95.1682 184.279 95.4856C184.989 95.803 185.798 95.9616 186.705 95.9616C187.702 95.9616 188.533 95.871 189.198 95.6896C189.878 95.4932 190.392 95.2967 190.74 95.1002L191.17 96.415C191.065 96.4906 190.883 96.5812 190.626 96.687C190.37 96.7777 190.045 96.8759 189.652 96.9817C189.259 97.0875 188.805 97.1706 188.292 97.2311C187.778 97.3066 187.203 97.3444 186.569 97.3444ZM205.607 97.0044C205.32 96.2337 205.047 95.4932 204.791 94.7829C204.534 94.0726 204.284 93.3774 204.043 92.6974H196.403C196.146 93.3774 195.889 94.0726 195.632 94.7829C195.376 95.4932 195.111 96.2337 194.839 97.0044H193.23C193.834 95.3723 194.401 93.8535 194.93 92.448C195.459 91.0274 195.972 89.69 196.471 88.4357C196.985 87.1662 197.491 85.9497 197.99 84.786C198.489 83.6224 199.018 82.4587 199.577 81.295H200.937C201.496 82.4587 202.025 83.6224 202.524 84.786C203.022 85.9497 203.521 87.1662 204.02 88.4357C204.534 89.69 205.055 91.0274 205.584 92.448C206.113 93.8535 206.687 95.3723 207.307 97.0044H205.607ZM200.212 83.0632C199.637 84.3629 199.078 85.6852 198.534 87.0302C198.005 88.3752 197.454 89.826 196.879 91.3826H203.566C202.992 89.826 202.433 88.3752 201.889 87.0302C201.345 85.6852 200.786 84.3629 200.212 83.0632ZM214.212 81.159C216.434 81.159 218.089 81.5822 219.177 82.4285C220.265 83.2748 220.809 84.4762 220.809 86.0328C220.809 86.9244 220.65 87.6876 220.333 88.3223C220.015 88.9419 219.562 89.4482 218.973 89.8411C218.383 90.2189 217.658 90.4985 216.796 90.6799C215.95 90.8461 214.991 90.9292 213.918 90.9292H211.787V97.0044H210.245V81.5897C210.789 81.4386 211.424 81.3328 212.149 81.2724C212.89 81.1968 213.577 81.159 214.212 81.159ZM214.28 82.4965C213.706 82.4965 213.215 82.5192 212.807 82.5645C212.414 82.5947 212.074 82.6249 211.787 82.6552V89.5918H213.736C214.567 89.5918 215.315 89.5464 215.98 89.4557C216.66 89.35 217.235 89.1686 217.703 88.9117C218.187 88.6397 218.557 88.2694 218.814 87.8009C219.071 87.3325 219.199 86.7355 219.199 86.0101C219.199 85.3149 219.056 84.7407 218.769 84.2873C218.497 83.8339 218.126 83.4788 217.658 83.2219C217.204 82.9499 216.683 82.761 216.094 82.6552C215.504 82.5494 214.9 82.4965 214.28 82.4965ZM224.34 81.295H225.882V97.0044H224.34V81.295ZM240.618 81.295V82.6325H235.585V97.0044H234.044V82.6325H229.011V81.295H240.618ZM253.133 97.0044C252.846 96.2337 252.574 95.4932 252.317 94.7829C252.06 94.0726 251.81 93.3774 251.569 92.6974H243.929C243.672 93.3774 243.416 94.0726 243.159 94.7829C242.902 95.4932 242.637 96.2337 242.365 97.0044H240.756C241.36 95.3723 241.927 93.8535 242.456 92.448C242.985 91.0274 243.499 89.69 243.997 88.4357C244.511 87.1662 245.017 85.9497 245.516 84.786C246.015 83.6224 246.544 82.4587 247.103 81.295H248.463C249.022 82.4587 249.551 83.6224 250.05 84.786C250.549 85.9497 251.047 87.1662 251.546 88.4357C252.06 89.69 252.581 91.0274 253.11 92.448C253.639 93.8535 254.213 95.3723 254.833 97.0044H253.133ZM247.738 83.0632C247.163 84.3629 246.604 85.6852 246.06 87.0302C245.531 88.3752 244.98 89.826 244.405 91.3826H251.093C250.518 89.826 249.959 88.3752 249.415 87.0302C248.871 85.6852 248.312 84.3629 247.738 83.0632ZM266.703 95.6669V97.0044H257.771V81.295H259.313V95.6669H266.703Z" fill="white"/>
<path d="M179.813 55.0061H183.35V70.7154H179.813V55.0061Z" fill="white"/>
<path d="M199.318 55.0061V58.021H194.58V70.7154H191.044V58.021H186.306V55.0061H199.318Z" fill="white"/>
<path d="M202.27 55.0061H205.807V70.7154H202.27V55.0061Z" fill="white"/>
<path fill-rule="evenodd" clip-rule="evenodd" d="M56 72.0044H64V49.0044H56V72.0044ZM140 91.0044H148V68.0044H140V91.0044ZM70 85.0044H78V55.0044H70V85.0044ZM126 85.0044H134V55.0044H126V85.0044ZM42 85.0044H50V69.0044H42V85.0044ZM154 71.0044H162V55.0044H154V71.0044Z" fill="white" fill-opacity="0.6"/>
<path fill-rule="evenodd" clip-rule="evenodd" d="M92 56.0044H84V41.0044H92V56.0044ZM92 98.0044H84V62.0044H92V98.0044ZM98 98.0044H106V41.0044H98V98.0044ZM112 56.0044H120V41.0044H112V56.0044ZM112 98.0044H120V62.0044H112V98.0044Z" fill="white"/>
</svg>
