<svg width="335" height="154" viewBox="0 0 335 154" fill="none" xmlns="http://www.w3.org/2000/svg">
<path d="M0 0.996094H335V153.996H0V0.996094Z" fill="#6387AB"/>
<path d="M206.508 97.1301C206.508 98.4751 206.296 99.6463 205.873 100.644C205.45 101.641 204.853 102.472 204.082 103.137C203.327 103.802 202.42 104.301 201.362 104.633C200.304 104.966 199.141 105.132 197.871 105.132C197.236 105.132 196.572 105.094 195.876 105.019C195.181 104.958 194.569 104.86 194.04 104.724V89.5814C194.569 89.4303 195.181 89.3245 195.876 89.2641C196.572 89.1885 197.236 89.1507 197.871 89.1507C199.141 89.1507 200.304 89.317 201.362 89.6494C202.42 89.9819 203.327 90.4806 204.082 91.1456C204.853 91.8105 205.45 92.6417 205.873 93.6391C206.296 94.6365 206.508 95.8002 206.508 97.1301ZM195.582 103.636C195.672 103.651 195.899 103.681 196.262 103.727C196.64 103.772 197.236 103.795 198.053 103.795C199.186 103.795 200.176 103.644 201.022 103.341C201.868 103.024 202.579 102.578 203.153 102.004C203.727 101.43 204.158 100.734 204.445 99.9183C204.732 99.0871 204.876 98.1577 204.876 97.1301C204.876 96.1024 204.732 95.1806 204.445 94.3645C204.158 93.5484 203.727 92.8533 203.153 92.279C202.579 91.7047 201.868 91.2665 201.022 90.9642C200.176 90.6469 199.186 90.4882 198.053 90.4882C197.236 90.4882 196.64 90.5109 196.262 90.5562C195.899 90.6015 195.672 90.6318 195.582 90.6469V103.636ZM210.637 89.2867H212.178V104.996H210.637V89.2867ZM226.733 97.5608H228.274V104.565C227.987 104.686 227.42 104.837 226.574 105.019C225.743 105.215 224.715 105.313 223.491 105.313C222.463 105.313 221.511 105.132 220.635 104.769C219.758 104.407 218.995 103.885 218.345 103.205C217.711 102.51 217.212 101.656 216.849 100.644C216.487 99.6161 216.305 98.4449 216.305 97.1301C216.305 95.8153 216.502 94.6517 216.895 93.6391C217.287 92.6115 217.816 91.7576 218.481 91.0776C219.161 90.3824 219.947 89.8535 220.839 89.4908C221.731 89.1281 222.683 88.9467 223.695 88.9467C224.859 88.9467 225.818 89.0752 226.574 89.3321C227.33 89.5739 227.881 89.8081 228.229 90.0348L227.707 91.3496C227.284 91.0473 226.71 90.8055 225.985 90.6242C225.259 90.4277 224.473 90.3295 223.627 90.3295C222.841 90.3295 222.101 90.4731 221.406 90.7602C220.71 91.0473 220.106 91.478 219.592 92.0523C219.078 92.6266 218.67 93.3369 218.368 94.1832C218.081 95.0295 217.937 96.0118 217.937 97.1301C217.937 98.1728 218.058 99.1174 218.3 99.9637C218.542 100.795 218.905 101.513 219.388 102.117C219.887 102.707 220.499 103.16 221.224 103.477C221.95 103.795 222.788 103.953 223.74 103.953C224.511 103.953 225.153 103.916 225.667 103.84C226.196 103.749 226.551 103.666 226.733 103.591V97.5608ZM232.541 89.2867H234.082V104.996H232.541V89.2867ZM248.818 89.2867V90.6242H243.785V104.996H242.244V90.6242H237.211V89.2867H248.818ZM261.333 104.996C261.046 104.225 260.774 103.485 260.517 102.775C260.26 102.064 260.01 101.369 259.769 100.689H252.129C251.872 101.369 251.616 102.064 251.359 102.775C251.102 103.485 250.837 104.225 250.565 104.996H248.956C249.56 103.364 250.127 101.845 250.656 100.44C251.185 99.0191 251.699 97.6817 252.197 96.4274C252.711 95.1579 253.217 93.9414 253.716 92.7777C254.215 91.6141 254.744 90.4504 255.303 89.2867H256.663C257.222 90.4504 257.751 91.6141 258.25 92.7777C258.749 93.9414 259.247 95.1579 259.746 96.4274C260.26 97.6817 260.781 99.0191 261.31 100.44C261.839 101.845 262.413 103.364 263.033 104.996H261.333ZM255.938 91.0549C255.363 92.3546 254.804 93.6769 254.26 95.0219C253.731 96.3669 253.18 97.8177 252.605 99.3743H259.293C258.718 97.8177 258.159 96.3669 257.615 95.0219C257.071 93.6769 256.512 92.3546 255.938 91.0549ZM274.903 103.659V104.996H265.971V89.2867H267.513V103.659H274.903Z" fill="white"/>
<path d="M193.813 62.9976H197.35V78.7069H193.813V62.9976Z" fill="white"/>
<path d="M213.318 62.9976V66.0125H208.58V78.7069H205.044V66.0125H200.306V62.9976H213.318Z" fill="white"/>
<path d="M216.27 62.9976H219.807V78.7069H216.27V62.9976Z" fill="white"/>
<path fill-rule="evenodd" clip-rule="evenodd" d="M70 79.9961H78V56.9961H70V79.9961ZM154 98.9961H162V75.9961H154V98.9961ZM84 92.9961H92V62.9961H84V92.9961ZM140 92.9961H148V62.9961H140V92.9961ZM56 92.9961H64V76.9961H56V92.9961ZM168 78.9961H176V62.9961H168V78.9961Z" fill="white" fill-opacity="0.6"/>
<path fill-rule="evenodd" clip-rule="evenodd" d="M106 63.9961H98V48.9961H106V63.9961ZM106 105.996H98V69.9961H106V105.996ZM112 105.996H120V48.9961H112V105.996ZM126 63.9961H134V48.9961H126V63.9961ZM126 105.996H134V69.9961H126V105.996Z" fill="white"/>
</svg>
