<svg width="304" height="153" viewBox="0 0 304 153" fill="none" xmlns="http://www.w3.org/2000/svg">
<path d="M0 0H304V153H0V0Z" fill="#EC231A"/>
<path d="M204.014 88.2907V89.6281H198.982V104H197.44V89.6281H192.408V88.2907H204.014ZM207.139 104V88.2907H216.207V89.6281H208.681V95.0912H215.391V96.406H208.681V102.663H216.796V104H207.139ZM226.546 104.34C225.533 104.34 224.588 104.159 223.712 103.796C222.851 103.433 222.095 102.904 221.445 102.209C220.81 101.514 220.304 100.66 219.926 99.6476C219.564 98.62 219.382 97.4488 219.382 96.134C219.382 94.8192 219.579 93.6556 219.972 92.643C220.38 91.6154 220.916 90.754 221.581 90.0588C222.246 89.3636 223.017 88.8423 223.893 88.4947C224.77 88.132 225.684 87.9506 226.636 87.9506C227.226 87.9506 227.762 87.9884 228.246 88.064C228.729 88.1395 229.152 88.2378 229.515 88.3587C229.878 88.4644 230.188 88.5778 230.445 88.6987C230.701 88.8045 230.898 88.9027 231.034 88.9934L230.535 90.3308C230.157 90.1041 229.674 89.885 229.084 89.6734C228.51 89.4468 227.792 89.3334 226.931 89.3334C225.949 89.3334 225.087 89.4996 224.347 89.8321C223.621 90.1646 223.009 90.6331 222.511 91.2376C222.012 91.8421 221.634 92.5599 221.377 93.3911C221.135 94.2223 221.014 95.1441 221.014 96.1567C221.014 97.1994 221.135 98.1439 221.377 98.9902C221.634 99.8214 222.004 100.532 222.488 101.121C222.971 101.71 223.561 102.164 224.256 102.481C224.966 102.799 225.775 102.957 226.682 102.957C227.679 102.957 228.51 102.867 229.175 102.685C229.855 102.489 230.369 102.292 230.717 102.096L231.147 103.411C231.041 103.486 230.86 103.577 230.603 103.683C230.346 103.773 230.021 103.872 229.628 103.977C229.236 104.083 228.782 104.166 228.268 104.227C227.755 104.302 227.18 104.34 226.546 104.34ZM244.576 88.2907H246.117V104H244.576V96.4514H236.052V104H234.511V88.2907H236.052V95.1139H244.576V88.2907Z" fill="white"/>
<path d="M193.813 62.0015H197.35V77.7108H193.813V62.0015Z" fill="white"/>
<path d="M213.318 62.0015V65.0164H208.58V77.7108H205.044V65.0164H200.306V62.0015H213.318Z" fill="white"/>
<path d="M216.27 62.0015H219.807V77.7108H216.27V62.0015Z" fill="white"/>
<path fill-rule="evenodd" clip-rule="evenodd" d="M70 79H78V56H70V79ZM154 98H162V75H154V98ZM84 92H92V62H84V92ZM140 92H148V62H140V92ZM56 92H64V76H56V92ZM168 78H176V62H168V78Z" fill="white" fill-opacity="0.6"/>
<path fill-rule="evenodd" clip-rule="evenodd" d="M106 63H98V48H106V63ZM106 105H98V69H106V105ZM112 105H120V48H112V105ZM126 63H134V48H126V63ZM126 105H134V69H126V105Z" fill="white"/>
</svg>
