<svg width="310" height="140" viewBox="0 0 310 140" fill="none" xmlns="http://www.w3.org/2000/svg">
<rect width="310" height="140" fill="#5D4B76"/>
<path d="M189.833 89.5647H191.374V96.5693C191.087 96.6902 190.521 96.8413 189.674 97.0227C188.843 97.2191 187.816 97.3174 186.591 97.3174C185.564 97.3174 184.612 97.136 183.735 96.7733C182.859 96.4106 182.095 95.8892 181.446 95.2092C180.811 94.514 180.312 93.6602 179.95 92.6476C179.587 91.62 179.405 90.4488 179.405 89.134C179.405 87.8192 179.602 86.6556 179.995 85.643C180.388 84.6154 180.917 83.7615 181.582 83.0815C182.262 82.3863 183.048 81.8574 183.939 81.4947C184.831 81.132 185.783 80.9506 186.795 80.9506C187.959 80.9506 188.919 81.0791 189.674 81.336C190.43 81.5778 190.982 81.812 191.329 82.0387L190.808 83.3535C190.385 83.0512 189.81 82.8095 189.085 82.6281C188.36 82.4316 187.574 82.3334 186.727 82.3334C185.942 82.3334 185.201 82.477 184.506 82.7641C183.811 83.0512 183.206 83.482 182.692 84.0562C182.179 84.6305 181.771 85.3408 181.468 86.1871C181.181 87.0334 181.038 88.0157 181.038 89.134C181.038 90.1767 181.158 91.1213 181.4 91.9676C181.642 92.7988 182.005 93.5166 182.488 94.1211C182.987 94.7105 183.599 95.1638 184.325 95.4812C185.05 95.7986 185.889 95.9572 186.841 95.9572C187.611 95.9572 188.254 95.9195 188.768 95.8439C189.297 95.7532 189.652 95.6701 189.833 95.5945V89.5647ZM206.114 86.0057C206.114 87.1845 205.804 88.1139 205.184 88.794C204.565 89.474 203.749 89.9652 202.736 90.2674C202.978 90.5697 203.288 90.9777 203.665 91.4915C204.058 92.0053 204.459 92.5721 204.867 93.1917C205.275 93.7962 205.675 94.4309 206.068 95.0958C206.461 95.7608 206.794 96.3955 207.066 97H205.411C205.094 96.3955 204.746 95.791 204.368 95.1865C204.005 94.582 203.628 94.0002 203.235 93.441C202.857 92.8668 202.487 92.3378 202.124 91.8542C201.761 91.3706 201.444 90.9475 201.172 90.5848C200.688 90.6301 200.205 90.6528 199.721 90.6528H197.182V97H195.641V81.5853C196.185 81.4342 196.82 81.3284 197.545 81.268C198.285 81.1924 198.966 81.1546 199.585 81.1546C201.746 81.1546 203.371 81.5627 204.459 82.3787C205.562 83.1948 206.114 84.4038 206.114 86.0057ZM199.766 82.4921C199.192 82.4921 198.686 82.5148 198.248 82.5601C197.825 82.5903 197.469 82.6205 197.182 82.6508V89.338H199.313C200.023 89.338 200.696 89.3078 201.331 89.2473C201.965 89.1718 202.517 89.0206 202.985 88.794C203.454 88.5522 203.824 88.2121 204.096 87.7739C204.368 87.3356 204.504 86.7387 204.504 85.9831C204.504 85.2879 204.368 84.7136 204.096 84.2602C203.824 83.8069 203.469 83.4517 203.031 83.1948C202.592 82.9228 202.086 82.7414 201.512 82.6508C200.953 82.545 200.371 82.4921 199.766 82.4921ZM224.434 89.134C224.434 90.479 224.237 91.6653 223.844 92.693C223.451 93.7206 222.915 94.582 222.235 95.2772C221.57 95.9572 220.792 96.4711 219.9 96.8187C219.008 97.1662 218.064 97.34 217.066 97.34C216.069 97.34 215.124 97.1662 214.233 96.8187C213.341 96.4711 212.555 95.9572 211.875 95.2772C211.21 94.582 210.681 93.7206 210.288 92.693C209.895 91.6653 209.699 90.479 209.699 89.134C209.699 87.789 209.895 86.6102 210.288 85.5977C210.681 84.57 211.21 83.7162 211.875 83.0361C212.555 82.341 213.341 81.8196 214.233 81.472C215.124 81.1244 216.069 80.9506 217.066 80.9506C218.064 80.9506 219.008 81.1244 219.9 81.472C220.792 81.8196 221.57 82.341 222.235 83.0361C222.915 83.7162 223.451 84.57 223.844 85.5977C224.237 86.6102 224.434 87.789 224.434 89.134ZM222.801 89.134C222.801 88.0761 222.665 87.1316 222.393 86.3004C222.121 85.4541 221.736 84.7363 221.237 84.1469C220.739 83.5575 220.134 83.1117 219.424 82.8095C218.729 82.4921 217.943 82.3334 217.066 82.3334C216.19 82.3334 215.396 82.4921 214.686 82.8095C213.991 83.1117 213.394 83.5575 212.895 84.1469C212.397 84.7363 212.011 85.4541 211.739 86.3004C211.467 87.1316 211.331 88.0761 211.331 89.134C211.331 90.1919 211.467 91.1439 211.739 91.9902C212.011 92.8214 212.397 93.5317 212.895 94.1211C213.394 94.7105 213.991 95.1638 214.686 95.4812C215.396 95.7986 216.19 95.9572 217.066 95.9572C217.943 95.9572 218.729 95.7986 219.424 95.4812C220.134 95.1638 220.739 94.7105 221.237 94.1211C221.736 93.5317 222.121 92.8214 222.393 91.9902C222.665 91.1439 222.801 90.1919 222.801 89.134ZM234.236 97.34C233.193 97.34 232.301 97.1813 231.561 96.864C230.836 96.5466 230.246 96.1084 229.793 95.5492C229.339 94.9901 229.007 94.3402 228.795 93.5997C228.599 92.8441 228.501 92.0356 228.501 91.1742V81.2907H230.042V90.9702C230.042 91.8316 230.14 92.5796 230.337 93.2143C230.548 93.834 230.836 94.3478 231.198 94.7558C231.561 95.1638 231.999 95.4661 232.513 95.6626C233.027 95.859 233.601 95.9572 234.236 95.9572C234.871 95.9572 235.445 95.859 235.959 95.6626C236.472 95.4661 236.911 95.1638 237.273 94.7558C237.636 94.3478 237.916 93.834 238.112 93.2143C238.324 92.5796 238.43 91.8316 238.43 90.9702V81.2907H239.971V91.1742C239.971 92.0356 239.865 92.8441 239.654 93.5997C239.457 94.3402 239.132 94.9901 238.679 95.5492C238.226 96.1084 237.629 96.5466 236.888 96.864C236.163 97.1813 235.279 97.34 234.236 97.34ZM248.623 81.1546C250.845 81.1546 252.5 81.5778 253.588 82.4241C254.676 83.2704 255.22 84.4718 255.22 86.0284C255.22 86.92 255.061 87.6832 254.744 88.3179C254.427 88.9375 253.973 89.4438 253.384 89.8367C252.794 90.2145 252.069 90.4941 251.208 90.6755C250.361 90.8417 249.402 90.9248 248.329 90.9248H246.198V97H244.656V81.5853C245.2 81.4342 245.835 81.3284 246.56 81.268C247.301 81.1924 247.989 81.1546 248.623 81.1546ZM248.691 82.4921C248.117 82.4921 247.626 82.5148 247.218 82.5601C246.825 82.5903 246.485 82.6205 246.198 82.6508V89.5874H248.147C248.978 89.5874 249.727 89.542 250.391 89.4514C251.072 89.3456 251.646 89.1642 252.114 88.9073C252.598 88.6353 252.968 88.265 253.225 87.7965C253.482 87.3281 253.61 86.7311 253.61 86.0057C253.61 85.3106 253.467 84.7363 253.18 84.2829C252.908 83.8295 252.537 83.4744 252.069 83.2175C251.616 82.9455 251.094 82.7566 250.505 82.6508C249.915 82.545 249.311 82.4921 248.691 82.4921Z" fill="white"/>
<path d="M179.813 55.0015H183.35V70.7108H179.813V55.0015Z" fill="white"/>
<path d="M199.318 55.0015V58.0164H194.58V70.7108H191.044V58.0164H186.306V55.0015H199.318Z" fill="white"/>
<path d="M202.27 55.0015H205.807V70.7108H202.27V55.0015Z" fill="white"/>
<path fill-rule="evenodd" clip-rule="evenodd" d="M56 72H64V49H56V72ZM140 91H148V68H140V91ZM70 85H78V55H70V85ZM126 85H134V55H126V85ZM42 85H50V69H42V85ZM154 71H162V55H154V71Z" fill="white" fill-opacity="0.6"/>
<path fill-rule="evenodd" clip-rule="evenodd" d="M92 56H84V41H92V56ZM92 98H84V62H92V98ZM98 98H106V41H98V98ZM112 56H120V41H112V56ZM112 98H120V62H112V98Z" fill="white"/>
</svg>
