<svg xmlns="http://www.w3.org/2000/svg" width="197" height="50" fill="none">
<path fill="#868686" d="M22.819 7.08152l.8042.00234.0267-.82049.781-.00113-.9774 1.6026c.0814.15108.3266.07553.4718.06391l.1081-.06391.0244.6938c-.7902.26498-1.6072.02447-1.6072.02447l-.0186-.71827c.1569.09414.4846.16968.5729 0l-.9541-1.6026.7472.00113M6.92019 20.237c.1197.258.208.53.30214.8008.29054.631.55553 1.2667.93324 1.8583v.0708l-1.19122.9705c.66243.8449 1.39228 1.6572 2.12445 2.4696 1.9664-1.4434 3.9386-2.8857 6.0189-4.0525.996-.4788 2.3313-.1127 3.3401-.5602-.8449.6369-1.2923 1.5875-2.1047 2.25.4916.6043.7124 1.3167 1.0216 1.9977-.9275.007-1.9421.107-2.7742-.1766.1755.423.2081 1.6131.2592 2.2128-.8577-.3277-1.7712-.5241-2.4905-1.1912.0383 1.1784-.4336 2.1489-.7996 3.1565-.5928-.559-1.2296-1.139-1.60732-1.8142-.33471.8879-1.204 1.5631-1.77114 2.3557l-1.21679 1.8037c.30913-.7694.36608-1.6317.39048-2.5149-2.3627-.3847-5.01711-1.4876-5.91198-3.984-.16968-.4718-.30218-.9576-.30218-1.4992.66244 1.311 2.0803 2.0548 3.42261 2.257C2.47021 25.411.857097 23.2935.724609 20.9041c.668251 1.2993 2.016401 2.5591 3.359871 3.1019l.0244-.0256C1.94143 21.9001.599112 19.3619.837358 16.3983c.441622 1.7526 1.520122 3.4169 3.140192 4.5058l.01745-.0174C2.19944 18.5414.919883 15.579 1.91587 12.4783c.08832 3.246 2.26275 6.0119 5.00432 7.7587zM45.5241 20.9296l.0186.0198c1.6456-1.0716 2.723-2.7683 3.1646-4.5255.2522 3.0379-1.1342 5.5285-3.2959 7.6018h.0686c1.3365-.537 2.6602-1.7724 3.3354-3.0763-.1023 1.6375-.8205 3.0123-1.949 4.2233-.5927.5986-1.2354 1.0901-1.9094 1.4945.6183-.0581 1.211-.2847 1.7583-.5613.6753-.3463 1.3865-.9843 1.7084-1.6897-.0441 2.0105-1.5817 3.87-3.397 4.6323-.9018.3847-1.8409.6741-2.8427.8252-.0127.831.0698 1.7328.3719 2.4906-.7379-1.1738-1.6886-2.3825-2.6846-3.511-.1511-.1836-.2278-.3905-.3021-.6055-.4115.6625-1.0158 1.2412-1.6271 1.8211-.3405-1.0332-.8577-1.9908-.8007-3.182-.7124.6869-1.6375.8577-2.4952 1.1913.0256-.7066.0128-1.5132.265-2.1687-1.0088.2301-2.0618.1441-2.7986.1325.2766-.6938.5474-1.3876 1.0204-1.9977-.7937-.6625-1.2853-1.583-2.0803-2.2315.8891.3905 2.1744.1256 3.1391.4789 1.0471.516 2.0233 1.197 3.0135 1.8409l2.5324 1.7955.6496.4986.0628-.0198 2.1244-2.4266-1.2098-.9959c.4858-.8507.8624-1.7445 1.1912-2.6661 2.7358-1.7641 4.9858-4.5313 5.0671-7.7958.9902 3.0948-.2766 6.0712-2.0989 8.4071z"/>
<path fill="#868686" d="M6.68753 19.4307c-.69963-.3905-1.4248-1.0599-1.86526-1.7526.11273-1.777.59852-3.3982 1.27839-4.9416-.35911 2.3011.03135 4.6139.58687 6.6942zM44.6983 17.7225c-.4858.6822-1.1401 1.3621-1.8653 1.7526.523-2.0919.9646-4.3861.5869-6.693.6869 1.5364 1.1471 3.1693 1.2784 4.9404zM8.35125 17.1366c.20803-.5927.42186-1.1796.82513-1.6898-.01859.6253-.09992 1.4248.23944 1.9734 1.04018-.2394 2.25108-.3963 3.35288-.1755-.5741.1883-1.2215.5787-1.4679 1.19-.1139-.1022-.1266-.2836-.2394-.4102-.2777.0511-.5613.0697-.8263.1511l.8449.8007c-.0825.5056-.1324 1.154.0442 1.6259.0314-1.2098.7124-2.3441 1.7967-2.924.4974-.2511 1.2354-.4336 1.7572-.107.3161.2452.3475.6555.2592 1.0146.007-.1894-.1766-.3405-.3277-.4277-.8321-.2603-1.5004.3522-2.0106.9704-.0953.1767-.2336.3266-.2836.523.3975.258.838.1395 1.2982.1069.3719-.0836.7124-.2405 1.0215-.4788-.5985.9007-1.6212 1.254-2.5149 1.6701l.3463.4986c-.1894.1511-.4091.3324-.6485.4091l-.5613-.738c-.6183.4544-1.254.839-1.86528 1.3051l.49738.7124c-.15689.1383-.34052.3091-.54157.3904-1.62008-2.1244-2.79967-5.0612-1.60147-7.7342l.32193-.5416c.01279.6625.03718 1.3179.28356 1.8851zM40.539 23.0481l-.3661.4788c-.1894-.0245-.3649-.2336-.5416-.3463.1325-.2522.3406-.4731.4975-.7125-.5986-.473-1.254-.8821-1.8839-1.3237l-.5428.7124h-.1069c-.1882-.1185-.3777-.2441-.5671-.3661.0941-.1755.2336-.3335.3463-.4962-.3463-.2464-.7938-.3348-1.1657-.5684-.5044-.2591-1.0529-.5926-1.3678-1.1214.5857.4602 1.5061.6612 2.3011.4102.0755-.1453-.1012-.2906-.1511-.4358-.48-.6857-1.1727-1.2738-2.0373-1.1471-.1685.0256-.308.2138-.3893.3452l-.0256.1081c-.0697-.1941-.0697-.5986.0883-.8194.2964-.3707.7682-.3776 1.2099-.3265 1.0471.2011 2.0616 1.1459 2.3638 2.1675.1197.3219.1128.6937.1767 1.0401.1964-.5265.1104-1.3307.0627-1.6712.2708-.258.5729-.5091.8193-.7741-.2591-.0883-.5485-.108-.8193-.158-.0627.1371-.1511.2662-.1952.4161-.3034-.5544-.9019-1.0262-1.4946-1.1924 1.0401-.2324 2.3069-.0488 3.3541.172.3335-.5416.2766-1.2982.2208-1.9478.4218.4776.6357 1.0773.8437 1.67.215-.5799.3022-1.204.258-1.885 1.6271 2.3638.5997 5.6737-.8879 7.7715z"/>
<path fill="#868686" d="M17.3641 15.8381c.7112.7682 1.2667 1.8525.7809 2.8799-.0883.1325-.1766.258-.2649.3905.9716.057 1.8536-.1 2.5788-.6311.4974.2081 1.0262.3162 1.6061.3289.6183 1.0716 1.1483 2.1803 1.5144 3.3517.1243-.8553-.0128-1.7699-.215-2.5765-.0825-.2719-.1953-.5613-.2394-.8205.7624-.093 1.4806-.2952 2.1418-.6299.5172-.2952 1.0844-.5915 1.4563-1.1017-1.2854.7357-2.6975 1.1458-4.2478 1.2342-.939-.0372-1.9536-.0698-2.4708-.9321-.2138-.4219.1081-.8693.2209-1.1471-.9647.2325-2.0362.0768-2.8613-.3463zm4.0711-2.4894c-.1383-.0453-.3092-.0255-.4347.0431-.158.0825-.158.2591-.1511.4288.0628.2022.2336.3603.4347.4161.3591.0685.8193.0755 1.0843-.1767-.315-.2394-.5869-.5672-.9332-.7113zm6.2838-.1138c.3022.3207.4289.7809.8438.9762.158.0383.3533.0383.4742-.0883.0883-.1314.1069-.3138.0685-.4719-.2708-.4672-.889-.5683-1.3865-.416zm-5.0043-.1895c-.2464-.05-.5357-.0314-.6926.1511.3405.2394.6171.6427.9704.8635.2266.1208.5474.0686.7368-.0871-.3208-.2964-.6357-.7136-1.0146-.9275zm3.5493-.0255c.3138.3405.4974.7565.8437 1.0657.2011.1127.5102.1569.7182.0186-.2766-.3347-.4788-.7067-.7554-1.0402-.215-.1441-.581-.1882-.8065-.0441zm-2.207-.1256c-.2522-.0813-.4974.0256-.674.1511l.7996.7752c.2463.1708.6368.2522.9146.0872-.3719-.3266-.6241-.7985-1.0402-1.0135zm1.5132.0186c-.2406-.0999-.5358-.0999-.731.0442.4277.3347.5543.946 1.1029 1.0843.1696.0383.3777 0 .4974-.1139-.3591-.3091-.4916-.7496-.8693-1.0146zm.9134-2.1418l-.6926.409c.0081.1744.2452.2685.2975.4219.0198.0593-.0023.3289-.0302.3591-.0988.1046-.3986 0-.5265.0628-.1697.0314-.2452.2092-.2394.3661.2336.0569.53.05.7124.2638.2023-.0814.3905-.2011.6497-.15.0558-.2405.0686-.4974.1766-.7182.0628-.1452.2197-.1708.3464-.2138-.2778-.2534-.4858-.5241-.6939-.8007zm14.5969-3.75156c-.4032 1.09826-1.5875 1.73401-2.7032 1.75958.7252.90766.8635 2.06638 1.8839 2.85428.5486.4474 1.2865.6938 2.0117.4544.9263-.2963 1.569-1.2865 1.7328-2.18722-.2649.18942-.624.37192-.9773.45322-.6427.1139-1.3226.0442-1.7956-.38463.0442-.09414.0814-.18129.1511-.2638.4219-.81352.2835-2.01177-.3034-2.68583zM8.41414 6.97656l-.10689.1313c-.55552.76936-.54274 2.05588-.01976 2.8357-.1383.12664-.30218.18944-.45326.28474-.77517.3208-1.69562.0942-2.31971-.39163.15109.82743.62992 1.64563 1.40509 2.08023.59271.3347 1.41204.3162 1.97337-.0627 1.26092-.7112 1.44342-2.09886 2.23132-3.12041-1.14703 0-2.2755-.68571-2.71016-1.75723zm19.97316-.49859c-.0825.12551-.2081.23245-.3464.28359-.5624.07554-1.2225-.07553-1.7339.1325-.1824.09414-.3277.28355-.3905.47299-.0314.1964-.0372.42771.0883.58577.4161.54854 1.204.30909 1.8409.36488.0744.03835.1313.11506.1313.19641-.0186.08716-.0755.13827-.1511.17663h-2.6218c-.1697.37073-.5102.67409-.4974 1.12153h-.7566l-.781.88903-.7566-.88903-.7623-.01859-.0198-.30331-.6927-1.25403c.1511-.24638.322-.78212.322-.78212l-.215-.19407-.8449.64847.8855 2.33368.6962.1813v-.2011l.4985-.0035-.0639 1.6549c-.0499.2639-.3463.1128-.4974.2139-.3149.1499-.1383.5857-.151.8251.3591-.3277.9274-.4091 1.3864-.2394l.5614-1.6015c1.1156.0884 2.2941-.1824 3.139-.9948.2766.5485.6868 1.046 1.1714 1.512l-.0441.265c-.0058.2836-.2708.0442-.4091.1523-.2464.0813-.1952.3637-.265.559l.4161.2847c.2778-.1197.6299-.1139.9274-.1139.0756-.3905.1883-.7624.2824-1.1471l-.4346-.559c.1522-.1337.2394-.2917.3091-.4555.1127-.4905.0058-.98909-.3277-1.34239.3463-.15921.4858-.51017.4788-.86929-.1313-.93555-1.2029-.50202-1.9002-.6008-.3544 0-.3672-.47185-.0116-.47185.7066-.05927 1.4946.07433 2.1256-.18251.2336-.1383.4219-.38932.4358-.62989h-1.0215zm-6.6488-1.29816l.0627.62989c-.1836.27776-.423.55436-.473.86234l.4986.65082c.0186.30913-.1836.57994-.3277.84375l.6299 1.12962h.4788l.5787.71127.5428-.69383.523-.03837.6241-1.10869c-.1383-.258-.3208-.49159-.3464-.79956l.5416-.71239c-.1127-.29635-.2894-.56718-.4974-.82751.0186-.21268.0628-.46488.0442-.64734l-.5614.30218c-.5601-.19641-1.197-.19641-1.7583 0l-.5602-.30218zm2.9426-2.18716c-.5915.34052-.5543.98431-.5358 1.60026h1.1657c-.0116-.31495.0384-.66124-.0442-.95179-.0999-.25103-.2951-.56596-.5857-.64847zm-1.254-1.36788h.8705l-.0012-.775235h.8449V1.6352l.8624-.00235.0011-.783315h.8449V3.77363l-.5427.49852v2.05359h1.5631c.1453-.15689.315-.33936.5613-.30217h1.5818c-.0825.50554-.2081 1.01458-.6741 1.34348-.1511.10111-.3277.14994-.4974.21386.3591.27776.4974.73098.3707 1.1726-.0871.16852-.151.34748-.3277.4788.3161.5102.3789 1.33649 0 1.83969.788.4858-.0174 1.1797.0442 1.7968.2963.1825.5985.409.631.7821.057.3463-.0569.6927-.3475.9077-.1255.0755-.2638.1197-.4149.1313.0302.2662.3336.5172.5672.6938.5927.4161 1.5503.3336 2.1616.0186.3406-.1952.7241-.5043.8263-.8879.0628-.2208-.007-.4416-.1081-.6241-.2835-.3847-.7623-.423-1.1912-.3277-.2836.1011-.5671.2836-.738.5602-.2138-1.046-.1882-2.3825.8019-3.0054.4591-.2464 1.096-.2023 1.5376.043.1313.0755.258.1766.3707.3021-.093-1.51079.1337-3.05528 1.4946-3.88159.8565-.4916 2.1488-.4033 2.9438.17663l.5671.4788c1.0576.01278 2.035-.48575 2.5707-1.41201.1651-.26381.222-.57996.2836-.88794 1.0843.86349 1.5887 2.23026 1.1913 3.55398-.0756.10808-.05.22658.0883.25912 1.0018.21965 1.7967-.45323 2.5335-1.08429.1011 1.6201-.4916 3.1704-1.9722 3.9003-.8577.4102-2.0106.2161-2.7299-.3661-.7311-.5462-1.1715-1.2912-1.5562-2.0152-.3405-.4033-.9019-.28247-1.4121-.24064-.7693.14064-1.5375.64504-1.9036 1.38764-.0941.2208-.1639.4475-.1952.6927.1197-.0128.2603-.1197.3916-.1697.6799-.258 1.4492-.0511 1.9722.4091.4475.4474.5985 1.154.3661 1.7526-.2208.631-.8193 1.2679-1.4504 1.4945-.0848-.6764-.466-.896-.7995-.9262-.9333-.2034-1.3423.6995-1.999 1.2283-.6369.6102-1.8013 1.1018-1.663 2.1687.0441.466.2579.9007.6926 1.1714.1697.0942.3521.1639.5416.2139-1.2087.4289-2.9682.5671-3.9898-.3649-.2417.3928.1046 1.0622.1976 1.2458.2708.5381.6647 1.0239.717 1.6526-.5543-.5404-1.2923-.7682-2.0803-.6043 0 0-.4788.0686-2.6834 1.3644-.5462.3196-1.0262.566-1.0262.566s-.1941-.1105-.2801-.1535c-.6554-.4474-1.3609-.7739-2.0547-1.1272-.3022-.215-.3963-.5811-.3463-.9332.0883-.3208.4032-.6114.7124-.7369v-.1267l-.4544-.8251c-.3591-.0511-.6997-.1522-1.0576-.215-1.1796.573-2.8682.7566-4.142.258.4161-.1127.8832-.408 1.0843-.8426.2138-.4614.1825-1.1424-.1511-1.5387-.6613-.7438-1.5062-1.1796-2.143-1.9908-.3533-.3673-.8821-.5323-1.4051-.3928-.437.122-.602.6102-.5671.8902-.838-.2963-1.5446-1.1866-1.5817-2.0814.0255-.58.3079-1.1274.8239-1.4307.5741-.3091 1.4202-.3579 1.9734.0442-.0058-.6299-.4033-1.1645-.8891-1.6003-.6729-.48582-1.663-.73105-2.4696-.3719-.4927.8193-.996 1.7398-1.88503 2.2755-.73101.466-1.87111.6044-2.64047.1325-1.38763-.7937-1.89781-2.2627-1.82111-3.81308.50555.40327 1.02154.84252 1.61658 1.02498.27892.08484.81934.18249 1.06804-.04646-.13946-.25916-.21036-.87629-.20687-1.09478.01162-1.01342.47882-1.99076 1.33418-2.63809.04533.92509.85188 1.83968 1.70838 2.12325.3661.12552.7693.21505 1.1726.1767.7055-.73101 1.6445-1.12733 2.7102-.91349.8252.16387 1.6515.8821 1.9223 1.68865.2894.7496.3533 1.65142.2835 2.49512.4103-.4462.9902-.6171 1.5817-.4974.6811.1325 1.0914.8705 1.1913 1.4946.0825.5416.0383 1.1343-.0442 1.6631-.2766-.3836-.6868-.6485-1.1656-.6241-.308.0511-.623.1197-.8066.4288-.158.2964-.0755.7125.0883.9774.6927.8577 1.8595 1.0018 2.8799.781.2592-.043.4672-.1941.7182-.2568-.1511.2882-.201.7298.0384.9936.9518.953 2.5719.8519 3.7945.5625.9704-.2336 1.8781-.6253 2.7474-1.1041-.6427.8961.158 1.7851.3718 2.6231.2964-.4544.6311-.9274.8008-1.4562.1011.8635.7054 1.7583 1.5817 1.9978.4033.1069.9205.1568 1.3423.0383-.3277-.4545-.516-1.0216-.3649-1.6201.0512-.6996.8763-1.104.9076-1.7781-.7437.48-1.8466.6311-2.7113.3033-.5404-.2324-1.0262-.7693-1.2528-1.2993-1.5817 1.2366-3.4482 1.8479-5.5657 1.7084.1825-.4718.5044-.8879.6927-1.3609l-.781-.0256-.6485 1.2168c-.2533-.0953-.4986-.3219-.5671-.5857-.0581-.3475.0744-.6624.308-.9076-.1325-.0628-.2894-.0629-.4347-.0884-.3649-.0953-.7438-.4102-.8008-.8007-.0325-.509.2081-.9345.6962-.9333.0116-.215-.079-.6183.0163-.7996.0569-.2975.3777-.4102.6299-.4799.0383.0128.0639-.0186.0894-.0442v-.7112l-1.0506-.2522-1.118-2.86826s.7996-.54973 1.1657-.88908c-.2394-.21385.0813-.40909.1313-.60549l.4103-.62989c-.0558-.41606-.0128-.86933-.1511-1.25517.4486.17897.8449.53698 1.3435.51838l.6485-.08136v-.54278l-.5358-.49852V.849535h.8193M14.4142 22.0072l-2.659 1.7339-2.53473 1.8224h-.04419l-1.36671-1.5841c.23825-.1813.45907-.401.71824-.5416l.71125.8461c.473-.3219.92744-.695 1.38764-1.0402-.1267-.2591-.3847-.4672-.4986-.738l.996-.6682.5427.6939c.5044-.3208 1.0204-.6125 1.5178-.9519l-.2394-.3905c.3022-.1383.6183-.3544.953-.4544M36.5561 21.189l-.2395.4103 1.519.9506c.1825-.2266.3707-.4602.5602-.6927l.9762.6741v.0627l-.4974.6497c.4358.3731.9204.7183 1.3865 1.0646.2777-.2511.5113-.5544.7321-.8449.2522.1267.4661.3487.6927.5172v.0639L40.325 25.582l-3.3784-2.3569-1.8665-1.1912.5241-1.2795c.3278.1127.6299.2905.9519.4346zM19.6826 26.8871l1.1215-1.8211 1.082 1.8246M29.7741 26.8867l-2.1872.0186c.315-.6241.6927-1.2168 1.0588-1.8212.4091.566.7566 1.2029 1.1284 1.8026zM21.3725 30.6741c-.2394.4544-.3219.9646-.3719 1.4934.1894.0953.4219.0197.6055-.0198l.1127-.0686.0198.63c-.1952-.1185-.4486-.1128-.6938-.107.0128.2708.0639.58.0442.8891h-.6055c-.0117-.3022.0069-.5916.0627-.8705-.2324-.0302-.5032-.0371-.6927.0884l-.0185-.63c.2138.0953.4916.1895.731.0884-.0256-.5346-.1767-1.0204-.3661-1.4934.2208-.2894.4742-.5741.5869-.9077.1069.3336.3591.6183.5857.9077z"/>
<path fill="#868686" d="M26.3524 36.46v5.6099c1.2854-.8252 2.4394-2.0036 3.2889-3.2716.48-.7368.9147-1.5189 1.1297-2.3383h-4.4186zm-3.246 0h-4.443c.7241 2.1744 2.4069 4.2745 4.443 5.5843V36.46zm7.1218-11.9367H19.2236v.4091l1.1703.0012-1.3063 2.1187c.1139.2893.2999.6101.5707.8309.4416.3649 1.0715.4718 1.6456.3207.53-.1766 1.0018-.624 1.1471-1.1668l-1.2273-2.1047 2.809.0012v.7612l.6113.007-.7368.9646.8193.8879.8252-.8879-.7578-.9611.6067-.0105.0186-.7624 2.8147.0035s-.8356 1.4156-1.2319 2.1012c.0628.2464.2139.4614.3719.6694.4591.5346 1.1657.6671 1.8398.4974.4916-.1511 1.0343-.6426 1.1226-1.1668l-1.2714-2.1012 1.1633-.0035v-.4091zm-.3649-1.9477l1.1471.0186c.4091.5101.7879 1.0459 1.2981 1.4933-.5799.8507-.8263 1.8339-1.4945 2.6475l1.0599.0371c.0244.96.1441 1.8735.6554 2.6231l-6.1955.0244v4.5069h5.6726c-.2848 4.135-3.411 8.1806-7.2985 9.6809-3.8573-1.5236-6.9591-5.5715-7.2368-9.6809h5.6539v-4.5069l-6.1514-.0244c.4916-.7566.5672-1.6956.6055-2.6417h1.039v-.0627c-.6427-.7752-.8821-1.7142-1.4039-2.5336-.0383-.0255-.0639-.0824-.0267-.1138.5241-.4405.8519-.9762 1.2609-1.4492l3.2913-.0186c.7868.3533 1.562.7368 2.2744 1.2725 1.1273-.566 2.243-1.1784 3.3343-1.8409.5299-.2312 1.3493-.4032 1.8653-.0174.2336.1511.466.358.6496.5858zM40.8673 41.5274c-.0698.6241-.0698 1.3865 0 2.0361h-.4545c.1511-.5032.0756-1.1284.064-1.67-.1767.4277-.2906.8879-.3917 1.3423h-.3277c-.0372-.4218-.1639-.8124-.2766-1.211l-.0256 1.4051c.0256.0511.0442.1011.0686.1522-.1569.0442-.3336.0442-.4974.0698l.1069-.222c.0198-.5532.0697-1.1773-.0442-1.7061l-.0627-.0639c.215-.0628.4602-.0627.6938-.0883.0442.3335.1569.6496.2336.9716.093-.3347.2522-.6497.2835-1.0158M10.9293 41.9822l.0093 1.5992.079.1523c-.1767.0244-.4102-.0372-.6055-.064l.1267-.2394c.0058-.5915.1069-1.2784-.0825-1.8142l.5613.1081M38.5669 41.9822c-.0941.6497.2638 1.5249-.3858 1.9026-.2011.0685-.4905.1638-.6729-.0186l-.1325-.1964-.0384-1.3854-.0883-.1511c.1523-.1011.3661-.151.5614-.1952l-.107.258.0186 1.3481c.2104.2661.4463-.0012.4986-.1209.0058-.0104.0244-1.3783.0244-1.3783l-.1069-.1964c.1569-.0883.3591-.0813.5415-.1243M9.1071 41.7677l-.01858 1.4678c.16968.0186.32773 0 .43581-.1511.1813-.2893.20104-.7623.06274-1.0842-.09529-.1883-.28356-.2325-.47997-.2325zm.9158.1511c.1627.3986.1685.9193-.09066 1.2796-.32076.4776-.89373.3405-1.40392.3661.30798-.5033.13133-1.2424.15109-1.8409 0-.1011-.08832-.1569-.13364-.2394.54855.0116 1.18658-.1012 1.47713.4346zM12.5736 42.1327l.0256.4985c-.1395-.1383-.315-.3533-.5416-.258-.3405.2138-.2592.6601-.2406 1.0134.0442.1778.1522.3592.3289.4347.1569.0639.3138-.0059.4277-.107l.0256.48c-.4475 0-.8763-.1127-1.1099-.5427-.2011-.3836-.1825-.989.0697-1.3423.1766-.2511.4474-.3406.738-.265.0813.0511.1766.0825.2766.0884zM37.0985 42.5434v.0884c-.1452-.1012-.3219-.0768-.4788-.0198l-.0442.0627c.0372.5428-.0883 1.1529.107 1.6259l-.5358.258c.1581-.523.0569-1.1517.0825-1.7316-.1836.0058-.3602.258-.473.409-.0221-.1731-.0011-.3544-.0011-.4846.409-.1731.8181-.3498 1.2365-.5555.0999.0523.0686.2347.1069.3475zM14.0923 43.4123c-.0883-.2022-.3022-.3789-.4986-.4533-.0116.566-.0872 1.2227.0639 1.7514l-.5171-.2394c.158-.5183.0569-1.14.0825-1.7072-.1081-.0767-.2836-.1325-.4103-.0442l-.0441.0442.0441-.4544 1.2551.5799M35.5352 43.3873c-.0697-.1197-.2394-.0883-.3452-.0627-.2603.1255-.3544.3904-.3672.6484-.0128.2894.0128.6044.2847.738.2139.0442.358-.1336.4719-.2847v.4614c-.2081.0871-.4161.2382-.6671.1511-.3033-.1267-.4103-.4428-.48-.7206-.0442-.5404.1767-1.0448.6497-1.2958.1383-.0767.3335-.0198.4532-.1325M14.8298 43.3056l-.0883.1697.0186 1.3865c.0512.1313.1894.2208.3091.2579.1012 0 .215-.0615.2336-.1696-.0255-.4916.0756-1.0332-.0813-1.4748l.473.2394c-.1395.2929-.0721.6764-.0767 1.0273-.0012 1.0146-.7752.6869-.9646.53-.1639-.1639-.3022-.3417-.2766-.5799-.0384-.5672.0883-1.1983-.1139-1.6899.1825.1081.3847.1767.5671.3034zM16.7585 44.1248c.0186.3649.1127.6996.1952 1.0401.1314-.2848.265-.5602.3022-.8902.1824.0313.4288.0267.6241.0883l-.0814.3033.0186 1.5504.0442.1999c-.1395.0523-.3336-.0361-.48-.0814-.0372-.0372.0698-.1057.0698-.1743.0313-.4672.0313-.9774 0-1.4504-.1511.4032-.3522.7879-.4603 1.2168l-.258-.0884c-.0314-.4915-.208-.9588-.3219-1.4306-.0244.5276-.05 1.1088.0198 1.6259-.1174-.0546-.2348-.0883-.3324-.1301-.0372-.0175-.0698-.0303-.0698-.0303s.007-.0488.0117-.1046c.1127-.5416.0627-1.1784.043-1.7525l-.0628-.1697M33.8014 44.8608l-.1952-.6926-.1255.8449.3207-.1523zm.0884-1.1459c.0755.5602.2649 1.0715.4544 1.5806l.1069.1081c-.1708.0813-.3277.1894-.5172.2405.0512-.1592.007-.3347-.0441-.4799-.1639.0313-.365.1011-.5172.2208-.0372.165-.0302.3649.0198.5159-.1837.057-.3475.1523-.5428.1767.2836-.5927.3719-1.2667.4788-1.928l-.0244-.1964c.1953-.0814.3847-.1825.5858-.2383zM32.0492 44.5406l.0186.7125c.0953-.0256.2022-.0256.2661-.1325.0814-.1325.1058-.3161.0628-.473-.0256-.1708-.2394-.1895-.3475-.107zm.7566-.0453c.0708.2208.0755.5311-.0814.7136-.1708.2324-.4544.2697-.6938.3708-.0058.2522-.0128.4985.0825.7135-.1325.1069-.3847.0314-.5613.0872.2336-.5416.1069-1.254.1069-1.8653l-.0884-.1709c.4289.0186.9705-.3533 1.2355.1511z"/>
<path fill="#868686" d="M20.4588 44.8872v2.9624c.265.1836.5729.2639.8704.3708 1.7003.4114 3.6237.4985 5.432.2591.788-.1325 1.5957-.208 2.257-.6485l-.0256-2.9263c-.5671.2277-1.1843.3544-1.7956.4811-2.2197.2824-4.7463.2824-6.7382-.4986zm23.2876-3.4667c-.4265.9402-.2754 2.2383.3231 3.0507.523.1011 1.0843.1697 1.6503.1057v-3.0053c-.6996.0453-1.3295-.0686-1.9734-.1511zm-37.97287-.0244c-.63106.0825-1.2412.201-1.92805.1511v3.0112c.5532.0639 1.1087-.0059 1.62587-.1058.51601-.7635.70546-1.7898.45326-2.7288l-.15108-.3277zm30.82667.4788l-2.9694 1.4306c-.8751.3708-1.8269.6172-2.8601.5416v3.0321c.8693.0871 1.6631-.1209 2.4069-.3917l2.924-1.4039c1.1483-.5253 2.3709-.8518 3.6818-.9785.4474-.0883 1.0146.1127 1.3865-.1767.3463-.1894.4916-.5415.5613-.8879.0442-.6229.1197-1.3678-.0895-1.9466-1.8153-.1952-3.5098.1627-5.0415.781zm-28.72197-.781c-.22081.5857-.14526 1.3679-.06856 1.9908.06276.4045.39048.8507.79956.9576 1.76537.0268 3.39707.3475 4.87877 1.0588 1.6759.731 3.2018 1.9733 5.2182 1.7525v-3.0065c-.9832.057-1.9153-.1383-2.7544-.4986-2.4824-1.2528-4.9589-2.6451-8.07357-2.2546zm9.00807-14.4458c.1115 1.0762-.1779 2.0419-.8194 2.8357.1185.1824.2754.3452.4277.523.2963-.0198.6299.0569.8449-.1581.2406-.1255.3893-.0267.5393.1616.1568.0453.2626.0406.4811-.0477.0058.1371-.0883.2522-.1952.3207-.1058.043-.1418.0524-.2511.0535-.0988.1709-.2719.3626-.5311.2487-.1116-.1278-.2964-.0814-.4277-.0616l-.0256.0174c.315.2534.5928.5869.9774.6752.1453-.0755.3394-.0755.4975-.0185.2452.0557.1324.3788.3463.4532l.2777-.0232c-.1522.2824-.4916.1998-.7124.3695-.4277.0756-.5985-.3393-.9518-.4334l-.4532-.3476c.0313.4173.2382.8194.4974 1.1715.1325.0953.3149.064.4288.1953.1767.0883 0 .4172.2836.3661h.3033c-.1522.3103-.53.1696-.738.3916-.2022.057-.4102-.007-.5613-.1325-.1139-.1522-.1325-.3475-.1511-.5427-.4288-.4916-.6497-1.0715-.8251-1.6643-.0674.0768-.1313.1709-.0872.236.0639.0953.1732.3301-.0023.4986-.0581.0871 0 .2684.0511.3684-.1627-.0604-.2336-.1325-.3672-.2603-.1302-.0361-.4289-.2325-.1372-.6462.0442-.3022.1837-.5544.2836-.8263-.0314-.1627-.1755-.2836-.3022-.4091-1.147.996-2.4963 1.5131-3.8131 2.0988-.3277.1813-.6938.4789-.7566.8636.0186.1894.1128.3591.2836.4602 1.0913.3521 2.0931-.738 3.1391-.0442.8123.5032.4602 1.7015 1.4748 1.9722-.4858.1511-1.0402.4986-1.2168 1.0158-.1383.6043-.1499 1.3725.2591 1.8653.8194.9262 2.5963.0313 2.9682 1.5119.0198.2778.0058.5428-.2394.7194.0256.3719-.1522.7183-.4985.8891l-.2325.1058c.0558-.1883.1697-.4091.0628-.6113-.0686-.1709-.2139-.2906-.3719-.3836-.0372.2394-.0756.4858-.2139.6938-.1766.2441-.423.3208-.6938.3452.1267-.2011.1267-.4788.0883-.7182-.0441-.1197-.1324-.2592-.258-.3033-.1708.4044-.5497.7891-.9959.8263.1383-.1581.1824-.3777.1255-.5846-.0384-.43-.5602-.2847-.7124-.6508-.3022-.5671-.8763-.9333-1.5178-.8879.3335-.5614.8751-1.0901.6287-1.8409-.0814-.3789-.4521-.7438-.8252-.8263l-.624-.0186c-.1197-.566-.5044-1.2099-1.1088-1.3877-.0697.021-.1324-.0604-.1952 0 .6241.8147.6683 2.1442.2208 3.0507-.4102 1.1471-1.68978 1.3819-2.36384 2.3384 3.04954-.1755 5.49594 1.104 7.94814 2.365.5229.2068 1.0575.3835 1.6514.4346.0569-.2138-.0581-.5229.2139-.6298 1.0145-.322 2.0674.0383 2.8368.6926.4091.2638.2081.781.258 1.1912.4091.208.8949.2197 1.3423.3266 1.8339.2591 3.8189.1964 5.5715-.1941.1139-.0325.2324-.0442.3208-.1325.0453-.3533-.107-.7879.1336-1.0599.8066-.7426 1.9153-1.1389 3.0112-.7984.2278.1255.1581.3835.1708.6043 1.6701-.1324 3.0066-1.197 4.507-1.7967 1.57-.6671 3.2389-1.0715 5.131-.9587l.0244-.0187c-.7252-.9948-2.1931-1.3342-2.4894-2.6218-.2836-.9007-.2708-2.035.3219-2.7928-.373.021-.7507.2476-.9716.6055-.1824.2406-.2394.5242-.3277.8008-.4916-.05-1.0088.0256-1.297.48-.2661.4405-.3091 1.0529 0 1.4934l.4707.7123c-.6985-.0743-1.2598.3836-1.6003.9577-.2011.308-.7682.2394-.6683.731.0128.1453.0314.2906.1523.3917-.265.0116-.5555-.1511-.7624-.3917-.1453-.1069-.1209-.3719-.3034-.3916-.2835.1964-.2266.5868-.1696.8727l.0628.1058c-.1767.0442-.3789-.0628-.5428-.1511-.2522-.215-.3208-.5113-.3463-.8274-.1325-.0314-.265.1336-.3464.2417-.0883.1569-.1069.3638-.0639.5416l.0895.1755c-.3277-.0942-.6741-.365-.738-.7171 0-.0953-.0372-.1778-.0244-.2778-.2336-.1894-.2719-.48-.215-.7624.516-1.6898 3.1204-.2336 3.2901-2.2511.1197-.6985-.0255-1.3667-.624-1.777-.2023-.1394-.4289-.2138-.6486-.3021.9891-.3347.6613-1.6212 1.6201-2.0803 1.096-.5172 2.0164.5543 3.0751.1069.1953-.1325.265-.3475.1953-.5602-.5927-1.0087-1.784-1.0343-2.6602-1.5829-.6485-.3777-1.3296-.6926-1.9095-1.2342-.1325.0814-.2266.2197-.3021.344.0499.3359.2393.6067.3021.9344.1941.2441.0756.4405-.1092.5242-.1081.1092-.2615.2743-.4079.3196.0186-.1.0883-.1825.0639-.301-.1453-.1023-.1453-.2848-.1081-.4359.1081-.0941.0256-.208.0198-.3219l-.0454-.0442c-.151.6323-.4277 1.2052-.8437 1.734.0186.1895 0 .3719-.1511.4986-.1383.1453-.3719.1453-.5613.1069-.2011-.2138-.5672-.0953-.7182-.3916.1638-.0244.3591.0569.4788-.0628-.007-.1697.1069-.3278.2591-.3893.0686-.0709.1813-.0198.2639-.0709.2707-.3591.4474-.7566.5357-1.1913h-.0628c-.3091.315-.6926.4242-1.0157.7043-.2011.1209-.4137.0779-.5683-.0697-.0697.0209-.3963-.0302-.4963-.2417.1197.0174.3022.0686.3905-.0465-.0128-.1499.0884-.2755.1964-.365.1744-.0987.3406-.0708.4731.0175.122.0302.2417.0047.3521-.1255.2394-.1627.4858-.3638.6938-.5672-.3347-.2312-.5683.2789-.8705-.0174l-.1325-.1708c-.1696-.0186-.3393-.1-.4288-.265-.0128-.0314-.0314-.0616-.0244-.1058.1511.0128.2905.0616.4532.0442.0942-.1337.2278-.1778.3719-.1976.1767.007.3278.064.4544.1779.2522-.0686.5416.151.7183-.1139l.3207-.3905c-.6299-.7938-.9448-1.7898-.7995-2.8357.5357.0058 1.0645.0058 1.5573-.0825-.0883.7438-.0825 1.6386-.1708 2.3824 0 0 1.24-.3452 2.7032-.9762.1266 1.1098.6496 2.0489 1.0657 3.0321.5799-.5753 1.2609-1.01 1.777-1.6457 1.1168 1.2854 2.3568 2.551 2.8554 4.1153.1255.9774.1441 2.1361 1.1912 2.5963.1709.0883.3917.1081.5869.0697.1314-.0511.2197-.1836.258-.308.0942-.8263-.4916-1.4259-.731-2.1441-.3847-.6543-.5113-1.7456.0175-2.3813.638-.8322 1.9048-.1337 2.5544-.9332.1499-.1511.2324-.3406.3266-.5172.0953.4032-.0686.7495-.1069 1.1272.208-.0627.4358-.201.6484-.3021.2034-.1372.4103-.3464.5428-.5416-.4033.9832-.2836 2.508-1.6456 2.7672-.3835.0441-.7938.0244-1.1471-.0639-.1569 0-.308.0639-.3905.1952v.2592c.3603 1.1284 1.5062 2.2499.7566 3.5109-.3533.4277-.9007.5346-1.4307.4091-.4416-.1186-.8379-.4021-1.1656-.7566l-.0697.215c-.1256 1.462.0255 3.1332 1.3876 3.884.1185.0174.2196.0744.3452.0802l-.1942.2208.0442.0441c.6671.1325 1.3981.1058 2.0792.0187l.0197 4.1419c-1.0413.1558-2.1186 0-3.096-.1964-.7368.4161-1.0018 1.2738-1.7758 1.6003-.1267.1139-.1209.3034-.0883.4533.0372.1139.1011.215.194.3022-.3463-.0372-.6926-.2708-.8449-.6055-.043-.1058-.0813-.2127-.1255-.3266-.2336.1011-.3405.3661-.3463.6113l.0186.215c-.3847-.1394-.6171-.5741-.6485-.9762-.2278.0372-.3405.3196-.4102.523l-.0245.1952c-.3417-.4347-.4544-1.3109-.151-1.8664l.1755-.2394c-.5172 0-1.0018.1882-1.4946.3102-2.508.6532-4.5313 2.8717-7.4112 2.2674l-.0186-1.1029c-.2208-.0127-.4474.0872-.6496.1965v1.6444c-.9077.8077-2.1803.8193-3.3587 1.0204-2.1245.1069-4.3675.1197-6.1328-.8437l-.1511-.1523v-1.6503c-.1581-.1394-.3975-.165-.6055-.2335h-.0442l-.0197 1.1028-.043.0442c-1.1599.2011-2.2883-.0441-3.2715-.4544l-3.031-1.4748c-.8007-.3266-1.6526-.5927-2.5149-.6926.4276.5346.3974 1.4236.1069 2.0163l-.0814.1081c-.0581-.2848-.1208-.5858-.3905-.7636-.10107.2197-.1394.5044-.30327.7194-.08832.1372-.2336.2255-.3719.2836-.00581-.2777-.01861-.6938-.34751-.8251-.09413.4079-.44047.8251-.86233.932h-.10807c.18362-.1778.27776-.4474.17084-.6938-.78214-.3335-1.10873-1.254-1.8409-1.67-.97042.1964-2.03496.3591-3.07511.1964v-4.1164c.68104.1069 1.46782.0871 2.12329-.0628l.01975-.0256-.21383-.215c.75542-.0604 1.32256-.8681 1.53756-1.5178.2766-.781.29519-1.7839.14992-2.6416-.20687.1395-.37654.3417-.58574.48-.48579.3335-1.22841.4404-1.75255.1069-.37771-.2894-.54042-.6985-.52182-1.1715.08716-.9843.70543-1.7537 1.02038-2.6416.03137-.1569-.03717-.2952-.17663-.3661-.76936.0314-1.67587.2022-2.23139-.4788-.54738-.6369-.42186-1.5562-.77516-2.2755.28357.4532.74379.6624 1.16682.8692-.01278-.3649-.17664-.767-.08831-1.1528.14411.3916.51597.8135.93203.889.71241.1511 1.57592-.0186 2.03614.6938.87628 1.5562-.66126 2.7544-.81931 4.2036-.00581.1523.03719.2778.12551.3905.12668.1383.32191.1837.49856.1325 1.66423-.4474 1.06456-2.3266 1.68864-3.4481.65547-1.1982 1.59567-2.2744 2.53471-3.3587.54738.5915 1.19008 1.1215 1.80248 1.6502.3963-.982.9577-1.8955 1.039-3.0111.8577.3893 1.7898.6171 2.6603.9762-.0128-.7821-.0314-1.62-.1511-2.3824.4916.1127 1.0587.0383 1.5829.0639z"/>
<path fill="#868686" d="M21.7825 45.8133c.0314.3393.0941.667.1952.9773.0953-.2835.1639-.5799.1953-.8902.2022.0326.473.0267.6938.0883l-.0883.2406c.0186.5916-.057 1.2238.0639 1.7712l-.4742-.0628c.1139-.4602.057-1.0657.0453-1.5829-.1266.3905-.2905.7694-.2836 1.2168-.0883.0116-.2277.0059-.3288-.0255-.0256-.466-.1825-.8763-.2778-1.3168-.0499.4789-.1 1.0657.0453 1.5109l-.4602-.1047c.1952-.4799.0942-1.1098.0883-1.6468-.0255-.1057-.0255-.2324-.0883-.3265M28.3241 45.6872c-.1511.5358-.0756 1.1982-.0628 1.777.0314.0453.0128.1197.0384.1709-.1395.0755-.2906.1185-.4544.1325.0499-.5114.0941-1.0402.0441-1.5643-.1069.4474-.3149.8576-.3219 1.3422-.1057.0198-.1953.064-.3092.0698-.0302-.4544-.1626-.8704-.3021-1.2795-.0058.5183-.0813 1.1214.0697 1.6026-.158.0616-.3335.0558-.4986.086.1965-.5288.0698-1.1959.107-1.7956l-.107-.2394c.2209-.0314.4603-.0232.6683-.0883.0628.1011.057.2591.0895.3916l.1499.5428c.0697-.3359.2092-.6381.215-.9972.2336-.0372.4405-.1255.6741-.1511zM24.3599 46.4438c-.1708-.1336-.4219-.201-.6311-.108v.5427c.1453.0198.3603.0698.48-.043l.0186.4079c-.1441-.0697-.2894-.1383-.473-.1069l-.0256.6938c.1709.0628.4173.0628.5869 0l.1325-.0627v.3661c-.4218.0174-.8193-.0326-1.2168-.0895.107-.1837.1523-.3905.1325-.6241-.0372-.466.0884-.9948-.1081-1.3865l1.1041.0627M26.2004 46.034c-.208.5102-.057 1.1668-.1325 1.734-.0511.1441-.1766.2766-.3219.3463-.7229.1953-.9077-.3033-.9077-.3033-.0685-.5671.057-1.2098-.1127-1.7328h.5416c-.1511.4788-.0756 1.0773-.0628 1.6003.0442.1139.1639.1383.2592.1708.1371.0058.258-.0685.3266-.1952.0255-.48.0511-1.0216-.0256-1.4934l-.0628-.0825c.1337-.05.3475 0 .4986-.0442zM62.3643 12.485h3.7352v10.7118h5.0508v2.8589h-8.786M77.5168 23.7688c1.7154 0 1.906-1.7154 1.906-3.4505 0-1.7526-.1906-3.4679-1.906-3.4679-1.6014 0-1.906 1.7153-1.906 3.4679 0 1.7351.3046 3.4505 1.906 3.4505zm0-9.4729c3.7934 0 5.5656 2.687 5.5656 6.0224 0 3.3168-1.7722 6.0049-5.5656 6.0049-3.7933 0-5.5656-2.6881-5.5656-6.0049 0-3.3354 1.7723-6.0224 5.5656-6.0224zM91.5632 18.9845c0-.9727-.229-1.7537-1.1053-1.7537-.6868 0-1.4108.6857-1.9257 1.1633v7.6611h-3.583V14.5625h3.583v1.5433c1.2772-1.0668 2.2116-1.8106 3.7747-1.8106 2.8392 0 2.8392 2.2883 2.8392 3.6411v8.1189h-3.5829M104.276 17.8981c-.495-.5334-.935-.9332-1.659-.9332-1.677 0-1.753 2.0582-1.753 3.4877 0 1.0483.113 3.2018 1.715 3.2018.781 0 1.22-.4382 1.697-.8775v-4.8788zm3.583 8.1573h-3.583v-1.2191c-1.258 1.2773-2.269 1.4865-3.165 1.4865-3.2772 0-3.9059-3.2786-3.9059-6.1759 0-2.573.6287-5.8515 4.0009-5.8515 1.411 0 2.154.6485 3.07 1.4295v-4.4791h3.583M115.292 23.7688c1.715 0 1.906-1.7154 1.906-3.4505 0-1.7526-.191-3.4679-1.906-3.4679-1.601 0-1.906 1.7153-1.906 3.4679 0 1.7351.305 3.4505 1.906 3.4505zm0-9.4729c3.793 0 5.566 2.687 5.566 6.0224 0 3.3168-1.773 6.0049-5.566 6.0049s-5.564-2.6881-5.564-6.0049c0-3.3354 1.771-6.0224 5.564-6.0224zM129.339 18.9845c0-.9727-.229-1.7537-1.107-1.7537-.686 0-1.41.6857-1.924 1.1633v7.6611h-3.583V14.5625h3.583v1.5433c1.277-1.0668 2.21-1.8106 3.774-1.8106 2.84 0 2.84 2.2883 2.84 3.6411v8.1189h-3.583M63.4507 41.8939c.2475.953 1.0099 2.0966 2.8206 2.0966 1.7153 0 2.63-1.2191 2.63-2.3627 0-1.4679-.9333-1.9258-1.4295-2.1547l-3.2774-1.5247c-1.2772-.5904-2.021-1.5632-2.021-2.9729 0-2.6498 2.307-3.7166 4.2501-3.7166 1.9258 0 3.5075.6671 4.156 2.4777l-1.7154.5718c-.3243-1.2772-1.4678-1.6398-2.4406-1.6398-1.677 0-2.3824.9542-2.3824 2.193 0 1.3331.9157 1.7526 1.792 2.1338l2.4394 1.068c.8391.3615 2.4976 1.182 2.4976 3.5261 0 1.2772-.7822 3.8119-4.6511 3.8119-2.9728 0-4.0792-1.8676-4.3651-2.8787M73.5893 31.9641l1.6782-.7054v3.4877h2.6486v1.2587h-2.6486v6.213c0 .9343.0953 1.792 1.3342 1.792.5334 0 .8182-.0953 1.4097-.3242V45.02c-.6287.2475-1.2958.3242-1.5817.3242-2.4208 0-2.8404-1.6584-2.8404-2.9158v-6.4233h-1.6967v-1.2587h1.6967M80.6424 39.4543c0 2.2105.6102 4.5558 2.9926 4.5558 2.3825 0 2.9926-2.3453 2.9926-4.5558 0-2.1732-.6101-4.4976-2.9926-4.4976-2.3824 0-2.9926 2.3244-2.9926 4.4976zm-1.7537.0186c0-2.8961 1.2958-5.8504 4.7463-5.8504 4.0025 0 4.7452 3.583 4.7452 5.8504 0 2.9159-1.2959 5.8713-4.7452 5.8713-4.0025 0-4.7463-3.5841-4.7463-5.8713zM96.7663 37.034c-.1336-.4579-.5904-2.0768-2.1919-2.0768-2.3824 0-2.9926 2.3244-2.9926 4.4976 0 2.2686.6102 4.5558 2.7067 4.5558 1.2575 0 2.1152-.7438 2.5731-2.0594l1.4678.4765c-.6868 1.5829-1.5631 2.917-4.0409 2.917-3.7166 0-4.4604-3.3552-4.4604-5.8713 0-2.2674.7438-5.8515 4.7463-5.8515 1.7154 0 2.9159.8007 3.6981 2.9542M101.817 30.3057v8.5582l4.345-5.0136h2.135l-4.669 5.2042 4.993 6.0607h-2.173l-4.593-5.7945h-.038v5.7945h-1.678V30.3057M115.405 31.5446h8.158v1.4109h-6.404v4.4208h6.079v1.411h-6.079v4.9171h6.594v1.4108h-8.348M125.127 33.8508h1.963l1.982 3.3354c.191.3057.4.7055.552 1.0298h.039c.152-.3243.362-.7241.553-1.0298l2.077-3.3354h1.83l-3.392 5.2612 3.678 6.0037h-2.001l-2.458-4.2129c-.135-.2289-.267-.5148-.326-.6856h-.037c-.058.1336-.172.3997-.362.6856l-2.65 4.2129h-1.906l3.755-5.9665M142.166 37.034c-.134-.4579-.592-2.0768-2.192-2.0768-2.383 0-2.993 2.3244-2.993 4.4976 0 2.2686.61 4.5558 2.707 4.5558 1.257 0 2.115-.7438 2.573-2.0594l1.467.4765c-.686 1.5829-1.562 2.917-4.04 2.917-3.717 0-4.46-3.3552-4.46-5.8713 0-2.2674.743-5.8515 4.746-5.8515 1.715 0 2.916.8007 3.697 2.9542M145.387 30.3057h1.677v5.375c.914-.8193 2.096-2.0582 3.812-2.0582 1.735 0 2.802 1.0483 2.782 3.182v8.3107h-1.677v-7.7005c0-1.1436-.266-2.2674-1.657-2.2674-1.565 0-2.575 1.1436-3.26 1.9432v8.0247h-1.677M161.148 39.4354c-2.401 0-3.812.7624-3.812 2.4591 0 1.0286.495 2.0013 1.888 2.0013.685 0 1.6-.172 3.145-1.9257v-2.5347h-1.221zm-4.955-2.9926c.515-1.3528 1.353-2.8206 4.079-2.8206 3.335 0 3.774 2.2686 3.774 4.2501v5.9282c0 .2476 0 .6857.094 1.3144h-1.771v-1.906h-.039c-1.086 1.4295-2.192 2.0211-3.526 2.0211-2.325 0-3.146-1.7154-3.146-3.1832 0-2.5731 1.983-3.8689 5.089-3.8689h1.622v-.724c0-.7624 0-2.5731-2.193-2.5731-1.392 0-2.04.781-2.535 2.0013M166.561 33.8508h1.678v1.8293c.913-.8194 2.095-2.0582 3.811-2.0582 1.735 0 2.802 1.0482 2.783 3.1831v8.3107h-1.678v-7.7005c0-1.1436-.266-2.2686-1.658-2.2686-1.563 0-2.573 1.1436-3.258 1.9443v8.0248h-1.678M181.027 39.6261c1.411 0 2.554-.8391 2.554-2.4964 0-1.5631-1.086-2.3638-2.554-2.3638-1.468 0-2.555.8007-2.555 2.3638 0 1.6573 1.144 2.4964 2.555 2.4964zm-1.201 4.0409c-.953.6089-1.677 1.2958-1.677 2.2673 0 1.4109 1.906 1.7735 3.259 1.7735 1.887 0 2.916-.8007 2.916-1.8304 0-.7241-.285-1.2191-1.81-1.5817l-2.688-.6287zm6.462-8.6722h-2.021c.649.6288.916 1.2389.916 2.2674 0 1.6015-1.05 3.5075-4.251 3.5075-.4 0-.668-.0384-.877-.0954-.381.3243-.553.5149-.553.8578 0 .3998.152.5531 1.468.8576l1.83.4196c1.676.3812 3.202.9332 3.202 2.9542 0 2.4011-2.593 3.2018-4.88 3.2018-2.362 0-4.574-.7624-4.574-2.8206 0-1.4864.953-2.2488 2.135-2.974-.267-.1325-.781-.3812-.781-1.1238 0-.8205.533-1.2203 1.124-1.6584-.724-.2673-2.154-1.2203-2.154-3.1634 0-1.9444 1.353-3.6028 4.098-3.6028.801 0 1.372.0953 1.868.2289h3.45M194.521 38.6538c0-2.0199-.915-3.698-2.706-3.698-1.753 0-2.708 1.3911-2.935 3.698h5.641zm-5.641 1.2574c.075 3.031 1.486 4.0979 2.992 4.0979 1.83 0 2.535-1.3713 2.706-1.9815l1.468.5149c-.724 1.7339-2.116 2.8008-4.174 2.8008-4.002 0-4.746-3.583-4.746-5.8701 0-2.2686.744-5.8516 4.746-5.8516 3.239 0 4.403 2.802 4.403 5.4518v.8378"/>
</svg>