<svg width="37" height="36" viewBox="0 0 37 36" fill="none" xmlns="http://www.w3.org/2000/svg">
<g>
<path d="M28.5554 0L0.981445 4.862L3.41248 18.649L5.98145 18.196V7H29.7894L28.5554 0ZM35.9814 9H7.98145V22.999H20.9814C20.9814 19.691 23.6724 17.001 26.9814 17.001C30.2904 17.001 32.9814 19.691 32.9814 22.999H35.9814V9ZM26.9814 19.001C24.7724 19.001 22.9814 20.791 22.9814 23C22.9814 25.21 24.7724 27 26.9814 27C29.1904 27 30.9814 25.21 30.9814 23C30.9814 20.791 29.1904 19.001 26.9814 19.001ZM18.9814 27.001C16.7724 27.001 14.9814 28.791 14.9814 31C14.9814 33.21 16.7724 35 18.9814 35C21.1904 35 22.9814 33.21 22.9814 31C22.9814 28.791 21.1904 27.001 18.9814 27.001Z" fill="#EC231A"/>
</g>
<defs>
<clipPath id="clip0">
<path d="M0.99707 0H36.9971V36H0.99707V0Z" fill="white"/>
</clipPath>
</defs>
</svg>
