<svg xmlns="http://www.w3.org/2000/svg" width="143" height="44" fill="none">
  <path fill="#868686" d="M0 0h43.7864v43.7864H0V0z"/>
  <path fill="#868686" fill-rule="evenodd" d="M71.2555 8.86642c1.291-.23723 2.6241-.03534 3.7869.57344.6628.35609 1.2421.84944 1.6992 1.44704.4571.5977.7815 1.2859.9516 2.0189.3091 1.2876.1907 2.6409-.3372 3.8554-.479 1.0816-1.3131 1.9672-2.3641 2.5101-1.2241.6227-2.6274.7981-3.9672.4959-.7502-.1631-1.4564-.4861-2.0704-.947-.614-.4609-1.1214-1.0488-1.4874-1.7236-.5738-1.134-.7793-2.4187-.5879-3.6751.156-1.1999.7149-2.3113 1.5851-3.1521.7775-.7275 1.7488-1.2147 2.7969-1.40298h-.0055zm.4473 2.03048c-.4823.0876-.9385.283-1.3347.5715-.3962.2885-.7222.6627-.9537 1.0947-.3667.7367-.4976 1.5685-.3751 2.3822.0502.455.1954.8944.4263 1.2897.2309.3953.5422.7376.9139 1.0049.3716.2672.7953.4534 1.2435.5465.4482.093.911.0909 1.3583-.0064.5072-.095.9845-.3097 1.3922-.6261.4077-.3165.7341-.7256.952-1.1934.6204-1.3813.4076-3.1918-.7321-4.2503-.3862-.3479-.8474-.6022-1.3477-.7433-.5004-.141-1.0265-.165-1.5375-.07h-.0054zm10.578-1.97278c1.5554-.29716 3.1627-.15734 4.6434.40394.7202.24062 1.3959.59825 1.9999 1.05854-.3751.5915-.7628 1.1739-1.1343 1.7654-.8674-.541-1.8033-1.0189-2.8167-1.1848-.9431-.1586-1.9836-.256-2.8654.2182-.3859.1912-.6384.7213-.3715 1.1127.33.3841.8692.4255 1.338.4941 1.4066.2019 2.8745.119 4.2197.6401.817.312 1.4788.9324 1.8429 1.7276.3282.8529.1804 1.8159-.1803 2.6346-.4867.8576-1.2848 1.4949-2.2288 1.7798-1.0189.3606-2.1225.3715-3.19.2939-1.6699-.1352-3.3559-.6924-4.6272-1.8141.4309-.6023.8655-1.2046 1.2983-1.8033.7202.602 1.5455 1.0655 2.4344 1.3669.8767.2608 1.7988.3315 2.705.2074.4764-.0511.9291-.2341 1.3073-.5284.2233-.1777.3769-.4283.4339-.7079.057-.2795.0139-.5703-.1219-.8212-.4436-.5104-1.1505-.6835-1.8033-.7213-1.2478-.1569-2.5336-.0992-3.7454-.4815-.651-.2002-1.2821-.5699-1.6392-1.1667-.3877-.6041-.3913-1.3669-.2542-2.0468.1046-.4378.3158-.8429.6149-1.1793.5193-.67804 1.3452-1.03509 2.1495-1.24247l-.009-.00541zM91.95 10.3667c.904-.90599 2.1031-1.45756 3.3793-1.55438 1.2497-.11721 2.5733.05771 3.6553.73213.7136.43525 1.3234 1.02115 1.7874 1.71675-.608.4237-1.205.8565-1.8145 1.2767-.3114-.5382-.7528-.9895-1.2839-1.3128-.83-.4002-1.7751-.4928-2.6671-.2615-.4227.1128-.8167.3138-1.1561.5898-.3394.276-.6165.6207-.8131 1.0115-.3358.6296-.4824 1.343-.4219 2.054.0391.9211.4295 1.7922 1.091 2.4344.6618.6185 1.6067.8494 2.4939.7826 1.2965-.0685 2.4525-.9918 2.961-2.1639.5752.4147 1.1357.8493 1.7077 1.2731-.674 1.3074-1.861 2.4056-3.3018 2.7879-1.1054.254-2.256.2348-3.3523-.0559-1.3633-.3192-2.503-1.3254-3.1377-2.5553-.5676-1.1204-.7676-2.3912-.5717-3.6318.1677-1.1505.6204-2.2883 1.4427-3.1251l.0018.0018zm14.841-1.53815c1.342-.18742 2.708.10369 3.857.82229.605.38856 1.125.89596 1.528 1.49146s.681 1.2666.816 1.9726c.221 1.0922.143 2.2236-.227 3.2748-.439 1.2289-1.322 2.249-2.476 2.86-1.101.5785-2.359.7889-3.588.6005-1.394-.1973-2.657-.9262-3.526-2.0341-.725-1.022-1.111-2.2455-1.105-3.4985.006-1.253.405-2.4726 1.14-3.4874.889-1.10735 2.174-1.82523 3.583-2.00165h-.002zm-.04 2.11885c-.475.1165-.917.3394-1.294.6517-.376.3124-.677.7061-.879 1.1516-.616 1.4101-.369 3.2459.815 4.2918.375.3194.816.5522 1.291.6819.475.1296.973.1529 1.458.0682.508-.0778.989-.2758 1.405-.5775.416-.3018.754-.6985.986-1.1572.701-1.4246.472-3.3595-.765-4.4216-.411-.3486-.899-.5937-1.424-.7148-.525-.1211-1.071-.1147-1.593.0187v.0072zM53.9891 8.99265h1.5581c.1136-.02705.1569.09557.2146.1641 1.2388 1.75815 2.4921 3.50555 3.7273 5.26555 1.2948-1.8033 2.5968-3.6065 3.8843-5.42605h1.6554V19.6572h-2.1279v-6.5585c-1.1486 1.623-2.2703 3.2676-3.4118 4.8959-1.1324-1.6229-2.2432-3.2459-3.3757-4.8688v6.5387H53.991V9.00166l-.0019-.00901zm59.3509 0h2.164c.7 2.21445 1.4 4.42945 2.099 6.64505.751-2.2126 1.481-4.4324 2.227-6.64686h1.578c.747 2.19996 1.459 4.41446 2.222 6.60906.707-2.2 1.398-4.4073 2.099-6.60906h2.11c-1.149 3.55726-2.304 7.11216-3.464 10.66456h-1.457c-.774-2.2973-1.54-4.5965-2.325-6.8903-.772 2.2956-1.527 4.5966-2.303 6.8903h-1.457c-1.167-3.562-2.332-7.1163-3.496-10.66275h.003zM77.5634 24.5459c1.1072-.8511 2.548-1.1649 3.9221-1.0729 1.175.0411 2.303.4718 3.2063 1.2244.4275.361.8047.7776 1.1216 1.2389-.6077.4418-1.2298.8619-1.8357 1.3073-.1812-.3745-.438-.7074-.7543-.9778-.3163-.2703-.6851-.4722-1.0833-.5928-.7369-.2061-1.517-.1998-2.2505.018-.9936.303-1.7329 1.1685-2.0593 2.1351-.1934.6764-.2231 1.3891-.0866 2.0792.2074.9323.7754 1.8249 1.6428 2.2649.4337.2152.907.3388 1.3905.3629.4835.0242.9668-.0515 1.4198-.2224.4529-.1709.8658-.4333 1.2129-.7708.347-.3376.6208-.743.8042-1.191l1.7059 1.2803c-.6744 1.302-1.8502 2.3948-3.2838 2.7825-1.1663.2707-2.3826.2378-3.5326-.0956-1.2893-.3607-2.3587-1.3236-2.9682-2.4994-.7213-1.3344-.8006-2.9447-.4274-4.3945.2709-1.1453.9297-2.1615 1.8646-2.8763h-.009zm48.6886-1.0333c1.287-.1496 2.647 0 3.787.642.739.4021 1.379.9654 1.872 1.6482-.609.422-1.21.8482-1.804 1.2785-.23-.3985-.547-.7403-.927-1.0003-.38-.2599-.814-.4314-1.269-.5018-.826-.1226-1.726-.0433-2.458.3877-.443.2845-.816.6662-1.089 1.1161-.274.4499-.442.9563-.491 1.4806-.095 1.0477.154 2.164.861 2.9718.595.651 1.493.9179 2.344.9846.553.0454 1.109-.0573 1.61-.2975.5-.2402.928-.6093 1.239-1.0694v-.797c-.831 0-1.663.0108-2.492 0 .011-.6203 0-1.2407 0-1.861h4.616v3.3379c-.588.9698-1.43 1.761-2.434 2.2883-1.001.5014-2.164.541-3.246.4256-.67-.0607-1.321-.2563-1.913-.5752-.592-.3189-1.114-.7545-1.533-1.2804-1.647-2.1242-1.674-5.4278.124-7.4746.83-.9314 1.964-1.5368 3.199-1.7077l.004.0036zm-72.2592.1605h8.5745v2.0287h-6.4449v1.9548h3.8987v2.0287h-3.9023v2.6237h6.8362c.0127.6781 0 1.3561 0 2.0341h-8.9731V23.6858l.0109-.0127zm9.918 0c.9016 0 1.7942-.009 2.6887 0 .981 1.2118 1.9728 2.4146 2.961 3.621.9864-1.2118 1.9836-2.4146 2.9645-3.6264h2.6617c-1.4354 1.7588-2.8732 3.5092-4.3135 5.2512 1.4679 1.8033 2.9574 3.5939 4.4181 5.4098h-2.7572c-1.0087-1.2418-2.0185-2.4825-3.0295-3.722-1.0063 1.2371-2.0161 2.4711-3.0296 3.7022-.8673.0505-1.7437 0-2.6147.0216 1.4426-1.784 2.8906-3.5645 4.3441-5.3413-1.421-1.7834-2.8762-3.5398-4.3026-5.3197l.009.0036zm23.6662 0h2.1297v3.8555h4.8346v-3.8591h2.1206c.0181 3.5561 0 7.1122 0 10.6682h-2.1278v-4.775h-4.8328v4.775h-2.1297V23.6786l.0054-.0055zm10.2408 10.6556c1.742-3.5524 3.4852-7.1043 5.2292-10.6556.541-.0108 1.066 0 1.6 0 1.763 3.5513 3.522 7.105 5.276 10.661h-2.357c-.432-.8836-.874-1.76-1.3-2.6454h-4.822c-.434.8782-.842 1.769-1.275 2.6472h-2.344l-.0072-.0072zm4.6432-4.6723h2.792c-.469-.9359-.947-1.8664-1.412-2.8023-.464.9323-.929 1.8646-1.38 2.8023zm8.6-5.9869h1.289c1.948 2.1892 3.891 4.382 5.83 6.5784v-6.5766h2.128v10.6574h-1.271c-1.954-2.1916-3.903-4.385-5.848-6.5801v6.5747c-.711.0108-1.421 0-2.131 0V23.6731l.003-.0036zm22.721 0h8.575v2.0287h-6.449v1.9512h3.919v2.0287h-3.919v2.6255h6.842v2.0305h-8.971l.003-10.6646z" clip-rule="evenodd"/>
  <path fill="#FAFAFA" d="M30.1034 28.2788L13.6835 10.0344l-1.4823 2.5086 1.4823 2.9647 16.4199 18.2444 1.5394-3.4209-1.5394-2.0524z"/>
  <path fill="url(#paint0_linear)" d="M14.04 21.89h10.9466v11.3444H14.04z" transform="rotate(-46 14.04 21.89)"/>
  <path fill="#FEFEFE" d="M10.0342 12.7711l3.6488-2.7367v18.2444l16.4199-18.2444 3.6489 2.5866v18.3944l-3.6489 2.7367V15.5077L13.683 33.7521l-3.6488-2.7367V12.7711z"/>
  <defs>
    <linearGradient id="paint0_linear" x1="19.5133" x2="18.7939" y1="21.89" y2="32.9729" gradientUnits="userSpaceOnUse">
      <stop stop-color="#868686" stop-opacity="0"/>
      <stop offset=".430939" stop-color="#868686"/>
      <stop offset=".574586" stop-color="#868686"/>
      <stop offset="1" stop-color="#868686" stop-opacity="0"/>
    </linearGradient>
  </defs>
</svg>