<svg xmlns="http://www.w3.org/2000/svg" width="146" height="64" fill="none">
  <g clip-path="url(#clip3)">
    <path fill="#868686" fill-rule="evenodd" d="M34.4142 19c-2.8713 0-5.8259.9507-7.9065 2.9348-2.5384 2.4388-3.7036 5.9937-3.7868 9.4246-.0833 2.9348.4993 5.911 2.0806 8.4325 1.2068 1.9841 3.1626 3.5548 5.4098 4.2989 2.4967.8267 5.2432.868 7.7816.2067 2.7465-.7854 5.0769-2.6869 6.3253-5.167 1.6645-3.0588 1.9974-6.6551 1.498-10.0446-.4161-2.6868-1.5813-5.3736-3.6203-7.2751-1.9975-1.8601-4.7439-2.7695-7.4904-2.8108-.0832.0413-.1665 0-.2913 0zM0 19.9507v23.9334h4.11972V27.8045L16.6453 43.8841h3.4123V19.9507H16.146v13.1861L5.74263 19.9507H0zm53.9308 0L45.192 43.8841h4.2446l5.9091-16.1623 6.0339 16.1623h6.4085l-9.0717-23.892h-4.7856v-.0414zm9.155 0l-1.4981 4.0923 2.1639 5.7043.7906-2.0668 5.8675 16.1623h6.6581l-9.0301-23.8921h-4.9519zm14.5646 0c0 5.539-.0416 11.078 0 16.617.1248 2.1908.8323 4.4229 2.4968 5.911 1.7061 1.5707 4.1613 2.1494 6.4917 2.2735 2.2055.0826 4.4526-.124 6.45-1.1161 1.8726-.9094 3.2043-2.6868 3.7452-4.6296.6658-2.2321.3329-4.6296.4162-6.9444V19.9507h-4.3694V35.617c0 1.5294-.1665 3.2655-1.3733 4.4229-1.2484 1.0747-3.0377 1.0747-4.5774.868-1.4565-.2066-2.6217-1.364-2.913-2.7281-.4993-1.9015-.208-3.8442-.2913-5.7457v-12.442c-2.039-.0414-4.0364-.0414-6.0755-.0414zm23.5946 0v23.8921h6.034V23.2989c1.29.0414 2.622-.124 3.87.124 1.207.2067 2.289 1.0748 2.622 2.2735.457 1.2401.458 2.7281-.042 3.9682-.499 1.1988-1.789 1.8188-3.038 2.0668-.79.1653-1.623.248-2.413.3307 2.08 3.9269 4.161 7.8951 6.242 11.822h6.45c-1.914-3.5135-3.787-7.0271-5.701-10.5406 1.623-.5787 3.204-1.4468 4.036-2.9762.749-1.3227.874-2.8935.791-4.3402-.208-1.9841-1.373-3.8856-3.121-4.8776-1.498-.9921-3.371-1.1988-5.118-1.1161-3.579-.0827-7.075-.0827-10.612-.0827zm29.795 0l-9.446 23.9334h4.12l2.58-6.6137h8.655l2.622 6.6137h6.617l-9.613-23.892h-5.535v-.0414zm-96.4594 2.3562c.3746 0 .7491.0826 1.082.2066 1.9974.6201 3.2458 2.4388 3.7868 4.299.6242 1.8601.749 3.8442.7074 5.787-.0832 2.6041-.5826 5.3736-2.4135 7.399-.8739.8681-2.0391 1.5708-3.3291 1.5295-2.2471.0413-3.9949-1.8188-4.7855-3.7202-1.082-2.6455-1.2068-5.539-.9155-8.3085.2913-2.2322.9987-4.5883 2.7881-6.1177.8738-.7441 1.9974-1.1161 3.0793-1.0747zm98.0414 4.0509l2.954 7.5231h-5.909l2.955-7.5231zm-75.6118 9.1765l-3.0794 8.3498h3.8701l1.1651-3.1415-1.9558-5.2083z" clip-rule="evenodd"/>
  </g>
  <defs>
    <clipPath id="clip3">
      <path fill="#fff" d="M0 0h146v64H0z"/>
    </clipPath>
  </defs>
</svg>