<svg width="311" height="65" viewBox="0 0 311 65" fill="none" xmlns="http://www.w3.org/2000/svg">
<g clip-path="url(#clip2)">
<path d="M176.664 63.5969H165.721V20.6841H174.786C174.786 20.6841 187.117 36.0277 192.916 43.3302C193.161 43.6584 193.406 43.9866 193.896 44.4789V20.6841H204.839V63.5148C201.899 63.5148 195.692 63.4328 195.692 63.4328C195.692 63.4328 183.442 48.0892 177.644 40.8687C177.399 40.5405 177.073 40.2123 176.583 39.6379C176.664 47.9251 176.664 55.72 176.664 63.5969ZM102.676 64.4994C90.2624 64.4994 79.9727 54.325 79.9727 42.1814C79.9727 30.0379 90.3441 19.9455 102.757 19.9455C115.171 19.9455 125.46 30.0379 125.379 42.2635C125.379 54.4891 115.089 64.4994 102.676 64.4994ZM114.272 42.1814C114.272 35.6994 109.209 30.6122 102.757 30.5302C96.3056 30.4481 91.0791 35.6994 91.0791 42.2635C91.0791 48.7455 96.224 53.9148 102.676 53.9148C109.127 53.9148 114.272 48.7455 114.272 42.1814ZM128.645 63.5969V20.8481H161.311V31.4328H139.588V36.7661H149.388V46.7763H139.588V53.0943H161.23V63.6789C150.45 63.5969 139.588 63.5969 128.645 63.5969ZM48.3683 37.3405H65.8446V20.7661H76.7061V63.5148H65.9263V47.761H48.5317V63.5148H37.6702V20.7661H48.45C48.3683 26.3456 48.3683 31.761 48.3683 37.3405ZM11.3741 53.9148V63.6789H0.512695V20.8482C0.920995 20.8482 1.2477 20.7661 1.5743 20.7661H17.3357C21.2556 20.7661 25.0122 21.5046 28.1971 23.9661C33.1787 27.8225 34.7303 33.1558 34.2403 39.2276C33.832 43.9046 32.0354 47.843 28.2788 50.7969C25.5022 52.9302 22.3172 53.8328 18.8873 53.9148C15.9474 53.9969 11.3741 53.9148 11.3741 53.9148ZM11.4558 43.8225H18.1523C20.1123 43.7405 21.7456 42.7558 22.5622 40.8687C23.4605 38.7353 23.5422 36.5199 22.8072 34.3046C22.1539 32.4174 20.4389 31.0225 18.3156 31.0225C15.294 31.0225 11.4558 30.9405 11.4558 30.9405V43.8225ZM252.694 42.0995L267.312 63.6789L253.756 63.843L246.161 51.9456L238.321 63.843L225.01 63.6789L239.628 42.0995L225.336 20.8482L238.158 20.6841L246.161 32.4174L252.694 42.0995ZM220.845 63.5969H210.065V20.7661H220.845V63.5969ZM2.146 9.36094V11.9866H0.920995V4.93024H3.616C4.4326 4.93024 5.0043 5.09424 5.4943 5.50454C5.98429 5.91484 6.1476 6.48914 6.1476 7.14554C6.1476 7.80204 5.9026 8.37634 5.4943 8.78654C5.0859 9.19684 4.4326 9.36094 3.616 9.36094H2.146ZM2.146 8.37634H3.616C4.0243 8.37634 4.351 8.29434 4.596 8.04814C4.841 7.80204 4.9226 7.55584 4.9226 7.14554C4.9226 6.81734 4.8409 6.48914 4.5959 6.24304C4.3509 5.99684 4.0243 5.91484 3.6976 5.91484H2.146V8.37634ZM10.0675 9.27894H8.6792V11.9866H7.5359V4.93024H9.9859C10.8025 4.93024 11.3741 5.09424 11.8641 5.50454C12.3541 5.91484 12.5175 6.40714 12.5175 7.06354C12.5175 7.55584 12.4358 7.88404 12.1908 8.21224C11.9458 8.54044 11.6191 8.78664 11.2108 8.95074L12.7624 11.9045V11.9866H11.4558L10.0675 9.27894ZM8.7609 8.29434H9.9859C10.3942 8.29434 10.7208 8.21234 10.9658 7.96614C11.2108 7.71994 11.2925 7.47374 11.2925 7.14564C11.2925 6.73534 11.2108 6.48914 10.9658 6.24304C10.7208 5.99684 10.4758 5.91484 9.9858 5.91484H8.6792V8.29434H8.7609ZM17.989 8.78654H15.1307V10.9199H18.479V11.9045H13.9058V4.93024H18.479V5.91484H15.1307V7.88404H17.989V8.78664V8.78654ZM23.3789 10.0995C23.3789 9.77125 23.2972 9.52514 23.0522 9.36094C22.8072 9.19694 22.4806 9.03284 21.9089 8.86864C21.3373 8.70464 20.929 8.54044 20.6023 8.37634C19.949 7.96614 19.6223 7.47384 19.6223 6.81734C19.6223 6.24304 19.8673 5.75074 20.2756 5.42254C20.684 5.09434 21.3373 4.84814 22.0723 4.84814C22.5623 4.84814 22.9706 4.93014 23.3789 5.09434C23.7872 5.25834 24.0322 5.50454 24.2772 5.83274C24.5222 6.16104 24.6039 6.57124 24.6039 6.89944H23.3789C23.3789 6.57124 23.2972 6.24304 23.0522 6.07894C22.8072 5.91484 22.4806 5.75074 22.0723 5.75074C21.6639 5.75074 21.3373 5.83274 21.1739 5.99694C21.0106 6.16094 20.8473 6.40714 20.8473 6.73534C20.8473 6.98154 20.929 7.22764 21.1739 7.39174C21.4189 7.55584 21.8273 7.71994 22.3173 7.88404C22.8072 8.04814 23.2972 8.21224 23.6239 8.45844C23.9506 8.70454 24.1956 8.86864 24.3589 9.19694C24.5222 9.52514 24.6039 9.77125 24.6039 10.0994C24.6039 10.6738 24.3589 11.1661 23.9506 11.4943C23.5422 11.8225 22.8889 11.9866 22.1539 11.9866C21.6639 11.9866 21.1739 11.9045 20.7656 11.7404C20.3573 11.5763 20.0306 11.3302 19.7856 11.002C19.5407 10.6738 19.459 10.2635 19.459 9.85334H20.684C20.684 10.2635 20.8473 10.5917 21.0923 10.7558C21.3373 10.9199 21.7456 11.084 22.2356 11.084C22.6439 11.084 22.9706 11.002 23.2156 10.8379C23.4606 10.6738 23.3789 10.4276 23.3789 10.0994V10.0995ZM30.0754 8.78654H27.2171V10.9199H30.5654V11.9045H25.9921V4.93024H30.4837V5.91484H27.1354V7.88404H29.9937V8.78664H30.0754V8.78654ZM37.3436 11.9045H36.1186L33.0153 6.89944V11.9045H31.7903V4.93024H33.0153L36.1186 9.93525V4.93024H37.3436V11.9045ZM43.9584 5.91484H41.7535V11.9045H40.5285V5.91484H38.4052V4.93024H43.9584V5.91484ZM49.2667 8.78654H46.4084V10.9199H49.7566V11.9045H45.1834V4.93024H49.675V5.91484H46.3267V7.88404H49.185V8.78664H49.2667V8.78654ZM50.9816 11.9045V4.93024H53.0233C53.6766 4.93024 54.1666 5.09424 54.6566 5.34044C55.1465 5.58664 55.4732 5.99684 55.7999 6.48914C56.1265 6.98154 56.2082 7.55584 56.2082 8.21224V8.54044C56.2082 9.19685 56.0449 9.77124 55.7999 10.2635C55.5549 10.7558 55.1465 11.1661 54.6566 11.4122C54.1666 11.6584 53.5949 11.8225 53.0233 11.8225H50.9816V11.9045ZM52.2066 5.91484V11.002H53.0233C53.6766 11.002 54.1666 10.8379 54.4932 10.4276C54.8199 10.0173 54.9832 9.44304 54.9832 8.70464V8.29434C54.9832 7.55584 54.8199 6.98144 54.4932 6.57124C54.1666 6.16094 53.6766 5.99684 53.0233 5.99684H52.2066V5.91484ZM60.4547 11.9045V4.93024H62.823C63.6397 4.93024 64.2113 5.09424 64.6196 5.42254C65.028 5.75074 65.2729 6.24304 65.2729 6.81734C65.2729 7.14554 65.1913 7.39174 65.028 7.71994C64.8646 8.04814 64.538 8.13024 64.2113 8.29434C64.6196 8.37634 64.8646 8.62254 65.1096 8.86864C65.3546 9.11484 65.4363 9.52504 65.4363 9.85324C65.4363 10.5097 65.1913 11.002 64.783 11.3302C64.3746 11.6584 63.803 11.8225 62.9863 11.8225H60.4547V11.9045ZM61.598 7.88404H62.823C63.2313 7.88404 63.4763 7.80204 63.7213 7.63794C63.9663 7.47374 64.048 7.22764 64.048 6.89944C64.048 6.57124 63.9663 6.32504 63.7213 6.16094C63.4763 5.99694 63.2313 5.91484 62.823 5.91484H61.6797V7.88404H61.598ZM61.598 8.78664V11.002H62.9047C63.313 11.002 63.558 10.9199 63.803 10.7558C64.048 10.5917 64.1296 10.2635 64.1296 9.93534C64.1296 9.19684 63.7213 8.86864 62.9863 8.78664H61.598ZM68.9479 8.29424L70.5812 5.01224H71.8878L69.5195 9.44304V11.9866H68.2946V9.44304L65.9263 5.01224H67.2329L68.9479 8.29424ZM76.9511 11.9045H75.7261V4.93024H76.9511V11.9045ZM83.5659 5.91484H81.361V11.9045H80.136V5.91484H78.0944V4.93024H83.6476V5.91484H83.5659ZM86.0975 11.9045H84.8726V4.93024H86.0975V11.9045ZM95.8973 9.68924C95.8156 10.4276 95.5707 11.002 95.0807 11.4122C94.5907 11.8225 93.9374 12.0686 93.2024 12.0686C92.6307 12.0686 92.1407 11.9045 91.7324 11.6584C91.3241 11.4122 90.9974 11.002 90.7524 10.5097C90.5074 10.0174 90.4258 9.44304 90.4258 8.78664V8.13024C90.4258 7.47384 90.5074 6.89944 90.7524 6.40724C90.9974 5.91484 91.3241 5.50454 91.7324 5.25844C92.1407 5.01224 92.6307 4.84814 93.2024 4.84814C93.9374 4.84814 94.5907 5.09434 95.0807 5.50454C95.5707 5.91484 95.8156 6.48924 95.8973 7.30974H94.6723C94.5907 6.81744 94.509 6.40714 94.264 6.24304C94.019 6.07894 93.6924 5.91484 93.2024 5.91484C92.7124 5.91484 92.3041 6.07894 91.9774 6.48924C91.6507 6.89944 91.5691 7.47384 91.5691 8.21224V8.70454C91.5691 9.44304 91.7324 10.0174 91.9774 10.4276C92.2224 10.8379 92.6307 11.002 93.2024 11.002C93.6924 11.002 94.019 10.9199 94.264 10.6738C94.509 10.4276 94.6723 10.0994 94.754 9.60714H95.8973V9.68914V9.68924ZM101.206 10.3455H98.5106L97.9389 11.9866H96.714L99.3272 5.01224H100.389L103.002 11.9866H101.777L101.206 10.3456V10.3455ZM98.8373 9.36094H100.879L99.8989 6.48914L98.8373 9.36094ZM105.289 9.36094V11.9866H104.064V4.93024H106.759C107.576 4.93024 108.147 5.09424 108.637 5.50454C109.127 5.91484 109.291 6.48914 109.291 7.14554C109.291 7.80204 109.046 8.37634 108.637 8.78654C108.229 9.19684 107.576 9.36094 106.759 9.36094H105.289ZM105.289 8.37634H106.759C107.167 8.37634 107.494 8.29434 107.739 8.04814C107.984 7.80204 108.066 7.55584 108.066 7.14554C108.066 6.73534 107.984 6.48914 107.739 6.24304C107.494 5.99684 107.167 5.91484 106.759 5.91484H105.289V8.37634ZM111.904 11.9045H110.761V4.93024H111.986V11.9045H111.904ZM118.6 5.91484H116.477V11.9045H115.252V5.91484H113.129V4.93024H118.682V5.91484H118.6ZM123.174 10.3455H120.479L119.907 11.9866H118.682L121.295 5.01224H122.357L124.97 11.9866H123.745L123.174 10.3456V10.3455ZM120.805 9.36094H122.847L121.867 6.48914L120.805 9.36094ZM127.257 11.002H130.442V11.9866H126.032V4.93024H127.257V11.002ZM135.587 11.002H138.772V11.9866H134.362V4.93024H135.587V11.002ZM141.303 11.9045H140.078V4.93024H141.303V11.9045ZM144.652 4.93024L146.693 10.2635L148.735 4.93024H150.286V11.9045H149.061V9.60714L149.143 6.48914L147.101 11.9045H146.203L144.162 6.48914L144.243 9.60714V11.9045H143.018V4.93024H144.652ZM153.226 11.9045H152.001V4.93024H153.226V11.9045ZM159.841 5.91484H157.636V11.9045H156.493V5.91484H154.37V4.93024H159.923V5.91484H159.841ZM165.149 8.78654H162.291V10.9199H165.639V11.9045H161.066V4.93024H165.558V5.91484H162.21V7.88404H165.068V8.78664H165.149V8.78654ZM166.946 11.9045V4.93024H168.988C169.641 4.93024 170.131 5.09424 170.621 5.34044C171.111 5.58664 171.438 5.99684 171.764 6.48914C172.091 6.98154 172.173 7.55584 172.173 8.21224V8.54044C172.173 9.19685 172.009 9.77124 171.764 10.2635C171.519 10.7558 171.111 11.1661 170.621 11.4122C170.131 11.6584 169.559 11.8225 168.988 11.8225H166.946V11.9045ZM168.171 5.91484V11.002H168.988C169.641 11.002 170.131 10.8379 170.458 10.4276C170.784 10.0173 170.948 9.44304 170.948 8.70464V8.29434C170.948 7.55584 170.784 6.98144 170.458 6.57124C170.131 6.16094 169.641 5.99684 168.988 5.99684H168.171V5.91484Z" fill="#2C2C2F"/>
<path d="M276.295 26.0997C286.83 25.9356 304.96 19.5356 310.513 0.827879C310.595 0.581679 310.268 0.417579 310.105 0.581679C291.975 18.0586 259.636 2.71508 251.388 32.992C251.306 33.3202 251.714 33.4843 251.878 33.1561C259.962 18.7151 280.46 18.3869 284.054 18.3869C284.299 18.3869 284.38 18.633 284.299 18.7971C282.42 21.833 280.134 23.6381 276.214 25.6074C275.969 25.6894 276.05 26.0997 276.295 26.0997Z" fill="#DE4E34"/>
<path d="M255.389 35.2895C265.271 24.5408 277.03 31.9255 286.585 28.1512C286.83 28.0691 287.075 28.3973 286.83 28.5614C274.744 40.4589 265.107 31.2691 255.634 35.6999C255.471 35.7819 255.226 35.4536 255.389 35.2895ZM269.517 39.3921C269.57 39.4079 269.616 39.4403 269.65 39.4847C269.683 39.529 269.701 39.5829 269.701 39.6383C269.701 39.6937 269.683 39.7476 269.65 39.7919C269.616 39.8363 269.57 39.8687 269.517 39.8845C268.374 40.3768 265.516 41.2793 262.249 41.2793C258.982 41.2793 256.124 40.2948 254.981 39.8845C254.928 39.8687 254.881 39.8363 254.848 39.7919C254.815 39.7476 254.797 39.6937 254.797 39.6383C254.797 39.5829 254.815 39.529 254.848 39.4847C254.881 39.4403 254.928 39.4079 254.981 39.3921C256.124 38.8998 258.982 37.9974 262.249 37.9974C265.516 37.9974 268.374 38.8998 269.517 39.3921Z" fill="#DE4E34"/>
</g>
<defs>
<clipPath id="clip2">
<rect x="0.512695" y="0.5" width="310" height="64" fill="white"/>
</clipPath>
</defs>
</svg>
