<svg xmlns="http://www.w3.org/2000/svg" width="170" height="64" fill="none">
  <path fill="#DCDCDC" d="M31.9226 17h-9.7742v9.8223h9.7742V17z"/>
  <path fill="#868686" d="M22.0521 29.2297v10.9298H10.2075L0 49.9819h31.9226V29.2297h-9.8705z"/>
  <path fill="#B0B0B0" fill-rule="evenodd" d="M0 17h20.1743v9.8223H9.82235v10.2076L0 46.1782V17zm78.6467 33.002c1.1074.2889 2.1667.4333 3.3223.4333 1.1074 0 2.263-.1444 3.3222-.4333 1.0593-.2889 2.0704-.6741 2.9853-1.2037.9148-.5297 1.7815-1.2038 2.5037-1.926.8185-.7222 1.3963-1.5889 1.9741-2.4556.5296-.9148.963-1.9259 1.2519-2.9371.337-1.0592.4814-2.1667.4814-3.2741 0-1.1074-.1925-2.2148-.4814-3.2259-.2889-1.0112-.6741-2.0223-1.2519-2.889-.5778-.8666-1.2519-1.7333-1.9741-2.4556-.7222-.7703-1.5889-1.4444-2.5037-1.9259-.9149-.4815-1.8778-.9148-2.9853-1.2037-1.1074-.2889-2.2148-.4334-3.3222-.4334-1.2038 0-2.263.1445-3.3223.4334-1.0593.2889-2.0704.6741-2.9852 1.2037-.9148.5296-1.7815 1.2037-2.5038 1.9259-.7703.7223-1.3963 1.589-1.9741 2.4556-.5296.8667-.9629 1.8778-1.2518 2.889-.3371 1.0592-.4815 2.0704-.4815 3.2259 0 1.1556.1926 2.263.4815 3.2741.2889 1.0593.6741 2.0704 1.2518 2.9371.5778.8667 1.2519 1.7334 1.9741 2.4556.7223.7704 1.589 1.3963 2.5038 1.926.9148.4814 1.9259.9148 2.9852 1.2037zm7.0779-1.926c-1.1075.5297-2.3112.8186-3.7556.8186-1.4445 0-2.6964-.2889-3.8038-.8186-1.1074-.5296-2.0222-1.3-2.7445-2.263-.7703-1.0111-1.3-2.1185-1.6852-3.4185-.3852-1.3001-.5778-2.6964-.5778-4.189 0-1.4444.1926-2.8408.5778-4.1408.3852-1.2518.963-2.4556 1.6852-3.3704.7223-.9148 1.6852-1.637 2.7445-2.2148 1.0593-.5297 2.3593-.8186 3.8038-.8186 1.3963 0 2.6481.2408 3.7556.8186 1.1074.4815 2.0222 1.3 2.7445 2.2148.7703.963 1.3 2.0704 1.6852 3.3704.3851 1.2519.5777 2.6482.5777 4.1408 0 1.4926-.1926 2.8889-.5777 4.189-.3852 1.3-.963 2.4556-1.6852 3.4185-.7223.963-1.6853 1.6852-2.7445 2.263zm-38.182-21.3781c1.3 0 2.4556.1445 3.4667.3852.963.2408 1.7815.5778 2.4556.9149.6741.3852 1.2038.8185 1.6371 1.3481.4333.5297.7222 1.0112.963 1.5408.2407.5296.3852 1.0593.4815 1.5889.0962.5296.1444 1.0111.1444 1.4926 0 .5778-.0963 1.2037-.2889 1.926-.1926.7222-.5296 1.3963-.963 2.0704-.4815.674-1.1074 1.2518-1.9741 1.8296-.8666.5778-1.8778.9148-3.1778 1.1556l6.7408 9.1482H52.839l-6.6445-9.0038h-2.5519v8.9076h-3.4667V26.6979h7.3667zm-3.9 1.5408v11.315h1.9741c1.1074 0 2.1185-.0963 3.0334-.3371.8666-.1926 1.6852-.5296 2.3111-.9629.6741-.4815 1.1074-1.0112 1.4926-1.7816.337-.7222.5296-1.637.5296-2.6481 0-1.1556-.1926-2.1186-.6259-2.8408-.4333-.7222-.963-1.3-1.637-1.7334-.7223-.4333-1.4445-.7222-2.3112-.8185-.1961-.0218-.3948-.0461-.5953-.0705-.6854-.0838-1.3933-.1702-2.101-.1702l-2.0704.0481zm19.4042 0h-4.6223v-1.5408h8.0408v18.2484c0 1.5408-.1925 2.889-.5777 4.0445-.3852 1.1556-.9149 2.1186-1.6852 2.9371-.7223.7704-1.6371 1.4926-2.7445 2.0223-1.0593.5296-2.3112.9148-3.7075 1.2037l-.5296-1.3482c.6259-.1444 1.2519-.3852 1.9741-.6741.7222-.2889 1.2519-.6259 1.8296-1.0111.5778-.4333 1.0112-.8667 1.3964-1.4926.3851-.626.6259-1.2519.674-2.0223l-.0481-20.3669zm75.5932 2.6482h-3.226v1.8778h3.226v-1.8778zM119.14 62.1819c-.135.2245-.311.3653-.53.5394l-.048.0384c-.24.1445-.578.2408-.866.2408-.289 0-.53-.0482-.723-.1445-.24-.0963-.433-.2407-.626-.4333-.159-.1596-.253-.3191-.362-.506-.023-.0387-.046-.0787-.071-.12-.096-.2407-.144-.5296-.144-.7703 0-.2408.048-.5778.144-.7704.096-.2408.241-.4815.433-.6259.193-.1926.386-.3371.626-.4334.241-.0963.53-.1444.771-.1444.289 0 .529.0481.722.1926.241.0963.433.2889.626.4814v-2.8407h.626v6.0667h-.626l.048-.7704zm0-1.2037c0-.1926-.048-.3852-.096-.5778s-.145-.337-.289-.4333c-.145-.1445-.289-.2408-.433-.2889-.145-.0963-.338-.0963-.578-.0963-.193 0-.385.0482-.578.0963-.193.0963-.337.1926-.433.2889-.097.0963-.15.1926-.204.2889-.026.0481-.053.0963-.085.1444-.048.1926-.097.3852-.097.5778s.049.3852.097.5778.144.337.289.4333c.144.1445.288.2408.433.2889.144.0963.337.0963.578.0963.192 0 .385-.0481.578-.0963.192-.0963.337-.1926.433-.2889.096-.0963.15-.1925.203-.2888.027-.0482.054-.0963.086-.1445.013-.0645.026-.1221.038-.1756.032-.146.058-.2612.058-.4022zm-62.6418-3.1778c.1926.0482.3852.1926.4815.3852l.3852-.5778c-.1926-.2407-.4334-.4333-.7223-.5296-.2407-.0963-.5296-.1445-.8667-.1445-.2407 0-.4814.0482-.7222.0963-.2407.0963-.4333.1926-.6259.3371-.1926.1444-.3371.337-.4334.5296-.0963.1926-.1444.4333-.1444.7222 0 .2408 0 .4334.0963.626.0481.1444.1444.2889.2889.4333.1444.1445.2889.2407.4815.337.1926.0963.3852.1926.5778.2408.2407.0963.4815.1926.674.2407.0683.0341.1304.0622.1887.0885.1063.048.1996.0901.2928.1523.1445.0963.2408.1926.2889.2889.0482.0963.0963.2407.0963.4333 0 .1445 0 .2889-.0963.4333-.0481.1445-.1444.2408-.2889.3371-.0963.0963-.2407.1444-.3851.1926-.1445.0481-.289.0481-.4334.0481-.2407 0-.4815-.0481-.7222-.1444-.2408-.0963-.3852-.2889-.5297-.4815l-.5778.4815c.0963.1444.1926.2889.3371.3852.1444.0963.2889.1926.4333.2407.1445.0482.2889.0963.4815.1445.1926.0481.337.0481.5296.0481.2407 0 .4815-.0481.7223-.0963.2407-.0963.4815-.1926.6741-.337.1926-.1445.3852-.3371.4815-.5297.1444-.1926.1925-.4333.1925-.7222 0-.2889-.0481-.5296-.1444-.7222s-.2407-.3371-.3852-.4815c-.1926-.1445-.3852-.2407-.5778-.337-.0548-.022-.1072-.044-.1583-.0653-.1727-.0725-.3299-.1383-.5158-.1755-.1678-.0336-.3122-.0905-.4333-.1383-.0525-.0207-.1007-.0397-.1444-.0543-.057-.038-.114-.0685-.168-.0974-.083-.0444-.1589-.085-.2172-.1433-.0963-.0963-.1445-.1926-.1926-.2889-.0482-.0963-.0482-.1926-.0482-.3371 0-.1444 0-.2889.0963-.4333l.2889-.2889c.0963-.0963.2408-.1444.3852-.1926.1444-.0481.2889-.0481.4333-.0481.2408 0 .4334.0481.626.1444zM130.1 60.1158h1.781v1.8778H130.1v-1.8778zm-67.9685 2.0661c-.2408.2889-.4815.5297-.7223.626-.2407.0963-.5778.1926-.9148.1926-.2889 0-.5778-.0482-.7704-.1445-.2407-.0963-.4333-.2407-.6259-.4333-.1926-.1926-.2889-.3852-.3852-.626-.0963-.2407-.1445-.5296-.1445-.7703 0-.2408.0482-.5778.1445-.7704.0963-.2408.2407-.4815.4333-.626.1926-.1925.3852-.337.626-.4333.2407-.0963.5296-.1444.7222-.1444.2889 0 .5296.0481.7222.1444.2408.0963.4334.2408.5778.3852.1445.1926.2889.3852.3852.6259.0963.2408.1444.5297.1444.8186v.1926h-3.0333c0 .1444.0481.337.1444.4814.0482.1445.1445.2889.2889.3852.0963.0963.2407.1926.3852.2889.1444.0482.2889.0963.4815.0963.2889 0 .5296-.0481.7222-.1444s.3852-.2408.5297-.4334l.2889.2889zm-.5297-1.5407c0-.3371-.0963-.5778-.337-.7704-.1926-.1926-.4815-.2889-.8185-.2889-.3371 0-.626.0963-.8186.2889-.2407.1926-.337.4815-.3852.7704h2.3593zm1.7821-.6741l.0963 2.9371h.6259v-1.8297c0-.3852.0963-.7704.2889-1.0111.1445-.2408.4333-.3852.8185-.3852.0963 0 .2408 0 .3371.0481l.0481-.6741c-.0481-.0481-.0963-.0481-.1444-.0481h-.1445c-.1444 0-.2889 0-.4333.0481-.1176 0-.2351.0638-.3267.1135-.0209.0114-.0406.0221-.0585.031-.0963.0481-.1926.1444-.2889.2407s-.1444.1926-.1926.2889v-.6741h-.6259v.9149zm4.9589 2.8408h-.7222l-1.4926-3.7075h.7223l1.1555 2.9371h.0482l1.1074-2.9371h.6741l-1.4927 3.7075zm2.3593-5.5372c-.0962.0963-.1444.1926-.1444.3371 0 .1444.0482.2889.1444.337.0963.0963.1927.1445.3371.1445s.2407-.0482.337-.1445c.0963-.0963.1445-.1926.1445-.337 0-.1445-.0482-.2408-.1445-.3371-.0963-.0963-.1926-.1444-.337-.1444-.1444 0-.2408.0481-.3371.1444zm.626 1.8297h-.626v3.7074h.626v-3.7074zm4.0925.9148c-.1445-.1444-.2889-.2889-.4334-.337-.1444-.0963-.337-.0963-.5296-.0963-.1926 0-.3852.0482-.5778.0963-.1445.0963-.2889.1926-.3852.2889-.0963.1444-.1926.2889-.2407.4815-.0071.0281-.0141.0552-.021.0817-.0402.1551-.0753.2905-.0753.4961 0 .1925.0481.3851.0963.5777.0481.1926.1444.3371.2407.4815.0963.1445.2408.2408.4333.2889.1445.0963.3371.0963.5297.0963.4333 0 .7222-.1444.9148-.4815l.4815.4334c-.1926.1926-.3852.3852-.6741.4815-.2407.0963-.5296.1444-.7704.1444-.2889 0-.5778-.0481-.7703-.1444-.2408-.0963-.4815-.2408-.626-.4334-.1926-.1926-.2889-.3852-.3852-.6259-.0963-.2408-.1444-.5296-.1444-.7704 0-.2407.0481-.5778.1444-.7704.0963-.2407.2408-.4815.3852-.6259.1926-.1926.3852-.337.626-.4333.2407-.0963.5296-.1445.7703-.1445.2889 0 .5778.0482.7704.1445.2408.0963.4815.2407.6741.4814l-.4333.2889zm3.9007 2.7927c.2408-.0963.4815-.3371.7223-.626l-.2889-.2889c-.1445.1926-.3371.3371-.5297.4334-.1926.0963-.4333.1444-.7222.1444-.1926 0-.337-.0481-.4815-.0963-.1444-.0963-.2889-.1926-.3852-.2889-.1444-.0963-.2407-.2407-.2889-.3852-.0963-.1444-.1444-.337-.1444-.4814h3.0334v-.1926c0-.2889-.0482-.5778-.1445-.8186-.0963-.2407-.2407-.4333-.3852-.6259-.1444-.1444-.337-.2889-.5778-.3852-.1926-.0963-.4333-.1444-.7222-.1444-.1926 0-.4815.0481-.7222.1444-.2408.0963-.4334.2408-.626.4333-.1926.1445-.337.3852-.4333.626-.0963.1926-.1444.5296-.1444.7704 0 .2407.0481.5296.1444.7703.0963.2408.1926.4334.3852.626s.3852.337.6259.4333c.1926.0963.4815.1445.7704.1445.3371 0 .6741-.0963.9148-.1926zm-.1444-2.9371c.2407.1926.337.4333.337.7704h-2.3593c.0482-.2889.1445-.5778.3852-.7704.1926-.1926.4815-.2889.8186-.2889.337 0 .6259.0963.8185.2889zm4.0917-2.263c0-.1445.0482-.2408.1445-.3371.0963-.0963.1926-.1444.337-.1444.1445 0 .2408.0481.3371.1444.0963.0963.1444.1926.1444.3371 0 .1444-.0481.2407-.1444.337-.0963.0963-.1926.1445-.3371.1445-.1444 0-.2407-.0482-.337-.1445-.0963-.0481-.1445-.1926-.1445-.337zm.1445 1.4926h.6259v3.7074h-.6259v-3.7074zm2.6008 3.1297c-.1444-.0963-.2889-.2408-.4333-.3852l-.3852.2889c.2407.2888.4815.4814.6741.5777.1926.0963.4815.1445.8185.1445.1926 0 .3852 0 .5778-.0482.1926-.0481.337-.0963.4815-.1926.1444-.0963.2407-.2407.337-.3851.0963-.1926.1445-.3371.1445-.5778 0-.1926-.0482-.3371-.0963-.4815-.0963-.1445-.1926-.2407-.2889-.337-.0291-.0146-.0627-.0336-.0994-.0544-.0844-.0477-.1851-.1047-.2858-.1383-.1444-.0481-.2889-.0963-.4815-.1444-.0662-.0221-.1325-.034-.1941-.0452-.0727-.0131-.1389-.025-.1911-.0511-.1444 0-.2407-.0481-.337-.0963-.0241-.0241-.0602-.0481-.0963-.0722-.0361-.0241-.0722-.0482-.0963-.0722-.0482-.0482-.0963-.0963-.0963-.1926s0-.1926.0481-.2408c.0241-.0241.0602-.0481.0963-.0722.0361-.0241.0722-.0482.0963-.0722.0482-.0482.1445-.0963.2408-.0963.0963-.0482.1926-.0482.2889-.0482.1926 0 .337.0482.4815.1445.1444.0963.2407.1926.337.337l.5296-.337c-.0963-.2408-.2889-.4334-.5296-.5297-.1926-.0963-.4333-.1444-.7222-.1444-.1596 0-.2861.033-.4343.0717-.0307.0081-.0623.0163-.0954.0246-.1926.0481-.337.0963-.4815.1926-.1444.0963-.2407.1926-.337.337-.0963.1445-.1445.2889-.1445.4815s0 .337.0963.4815c.0482.0963.1445.1926.2889.2889.1445.0963.2889.1444.4334.1926.0963.0241.1805.0481.2648.0722.0843.0241.1685.0482.2648.0722.0482.0241.0963.0361.1445.0482.0481.012.0963.0241.1444.0481.0705 0 .1152.0258.1719.0585.0207.012.043.0249.0689.0378.0671.0336.1108.0906.1475.1383.0158.0206.0306.0398.045.0543 0 .02.0083.0482.018.0812.0137.0467.0302.1032.0302.1596 0 .1143-.0301.1683-.0666.2335-.0096.0172-.0197.0353-.0297.0554-.0482.0963-.0963.1444-.1926.1926-.0963.0481-.1926.0963-.2889.0963-.0963.0481-.1926.0481-.2889.0481-.2407 0-.4333-.0481-.5778-.1444zm4.911-1.2519c0-.2889.0481-.5778.1444-.7704.0963-.2407.2408-.4815.4334-.6259.1926-.1926.3852-.3371.6741-.4334.2407-.0963.5296-.1444.7703-.1444.2408 0 .5778.0481.7704.1444.2408.0963.4815.2408.6741.4334.1926.1926.337.3852.4333.6259.0963.2408.1445.5297.1445.7704 0 .2407-.0482.5778-.1445.7704-.0963.2407-.2407.4815-.4333.6259-.1926.1926-.3852.3371-.6741.4334-.2407.0963-.5296.1444-.7704.1444-.2407 0-.5777-.0481-.7703-.1444-.2408-.0963-.4815-.2408-.6741-.4334-.1926-.1926-.3371-.3852-.4334-.6259-.0963-.2408-.1444-.5297-.1444-.7704zm.6259 0c0 .1926.0482.3852.0963.5778.0482.1926.1445.337.2889.4333.1445.1445.2889.2408.4334.2889.1926.0963.337.0963.5777.0963.1926 0 .3852-.0481.5778-.0963l.4334-.2889c.0963-.0963.1498-.1926.2033-.2889.0267-.0481.0535-.0963.0856-.1444.0481-.1926.0963-.3852.0963-.5778s-.0482-.3852-.0963-.5778c-.0482-.1926-.1445-.337-.2889-.4333-.1445-.1445-.2889-.2408-.4334-.2889-.1926-.0963-.337-.0963-.5778-.0963-.1926 0-.3851.0481-.5777.0963l-.4334.2889c-.0963.0963-.1498.1926-.2033.2889-.0267.0481-.0535.0963-.0856.1444-.0481.1926-.0963.3852-.0963.5778zm7.7519 1.8778v-.9148s-.1926 0-.1926-.0963v-2.889h-.6259v1.8297c0 .2407 0 .4333-.0481.6259-.0482.1926-.0963.3371-.1926.4815-.0963.0963-.2408.1926-.3852.2889-.1445.0482-.3371.0963-.5297.0963-.2889 0-.5296-.0963-.674-.2889-.0963-.1444-.1926-.3852-.1926-.7222v-2.2149h-.626v2.3112c0 .2407.0482.4333.0963.6259.0201.0402.0381.0783.0553.1147.0653.1382.1193.2525.2336.3668.1445.1445.2889.2407.4815.337.1926.0482.4333.0963.6741.0963.1444 0 .2889 0 .4333-.0481.1176 0 .2351-.0638.3267-.1135.0209-.0113.0406-.022.0585-.0309.0482-.0482.0963-.0843.1445-.1204.0481-.0361.0963-.0722.1444-.1204.0963-.0963.1444-.1926.1926-.2889v.6741h.6259zm1.3473-3.8038h.626v.6741c.049-.0963.097-.1926.193-.2889s.193-.1926.289-.2407c.018-.009.037-.0196.058-.031.092-.0497.21-.1135.327-.1135.145-.0481.289-.0481.433-.0481h.145c.048 0 .096 0 .144.0481l-.048.6741c-.096-.0481-.241-.0481-.337-.0481-.385 0-.674.1444-.818.3852-.193.2407-.289.6259-.289 1.0111v1.8297h-.626l-.097-2.9371v-.9149zm5.972.5778h1.107l-.048-.5296h-1.108v-1.0593h-.625v1.0111h-.819v.5297h.819v2.0703c0 .1926 0 .3852.048.5297 0 .1926.048.337.144.4333.096.0963.193.1926.337.2408.145.0481.337.0963.578.0963.072 0 .132-.0121.193-.0241.06-.0121.12-.0241.192-.0241.145 0 .289-.0481.385-.0963l-.048-.5778c-.096.0482-.192.0963-.289.0963-.096.0482-.192.0482-.289.0482-.144 0-.24 0-.337-.0482-.096-.0481-.144-.0963-.192-.1926 0-.0481-.012-.0963-.024-.1444-.012-.0482-.024-.0963-.024-.1445V59.63zm2.022-.5778h.626v.6741c.048-.0963.096-.1926.192-.2889s.193-.1926.289-.2407c.018-.009.038-.0196.059-.031.091-.0497.209-.1135.326-.1135.145-.0481.289-.0481.434-.0481h.144c.048 0 .096 0 .144.0481l-.048.6741c-.096-.0481-.24-.0481-.337-.0481-.385 0-.674.1444-.818.3852-.193.2407-.289.6259-.289 1.0111v1.8297h-.626l-.096-2.9371v-.9149zm3.706.0963c-.288.0963-.529.2408-.722.4334l.289.4815c.145-.1445.337-.2889.53-.3371.192-.0481.433-.0963.626-.0963.337 0 .577.0482.722.1926.144.1445.241.3371.241.626v.0963h-.241c-.087 0-.183.0097-.289.0204-.13.0131-.274.0277-.433.0277-.241 0-.53.0482-.771.1445-.24.0481-.481.2407-.626.3851-.144.1445-.24.3852-.24.7223 0 .1926 0 .337.096.4815.048.0963.144.2407.289.337.096.0963.241.1926.433.2408.193.0481.385.0963.578.0963.241 0 .53-.0482.722-.1926.241-.0963.385-.2889.53-.4815v.2889c0 .0481.012.0963.024.1444.012.0482.024.0963.024.1445h.626c0-.0482-.012-.1084-.024-.1686-.012-.0602-.024-.1203-.024-.1685V60.593c0-.5296-.145-.9148-.385-1.2037-.241-.2408-.626-.3852-1.204-.3852-.241 0-.482.0481-.771.1444zm.193 2.1186c.193-.1445.482-.1926.915-.1926l.674.0481v.2408c0 .1444-.048.2889-.096.4333-.048.1445-.097.2889-.193.3852s-.193.1926-.337.2408c-.144.0481-.289.0963-.481.0963-.241 0-.482-.0482-.626-.1445-.145-.0963-.241-.2889-.241-.5296 0-.2889.144-.4815.385-.5778zm11.123 1.5408c.241-.0963.482-.3371.722-.626l-.289-.2889c-.144.1926-.337.3371-.529.4334-.193.0963-.434.1444-.722.1444-.193 0-.338-.0481-.482-.0963-.144-.0963-.289-.1926-.385-.2889-.145-.0963-.241-.2407-.289-.3852-.048-.1444-.096-.337-.096-.4814h2.985v-.1926c0-.2889-.048-.5778-.145-.8186-.096-.2407-.24-.4333-.385-.6259-.144-.1444-.337-.2889-.578-.3852-.192-.0963-.433-.1444-.722-.1444-.192 0-.481.0481-.722.1444s-.433.2408-.626.4333c-.193.1445-.337.3852-.433.626-.097.1926-.145.5296-.145.7704 0 .2407.048.5296.145.7703.096.2408.192.4334.385.626s.385.337.626.4333c.192.0963.481.1445.77.1445.337 0 .674-.0963.915-.1926zm-.096-2.9371c.241.1926.337.4333.337.7704h-2.359c.048-.2889.144-.5778.385-.7704.192-.1926.481-.2889.818-.2889.337 0 .626.0963.819.2889z" clip-rule="evenodd"/>
  <path fill="#8F8F8F" fill-rule="evenodd" d="M96.4259 26.5112h3.226v2.5038c0 .4333-.0963.8185-.2408 1.1555-.1444.3371-.3852.626-.674.8186-.2889.2407-.626.4333-.963.5778-.3371.1444-.7223.1925-1.2037.1925h-1.589V30.315c.3371 0 .5778 0 .7223-.0482.1926 0 .337-.0481.4333-.1444s.1445-.2407.1926-.3852c.0482-.1926.0482-.4333.0482-.7222l.0481-2.5038zm7.8011 23.4966V26.5112h7.366c1.252 0 2.36.1445 3.274.3371.915.2407 1.686.5778 2.215.9629.626.4334 1.011.963 1.3 1.589.289.6259.434 1.3.434 2.0704 0 .5296-.097.9629-.289 1.4444-.193.4815-.482.9148-.867 1.3-.433.4334-.963.7223-1.637 1.0112-.722.2888-1.541.5296-2.552.6259v.0481c2.456.3852 4.334 1.1556 5.537 2.3112 1.204 1.2037 1.782 2.7926 1.782 4.7667 0 .963-.145 1.926-.482 2.7445-.337.8185-.818 1.5889-1.541 2.2148-.722.6741-1.637 1.1075-2.792 1.4926-1.156.3852-2.552.5778-4.237.5778h-7.511zm3.466-21.9558v7.126h2.36c.722 0 1.396-.0481 2.07-.1926.626-.1444 1.156-.337 1.637-.6741.482-.2889.819-.6741 1.059-1.1555.289-.4815.434-1.0593.434-1.7815 0-.6741-.145-1.1556-.386-1.6371-.24-.4333-.577-.7704-1.011-1.0593-.481-.2889-.963-.4815-1.637-.5778s-1.348-.1926-2.118-.1926h-2.36l-.048.1445zm0 8.7149v11.7002h3.13c.963 0 1.878-.1445 2.6-.3852.722-.2408 1.396-.626 1.926-1.1074.53-.4815.867-1.0593 1.155-1.7815.289-.7223.434-1.4927.434-2.3593 0-1.0593-.193-1.9741-.578-2.7445-.385-.7704-.915-1.3963-1.637-1.926-.722-.5296-1.589-.8666-2.6-1.1074-1.011-.2407-2.119-.3852-3.419-.3852l-1.011.0963zm20.135-.7091c-.124.0887-.254.1822-.394.2758l.048-1.2038h-3.226v14.8299h3.226V37.3928c.385-.2407.77-.3852 1.059-.4815.289-.0963.53-.1444.77-.1444.338 0 .626.1444.819.4815.193.337.337.9148.433 1.637l2.793-.8185c-.048-1.0111-.289-1.8296-.722-2.4074-.385-.5297-1.011-.8186-1.83-.8186-.241 0-.433 0-.674.0482-.193.0481-.481.1444-.722.2407-.131.0782-.275.1564-.434.2423-.134.0727-.278.1509-.433.2392-.228.0977-.456.2614-.713.4465zm10.825-.928h-3.226v14.878h3.226v-14.878zm12.951.3371c-.722-.4334-1.685-.626-2.744-.626-1.156 0-2.167.2408-3.034.626-.818.4333-1.54 1.0111-2.166 1.7333-.626.6741-1.011 1.5408-1.348 2.4556-.337.9148-.482 1.926-.482 2.8889 0 1.1556.193 2.263.53 3.1779.337.9148.866 1.6852 1.54 2.3593.675.674 1.589 1.1555 2.649 1.4926 1.059.337 2.311.5296 3.803.5296h3.371v-1.3h-3.322c-.963 0-1.782-.1926-2.504-.5778s-1.252-.8667-1.685-1.4445c-.386-.6259-.723-1.2037-.915-1.9259-.193-.7222-.289-1.3-.289-1.926h9.774v-.7222c0-.963-.144-1.9259-.337-2.7926-.241-.8667-.53-1.5889-1.011-2.3112-.482-.7222-1.107-1.2037-1.83-1.637zm-4.622 1.3c.481-.3371 1.011-.4815 1.685-.4815.626 0 1.059.1445 1.397.3852.337.2407.625.5778.866 1.0111.241.4334.385.9148.482 1.4926.096.5778.192 1.1556.192 1.7815v.7223h-6.692c0-.7223.096-1.3482.24-2.0223.145-.6741.386-1.2037.674-1.7333.337-.4334.675-.8667 1.156-1.1556zm13.868-.3852c.215-.0862.418-.1724.611-.2548.456-.1937.861-.3661 1.266-.4674.271-.0677.531-.1564.78-.2416.284-.0967.553-.1887.809-.2399.53-.1445.963-.1926 1.397-.2408l.118-.0132c.386-.0433.74-.0831 1.134-.0831.962 0 1.781.2889 2.262.7704.53.5297.771 1.3482.771 2.5038V50.056h-3.226V38.5965c0-.2407-.048-.4814-.096-.7222-.049-.2407-.145-.4815-.289-.6741-.145-.1926-.289-.337-.53-.4815-.241-.1444-.53-.1926-.818-.1926-.578 0-1.156.0482-1.878.1926-.722.1445-1.493.4334-2.408.8186v12.4224h-3.226V35.178h3.226l.097 1.2037zm.24 24.5999c-.096.0482-.241.0963-.337.0963-.08 0-.145.0146-.203.0277-.048.0107-.091.0205-.134.0205-.241 0-.434-.0482-.626-.0963-.193-.0963-.337-.1926-.482-.3371-.144-.1444-.24-.2889-.337-.4815-.096-.1925-.096-.4333-.096-.674 0-.2408.048-.4815.144-.6741.097-.1926.193-.3852.337-.4815.145-.1445.337-.2408.53-.3371.193-.0962.433-.0962.674-.0962.241 0 .482.0481.674.0962.193.0963.385.1926.53.3371.144.1444.289.2889.337.4815.096.1926.144.4333.144.6741 0 .1444 0 .2889-.048.4333 0 .1444-.048.2407-.096.337-.024.0481-.048.1082-.072.1683-.024.0602-.048.1206-.073.1688-.024.0481-.06.1082-.096.1684-.036.0602-.072.1205-.096.1686l-1.3 2.1186h-.722l1.348-2.1186zm-.482-.3852c.145 0 .289-.0481.434-.0963.09-.0302.162-.0794.227-.1237.038-.0263.074-.0509.11-.0689.096-.0963.192-.1926.24-.337.049-.1444.097-.2889.097-.4333 0-.1445-.048-.2889-.097-.4334-.048-.1444-.144-.2407-.24-.337-.097-.0963-.193-.1445-.337-.1926-.145-.0482-.289-.0963-.434-.0963-.144 0-.289.0481-.433.0963-.091.0302-.162.0794-.227.1237-.038.0263-.074.051-.11.0689-.096.0963-.193.1926-.241.337-.048.1445-.096.2889-.096.4334 0 .1926.048.337.096.4333.048.1444.145.2407.241.337.096.0963.193.1445.337.1926.144.0963.289.0963.433.0963zm-22.148-1.974c.145.0481.289.1925.385.337l.482-.2889c-.193-.2407-.385-.3852-.626-.4815-.193-.0963-.433-.1444-.722-.1444-.193 0-.434.0481-.626.0963-.056.0281-.113.0521-.168.0756-.133.057-.26.111-.362.2133-.144.0963-.289.2407-.385.4333-.096.1926-.144.3852-.144.6259 0 .1926.048.3852.096.5297.096.1444.192.2889.289.3852.069.104.163.1581.265.2161.039.0226.079.0458.12.0727.058.0196.117.047.179.0759.09.0424.188.0881.302.1167.135.0336.292.0906.424.1383.058.0207.11.0398.154.0543.193.0482.337.0963.434.1926.096.0482.192.1445.24.2408.048.0963.097.2407.097.3852 0 .1444-.049.2889-.097.3852-.035.1071-.098.1613-.167.2214-.024.0209-.049.0426-.073.0675-.097.0963-.193.1444-.338.1925-.144.0482-.24.0482-.385.0482-.24 0-.433-.0482-.626-.1444-.24-.0963-.385-.2408-.481-.4334l-.53.4334c.048.1444.145.2407.289.337.072.0241.133.0602.193.0963s.12.0722.192.0963c.097.0642.193.0856.289.107.048.0107.097.0214.145.0374.144.0482.289.0482.433.0482.241 0 .481-.0482.674-.0963.05-.0201.098-.0381.145-.0553.174-.0653.319-.1193.433-.2336.144-.1445.289-.2889.385-.4815.096-.1926.145-.4333.145-.6741 0-.2407-.049-.4815-.145-.6259-.096-.1926-.193-.3371-.337-.4333-.144-.1445-.289-.2408-.481-.2889-.097-.0241-.193-.0602-.289-.0963-.097-.0361-.193-.0723-.289-.0963-.158-.0316-.274-.0837-.376-.1295-.054-.0242-.104-.0465-.154-.0631-.091-.0303-.162-.0794-.227-.1238-.038-.0263-.074-.0509-.11-.0688-.096-.0963-.144-.1445-.193-.2408-.048-.0481-.048-.1925-.048-.2888 0-.1444.048-.289.097-.3853.048-.1444.144-.2407.24-.2888.097-.0482.193-.0963.337-.1445.097-.0481.241-.0481.386-.0481.192 0 .385 0 .529.0963zm1.974-.3852c-.048.0963-.096.1926-.096.2889s.048.2407.096.2889c.048.0481.193.0963.289.0963.096 0 .193 0 .289-.0963.048-.0482.096-.1445.096-.2889 0-.0963 0-.1926-.096-.2889s-.193-.1445-.289-.1445c-.096 0-.193.0482-.289.1445zm.626 1.5407h-.578v3.2741h.578v-3.2741zm1.204.7704v-.8186h.53v.5778c.024-.0481.048-.0842.072-.1203.024-.0361.048-.0723.072-.1204.048-.0963.144-.1445.241-.1926.096-.0482.192-.0963.337-.1445.144-.0481.241-.0481.385-.0481.241 0 .433.0481.578.0963.144.0481.289.1444.385.2889.096.0963.193.2407.241.4333.007.0281.014.0552.021.0817.04.1551.075.2905.075.4961v2.0223h-.578v-1.9741c0-.2889-.048-.5297-.192-.6741-.145-.1445-.337-.2408-.578-.2408-.193 0-.337.0482-.482.0963-.144.0482-.24.1445-.337.2889-.096.0963-.144.2407-.192.3852-.048.1445-.048.337-.048.5296v1.589h-.578l.048-2.5519zm5.922-.2407c.145.0481.289.1444.385.2889l.482-.5297c-.145-.1444-.337-.2889-.578-.3852-.241-.0963-.481-.1444-.722-.1444-.289 0-.53.0481-.722.1444-.193.0963-.386.2408-.53.3852-.144.1926-.241.3852-.337.5778-.096.2407-.145.4815-.145.7222 0 .2889.049.5297.145.7223.048.2407.193.4333.337.5778.144.1925.337.2888.53.3851.24.0963.481.1445.722.1445s.433-.0482.674-.1445c.241-.0481.433-.1926.578-.3851l-.434-.3852c-.144.2889-.433.4333-.818.4333-.193 0-.337-.0481-.482-.0963-.144-.0963-.24-.1926-.337-.2888-.096-.0963-.192-.2408-.24-.3853-.049-.1444-.097-.2889-.097-.4815 0-.1925.048-.337.097-.4814.048-.1445.096-.289.192-.3852.096-.1445.193-.2408.337-.2889.145-.0482.289-.0963.482-.0963.192 0 .337.0481.481.0963zm4.43 2.1667c-.193.2407-.433.4333-.674.5296-.241.0963-.53.1444-.771.1444-.24 0-.481-.0481-.722-.1444-.192-.0963-.385-.2408-.529-.3852-.145-.1444-.241-.337-.337-.5778-.097-.1926-.097-.4333-.097-.6741 0-.2407.048-.4815.145-.7222.096-.2407.192-.3852.337-.5778.144-.1444.337-.2889.529-.3852.193-.0963.434-.1444.674-.1444.241 0 .434.0481.626.0963.193.0963.386.1926.53.337.145.1445.241.3371.337.5297.096.2407.096.4814.096.7222v.1926h-2.6c0 .1444.049.2888.097.4333.048.1444.144.2408.24.3371.097.0963.193.1926.337.2407.145.0482.289.0963.434.0963.241 0 .433-.0481.626-.1444.023-.0156.048-.0311.073-.0471.131-.0828.279-.1768.36-.3381l.289.4815zm-.433-1.3482c0-.2889-.097-.5296-.289-.6741-.193-.1926-.434-.2407-.723-.2407-.288 0-.577.0963-.722.2407-.192.1926-.289.3852-.337.6741h2.071zm4.718 1.8778h.626v-4.863h-.53l-1.3 1.0593.337.4333.867-.7704v4.1408zm7.56 0h.625v-4.863h-.529l-1.3 1.0593.337.4333.867-.7704v4.1408zm4.621-1.6371h.723v.5778h-.723v1.1074h-.626v-1.1074h-2.118v-.6741l1.974-3.1778h.722l.048 3.2741zm-.577-2.6l-1.589 2.5519h1.589v-2.5519z" clip-rule="evenodd"/>
</svg>