<svg xmlns="http://www.w3.org/2000/svg" width="182" height="64" fill="none">
  <path fill="#DCDCDC" d="M0 14.0022h36v18H0v-18z"/>
  <path fill="#868686" fill-rule="evenodd" d="M72.5431 30.1246c-4.7679 0-8.6642-3.2811-8.6642-8.1002 0-4.7679 3.8963-8.1003 8.6642-8.1003 4.7679 0 8.6643 3.3324 8.6643 8.1003-.0513 4.9216-3.8964 8.1002-8.6643 8.1002zm0-13.5346c-3.4349 0-5.7932 2.4096-5.7932 5.4856 0 3.1273 2.307 5.4857 5.7932 5.4857 3.4862 0 5.7933-2.3584 5.7933-5.4857-.0513-3.076-2.2558-5.4856-5.7933-5.4856zm-13.2257 1.4868c-1.9482-.8716-3.9989-1.3843-5.7933-1.3843-2.6659 0-3.9988.564-3.9988 1.6406 0 1.2019 1.935 1.5243 4.2407 1.9085 3.3984.5662 7.6021 1.2666 7.6021 5.1152 0 2.6659-2.4096 4.7166-7.28 4.7166-2.871 0-5.1268-.564-7.7414-2.102l1.0253-2.4096c2.3071 1.2817 4.409 1.8969 6.7161 1.8969 2.871 0 4.409-.8715 4.409-2.1532 0-1.4231-2.1598-1.7897-4.6347-2.2097-3.3205-.5636-7.2081-1.2234-7.2081-4.6602 0-2.6146 2.4096-4.3577 6.7673-4.3577 2.6147 0 4.8192.5639 6.9211 1.6918l-1.0253 2.3071zm24.4541 3.9476c0 4.8191 3.6913 8.1002 8.7155 8.1002 2.9222 0 5.178-.8202 7.1262-2.2557l-1.4868-2.2045c-1.3842 1.0766-3.1786 1.8456-5.4856 1.8456-3.64 0-5.9471-2.3071-5.9471-5.4344 0-3.076 2.2045-5.4343 5.8446-5.4343 2.3583 0 4.0501.769 5.4343 1.8969l1.4355-2.3071c-1.8969-1.4355-3.9989-2.307-6.9211-2.307-4.8704 0-8.7155 3.3324-8.7155 8.1003zm18.8145-7.5877h2.717v15.2265h-2.717V14.4367zm6.871 0V29.817h13.996v-2.5634h-11.279v-3.9989h8.408v-2.5633h-8.408v-3.6913h10.818v-2.5634h-13.535zm24.3 2.5122v12.7656h-2.717V16.9489h-6.05v-2.5634h14.919v2.4608l-6.152.1026zm8.357-2.5122V29.817h13.996v-2.5634h-11.279v-3.9989h8.408v-2.5633h-8.408v-3.6913h10.818v-2.5634h-13.535zM54.8053 47.812c1.4868 0 3.0761-.3076 4.2552-.9228v-4.409h2.666v5.947c-1.8969 1.2817-4.5116 2.102-7.0237 2.102-4.973 0-8.7155-3.2811-8.7155-8.1003 0-4.7679 3.7938-8.1003 8.7155-8.1003 2.871 0 5.0242.8716 6.9211 2.3071l-1.4867 2.2045c-1.3843-1.1279-3.1274-1.8457-5.4344-1.8457-3.64-.0512-5.8445 2.3583-5.8445 5.3319.0513 3.1785 2.307 5.4856 5.947 5.4856zM65.3662 34.79v15.2265h14.0473v-2.4096H68.1347v-3.9988h8.4078v-2.5634h-8.4078v-3.6913h10.8174V34.79H65.3662zM84.848 50.0165h-2.7171V34.79h2.8197l9.6896 11.5352h.0512c-.205-2.8709-.205-5.2292-.205-7.4849v-3.999h2.6659v15.2778h-2.8197l-9.6384-11.484h-.0512c.1538 2.3069.1538 6.203.1538 7.4849l.0512 3.8965zM101.151 34.79v15.2265h13.996v-2.4096h-11.278v-3.9988h8.407v-2.5634h-8.407v-3.6913h10.817V34.79h-13.535zm24.198 9.6384h-4.409v5.5881h-2.717V34.79h9.587c3.178 0 5.126 1.9995 5.126 4.8705 0 2.7171-1.948 4.3577-4.306 4.7166l4.378 5.6251h-3.435l-4.224-5.5738zm1.999-2.5634c1.692 0 2.666-.9228 2.666-2.2045 0-1.4355-.871-2.3583-2.409-2.3583h-6.768v4.5628h6.511zm9.593 8.1372l1.686-3.6257h8.049l1.702 3.64h2.974L144.113 34.79h-2.922l-7.223 15.2122h2.973zm8.607-6.0865h-5.742l2.871-6.2034 2.871 6.2034zm7.895 6.1008V34.79h2.718v12.7657h9.997v2.4608h-12.715zM168.004 34.79v15.2265H182v-2.4096h-11.279v-3.9988h8.408v-2.5634h-8.408v-3.6913h10.818V34.79h-13.535zM30 32.0022h6v18H0v-18h6v1h24v-1z" clip-rule="evenodd"/>
</svg>