<svg width="48" height="48" viewBox="0 0 48 48" fill="none" xmlns="http://www.w3.org/2000/svg">
<path d="M0 24C0 37.2548 10.7452 48 24 48C37.2548 48 48 37.2548 48 24C48 10.7452 37.2548 0 24 0C10.7452 0 0 10.7452 0 24Z" fill="white"/>
<path d="M19.3122 34.2688C28.8483 34.2688 34.0641 26.3683 34.0641 19.517C34.0641 19.2926 34.0641 19.0692 34.0489 18.8468C35.0636 18.1129 35.9395 17.2041 36.6356 16.1631C35.6893 16.5824 34.6855 16.8574 33.6577 16.9788C34.74 16.3309 35.5501 15.3118 35.9371 14.1112C34.9194 14.7151 33.8059 15.1407 32.6449 15.3696C31.8632 14.5384 30.8293 13.988 29.7033 13.8036C28.5772 13.6192 27.4218 13.811 26.4158 14.3494C25.4098 14.8878 24.6092 15.7428 24.1381 16.782C23.6669 17.8212 23.5514 18.9867 23.8094 20.0982C21.7481 19.9949 19.7315 19.4592 17.8907 18.526C16.0498 17.5928 14.4258 16.2828 13.124 14.6813C12.461 15.8226 12.258 17.1738 12.5562 18.4596C12.8544 19.7455 13.6315 20.8693 14.7292 21.6023C13.9041 21.5779 13.097 21.3553 12.376 20.9534C12.376 20.9746 12.376 20.9968 12.376 21.0191C12.3764 22.2161 12.7907 23.3762 13.5489 24.3025C14.307 25.2288 15.3622 25.8644 16.5355 26.1014C15.7722 26.3096 14.9714 26.34 14.1945 26.1904C14.5258 27.2206 15.1708 28.1215 16.0393 28.767C16.9078 29.4126 17.9564 29.7706 19.0383 29.7909C17.2024 31.2338 14.9345 32.0171 12.5994 32.0147C12.1869 32.0139 11.7748 31.9889 11.3652 31.9399C13.7362 33.4615 16.495 34.2685 19.3122 34.2648" fill="#1DA1F2"/>
</svg>
