<svg width="88" height="90" viewBox="0 0 88 90" fill="none" xmlns="http://www.w3.org/2000/svg">
<path d="M40.4301 12.2049L41.9015 12.2092L41.9504 10.7081L43.3792 10.706L41.5911 13.638C41.7399 13.9144 42.1885 13.7762 42.4543 13.7549L42.652 13.638L42.6967 14.9073C41.2509 15.3921 39.7561 14.9521 39.7561 14.9521L39.7221 13.638C40.0092 13.8102 40.6087 13.9484 40.7703 13.638L39.0247 10.706L40.3918 10.7081" fill="#155195"/>
<path d="M11.3379 36.2774C11.5569 36.7495 11.7185 37.2472 11.8907 37.7427C12.4224 38.8974 12.9073 40.0606 13.5984 41.1431V41.2727L11.4187 43.0485C12.6308 44.5945 13.9663 46.081 15.3061 47.5675C18.9042 44.9263 22.513 42.2872 26.3196 40.1521C28.1421 39.2759 30.5855 39.9458 32.4314 39.1271C30.8854 40.2924 30.0667 42.0319 28.5802 43.2441C29.4798 44.3499 29.8838 45.6535 30.4495 46.8997C28.7525 46.9124 26.8959 47.0954 25.3733 46.5765C25.6944 47.3506 25.754 49.5282 25.8475 50.6255C24.2781 50.0258 22.6066 49.6665 21.2903 48.4458C21.3604 50.6022 20.497 52.3779 19.8271 54.2216C18.7426 53.1987 17.5772 52.1375 16.8861 50.9019C16.2736 52.5267 14.683 53.7623 13.6452 55.2126L11.4187 58.513C11.9843 57.1052 12.0885 55.5274 12.1332 53.9111C7.80984 53.2072 2.9527 51.189 1.31523 46.6211C1.00475 45.7577 0.762298 44.8689 0.762298 43.8779C1.97445 46.2767 4.5689 47.6377 7.02511 48.0077C3.19513 45.7451 0.243407 41.8704 0.000976562 37.4981C1.22376 39.8756 3.69065 42.1809 6.14898 43.174L6.19363 43.1271C2.22755 39.3205 -0.228662 34.6761 0.207288 29.2533C1.01539 32.4602 2.98885 35.5055 5.95331 37.4981L5.98524 37.4662C2.69967 33.1747 0.358295 27.7541 2.18078 22.0804C2.3424 28.0199 6.32124 33.0811 11.3379 36.2774Z" fill="#155195"/>
<path d="M81.9769 37.5448L82.0109 37.5809C85.0222 35.6202 86.9935 32.5154 87.8016 29.3C88.2631 34.8589 85.7261 39.4162 81.7707 43.2101H81.8961C84.3417 42.2276 86.7638 39.9669 87.9994 37.5809C87.8122 40.5773 86.498 43.0931 84.4331 45.309C83.3485 46.4042 82.1725 47.3036 80.9391 48.0437C82.0704 47.9374 83.155 47.5227 84.1566 47.0166C85.3922 46.3829 86.6937 45.2154 87.2827 43.9246C87.2019 47.6036 84.3884 51.006 81.0667 52.4011C79.4165 53.105 77.6982 53.6346 75.8651 53.911C75.8417 55.4315 75.9927 57.0818 76.5456 58.4683C75.1952 56.3204 73.4557 54.1088 71.6332 52.0439C71.3568 51.7079 71.2164 51.3294 71.0803 50.9359C70.3275 52.1481 69.2217 53.207 68.1031 54.2682C67.48 52.3777 66.5337 50.6254 66.6379 48.4457C65.3343 49.7025 63.6415 50.0151 62.0721 50.6255C62.1189 49.3325 62.0955 47.8566 62.5569 46.6572C60.7111 47.0783 58.7843 46.9209 57.4361 46.8997C57.9422 45.6301 58.4377 44.3605 59.3033 43.2441C57.8508 42.0319 56.9512 40.3476 55.4967 39.1609C57.1235 39.8755 59.4755 39.3907 61.2405 40.0372C63.1566 40.9814 64.943 42.2275 66.7548 43.4057L71.3886 46.6912L72.5774 47.6035L72.6922 47.5673L76.5796 43.1271L74.3658 41.3047C75.2547 39.748 75.9438 38.1126 76.5456 36.4263C81.5516 33.1981 85.6686 28.1347 85.8175 22.1611C87.6294 27.8242 85.3114 33.2704 81.9769 37.5448Z" fill="#155195"/>
<path d="M10.9123 34.8023C9.63211 34.0878 8.30516 32.8629 7.49918 31.5955C7.70546 28.3439 8.59439 25.3773 9.83844 22.5532C9.18133 26.7638 9.8958 30.9958 10.9123 34.8023Z" fill="#155195"/>
<path d="M80.466 31.6757C79.577 32.9241 78.3797 34.1681 77.0528 34.8826C78.0097 31.0548 78.8178 26.8568 78.1267 22.6355C79.3835 25.4469 80.2256 28.4348 80.466 31.6757Z" fill="#155195"/>
<path d="M13.9566 30.6041C14.3372 29.5195 14.7285 28.4457 15.4664 27.5121C15.4324 28.6562 15.2836 30.1193 15.9045 31.123C17.8078 30.6849 20.0237 30.3979 22.0397 30.8019C20.9892 31.1464 19.8047 31.8609 19.3538 32.9795C19.1454 32.7924 19.122 32.4606 18.9158 32.2288C18.4075 32.3223 17.8886 32.3564 17.4038 32.5052L18.9498 33.9705C18.7988 34.8956 18.7074 36.0822 19.0306 36.9456C19.088 34.7318 20.3342 32.6563 22.3183 31.5951C23.2285 31.1357 24.5789 30.8018 25.5337 31.3994C26.1121 31.8481 26.1695 32.5989 26.0079 33.256C26.0207 32.9093 25.6847 32.6328 25.4082 32.4733C23.8856 31.9969 22.6628 33.1177 21.7292 34.249C21.5548 34.5723 21.3018 34.8466 21.2104 35.206C21.9377 35.6781 22.7436 35.4612 23.5858 35.4016C24.2663 35.2485 24.8894 34.9615 25.455 34.5255C24.3598 36.1736 22.4884 36.8201 20.8531 37.5814L21.4868 38.4938C21.1402 38.7702 20.7382 39.102 20.3002 39.2423L19.273 37.8919C18.1417 38.7234 16.9785 39.4273 15.8599 40.28L16.77 41.5836C16.4829 41.8366 16.1469 42.1493 15.779 42.2981C12.8146 38.4107 10.6561 33.0369 12.8486 28.1458L13.4377 27.1548C13.4611 28.3669 13.5057 29.5663 13.9566 30.6041Z" fill="#155195"/>
<path d="M72.8544 41.421L72.1845 42.2971C71.8379 42.2525 71.5167 41.8698 71.1935 41.6635C71.4359 41.202 71.8166 40.7979 72.1037 40.3598C71.0085 39.4943 69.8091 38.7458 68.6565 37.9377L67.6634 39.2412H67.4677C67.1232 39.0243 66.7766 38.7946 66.43 38.5713C66.6022 38.2502 66.8574 37.961 67.0637 37.6633C66.43 37.2124 65.6112 37.0508 64.9307 36.6233C64.0077 36.1491 63.0041 35.5389 62.4277 34.5713C63.4995 35.4134 65.1838 35.7812 66.6383 35.3219C66.7766 35.056 66.4533 34.7902 66.3619 34.5244C65.4836 33.2697 64.2162 32.1937 62.634 32.4255C62.3256 32.4722 62.0705 32.8167 61.9216 33.0571L61.8748 33.2549C61.7472 32.8997 61.7472 32.1596 62.0364 31.7556C62.5787 31.0772 63.4421 31.0646 64.2502 31.1581C66.1663 31.526 68.0228 33.2549 68.5757 35.1242C68.7947 35.7133 68.782 36.3937 68.8989 37.0274C69.2583 36.0641 69.1009 34.5925 69.0137 33.9694C69.5092 33.4973 70.0621 33.0379 70.513 32.5531C70.0387 32.3914 69.5092 32.3553 69.0137 32.2639C68.8989 32.5148 68.7373 32.7509 68.6565 33.0253C68.1014 32.0109 67.0062 31.1475 65.9217 30.8434C67.825 30.4181 70.143 30.7541 72.059 31.1581C72.6694 30.1671 72.5652 28.7827 72.4631 27.5939C73.235 28.4679 73.6263 29.5653 74.007 30.6498C74.4004 29.5887 74.5599 28.4467 74.4791 27.2005C77.4563 31.526 75.5764 37.5825 72.8544 41.421Z" fill="#155195"/>
<path d="M30.4481 28.2279C31.7496 29.6336 32.7661 31.6176 31.8772 33.4975C31.7156 33.74 31.554 33.9698 31.3923 34.2122C33.1702 34.3164 34.7842 34.0292 36.1112 33.0574C37.0214 33.438 37.989 33.6359 39.0501 33.6593C40.1815 35.62 41.1512 37.6487 41.8211 39.7923C42.0486 38.2271 41.7977 36.5535 41.4277 35.0777C41.2767 34.58 41.0704 34.0505 40.9896 33.5763C42.3847 33.4062 43.6989 33.0362 44.9089 32.4237C45.8552 31.8836 46.893 31.3413 47.5735 30.4077C45.2215 31.7538 42.6377 32.5044 39.8008 32.666C38.0825 32.598 36.2261 32.5384 35.2797 30.9605C34.8884 30.1886 35.4775 29.3698 35.6838 28.8616C33.9187 29.2869 31.958 29.002 30.4481 28.2279ZM37.8975 23.6727C37.6445 23.5898 37.3319 23.626 37.1022 23.7515C36.813 23.9025 36.813 24.2256 36.8257 24.5361C36.9406 24.9061 37.2532 25.1954 37.6211 25.2975C38.2782 25.423 39.1203 25.4356 39.6052 24.9742C39.0289 24.5361 38.5313 23.9364 37.8975 23.6727ZM49.396 23.4644C49.9489 24.0513 50.1807 24.8934 50.9399 25.2506C51.2291 25.3208 51.5864 25.3208 51.8076 25.089C51.9692 24.8487 52.0032 24.5149 51.933 24.2256C51.4375 23.3708 50.3062 23.1858 49.396 23.4644ZM40.2389 23.1177C39.7881 23.0263 39.2586 23.0603 38.9715 23.3942C39.5946 23.8322 40.1007 24.5701 40.7472 24.9742C41.1618 25.1953 41.7488 25.0998 42.0954 24.8148C41.5085 24.2725 40.9322 23.509 40.2389 23.1177ZM46.7335 23.071C47.3077 23.6941 47.6437 24.4554 48.2774 25.021C48.6453 25.2273 49.211 25.3081 49.5916 25.055C49.0855 24.4426 48.7155 23.762 48.2094 23.1517C47.8159 22.888 47.1461 22.8073 46.7335 23.071ZM42.6951 22.8412C42.2337 22.6924 41.7849 22.888 41.4617 23.1177L42.9248 24.5361C43.3757 24.8487 44.0902 24.9976 44.5984 24.6956C43.9179 24.0981 43.4565 23.2347 42.6951 22.8412ZM45.464 22.8752C45.0238 22.6924 44.4836 22.6924 44.1263 22.9561C44.9089 23.5686 45.1407 24.6871 46.1444 24.9402C46.4549 25.0103 46.8356 24.9403 47.0546 24.7318C46.3975 24.1662 46.1551 23.3601 45.464 22.8752ZM47.1354 18.956L45.868 19.7046C45.8829 20.0236 46.3167 20.1958 46.4124 20.4765C46.4485 20.5849 46.4081 21.0783 46.3571 21.1336C46.1763 21.325 45.6277 21.1337 45.3937 21.2485C45.0833 21.3059 44.945 21.6313 44.9557 21.9184C45.3831 22.0226 45.9254 22.0098 46.2593 22.4011C46.6293 22.2522 46.9738 22.0331 47.448 22.1267C47.5501 21.6865 47.5735 21.2166 47.7713 20.8125C47.8861 20.5467 48.1732 20.4999 48.405 20.4212C47.8968 19.9576 47.5161 19.4622 47.1354 18.956ZM73.8453 12.0914C73.1074 14.101 70.9404 15.2643 68.8989 15.3111C70.2259 16.972 70.479 19.0921 72.3461 20.534C73.3499 21.3527 74.7002 21.8035 76.0272 21.3654C77.7221 20.8232 78.8981 19.0113 79.1979 17.3632C78.7131 17.7098 78.056 18.0437 77.4095 18.1926C76.2335 18.401 74.9895 18.2734 74.1239 17.4887C74.2048 17.3164 74.2728 17.157 74.4004 17.006C75.1724 15.5174 74.9193 13.3248 73.8453 12.0914ZM14.0713 12.0127L13.8756 12.253C12.8591 13.6608 12.8825 16.0149 13.8395 17.4418C13.5864 17.6736 13.2866 17.7885 13.0101 17.9628C11.5917 18.5498 9.90741 18.1351 8.76543 17.2462C9.04189 18.7604 9.91807 20.2574 11.3365 21.0528C12.4211 21.6652 13.9203 21.6313 14.9474 20.938C17.2548 19.6366 17.5886 17.0974 19.0305 15.2281C16.9315 15.2281 14.8666 13.9734 14.0713 12.0127ZM50.6188 11.1004C50.4678 11.33 50.2381 11.5257 49.985 11.6193C48.9558 11.7575 47.7479 11.4811 46.8122 11.8617C46.4784 12.034 46.2125 12.3806 46.0977 12.7272C46.0403 13.0866 46.0296 13.5099 46.2593 13.7991C47.0206 14.8028 48.4624 14.3647 49.6278 14.4668C49.7639 14.5369 49.8681 14.6773 49.8681 14.8262C49.8341 14.9857 49.7298 15.0792 49.5916 15.1494H44.7941C44.4836 15.8277 43.8605 16.3828 43.8839 17.2016H42.4995L41.0704 18.8284L39.686 17.2016L38.291 17.1676L38.2548 16.6126L36.9873 14.3179C37.2638 13.8671 37.5764 12.8868 37.5764 12.8868L37.183 12.5316L35.637 13.7182L37.2575 17.9884L38.5313 18.3202V17.9522L39.4435 17.9458L39.3266 20.9741C39.2352 21.4568 38.6929 21.1804 38.4165 21.3654C37.8402 21.6398 38.1634 22.4372 38.14 22.8752C38.7971 22.2755 39.837 22.1267 40.677 22.4372L41.7041 19.5068C43.7457 19.6684 45.902 19.1728 47.448 17.6864C47.9542 18.6901 48.7048 19.6003 49.5916 20.4531L49.5108 20.938C49.5002 21.4569 49.0153 21.0188 48.7623 21.2166C48.3114 21.3654 48.405 21.8822 48.2774 22.2395L49.0388 22.7605C49.547 22.5415 50.1914 22.552 50.7358 22.552C50.874 21.8375 51.0802 21.157 51.2525 20.4531L50.4572 19.4302C50.7358 19.1856 50.8952 18.8965 51.0228 18.5966C51.2291 17.6992 51.0335 16.7868 50.4232 16.1404C51.0569 15.849 51.312 15.2068 51.2993 14.5497C51.059 12.8378 49.0983 13.6311 47.8223 13.4503C47.1737 13.4503 47.1503 12.5869 47.8011 12.5869C49.094 12.4785 50.5358 12.7229 51.6906 12.253C52.118 11.9999 52.4625 11.5406 52.488 11.1004H50.6188ZM38.4526 8.72496L38.5674 9.87755C38.2314 10.3858 37.7933 10.8919 37.7019 11.4555L38.6142 12.6464C38.6482 13.212 38.2782 13.7076 38.0145 14.1903L39.1671 16.2573H40.0433L41.1023 17.5588L42.0954 16.2892L43.0524 16.219L44.1944 14.1903C43.9413 13.7182 43.6074 13.2908 43.5606 12.7272L44.5516 11.4237C44.3453 10.8814 44.0221 10.3858 43.6414 9.90948C43.6754 9.52031 43.7563 9.05883 43.7223 8.72496L42.6951 9.27789C41.6701 8.9185 40.5048 8.9185 39.4776 9.27789L38.4526 8.72496ZM43.8371 4.72281C42.7547 5.3459 42.8227 6.52393 42.8567 7.65102H44.9897C44.9684 7.07472 45.0599 6.44106 44.9089 5.90941C44.726 5.45007 44.3687 4.8738 43.8371 4.72281ZM41.5425 2.21982H43.1353L43.1332 0.80127H44.6792V2.2389L46.2571 2.23461L46.2593 0.80127H47.8053V6.15187L46.8122 7.06408V10.8218H49.6725C49.9383 10.5347 50.2487 10.2008 50.6996 10.2689H53.5939C53.4429 11.1939 53.2132 12.1254 52.3604 12.7272C52.084 12.9122 51.7608 13.0016 51.4503 13.1186C52.1074 13.6268 52.3605 14.4561 52.1287 15.2642C51.9692 15.5726 51.8522 15.9001 51.529 16.1404C52.1074 17.0739 52.2222 18.5859 51.529 19.5068C52.9708 20.3957 51.4971 21.6653 51.6098 22.7945C52.152 23.1284 52.705 23.543 52.7645 24.2256C52.8687 24.8594 52.6603 25.4931 52.1287 25.8865C51.899 26.0247 51.6459 26.1056 51.3694 26.1269C51.4247 26.6139 51.9798 27.0732 52.4072 27.3964C53.4918 28.1578 55.2441 28.0068 56.3627 27.4304C56.9858 27.0732 57.6876 26.5076 57.8747 25.8058C57.9896 25.4017 57.8619 24.9976 57.6769 24.6637C57.158 23.9598 56.2819 23.8897 55.4972 24.064C54.9783 24.2491 54.4594 24.5829 54.1468 25.089C53.7555 23.1751 53.8023 20.7296 55.6141 19.5897C56.4541 19.1389 57.6195 19.2196 58.4276 19.6684C58.6679 19.8066 58.8997 19.9916 59.106 20.2213C58.9358 17.4567 59.3505 14.6306 61.8408 13.1186C63.4081 12.219 65.7728 12.3806 67.2274 13.4418L68.2652 14.3179C70.2004 14.3413 71.9888 13.429 72.9692 11.7342C73.2712 11.2514 73.3754 10.6729 73.4881 10.1094C75.4722 11.6894 76.3952 14.1904 75.6679 16.6126C75.5296 16.8103 75.5764 17.0272 75.8295 17.0867C77.6626 17.4886 79.1171 16.2574 80.4654 15.1026C80.6504 18.0671 79.5659 20.904 76.8566 22.2395C75.2872 22.9902 73.1776 22.635 71.8613 21.5696C70.5236 20.5701 69.7176 19.207 69.0137 17.8821C68.3906 17.1442 67.3635 17.3653 66.4299 17.4418C65.0221 17.6991 63.6165 18.6221 62.9466 19.981C62.7743 20.3851 62.6467 20.7998 62.5893 21.2485C62.8084 21.2251 63.0657 21.0295 63.306 20.938C64.55 20.4659 65.9578 20.8444 66.9148 21.6866C67.7335 22.5053 68.01 23.7983 67.5847 24.8934C67.1806 26.0482 66.0854 27.2136 64.9307 27.6283C64.7755 26.3906 64.078 25.9887 63.4676 25.9334C61.76 25.5612 61.0114 27.2135 59.8099 28.1811C58.6445 29.2975 56.5137 30.1971 56.7668 32.1493C56.8476 33.0021 57.2388 33.7974 58.0342 34.2929C58.3447 34.4652 58.6785 34.5928 59.0252 34.6843C56.8135 35.469 53.5939 35.722 51.7246 34.0165C51.2823 34.7352 51.916 35.9602 52.0861 36.2962C52.5816 37.2808 53.3025 38.1697 53.3982 39.3202C52.3838 38.3313 51.0334 37.9145 49.5916 38.2143C49.5916 38.2143 48.7155 38.3398 44.6814 40.711C43.6819 41.2958 42.8036 41.7466 42.8036 41.7466C42.8036 41.7466 42.4485 41.5445 42.2911 41.4659C41.0917 40.6471 39.8008 40.0496 38.5313 39.4031C37.9784 39.0097 37.8061 38.3399 37.8975 37.6955C38.0592 37.1086 38.6355 36.5769 39.2012 36.3472V36.1154L38.3697 34.6056C37.7126 34.512 37.0895 34.327 36.4345 34.2122C34.276 35.2606 31.1861 35.5966 28.8553 34.6843C29.6166 34.478 30.4715 33.9377 30.8394 33.1424C31.2307 32.2981 31.1733 31.052 30.5629 30.3269C29.3529 28.9658 27.8069 28.1683 26.6415 26.684C25.995 26.012 25.0275 25.71 24.0705 25.9652C23.2709 26.1885 22.9689 27.0817 23.0327 27.5943C21.4995 27.052 20.2065 25.423 20.1385 23.7855C20.1852 22.7243 20.702 21.7227 21.6462 21.1676C22.6967 20.602 24.2449 20.5127 25.2571 21.2485C25.2465 20.0959 24.5192 19.1176 23.6303 18.3202C22.399 17.4312 20.5872 16.9825 19.1113 17.6396C18.2096 19.1389 17.2888 20.8232 15.662 21.8035C14.3244 22.6563 12.2382 22.9094 10.8304 22.046C8.29122 20.5935 7.35768 17.9055 7.49803 15.0686C8.4231 15.8066 9.36728 16.6103 10.4561 16.9442C10.9665 17.0994 11.9554 17.2781 12.4104 16.8592C12.1553 16.3849 12.0255 15.2557 12.0319 14.8559C12.0532 13.0015 12.9081 11.2131 14.4732 10.0286C14.5562 11.7214 16.032 13.3949 17.5993 13.9138C18.2692 14.1435 19.0071 14.3073 19.745 14.2372C21.0358 12.8995 22.7541 12.1743 24.7042 12.5656C26.2141 12.8655 27.7261 14.1797 28.2216 15.6556C28.7511 17.0272 28.8681 18.6774 28.7405 20.2213C29.4911 19.4047 30.5523 19.0921 31.6347 19.3112C32.8809 19.5536 33.6316 20.904 33.8145 22.046C33.9655 23.037 33.8847 24.1215 33.7337 25.089C33.2275 24.3873 32.4769 23.9024 31.6007 23.9471C31.0372 24.0407 30.4609 24.1662 30.1249 24.7318C29.8357 25.2741 29.9866 26.0355 30.2865 26.5203C31.5539 28.0897 33.6891 28.3534 35.5562 27.9494C36.0304 27.8707 36.4111 27.5942 36.8704 27.4794C36.5939 28.0068 36.5025 28.8148 36.9406 29.2976C38.6823 31.0414 41.6467 30.8564 43.8839 30.3269C45.6596 29.8994 47.3205 29.1827 48.9112 28.3066C47.7352 29.9462 49.2003 31.573 49.5916 33.1063C50.1339 32.2748 50.7464 31.4093 51.0569 30.4417C51.2419 32.0218 52.3477 33.6592 53.9512 34.0973C54.6891 34.293 55.6354 34.3843 56.4074 34.1674C55.8077 33.3359 55.4632 32.2982 55.7396 31.203C55.8332 29.9228 57.343 29.1828 57.4004 27.9494C56.0394 28.8277 54.0213 29.1041 52.4392 28.5044C51.4503 28.0791 50.5614 27.0966 50.1467 26.1269C47.2524 28.3896 43.8371 29.5081 39.9625 29.2529C40.2963 28.3895 40.8854 27.6282 41.2299 26.7626L39.8008 26.7159L38.6142 28.9424C38.1506 28.7681 37.7019 28.3533 37.5764 27.8706C37.4701 27.2347 37.7126 26.6586 38.14 26.2098C37.8976 26.095 37.6104 26.0949 37.3446 26.0481C36.6769 25.8737 35.9836 25.2975 35.8794 24.583C35.8199 23.6515 36.2601 22.8731 37.1532 22.8752C37.1745 22.4818 37.0086 21.7439 37.183 21.4122C37.2872 20.8678 37.8741 20.6616 38.3356 20.534C38.4058 20.5574 38.4526 20.4999 38.4993 20.4531V19.1516L36.5769 18.6902L34.5311 13.4418C34.5311 13.4418 35.9943 12.4359 36.6642 11.8149C36.2261 11.4236 36.813 11.0663 36.9044 10.7069L37.6551 9.55436C37.5531 8.79304 37.6317 7.96363 37.3787 7.25761C38.1995 7.5851 38.9247 8.24018 39.837 8.20616L41.0236 8.05728V7.06408L40.0433 6.15187V0.80127H41.5425" fill="#155195"/>
<path d="M25.051 39.5167L20.1854 42.6895L15.5473 46.0242H15.4665L12.9656 43.1255C13.4016 42.7938 13.8056 42.3919 14.2799 42.1345L15.5813 43.6828C16.4469 43.0937 17.2784 42.411 18.1205 41.7794C17.8887 41.3052 17.4166 40.9245 17.2082 40.429L19.0307 39.2062L20.0238 40.4759C20.9467 39.8889 21.8909 39.3551 22.8011 38.7341L22.363 38.0196C22.9159 37.7665 23.4944 37.371 24.1068 37.1881" fill="#155195"/>
<path d="M65.5667 38.0193L65.1286 38.77L67.908 40.5095C68.2419 40.0949 68.5864 39.6674 68.933 39.2421L70.7194 40.4755V40.5903L69.8092 41.7791C70.6067 42.4617 71.4935 43.0934 72.3462 43.7271C72.8545 43.2677 73.282 42.7127 73.686 42.1811C74.1475 42.4129 74.5388 42.8191 74.9535 43.1274V43.2444L72.4632 46.0578L66.2812 41.7451L62.8659 39.5653L63.825 37.224C64.4247 37.4303 64.9776 37.7556 65.5667 38.0193Z" fill="#155195"/>
<path d="M34.69 48.4461L36.7418 45.1143L38.7213 48.4525" fill="#155195"/>
<path d="M53.1563 48.4455L49.1548 48.4795C49.731 47.3378 50.422 46.2534 51.0918 45.1477C51.8402 46.1832 52.476 47.3484 53.1563 48.4455Z" fill="#155195"/>
<path d="M37.7827 55.3766C37.3447 56.208 37.1937 57.1414 37.1023 58.1089C37.4489 58.2832 37.8741 58.1449 38.2101 58.0726L38.4163 57.9472L38.4525 59.0997C38.0953 58.8828 37.6318 58.8933 37.1832 58.904C37.2066 59.3994 37.3001 59.965 37.264 60.5306H36.1562C36.1349 59.9777 36.1689 59.4483 36.271 58.938C35.8457 58.8827 35.3503 58.87 35.0037 59.0997L34.9697 57.9472C35.361 58.1215 35.8691 58.2938 36.3071 58.1089C36.2604 57.1308 35.9839 56.242 35.6374 55.3766C36.0413 54.8472 36.5049 54.3262 36.7111 53.716C36.9067 54.3262 37.3681 54.8472 37.7827 55.3766Z" fill="#155195"/>
<path d="M46.8955 65.9629V76.228C49.2475 74.7181 51.3592 72.5617 52.9137 70.2416C53.792 68.8934 54.5873 67.4621 54.9808 65.9629H46.8955ZM40.9559 65.9629H32.826C34.1509 69.9417 37.2301 73.7845 40.9559 76.1811V65.9629ZM53.9876 44.1207H33.851V44.8693L35.9924 44.8715L33.6022 48.7482C33.8106 49.2778 34.1508 49.8646 34.6463 50.2687C35.4544 50.9364 36.6071 51.1321 37.6576 50.8556C38.6273 50.5324 39.4907 49.7137 39.7565 48.7206L37.5109 44.8693L42.6508 44.8715V46.2643L43.7694 46.2772L42.4211 48.0421L43.9203 49.6669L45.4303 48.0421L44.0437 46.2835L45.1538 46.2643L45.1878 44.8693L50.3384 44.8758C50.3384 44.8758 48.8094 47.4659 48.0842 48.7206C48.1991 49.1714 48.4755 49.5648 48.7647 49.9455C49.6047 50.9237 50.8977 51.1661 52.1311 50.8556C53.0307 50.5792 54.0238 49.6797 54.1854 48.7206L51.8589 44.8758L53.9876 44.8693V44.1207ZM53.3199 40.5567L55.4188 40.5907C56.1674 41.5242 56.8607 42.5045 57.7942 43.3233C56.7331 44.8799 56.2822 46.6791 55.0594 48.1677L56.9989 48.2357C57.0436 49.9922 57.2626 51.6638 58.1983 53.0354L46.8615 53.0801V61.327H57.2413C56.7203 68.8933 50.9998 76.296 43.8863 79.0414C36.8282 76.2535 31.1524 68.8466 30.6441 61.327H40.9899V53.0801L29.7339 53.0354C30.6335 51.651 30.7717 49.9327 30.8419 48.2017H32.743V48.0868C31.567 46.6684 31.129 44.9501 30.1741 43.4509C30.1039 43.4041 30.0571 43.2999 30.1252 43.2425C31.0843 42.4366 31.684 41.4562 32.4326 40.5907L38.4551 40.5567C39.8948 41.2031 41.3132 41.9048 42.6168 42.8852C44.6796 41.8496 46.7211 40.7289 48.718 39.5167C49.6877 39.0935 51.1869 38.7788 52.1311 39.4848C52.5586 39.7612 52.9839 40.1398 53.3199 40.5567Z" fill="#155195"/>
<path d="M73.4553 75.2362C73.3278 76.378 73.3278 77.7728 73.4553 78.9614H72.6239C72.9003 78.0407 72.7622 76.8968 72.7409 75.906C72.4177 76.6884 72.2094 77.5305 72.0244 78.3618H71.4248C71.3567 77.59 71.1249 76.8755 70.9187 76.1462L70.872 78.7169C70.9188 78.8104 70.9528 78.9018 70.9974 78.9954C70.7104 79.0762 70.3872 79.0762 70.0874 79.123L70.283 78.7169C70.3192 77.7048 70.4106 76.563 70.2022 75.5956L70.0874 75.4786C70.4807 75.3638 70.9294 75.3639 71.3568 75.3171C71.4376 75.9273 71.6438 76.5056 71.7841 77.0946C71.9542 76.4822 72.2455 75.906 72.3029 75.2362" fill="#155195"/>
<path d="M18.6729 76.0676L18.6899 78.9933L18.8345 79.2718C18.5113 79.3165 18.0839 79.2038 17.7267 79.1549L17.9585 78.7169C17.9691 77.6346 18.1541 76.378 17.8075 75.3978L18.8345 75.5956" fill="#155195"/>
<path d="M69.2453 76.068C69.073 77.2565 69.7279 78.8576 68.5394 79.5486C68.1715 79.6741 67.6421 79.8484 67.3083 79.5146L67.0659 79.1553L66.9957 76.6208L66.8341 76.3444C67.1127 76.1594 67.5039 76.068 67.8611 75.9872L67.6655 76.4592L67.6995 78.9256C68.0844 79.4125 68.516 78.9234 68.6116 78.7044C68.6223 78.6853 68.6563 76.1828 68.6563 76.1828L68.4607 75.8235C68.7478 75.6619 69.1177 75.6746 69.4515 75.596" fill="#155195"/>
<path d="M15.3393 75.676L15.3053 78.3614C15.6158 78.3954 15.9049 78.3613 16.1027 78.0849C16.4343 77.5555 16.4705 76.6902 16.2174 76.1012C16.0431 75.7568 15.6987 75.676 15.3393 75.676ZM17.0148 75.9524C17.3124 76.6817 17.3231 77.6342 16.8489 78.2934C16.2621 79.1672 15.2138 78.9163 14.2804 78.9631C14.8439 78.0425 14.5207 76.6902 14.5569 75.5952C14.5569 75.4102 14.3953 75.3082 14.3124 75.1572C15.3159 75.1785 16.4832 74.9722 17.0148 75.9524Z" fill="#155195"/>
<path d="M21.6822 76.3435L21.729 77.2556C21.4739 77.0026 21.1528 76.6093 20.7382 76.7836C20.1152 77.1748 20.264 77.9913 20.2981 78.6377C20.3789 78.963 20.5766 79.2947 20.8998 79.4329C21.1868 79.5499 21.4739 79.4222 21.6822 79.2372L21.729 80.1154C20.9104 80.1154 20.1258 79.9091 19.6984 79.1224C19.3306 78.4207 19.3646 77.313 19.826 76.6667C20.1492 76.2074 20.6446 76.0436 21.1762 76.1818C21.325 76.2754 21.4994 76.3329 21.6822 76.3435Z" fill="#155195"/>
<path d="M66.5586 77.0942V77.2559C66.2928 77.071 65.9696 77.1156 65.6826 77.2197L65.6018 77.3346C65.6698 78.3275 65.4402 79.4438 65.7974 80.3091L64.8173 80.7811C65.1064 79.8243 64.9214 78.6741 64.9682 77.6131C64.6322 77.6237 64.3091 78.0851 64.1029 78.3615C64.0625 78.0447 64.1007 77.713 64.1007 77.4749C64.8491 77.1581 65.5975 76.835 66.363 76.4586C66.5458 76.5543 66.4884 76.888 66.5586 77.0942Z" fill="#155195"/>
<path d="M24.4614 78.6848C24.2998 78.3148 23.9086 77.9916 23.5492 77.8556C23.528 78.891 23.3897 80.0924 23.6661 81.0598L22.72 80.6218C23.0092 79.6735 22.8242 78.536 22.871 77.4984C22.6732 77.3581 22.3522 77.256 22.1204 77.4176L22.0396 77.4984L22.1204 76.6671L24.4167 77.728" fill="#155195"/>
<path d="M63.6982 78.6386C63.5706 78.4196 63.2602 78.4771 63.0667 78.5239C62.5904 78.7535 62.4182 79.2383 62.3948 79.7103C62.3714 80.2397 62.4183 80.8159 62.9158 81.0605C63.307 81.1413 63.5706 80.8159 63.779 80.5395V81.3836C63.3984 81.5431 63.0178 81.8195 62.5586 81.66C62.0036 81.4283 61.808 80.8499 61.6804 80.3418C61.5996 79.3531 62.0036 78.4303 62.869 77.9711C63.122 77.8307 63.4792 77.9349 63.6982 77.7287" fill="#155195"/>
<path d="M25.8105 78.4898L25.6488 78.8002L25.6829 81.3368C25.7764 81.577 26.0294 81.7407 26.2484 81.8088C26.4334 81.8088 26.6418 81.6961 26.6758 81.4984C26.629 80.599 26.814 79.6082 26.5269 78.8002L27.3923 79.2382C27.1372 79.774 27.2605 80.4756 27.252 81.1177C27.2499 82.9739 25.8338 82.3743 25.4873 82.0873C25.1875 81.7875 24.9344 81.4622 24.9812 81.0264C24.911 79.9888 25.1428 78.8342 24.7729 77.9348C25.1067 78.1325 25.4766 78.2581 25.8105 78.4898Z" fill="#155195"/>
<path d="M29.3398 79.9887C29.3738 80.6563 29.546 81.2686 29.697 81.8915C29.9372 81.3706 30.1817 80.8667 30.2497 80.2629C30.5836 80.3203 31.0344 80.3118 31.3916 80.4245L31.2427 80.9795L31.2767 83.8158L31.3576 84.1815C31.1024 84.2772 30.7473 84.1156 30.4794 84.0327C30.4113 83.9646 30.607 83.8393 30.607 83.7138C30.6644 82.8591 30.6644 81.9256 30.607 81.0602C30.3306 81.798 29.9627 82.5018 29.765 83.2864L29.293 83.1248C29.2356 82.2254 28.9124 81.3706 28.704 80.5074C28.6594 81.4727 28.6126 82.5359 28.7402 83.4821C28.5254 83.3821 28.3107 83.3205 28.1321 83.2439C28.0641 83.212 28.0045 83.1886 28.0045 83.1886C28.0045 83.1886 28.0173 83.0993 28.0258 82.9972C28.232 82.0064 28.1406 80.8412 28.1045 79.7909L27.9896 79.4805" fill="#155195"/>
<path d="M60.5265 81.3359L60.1693 80.0687L59.9397 81.6144L60.5265 81.3359ZM60.6882 79.2394C60.8264 80.2642 61.1729 81.1997 61.5195 82.131L61.7151 82.3288C61.4026 82.4776 61.1155 82.6753 60.769 82.7689C60.8625 82.4776 60.7817 82.1566 60.6882 81.8908C60.3884 81.9482 60.0205 82.0758 59.742 82.2948C59.6739 82.5967 59.6867 82.9624 59.7781 83.2388C59.4422 83.343 59.1424 83.5174 58.7852 83.562C59.304 82.4777 59.4656 81.2445 59.6612 80.0347L59.6166 79.6753C59.9738 79.5265 60.3203 79.3415 60.6882 79.2394Z" fill="#155195"/>
<path d="M57.3195 80.7494L57.3535 82.0529C57.5278 82.0061 57.7234 82.0061 57.8404 81.8105C57.9892 81.5681 58.0339 81.2322 57.9552 80.9451C57.9085 80.6326 57.5172 80.5985 57.3195 80.7494ZM58.7036 80.6665C58.8333 81.0705 58.8418 81.6382 58.5548 81.972C58.2422 82.3973 57.7235 82.4654 57.2855 82.6504C57.2748 83.1118 57.2621 83.5624 57.4364 83.9558C57.194 84.1514 56.7326 84.0132 56.4094 84.1152C56.8368 83.1244 56.6051 81.8211 56.6051 80.7027L56.4434 80.3901C57.228 80.4241 58.2189 79.7437 58.7036 80.6665Z" fill="#155195"/>
<path d="M36.1099 81.3829V86.8036C36.5947 87.1396 37.1583 87.2864 37.7027 87.482C40.8139 88.2348 44.3333 88.3942 47.6423 87.9562C49.0841 87.7137 50.5621 87.5755 51.7722 86.7696L51.7254 81.4148C50.6876 81.8316 49.5584 82.0634 48.4398 82.2952C44.378 82.812 39.7549 82.8119 36.1099 81.3829ZM78.7224 75.0393C77.942 76.7597 78.2184 79.1351 79.3136 80.6216C80.2705 80.8066 81.2977 80.9321 82.3334 80.8151V75.3158C81.0531 75.3987 79.9005 75.1903 78.7224 75.0393ZM9.23831 74.9947C8.08357 75.1457 6.96712 75.3626 5.71031 75.2711V80.7811C6.72257 80.8981 7.73905 80.7705 8.68538 80.5876C9.62958 79.1904 9.97625 77.3126 9.51478 75.5943L9.23831 74.9947ZM65.646 75.8708L60.2126 78.4887C58.6113 79.1671 56.8696 79.6179 54.9791 79.4797V85.0278C56.5697 85.1873 58.0222 84.8067 59.3832 84.3112L64.7337 81.7423C66.8348 80.7811 69.072 80.1835 71.4707 79.9517C72.2895 79.7901 73.3272 80.1579 74.0078 79.6284C74.6415 79.2818 74.9073 78.6375 75.0349 78.0038C75.1157 76.8639 75.2539 75.5008 74.8712 74.4417C71.5494 74.0845 68.4488 74.7395 65.646 75.8708ZM13.0896 74.4417C12.6855 75.5135 12.8238 76.9448 12.9641 78.0846C13.079 78.8247 13.6786 79.6412 14.4272 79.8369C17.6575 79.8858 20.6432 80.4727 23.3546 81.7742C26.4211 83.1118 29.2133 85.3851 32.9029 84.9811V79.4797C31.1038 79.5839 29.3983 79.2266 27.8629 78.5673C23.3206 76.2749 18.7888 73.7272 13.0896 74.4417ZM29.5728 48.0083C29.7769 49.9775 29.2473 51.7447 28.0735 53.1972C28.2904 53.531 28.5775 53.8288 28.8561 54.1542C29.3984 54.118 30.0087 54.2583 30.4021 53.8648C30.8423 53.6352 31.1145 53.816 31.3889 54.1605C31.676 54.2435 31.8695 54.2349 32.2693 54.0733C32.2799 54.3242 32.1077 54.5348 31.912 54.6602C31.7185 54.7389 31.6526 54.756 31.4527 54.7581C31.2719 55.0707 30.955 55.4216 30.4808 55.2132C30.2767 54.9792 29.9385 55.0642 29.6982 55.1004L29.6514 55.1323C30.2277 55.5959 30.736 56.2062 31.4399 56.3678C31.7057 56.2296 32.0609 56.2296 32.3501 56.3338C32.7988 56.4359 32.5925 57.0271 32.9838 57.1632L33.492 57.1207C33.2134 57.6374 32.5925 57.4864 32.1884 57.7969C31.4058 57.9351 31.0932 57.176 30.4467 57.0037L29.6174 56.3678C29.6748 57.1313 30.0534 57.8671 30.5276 58.5114C30.77 58.6858 31.1039 58.6285 31.3123 58.8688C31.6355 59.0304 31.3123 59.6322 31.8311 59.5386H32.3862C32.1076 60.1064 31.4165 59.8491 31.0358 60.2552C30.6658 60.3594 30.2851 60.2425 30.0087 60.0128C29.8003 59.7342 29.7662 59.377 29.7322 59.0197C28.9475 58.1202 28.5435 57.059 28.2223 55.9744C28.099 56.1148 27.9821 56.287 28.0629 56.4061C28.1799 56.5805 28.3797 57.0101 28.0586 57.3185C27.9523 57.478 28.0586 57.8097 28.1522 57.9926C27.8545 57.882 27.7247 57.7502 27.4802 57.5163C27.242 57.4504 26.6954 57.0909 27.2292 56.3338C27.31 55.7809 27.5653 55.3195 27.7481 54.8218C27.6907 54.5241 27.427 54.303 27.1952 54.0733C25.0963 55.8958 22.6273 56.842 20.2179 57.9138C19.6182 58.2456 18.9483 58.7901 18.8335 59.494C18.8675 59.8406 19.0398 60.1511 19.3524 60.3361C21.3492 60.9805 23.1823 58.9857 25.0963 60.2552C26.5827 61.1761 25.9384 63.3686 27.7949 63.8641C26.906 64.1406 25.8916 64.7765 25.5684 65.7228C25.3153 66.8286 25.2941 68.2342 26.0426 69.1359C27.5419 70.8308 30.7934 69.1933 31.4739 71.9025C31.51 72.4108 31.4845 72.8957 31.0358 73.2189C31.0826 73.8994 30.7573 74.5332 30.1235 74.8458L29.6982 75.0393C29.8003 74.6948 30.0087 74.2908 29.8131 73.9207C29.6876 73.6081 29.4218 73.3891 29.1325 73.2189C29.0645 73.657 28.9943 74.1078 28.7412 74.4885C28.418 74.9351 27.9672 75.0754 27.4717 75.1201C27.7035 74.7522 27.7034 74.2439 27.6333 73.8059C27.5525 73.5868 27.3909 73.3317 27.1612 73.2509C26.8486 73.9909 26.1553 74.6948 25.3387 74.7629C25.5918 74.4736 25.6726 74.0717 25.5684 73.6932C25.4982 72.9064 24.5434 73.1722 24.2648 72.5023C23.7119 71.4646 22.6613 70.7946 21.4875 70.8775C22.0978 69.8504 23.0888 68.8828 22.6379 67.5091C22.4891 66.8158 21.8107 66.148 21.1281 65.997L19.9861 65.9631C19.7671 64.9274 19.0632 63.7492 17.9573 63.4238C17.8297 63.4621 17.7149 63.3133 17.6001 63.4238C18.742 64.9146 18.8229 67.3474 18.0041 69.0061C17.2534 71.1051 14.9121 71.5347 13.6786 73.2849C19.2588 72.9638 23.7353 75.3051 28.2223 77.6124C29.1793 77.9909 30.1575 78.3142 31.2442 78.4078C31.3484 78.0165 31.1379 77.4509 31.6355 77.2552C33.4921 76.6662 35.4187 77.3254 36.8265 78.5227C37.5751 79.0054 37.2072 79.9517 37.2986 80.7023C38.0472 81.083 38.9361 81.1043 39.7548 81.2999C43.1106 81.7742 46.7428 81.6593 49.9497 80.9448C50.1581 80.8853 50.375 80.864 50.5366 80.7023C50.6196 80.0559 50.341 79.2605 50.7812 78.7629C52.257 77.404 54.2858 76.6789 56.2912 77.3019C56.708 77.5316 56.5804 78.0038 56.6038 78.4078C59.6597 78.1654 62.1052 76.2174 64.8507 75.1201C67.7237 73.8994 70.7775 73.1595 74.2396 73.3657L74.2842 73.3316C72.9572 71.5112 70.2713 70.8903 69.7291 68.534C69.2102 66.8859 69.2336 64.8104 70.3182 63.4238C69.6355 63.4621 68.9444 63.8768 68.5403 64.5318C68.2065 64.972 68.1022 65.4909 67.9406 65.997C67.0411 65.9056 66.0947 66.0439 65.5673 66.8754C65.0803 67.6814 65.0017 68.802 65.5673 69.608L66.4286 70.9115C65.1505 70.7754 64.1234 71.6134 63.5003 72.6639C63.1324 73.2275 62.0946 73.1019 62.2775 74.0015C62.3009 74.2673 62.3349 74.5332 62.5561 74.7182C62.0712 74.7395 61.5396 74.4417 61.1611 74.0015C60.8952 73.8058 60.9399 73.321 60.606 73.2849C60.0871 73.6443 60.1913 74.3587 60.2955 74.8819L60.4104 75.0754C60.0872 75.1562 59.7171 74.9606 59.4173 74.799C58.9558 74.4055 58.8303 73.8633 58.7835 73.2849C58.5411 73.2274 58.2987 73.5294 58.1498 73.7272C57.9882 74.0143 57.9542 74.3928 58.0328 74.7182L58.1966 75.0393C57.5969 74.8671 56.9631 74.3716 56.8462 73.7272C56.8462 73.5528 56.7781 73.4018 56.8015 73.2189C56.3741 72.8723 56.3039 72.3406 56.4081 71.8239C57.3523 68.7318 62.118 71.3964 62.4285 67.7047C62.6475 66.4266 62.3817 65.2038 61.2865 64.4531C60.9165 64.1979 60.5018 64.0618 60.0999 63.9002C61.9096 63.2877 61.3099 60.9337 63.0643 60.0937C65.0697 59.1473 66.754 61.108 68.6913 60.2893C69.0485 60.0468 69.1761 59.6534 69.0485 59.2643C67.964 57.4184 65.7842 57.3716 64.1808 56.3678C62.9941 55.6767 61.748 55.1004 60.6868 54.1094C60.4444 54.2582 60.2722 54.5114 60.1339 54.7389C60.2254 55.3535 60.572 55.849 60.6868 56.4487C61.0419 56.8953 60.825 57.2547 60.4869 57.4078C60.2891 57.6077 60.0085 57.9097 59.7405 57.9926C59.7745 57.8097 59.9021 57.6587 59.8575 57.4418C59.5916 57.2546 59.5916 56.9208 59.6596 56.6443C59.8574 56.4721 59.7065 56.2637 59.6959 56.0553L59.6129 55.9744C59.3365 57.1313 58.8303 58.1797 58.069 59.1473C58.103 59.4939 58.069 59.8278 57.7925 60.0596C57.5395 60.3255 57.112 60.3254 56.7654 60.2552C56.3975 59.864 55.7276 60.0809 55.4512 59.5386C55.751 59.494 56.1083 59.6428 56.3273 59.4238C56.3146 59.1133 56.5229 58.824 56.8015 58.7113C56.927 58.5816 57.1333 58.6752 57.2843 58.5816C57.7798 57.9245 58.103 57.1972 58.2647 56.4018H58.1498C57.5841 56.9782 56.8824 57.1781 56.2912 57.6906C55.9233 57.9118 55.5341 57.8331 55.2512 57.563C55.1236 57.6013 54.5261 57.5077 54.3432 57.1207C54.5622 57.1526 54.8961 57.2462 55.0577 57.0356C55.0343 56.7613 55.2193 56.5316 55.4171 56.3678C55.7361 56.1871 56.0402 56.2382 56.2827 56.3998C56.506 56.4551 56.725 56.4083 56.927 56.1702C57.3651 55.8724 57.8159 55.5045 58.1966 55.1323C57.5841 54.7091 57.1567 55.6427 56.6038 55.1004L56.3613 54.7878C56.0508 54.7538 55.7404 54.6049 55.5766 54.3029C55.5532 54.2455 55.5192 54.1902 55.532 54.1094C55.8084 54.1328 56.0636 54.2221 56.3613 54.1903C56.5336 53.9457 56.7782 53.8649 57.0418 53.8288C57.3651 53.8415 57.6415 53.9458 57.8733 54.1542C58.3348 54.0287 58.8643 54.4306 59.1876 53.9457L59.7745 53.2312C58.6219 51.7787 58.0456 49.9562 58.3115 48.0423C59.2918 48.0529 60.2594 48.053 61.1611 47.8914C60.9995 49.2524 61.0101 50.8898 60.8485 52.2508C60.8485 52.2508 63.1175 51.6192 65.7949 50.4644C66.0267 52.4953 66.9836 54.2136 67.7449 56.0127C68.8061 54.9601 70.0523 54.1647 70.9965 53.0014C73.0402 55.3534 75.3092 57.6693 76.2215 60.5317C76.4512 62.3202 76.4852 64.4404 78.4013 65.2825C78.7139 65.4441 79.118 65.4803 79.4752 65.4101C79.7155 65.3165 79.8771 65.0741 79.9473 64.8465C80.1196 63.3345 79.0478 62.2373 78.6097 60.923C77.9058 59.7258 77.674 57.7289 78.6416 56.5657C79.8091 55.043 82.1271 56.3211 83.3158 54.8581C83.5902 54.5816 83.7411 54.2349 83.9134 53.9117C84.0877 54.6496 83.7879 55.2833 83.7178 55.9744C84.0984 55.8596 84.5152 55.6065 84.9044 55.4215C85.2765 55.1706 85.6551 54.7878 85.8975 54.4305C85.1596 56.2296 85.3786 59.0198 82.8863 59.494C82.1845 59.5748 81.4338 59.5387 80.7873 59.377C80.5003 59.377 80.2237 59.4939 80.0728 59.7342V60.2085C80.732 62.2734 82.8288 64.3256 81.4572 66.6329C80.8107 67.4155 79.8091 67.6111 78.8394 67.3815C78.0312 67.1646 77.3061 66.6457 76.7064 65.997L76.5788 66.3905C76.3492 69.0657 76.6256 72.1237 79.118 73.4975C79.3349 73.5294 79.5199 73.6336 79.7496 73.6443L79.3944 74.0483L79.4752 74.1291C80.6959 74.3715 82.0335 74.3227 83.2797 74.1632L83.3158 81.7423C81.4104 82.0272 79.4391 81.7423 77.6506 81.3829C76.3024 82.1442 75.8175 83.7136 74.4012 84.3112C74.1694 84.5196 74.18 84.8663 74.2396 85.1406C74.3076 85.349 74.4246 85.534 74.5947 85.6935C73.961 85.6255 73.3273 85.1981 73.0487 84.5856C72.97 84.3921 72.8998 84.1964 72.819 83.988C72.3916 84.173 72.1959 84.6579 72.1853 85.1066L72.2193 85.5C71.5154 85.2448 71.0901 84.4494 71.0327 83.7136C70.6159 83.7817 70.4096 84.2985 70.282 84.6706L70.2373 85.0278C69.6121 84.2325 69.4058 82.6291 69.9609 81.6126L70.282 81.1745C69.3357 81.1745 68.4489 81.519 67.5472 81.7423C62.958 82.9374 59.2556 86.997 53.9859 85.8912L53.9519 83.8731C53.5479 83.8498 53.1332 84.0327 52.7632 84.2326V87.2416C51.1023 88.7196 48.7737 88.7409 46.6173 89.1087C42.7299 89.3044 38.6256 89.3279 35.3954 87.5649L35.1189 87.2863V84.2666C34.8297 84.0114 34.3916 83.9646 34.0109 83.8391H33.9301L33.8939 85.8572L33.8153 85.9381C31.6929 86.306 29.628 85.8573 27.8289 85.1066L22.2828 82.4079C20.8176 81.8103 19.2588 81.3234 17.6809 81.1405C18.4634 82.1188 18.4082 83.7456 17.8765 84.8301L17.7277 85.0278C17.6213 84.5068 17.5065 83.9561 17.0131 83.6307C16.8281 84.0326 16.758 84.5537 16.4581 84.9471C16.2965 85.198 16.0307 85.3597 15.7776 85.466C15.767 84.9578 15.7435 84.1964 15.1417 83.9561C14.9695 84.7025 14.3357 85.466 13.5638 85.6616H13.366C13.702 85.3362 13.8743 84.8429 13.6786 84.3921C12.2475 83.7817 11.6499 82.0975 10.3101 81.3362C8.5344 81.6955 6.58646 81.9933 4.68317 81.6955V74.1632C5.92935 74.3588 7.36904 74.3227 8.56843 74.0483L8.60458 74.0015L8.21331 73.6081C9.59559 73.4975 10.6334 72.0196 11.0268 70.8308C11.5329 69.4017 11.5669 67.5665 11.3011 65.997C10.9226 66.2522 10.6121 66.6223 10.2293 66.8754C9.34039 67.4857 7.98151 67.6813 7.02242 67.071C6.33128 66.5415 6.03355 65.7929 6.06758 64.9274C6.22707 63.1262 7.35839 61.7184 7.9347 60.0937C7.99212 59.8066 7.8667 59.5535 7.61151 59.4238C6.20371 59.4812 4.54494 59.7938 3.52843 58.5476C2.52681 57.3823 2.7565 55.7001 2.11001 54.3838C2.6289 55.2131 3.47102 55.5959 4.2451 55.9744C4.22171 55.3067 3.92189 54.5709 4.08351 53.8648C4.3472 54.5815 5.02765 55.3535 5.78897 55.4917C7.09256 55.7682 8.67265 55.4577 9.51478 56.7613C11.1182 59.6088 8.30478 61.8013 8.01556 64.4531C8.00493 64.7317 8.08362 64.9614 8.24524 65.1677C8.47703 65.4207 8.83427 65.5037 9.15751 65.4101C12.2028 64.5914 11.1055 61.1527 12.2474 59.1006C13.4468 56.9081 15.1672 54.9388 16.8855 52.9547C17.8872 54.0371 19.0631 55.0068 20.1839 55.9744C20.909 54.1775 21.9362 52.506 22.0851 50.4644C23.6545 51.1768 25.36 51.5937 26.9528 52.2508C26.9294 50.8196 26.8954 49.2864 26.6763 47.8914C27.5759 48.0976 28.6137 47.9615 29.5728 48.0083Z" fill="#155195"/>
<path d="M38.5333 83.0784C38.5907 83.6992 38.7055 84.2988 38.8905 84.8665C39.0649 84.3477 39.1903 83.8056 39.2477 83.2379C39.6177 83.2974 40.1131 83.2867 40.517 83.3994L40.3555 83.8396C40.3895 84.9219 40.2513 86.0785 40.4724 87.0799L39.6049 86.9651C39.8133 86.1231 39.7091 85.0153 39.6879 84.0692C39.4561 84.7836 39.1563 85.4767 39.169 86.2953C39.0074 86.3166 38.7523 86.306 38.5673 86.2486C38.5205 85.396 38.2335 84.6454 38.0592 83.8396C37.9678 84.7156 37.8763 85.7893 38.1421 86.6037L37.3001 86.4122C37.6573 85.5341 37.4723 84.3817 37.4617 83.3994C37.4149 83.2059 37.4149 82.9742 37.3001 82.8019" fill="#155195"/>
<path d="M50.5024 82.8477C50.226 83.8279 50.3642 85.0398 50.3876 86.0987C50.445 86.1816 50.411 86.3177 50.4578 86.4113C50.2026 86.5495 49.9262 86.6282 49.6264 86.6537C49.7178 85.7182 49.7986 84.7507 49.7072 83.7918C49.5116 84.6104 49.131 85.3609 49.1183 86.2475C48.9248 86.2837 48.761 86.3644 48.5526 86.3751C48.4974 85.5437 48.255 84.7826 47.9999 84.0342C47.9892 84.9825 47.851 86.0859 48.1274 86.9662C47.8383 87.0789 47.5172 87.0683 47.2153 87.1236C47.5746 86.1562 47.3428 84.9356 47.4109 83.8385L47.2153 83.4005C47.6192 83.3431 48.0573 83.358 48.4378 83.239C48.5527 83.424 48.542 83.7131 48.6016 83.9554L48.8758 84.9485C49.0034 84.334 49.2585 83.7811 49.2692 83.1241C49.6965 83.0561 50.075 82.8945 50.5024 82.8477Z" fill="#155195"/>
<path d="M43.249 84.2325C42.9365 83.988 42.4772 83.8648 42.0945 84.0349V85.0277C42.3602 85.0639 42.7536 85.1553 42.9726 84.9491L43.0066 85.6953C42.743 85.5677 42.4772 85.4423 42.1413 85.4997L42.0945 86.7691C42.407 86.8839 42.8578 86.8839 43.1682 86.7691L43.4106 86.6543V87.3241C42.6388 87.356 41.9117 87.2645 41.1845 87.1603C41.3801 86.8244 41.463 86.4459 41.4268 86.0186C41.3588 85.166 41.5885 84.1986 41.2291 83.482L43.249 83.5967" fill="#155195"/>
<path d="M46.6171 83.4816C46.2365 84.415 46.5129 85.6163 46.3747 86.6539C46.2812 86.9176 46.0516 87.16 45.7858 87.2876C44.4633 87.6448 44.1252 86.7327 44.1252 86.7327C43.9998 85.6951 44.2294 84.5193 43.9189 83.5625H44.9098C44.6334 84.4385 44.7716 85.5335 44.795 86.4903C44.8758 86.6987 45.0948 86.7432 45.2691 86.8028C45.52 86.8134 45.7411 86.6774 45.8666 86.4456C45.9134 85.5675 45.9601 84.5766 45.8198 83.7134L45.705 83.5625C45.9495 83.471 46.3407 83.5624 46.6171 83.4816Z" fill="#155195"/>
</svg>
