<svg width="22" height="37" viewBox="0 0 22 37" fill="none" xmlns="http://www.w3.org/2000/svg">
<path d="M21.836 24.607C21.836 18.563 16.038 17.422 11.804 16.59C6.85302 15.616 4.68301 14.898 4.68301 12.098C4.68301 9.68502 7.24602 7.99902 10.917 7.99902C14.575 7.99902 17.333 9.88803 17.333 12.392H21.333C21.333 8.34703 18.126 5.152 13.548 4.258V0H9.548V4.07001C4.338 4.55301 0.683014 7.77702 0.683014 12.098C0.683014 18.48 6.66401 19.656 11.032 20.515C16.137 21.519 17.836 22.25 17.836 24.607C17.836 26.988 14.668 29 10.918 29C7.168 29 4 26.988 4 24.607H0C0 28.955 4.09701 32.426 9.54901 32.93V37H13.549V32.754C18.358 31.87 21.836 28.612 21.836 24.607Z" fill="#DDDDDD"/>
</svg>
