<svg width="37" height="36" viewBox="0 0 37 36" fill="none" xmlns="http://www.w3.org/2000/svg">
<g clip-path="url(#clip1)">
<path fill-rule="evenodd" clip-rule="evenodd" d="M18.998 36C28.9392 36 36.998 27.9411 36.998 18C36.998 8.05887 28.9392 0 18.998 0C9.05692 0 0.998047 8.05887 0.998047 18C0.998047 27.9411 9.05692 36 18.998 36ZM18.5553 27.4839L22.2164 23.8235C24.1731 21.8674 24.23 18.7382 22.4001 16.7058H18.7591L22.2164 20.1637L14.8962 27.4832L11.2358 23.8241L14.8962 20.1637L13.0663 18.3338L11.2358 20.1637C9.21437 22.1851 9.21437 25.4625 11.2358 27.4845C13.2572 29.5053 16.5352 29.5053 18.5553 27.4839ZM19.2373 19.294H15.597C13.7671 17.2603 13.8234 14.1318 15.7801 12.1764L19.4398 8.51663C21.4613 6.49457 24.7386 6.49456 26.76 8.51598C28.7821 10.5374 28.7821 13.8141 26.7607 15.8362L24.9301 17.666L23.1003 15.8362L26.76 12.1764L23.0996 8.51534L15.7794 15.8362L19.2373 19.294Z" fill="#EC231A"/>
</g>
<defs>
<clipPath id="clip1">
<path d="M0.998047 0H36.998V36H0.998047V0Z" fill="white"/>
</clipPath>
</defs>
</svg>
